<svg xmlns="http://www.w3.org/2000/svg" width="300" height="300" viewBox="0 0 300 300">
  <path fill="#4D4D4D" d="M24 159.625h252V208H24z"/>
  <path fill="#808080" d="M276 160l-34-48H58l-34 48z"/>
  <path fill="#727272" d="M242 112l34 48H24s195.333-20 218-48z"/>
  <ellipse transform="rotate(-88.086 154.99 135.786)" opacity=".7" fill="#353535" cx="154.979" cy="135.781" rx="18.498" ry="76.992"/>
  <path fill="#A8000D" d="M78 132v-23.74c0 9.433 31.517 17.152 71 17.152 39.484 0 71-7.374 71-16.806v23.081c0 9.432-31.379 16.979-70.863 16.979-39.483 0-71.137-7.422-71.137-16.854"/>
  <path opacity=".1" fill="#282828" d="M102.241 144.141c73.532 7.146 113.352-30.011 113.352-30.011 3.306-1.287 4.201-2.487 4.407-3.934.125-.87 0 21.039 0 21.039 0 9.684-30.879 17.432-70.363 17.432-18.588 0-35.289-1.748-47.892-4.592"/>
  <ellipse fill="#D30010" cx="149" cy="109.203" rx="71" ry="17.078"/>
</svg>
