<svg xmlns="http://www.w3.org/2000/svg" width="300" height="300" viewBox="0 0 300 300">
  <path fill="#7DCAF9" d="M221.639 152.223a6.323 6.323 0 0 1-.125 1.635c-.463 2.262-2.15 3.847-4.197 3.947-.073.008-.146.008-.219.008-2.218 0-4.146-1.744-4.572-4.352a6.685 6.685 0 0 1-.088-.756c-.293-5.604 3.963-12.442 3.963-12.442s5.052 6.347 5.238 11.96z"/>
  <path fill="#66A4C4" d="M217.316 157.805c-.074.008-.147.008-.221.008-2.423 0-4.506-2.09-4.66-5.106-.035-.711 0-1.442.09-2.177.425 2.604 2.354 4.35 4.57 4.35.072 0 .146 0 .221-.007 2.047-.104 3.733-1.688 4.195-3.948.065.434.11.866.125 1.299.164 3.101-1.804 5.45-4.32 5.581z"/>
  <ellipse transform="rotate(-85.182 214.943 152.067)" fill="#B6E4FC" cx="214.953" cy="152.072" rx="2.534" ry="1.397"/>
  <path fill="#7DCAF9" d="M198.201 210.068a7.292 7.292 0 0 1-.131 1.801c-.479 2.486-2.225 4.23-4.346 4.345-.074.007-.149.007-.227.007-2.294 0-4.291-1.922-4.732-4.785a8.027 8.027 0 0 1-.091-.834c-.304-6.166 4.103-13.692 4.103-13.692s5.237 6.983 5.424 13.158zM220.191 191.791c.022.708-.012 1.382-.096 2.001-.363 2.771-1.684 4.708-3.281 4.834-.059.01-.115.01-.174.01-1.731 0-3.24-2.14-3.572-5.325a11.465 11.465 0 0 1-.068-.928c-.229-6.861 3.1-15.234 3.1-15.234s3.95 7.77 4.091 14.642zM114.805 227.359c.021.709-.012 1.382-.098 2-.362 2.771-1.681 4.709-3.28 4.834-.058.01-.116.01-.173.01-1.732 0-3.241-2.139-3.574-5.325a12.412 12.412 0 0 1-.068-.928c-.229-6.861 3.098-15.233 3.098-15.233s3.952 7.769 4.095 14.642zM142.997 238.886c.015.503-.007.979-.069 1.417-.255 1.959-1.189 3.33-2.321 3.422-.041.004-.082.004-.122.004-1.226 0-2.294-1.514-2.529-3.769a9.073 9.073 0 0 1-.049-.655c-.161-4.854 2.193-10.779 2.193-10.779s2.796 5.497 2.897 10.36zM103.477 130.864c.015.501-.008.978-.069 1.417-.256 1.959-1.19 3.331-2.322 3.42-.041.006-.081.006-.122.006-1.226 0-2.293-1.513-2.528-3.768a8.532 8.532 0 0 1-.048-.656c-.163-4.855 2.192-10.78 2.192-10.78s2.795 5.498 2.897 10.361zM237.295 147.98a9.776 9.776 0 0 1-.49 2.132c-1.007 2.89-3.256 4.667-5.593 4.427-.087-.004-.169-.018-.252-.031-2.507-.406-4.317-3.063-4.242-6.569.001-.327.023-.669.062-1.011.867-7.436 7.146-15.659 7.146-15.659s4.363 9.286 3.369 16.711zM255.889 173.348a7.748 7.748 0 0 1-.154 2.004c-.565 2.768-2.631 4.707-5.137 4.832-.093.008-.183.008-.271.008-2.713 0-5.075-2.137-5.596-5.325a7.214 7.214 0 0 1-.107-.927c-.357-6.86 4.852-15.233 4.852-15.233s6.186 7.768 6.413 14.641z"/>
  <path fill="#66A4C4" d="M250.598 180.184c-.093.008-.183.008-.271.008-2.965 0-5.516-2.558-5.703-6.252-.046-.869 0-1.768.107-2.666.521 3.188 2.883 5.326 5.596 5.326.089 0 .179 0 .271-.01 2.506-.125 4.57-2.064 5.137-4.832.082.531.136 1.061.154 1.59.197 3.798-2.212 6.673-5.291 6.836z"/>
  <ellipse transform="rotate(-85.21 247.685 173.172)" fill="#B6E4FC" cx="247.691" cy="173.169" rx="3.104" ry="1.712"/>
  <path fill="#7DCAF9" d="M239.248 196.16a7.53 7.53 0 0 1 .082 2.006c-.239 2.813-2.064 4.982-4.538 5.398-.089.021-.179.029-.267.041-2.695.315-5.291-1.53-6.182-4.639a7.534 7.534 0 0 1-.214-.906c-1.159-6.773 3.04-15.695 3.04-15.695s7.054 6.994 8.079 13.795z"/>
  <path fill="#66A4C4" d="M234.792 203.564c-.089.021-.179.029-.267.041-2.944.346-5.777-1.898-6.396-5.545a15.864 15.864 0 0 1-.207-2.662c.894 3.107 3.487 4.955 6.181 4.64.09-.011.18-.022.269-.041 2.476-.417 4.3-2.587 4.537-5.399.144.517.258 1.037.339 1.563.639 3.748-1.415 6.884-4.456 7.403z"/>
  <ellipse transform="scale(-1) rotate(88.092 203.602 -238.93)" fill="#B6E4FC" cx="231.082" cy="196.922" rx="3.105" ry="1.71"/>
  <path fill="#7DCAF9" d="M183.766 188.35c.021.668-.009 1.305-.078 1.891-.299 2.613-1.385 4.447-2.701 4.566-.049.008-.096.008-.145.008-1.426 0-2.669-2.021-2.943-5.032-.027-.28-.045-.576-.056-.875-.19-6.482 2.552-14.394 2.552-14.394s3.251 7.341 3.371 13.836z"/>
  <path fill="#66A4C4" d="M180.984 194.807c-.047.008-.096.008-.144.008-1.56 0-2.901-2.418-2.999-5.907-.023-.822 0-1.671.057-2.519.273 3.012 1.518 5.031 2.942 5.031.048 0 .097 0 .144-.009 1.317-.119 2.404-1.951 2.701-4.565.043.5.07 1.002.08 1.504.106 3.588-1.16 6.302-2.781 6.457z"/>
  <path fill="#7DCAF9" d="M191.67 238.407c.02.669-.008 1.306-.08 1.891-.296 2.614-1.384 4.448-2.699 4.568-.049.008-.097.008-.145.008-1.428 0-2.669-2.021-2.943-5.034a14.063 14.063 0 0 1-.056-.874c-.188-6.483 2.552-14.393 2.552-14.393s3.254 7.34 3.371 13.834z"/>
  <path fill="#66A4C4" d="M188.891 244.866c-.049.008-.097.008-.145.008-1.561 0-2.9-2.42-2.999-5.908-.024-.821 0-1.672.056-2.519.274 3.012 1.518 5.031 2.943 5.031.048 0 .096 0 .145-.008 1.315-.121 2.403-1.953 2.699-4.566.044.5.072 1.002.08 1.503.103 3.589-1.161 6.305-2.779 6.459z"/>
  <path fill="#7DCAF9" d="M237.777 171.223c.02.67-.01 1.308-.08 1.894-.297 2.612-1.385 4.446-2.701 4.565-.047.008-.096.008-.143.008-1.428 0-2.67-2.02-2.943-5.032a14.857 14.857 0 0 1-.059-.873c-.188-6.484 2.553-14.396 2.553-14.396s3.255 7.34 3.373 13.834z"/>
  <path fill="#66A4C4" d="M234.996 177.682c-.047.008-.096.008-.143.008-1.561 0-2.901-2.42-3.002-5.905-.021-.824 0-1.675.059-2.521.273 3.012 1.517 5.03 2.943 5.03.047 0 .096 0 .143-.009 1.316-.119 2.404-1.951 2.701-4.564.041.5.07 1.002.08 1.502.105 3.59-1.162 6.304-2.781 6.459z"/>
  <path fill="#7DCAF9" d="M205.352 175.385c-1.002-12.076-9.121-22.066-9.121-22.066s-5.578 11.855-4.406 23.908c.648 6.672 4.181 11.062 7.88 10.557 3.701-.507 6.294-5.727 5.647-12.399"/>
  <path fill="#66A4C4" d="M199.705 187.782a4.027 4.027 0 0 1-.575.036c-3.487 0-6.687-4.268-7.307-10.592-.15-1.568-.193-3.191-.15-4.822.021.884.07 1.748.15 2.602.62 6.325 3.819 10.592 7.307 10.592.188 0 .382-.008.575-.037 3.093-.422 5.414-4.141 5.716-9.252.33 6.222-2.192 10.993-5.716 11.473z"/>
  <path fill="#B6E4FC" d="M197.111 173.254c-.565-3.98-2.53-10.76-2.53-10.76s-2.047 8.424-1.438 12.396c.342 2.196 1.389 3.605 2.36 3.396.974-.21 1.949-2.835 1.608-5.032M205.061 178.548c.056 1.793-.625 3.277-1.521 3.315-.893.037-1.663-1.385-1.719-3.178-.055-1.791.628-3.275 1.521-3.314.892-.039 1.663 1.385 1.719 3.177z"/>
  <path fill="#7DCAF9" d="M209.475 237.378c1.16-15.326 10.555-28.003 10.555-28.003s6.455 15.042 5.101 30.338c-.752 8.467-4.839 14.035-9.119 13.396-4.285-.638-7.285-7.266-6.537-15.731"/>
  <path fill="#66A4C4" d="M216.009 253.109c.224.037.449.048.666.048 4.035 0 7.737-5.415 8.454-13.441.176-1.993.227-4.052.176-6.12a48.059 48.059 0 0 1-.176 3.301c-.717 8.027-4.419 13.439-8.454 13.439-.217 0-.442-.01-.666-.047-3.579-.536-6.267-5.254-6.614-11.74-.383 7.896 2.535 13.949 6.614 14.56z"/>
  <path fill="#B6E4FC" d="M219.009 234.672c.655-5.047 2.929-13.652 2.929-13.652s2.369 10.691 1.666 15.729c-.393 2.79-1.604 4.578-2.73 4.31-1.127-.265-2.258-3.597-1.865-6.387M210.325 240.467c-.388 2.822.272 5.335 1.474 5.611 1.2.277 2.484-1.789 2.87-4.613.384-2.822-.274-5.336-1.474-5.609-1.2-.279-2.487 1.789-2.87 4.611z"/>
  <g>
    <path fill="#7DCAF9" d="M123.832 144.317c-.029.581.014 1.13.125 1.636.462 2.26 2.149 3.846 4.196 3.947.075.008.147.008.22.008 2.217 0 4.146-1.746 4.571-4.35.043-.243.072-.5.089-.756.293-5.604-3.962-12.443-3.962-12.443s-5.055 6.347-5.239 11.958z"/>
    <path fill="#66A4C4" d="M128.153 149.901c.075.008.147.008.22.008 2.423 0 4.505-2.091 4.66-5.106.036-.711 0-1.445-.089-2.179-.425 2.604-2.354 4.35-4.571 4.35-.073 0-.145 0-.22-.007-2.047-.103-3.734-1.688-4.196-3.946-.066.432-.111.865-.125 1.297-.162 3.103 1.805 5.451 4.321 5.583z"/>
  </g>
  <ellipse transform="rotate(85.199 130.52 144.168)" fill="#B6E4FC" cx="130.521" cy="144.172" rx="2.534" ry="1.397"/>
  <path fill="#7DCAF9" d="M147.267 198.213a7.4 7.4 0 0 0 .13 1.801c.479 2.486 2.226 4.23 4.346 4.344.075.009.149.009.228.009 2.295 0 4.291-1.923 4.733-4.788.045-.268.075-.549.09-.831.304-6.168-4.103-13.694-4.103-13.694s-5.234 6.983-5.424 13.159zM125.276 179.936c-.021.709.012 1.383.098 2.002.362 2.769 1.681 4.707 3.28 4.832.059.01.116.01.172.01 1.733 0 3.241-2.139 3.574-5.326.033-.297.057-.61.068-.926.229-6.861-3.097-15.233-3.097-15.233s-3.952 7.768-4.095 14.641zM172.725 151.934c.092.768.26 1.483.491 2.131 1.007 2.892 3.257 4.668 5.593 4.427.086-.005.17-.017.252-.031 2.506-.405 4.315-3.062 4.242-6.567a9.539 9.539 0 0 0-.062-1.013c-.868-7.436-7.146-15.658-7.146-15.658s-4.365 9.284-3.37 16.711z"/>
  <g>
    <path fill="#7DCAF9" d="M89.583 161.492a7.615 7.615 0 0 0 .153 2.003c.566 2.767 2.632 4.706 5.138 4.832.09.009.18.009.269.009 2.713 0 5.076-2.138 5.597-5.326a7.87 7.87 0 0 0 .107-.926c.359-6.863-4.85-15.235-4.85-15.235s-6.189 7.77-6.414 14.643z"/>
    <path fill="#66A4C4" d="M94.874 168.327c.09.009.18.009.269.009 2.965 0 5.516-2.559 5.704-6.252.045-.871 0-1.77-.107-2.668-.521 3.189-2.884 5.326-5.597 5.326-.089 0-.179 0-.269-.008-2.506-.127-4.572-2.065-5.138-4.832-.081.529-.135 1.06-.153 1.59-.199 3.799 2.209 6.674 5.291 6.835z"/>
    <ellipse transform="rotate(85.222 97.786 161.314)" fill="#B6E4FC" cx="97.783" cy="161.311" rx="3.105" ry="1.711"/>
  </g>
  <g>
    <path fill="#7DCAF9" d="M106.222 184.305a7.573 7.573 0 0 0-.083 2.006c.24 2.813 2.065 4.981 4.539 5.398.089.021.179.03.267.041 2.695.316 5.292-1.531 6.18-4.639.089-.287.161-.596.215-.906 1.157-6.773-3.04-15.695-3.04-15.695s-7.053 6.995-8.078 13.795z"/>
    <path fill="#66A4C4" d="M110.678 191.709c.089.021.179.03.267.041 2.944.346 5.777-1.898 6.395-5.545a15.95 15.95 0 0 0 .206-2.661c-.891 3.106-3.486 4.954-6.18 4.638-.088-.011-.179-.021-.268-.041-2.474-.416-4.299-2.584-4.537-5.397a13.38 13.38 0 0 0-.338 1.562c-.641 3.747 1.414 6.883 4.455 7.403z"/>
    <path fill="#B6E4FC" d="M112.67 185.021c-.058 1.715.661 3.127 1.608 3.158.941.032 1.753-1.33 1.813-3.044.055-1.714-.663-3.129-1.607-3.159-.944-.033-1.755 1.335-1.814 3.045z"/>
  </g>
  <g>
    <path fill="#7DCAF9" d="M161.703 176.492c-.02.67.01 1.307.08 1.893.297 2.614 1.384 4.446 2.701 4.565.048.008.095.008.143.008 1.428 0 2.67-2.021 2.943-5.033.029-.278.047-.575.058-.872.188-6.484-2.553-14.395-2.553-14.395s-3.253 7.341-3.372 13.834z"/>
    <path fill="#66A4C4" d="M164.484 182.95c.048.008.095.008.143.008 1.561 0 2.9-2.419 3.001-5.905.022-.824 0-1.674-.058-2.521-.273 3.012-1.516 5.03-2.943 5.03-.048 0-.095 0-.143-.008-1.317-.119-2.404-1.951-2.701-4.564-.042.501-.07 1.002-.08 1.503-.103 3.588 1.162 6.304 2.781 6.457z"/>
  </g>
  <g>
    <path fill="#7DCAF9" d="M153.8 226.552a12.67 12.67 0 0 0 .079 1.892c.298 2.613 1.385 4.447 2.702 4.565.047.009.096.009.144.009 1.426 0 2.67-2.021 2.942-5.033.028-.28.046-.575.058-.873.188-6.485-2.554-14.395-2.554-14.395s-3.253 7.34-3.371 13.835z"/>
    <path fill="#66A4C4" d="M156.581 233.009c.047.009.096.009.144.009 1.559 0 2.899-2.418 3-5.906.021-.823 0-1.672-.058-2.521-.272 3.013-1.517 5.031-2.942 5.031-.048 0-.097 0-.144-.008-1.317-.119-2.404-1.952-2.702-4.566a22.95 22.95 0 0 0-.079 1.504c-.107 3.589 1.161 6.303 2.781 6.457z"/>
  </g>
  <g>
    <path fill="#7DCAF9" d="M252.6 150.146c-.019.668.01 1.306.08 1.892.297 2.612 1.385 4.446 2.702 4.565.048.008.097.008.144.008 1.427 0 2.67-2.02 2.942-5.032.028-.28.046-.576.058-.875.188-6.484-2.553-14.393-2.553-14.393s-3.254 7.34-3.373 13.835z"/>
    <path fill="#66A4C4" d="M255.382 156.604c.048.008.097.008.144.008 1.559 0 2.899-2.418 3-5.907.021-.822 0-1.671-.058-2.519-.272 3.012-1.517 5.031-2.942 5.031-.047 0-.096 0-.144-.008-1.317-.119-2.405-1.951-2.702-4.565-.041.5-.07 1-.08 1.503-.104 3.587 1.162 6.304 2.782 6.457z"/>
  </g>
  <g>
    <path fill="#7DCAF9" d="M107.692 159.367a12.8 12.8 0 0 0 .08 1.892c.297 2.614 1.384 4.446 2.701 4.565.048.009.095.009.143.009 1.427 0 2.669-2.021 2.943-5.033.028-.278.046-.575.057-.873.189-6.483-2.552-14.395-2.552-14.395s-3.253 7.341-3.372 13.835z"/>
    <path fill="#66A4C4" d="M110.473 165.824c.048.009.095.009.143.009 1.559 0 2.901-2.419 3-5.906.023-.823 0-1.673-.057-2.521-.274 3.012-1.517 5.031-2.943 5.031-.048 0-.095 0-.143-.008-1.317-.119-2.404-1.951-2.701-4.566a22.277 22.277 0 0 0-.08 1.504c-.104 3.588 1.162 6.305 2.781 6.457z"/>
  </g>
  <g>
    <path fill="#7DCAF9" d="M142.739 160.408c.861-10.369 7.83-18.947 7.83-18.947s4.791 10.18 3.787 20.527c-.56 5.729-3.59 9.496-6.768 9.063-3.179-.432-5.405-4.916-4.849-10.643"/>
    <path fill="#66A4C4" d="M147.588 171.052c.165.026.331.032.493.032 2.994 0 5.741-3.664 6.274-9.094.127-1.35.166-2.741.127-4.141a31.81 31.81 0 0 1-.127 2.231c-.533 5.431-3.28 9.094-6.274 9.094-.162 0-.328-.006-.493-.032-2.655-.361-4.65-3.554-4.908-7.941-.284 5.342 1.881 9.438 4.908 9.851z"/>
    <path fill="#B6E4FC" d="M149.813 158.578c.485-3.416 2.171-9.238 2.171-9.238s1.759 7.232 1.236 10.643c-.293 1.89-1.191 3.098-2.027 2.916-.833-.18-1.672-2.434-1.38-4.321M142.989 163.123c-.048 1.541.537 2.814 1.306 2.848.767.033 1.429-1.188 1.476-2.729.045-1.538-.538-2.814-1.306-2.848-.767-.033-1.429 1.191-1.476 2.729z"/>
  </g>
  <g>
    <path fill="#7DCAF9" d="M131.062 209.912c-.798-6.783-7.269-12.395-7.269-12.395s-4.447 6.657-3.513 13.428c.517 3.748 3.332 6.213 6.281 5.929 2.95-.282 5.017-3.216 4.501-6.962"/>
    <path fill="#66A4C4" d="M126.562 216.874a3.758 3.758 0 0 1-.458.021c-2.779 0-5.33-2.396-5.823-5.947-.121-.883-.156-1.795-.121-2.707.015.492.055.979.121 1.459.493 3.553 3.043 5.947 5.823 5.947.148 0 .304-.004.458-.021 2.464-.237 4.315-2.325 4.555-5.194.263 3.492-1.746 6.172-4.555 6.442z"/>
    <path fill="#B6E4FC" d="M124.495 208.714c-.451-2.233-2.016-6.042-2.016-6.042s-1.632 4.732-1.147 6.961c.27 1.235 1.104 2.026 1.881 1.908.775-.117 1.553-1.591 1.282-2.827M130.476 211.279c.267 1.248-.188 2.361-1.016 2.482-.825.123-1.71-.791-1.977-2.043-.264-1.248.19-2.361 1.017-2.48.825-.123 1.712.791 1.976 2.041z"/>
  </g>
  <path fill="#FFD400" d="M207.744 70.032c0 20.391-16.531 36.921-36.92 36.921-20.394 0-36.923-16.53-36.923-36.921 0-20.392 16.529-36.922 36.923-36.922 20.389 0 36.92 16.531 36.92 36.922z"/>
  <path fill="#B3B3B3" d="M186.855 122.153c1.283-.376 2.32.351 3.527.103.746.033 1.561.055 2.424.07 9.519.146 25.16-1.174 19.7-10.646-4.169-7.462-14.728-6.025-21.396-4.879 4.316-2.462 6.877-5.333 7.217-8.662a7.869 7.869 0 0 0-.068-2.049c-.791-9.246-9.707-12.157-16.306-10.373-.581.174-1.159.339-1.722.451-1.123.223-2.19.243-3.148-.249-.576-.295-1.109-.775-1.596-1.5-2.073-8.693-6.736-15.703-13.877-15.078-1.43.128-2.957.559-4.594 1.365-1.359.012-3.19.012-4.106-1.252-2.291-5.054-6.865-6.317-11.902-7.16-2.288-.42-3.661 3.789-6.408 3.37-4.575-.423-5.495-5.474-7.081-8.651-.724-1.182-1.619-1.88-2.551-2.579-.536-.323-1.103-.512-1.721-.623-.609-.037-1.226-.077-1.853-.103-3.58-.802-6.497 1.78-9.448 4.316-.421.364-.842.726-1.267 1.079-5.732-2.105-11.285-3.272-17.058-.482-.406.034-.82.067-1.232.131-.415.07-.83.172-1.231.348a5.569 5.569 0 0 0-1.234.872 5.545 5.545 0 0 0-.978 1.195c-.119.503-.476.971-.656 1.44-.178 3.268.718 6.771-1.073 9.577-2.327 3.504-5.731 5.606-7.342 10.047a8.947 8.947 0 0 1-.797 1.587c-.351.538-.784 1.026-1.289 1.303-.349.353-.708.698-1.055 1.062a11.456 11.456 0 0 0-1.865 2.55c-.2.483-.324.984-.363 1.501-.039.521.01 1.058.161 1.619.08.364.192.729.328 1.089.136.356.296.708.471 1.054.213.345.854.17 1.491 0-.852 1.548-3.195 1.377-4.649 1.992-.548.144-1.1.29-1.629.5a7.697 7.697 0 0 0-1.656.698c-.487.271-.971.572-1.443.899a17.909 17.909 0 0 0-2.019 1.647 17.47 17.47 0 0 0-1.764 1.923c-3.591 4.109-4.005 11.388-.064 15.511 1.936 1.938 4.33 1.619 6.667 1.512.586-.029 1.168-.04 1.73.015 6.529 4.541 13.579 4.297 20.708 2.847.81.017 1.615.032 2.422.045.78.016 1.555.023 2.331.038l2.331.032c7.973 1.336 15.437 1.336 23.283.108l2.326-.008 2.178-.007c.729-.003 1.455-.008 2.179-.012 1.021-.202 2.061.04 2.888.526 4.5 2.717 8.793 1.867 13.152.7.624-.168 1.248-.341 1.874-.504.937-.44 1.974-.44 2.806-.196 5.26 1.487 10.045.929 15.107-.154.723-.157 1.451-.324 2.188-.494 2.607.404 5.1 2.103 7.586 3.316 3.734 1.454 6.841-1.456 10.436-2.578.584-.142.93-.199.93-.199z"/>
  <path fill="#E6E6E6" d="M139.467 135.563c-1.56-.433-2.82.404-4.29.117-.905.04-1.895.064-2.943.083-11.571.168-30.584-1.354-23.949-12.266 5.067-8.598 17.902-6.942 26.01-5.622-5.247-2.837-8.361-6.145-8.773-9.98a8.437 8.437 0 0 1 .082-2.361c.962-10.654 11.8-14.007 19.82-11.952.708.201 1.41.391 2.092.52 1.365.257 2.664.279 3.828-.287.7-.341 1.35-.894 1.94-1.729 2.521-10.017 8.188-18.094 16.866-17.374 1.738.147 3.598.645 5.586 1.573 1.652.013 3.88.013 4.99-1.443 2.783-5.823 8.344-7.278 14.469-8.25 2.783-.485 4.449 4.366 7.789 3.883 5.563-.488 6.677-6.308 8.605-9.969.883-1.361 1.969-2.166 3.104-2.971.646-.372 1.339-.59 2.092-.719.738-.042 1.49-.087 2.251-.118 4.353-.924 7.897 2.051 11.483 4.975.514.419 1.023.837 1.541 1.243 6.967-2.426 13.719-3.771 20.735-.556.493.039.996.078 1.498.152a6.619 6.619 0 0 1 1.495.4 6.722 6.722 0 0 1 1.501 1.005c.455.396.854.859 1.187 1.377.146.578.582 1.117.799 1.658.217 3.766-.871 7.803 1.306 11.036 2.83 4.037 6.967 6.46 8.926 11.576.218.536.546 1.209.97 1.829.426.621.951 1.182 1.566 1.501.423.406.857.804 1.282 1.223a13.275 13.275 0 0 1 2.266 2.938c.244.557.396 1.133.442 1.729a5.3 5.3 0 0 1-.197 1.865c-.096.42-.23.84-.396 1.256-.164.41-.36.816-.573 1.214-.257.398-1.039.196-1.813 0 1.037 1.784 3.885 1.586 5.653 2.295.668.166 1.339.334 1.979.577a9.67 9.67 0 0 1 2.012.804c.594.312 1.182.658 1.757 1.036a21.88 21.88 0 0 1 2.453 1.897 20.43 20.43 0 0 1 2.143 2.216c4.364 4.734 4.868 13.122.078 17.872-2.353 2.233-5.263 1.865-8.104 1.742-.711-.032-1.42-.046-2.104.019-7.934 5.23-16.505 4.949-25.17 3.28-.984.019-1.964.036-2.943.053-.949.016-1.893.026-2.836.042l-2.834.038c-9.688 1.537-18.762 1.537-28.3.123-.944-.002-1.885-.004-2.828-.008-.879-.004-1.765-.005-2.646-.01-.887-.003-1.771-.008-2.647-.013-1.239-.233-2.505.047-3.511.606-5.473 3.131-10.691 2.152-15.989.806-.759-.193-1.515-.392-2.274-.579-1.141-.507-2.4-.507-3.412-.227-6.393 1.713-12.211 1.071-18.362-.178a217.4 217.4 0 0 1-2.659-.567c-3.171.465-6.195 2.421-9.22 3.821-4.539 1.674-8.316-1.678-12.685-2.972-.717-.163-1.138-.229-1.138-.229z"/>
  <g>
    <path fill="#C69C6D" d="M90.24 233.473c1.775 20.059-4.012 37.823-14.754 38.774l-33.062 2.924c-10.741.951-21.269-15.371-23.044-35.431L7.733 108.078c-1.774-20.059 5.841-36.663 16.583-37.613l33.062-2.925c10.743-.95 19.442 14.211 21.216 34.27L90.24 233.473z"/>
    <path opacity=".2" fill="#3D3D3D" d="M78.599 101.882l11.647 131.663c1.774 20.057-3.931 37.744-14.671 38.694l-33.066 2.924c-3.741.332-7.431-1.552-10.702-4.784 29.964-19.387 37.964-166.141 39.352-193.79 4.217 6.161 6.536 15.069 7.44 25.293z"/>
    <g>
      <path fill="#FFFFFF" d="M61.747 240.268c.222 2.514-2.888 4.844-5.502 5.074-2.613.231-6.085-1.518-6.308-4.029L36.79 92.699c-.222-2.513 2.89-4.841 5.503-5.072 2.614-.231 6.085 1.515 6.308 4.026l13.146 148.615z"/>
      <path fill="#FFFFFF" d="M69.072 241.775c.594 6.719-4.914 12.688-12.3 13.343-7.391.653-13.862-4.259-14.457-10.976-.595-6.718 4.914-12.691 12.305-13.346 7.386-.651 13.858 4.263 14.452 10.979z"/>
      <path fill="#C1272D" d="M58.964 238.725c.098 1.104-2.037 2.193-3.104 2.286-1.064.097-3.359-.604-3.458-1.706l-5.766-65.181c-.097-1.101 2.04-2.188 3.104-2.284 1.066-.095 3.36.604 3.457 1.703l5.767 65.182z"/>
      <ellipse transform="rotate(-95.054 55.386 243.143)" fill="#C1272D" cx="55.385" cy="243.14" rx="9.24" ry="10.483"/>
    </g>
  </g>
</svg>
