<?xml version="1.0" encoding="iso-8859-1"?>
<!DOCTYPE svg PUBLIC "-//W3C//DTD SVG 20010904//EN" "http://www.w3.org/TR/2001/REC-SVG-20010904/DTD/svg10.dtd">
<svg version="1.0" xmlns="http://www.w3.org/2000/svg" xmlns:xlink="http://www.w3.org/1999/xlink" x="0px" y="0px" width="850px" height="880px" viewBox="0 0 850 930" xml:space="preserve">
<style type="text/css">
	.clock{fill:#000000;}

	.tick{
		animation: tick 4s  infinite;
		transform-origin: 50% 50%;
	}

	.tock{
		animation: tick 4s infinite;
		transform-origin: 50% 50%;
		animation-delay: 2s;
	}
		
	@keyframes tick {
		0%{
			transform: translateY(0px)
		}
		50%{
			transform: translateY(50px);
		}
	}

</style>
<g >
	<path class="clock" d="M 423.248 15.6202 C 421.868 17.0001 420.739 19.5799 420.739 21.3531 C 420.739 23.6449 418.846 24.5803 414.191 24.5881 C 404.152 24.6048 396.559 30.5526 396.559 38.4003 C 396.559 48.4095 407.044 55.7161 413.995 50.5506 C 416.901 48.3911 417.243 47.0115 415.558 44.2601 C 414.371 42.3217 412.104 40.386 410.52 39.9586 C 408.079 39.2997 408.069 39.4803 410.454 41.1466 C 413.858 43.5247 411.967 49.5635 407.819 49.5635 C 406.185 49.5635 403.479 47.6097 401.807 45.2219 C 398.303 40.2195 400.216 34.8632 406.757 31.3628 C 419.672 24.4509 429.847 45.7583 421.511 62.2574 C 416.519 72.1381 410.874 77.4386 396.197 86.0291 C 378.82 96.1993 374.394 101.842 374.394 113.826 C 374.394 118.948 375.182 125.887 376.146 129.246 C 377.672 134.569 377.284 135.644 373.123 137.607 C 368.656 139.715 368.349 139.468 368.349 133.758 C 368.349 128.644 367.874 128.05 365.415 130.091 C 363.801 131.431 361.534 131.941 360.377 131.226 C 359.22 130.512 358.274 131.412 358.274 133.228 C 358.274 135.878 357.03 136.257 351.977 135.147 C 347.284 134.116 346.066 134.389 347.197 136.219 C 348.032 137.57 347.661 139.326 346.374 140.122 C 343.077 142.16 345.75 147.89 350.736 149.473 C 354.496 150.666 354.243 151.082 348.205 153.621 C 341.803 156.313 341.672 156.575 345.351 159.359 C 349.107 162.202 349.097 162.278 344.944 162.341 C 342.6 162.376 338.358 164.233 335.519 166.466 C 330.355 170.528 330.355 170.528 329.059 166.444 C 327.366 161.109 315.958 154.797 315.958 159.195 C 315.958 160.811 314.145 162.709 311.928 163.412 C 309.205 164.277 307.908 166.444 307.929 170.097 C 307.95 173.836 308.486 174.672 309.668 172.807 C 312.3 168.655 320.6 170.888 323.434 176.51 C 326.559 182.708 326.774 196.473 323.866 204.085 C 321.7 209.758 321.7 209.758 318.975 204.72 C 316.584 200.302 316.081 200.116 314.881 203.209 C 312.594 209.1 309.913 207.162 309.913 199.619 C 309.913 189.968 304.936 188.202 298.938 195.725 C 294.724 201.009 294.252 201.152 292.331 197.72 C 290.401 194.272 290.037 194.368 286.898 199.159 C 283.215 204.781 284.163 212.999 288.953 216.974 C 292.194 219.664 292.641 228.477 289.763 232.931 C 288.258 235.259 287.803 234.59 287.779 230.016 C 287.762 226.751 285.358 220.63 282.436 216.415 C 276.851 208.355 273.643 206.68 273.643 211.823 C 273.643 213.513 271.353 215.766 268.554 216.83 C 265.754 217.894 262.936 220.141 262.291 221.822 C 260.571 226.305 263.063 234.321 266.598 235.677 C 269.005 236.601 269.395 235.788 268.416 231.888 C 267.517 228.307 268.116 226.56 270.563 225.621 C 276.033 223.522 280.336 229.422 278.715 236.8 C 277.544 242.132 275.129 244.236 263.401 250.142 C 238.277 262.794 213.19 266.269 197.709 259.24 C 179.175 250.825 178.205 226.885 196.398 226.885 C 201.28 226.885 207.147 233.73 207.147 239.424 C 207.147 244.848 212.578 243.71 214.015 237.985 C 216.747 227.099 205.158 212.764 193.646 212.788 C 182.998 212.81 170.876 226.751 170.876 238.976 C 170.876 251.691 183.986 266.93 198.724 271.345 C 206.488 273.671 206.488 273.671 202.719 281.008 C 196.526 293.064 201.486 303.456 213.433 303.456 C 219.834 303.456 225.763 298.374 224.856 293.664 C 224.106 289.772 217.649 288.119 214.703 291.065 C 213.258 292.509 214.001 292.792 217.109 291.98 C 220.945 290.976 221.506 291.511 220.925 295.619 C 220.147 301.122 212.764 303.252 208.043 299.334 C 201.083 293.558 207.161 279.276 216.579 279.276 C 223.439 279.276 234.099 287.892 239.035 297.428 C 243.171 305.416 243.539 308.017 242.176 319.577 C 241.326 326.78 240.577 338.283 240.512 345.139 C 240.408 356.243 241.035 358.271 246.268 363.731 C 252.211 369.931 258.4 372.606 272.131 374.911 C 278.739 376.021 279.669 376.864 279.542 381.63 C 279.444 385.319 277.052 389.033 272.138 393.125 L 264.879 399.17 L 266.129 392.914 C 267.637 385.369 262.809 377.099 257.978 378.953 C 256.242 379.619 254.171 379.11 253.375 377.822 C 251.22 374.335 247.93 377.271 246.452 384.001 C 245.266 389.401 244.576 389.83 238.906 388.696 C 233.656 387.646 232.869 387.979 233.948 390.79 C 234.875 393.206 234.131 394.132 231.264 394.132 C 224.345 394.132 226.952 400.22 235.512 404.053 L 243.728 407.731 L 236.429 409.1 C 231.237 410.074 228.589 411.893 227.256 415.399 C 224.445 422.791 222.743 421.334 224.187 412.771 C 225.103 407.342 224.55 404.081 222.223 401.185 C 219.861 398.246 218.692 397.86 217.907 399.758 C 217.078 401.762 216.177 401.819 213.991 400.005 C 212.43 398.709 208.211 397.05 204.616 396.32 C 199.719 395.324 197.904 393.77 197.382 390.124 C 196.754 385.738 197.025 385.54 200.133 388.12 C 203.202 390.667 203.498 390.548 202.822 387.039 C 201.914 382.325 196.016 380.753 191.937 384.138 C 188.165 387.269 188.182 396.295 191.97 401.304 C 195.777 406.337 195.795 408.238 192.034 408.238 C 187.309 408.238 188.454 411.44 195.211 417.126 C 199.825 421.009 203.678 422.343 210.278 422.343 C 220.447 422.343 224.01 426.088 226.432 439.325 L 227.88 447.239 L 222.047 440.712 C 211.349 428.739 191.06 431.37 184.59 445.569 C 182.638 449.855 182.923 451.546 186.374 456.153 C 188.633 459.168 192.191 461.692 194.28 461.76 C 196.37 461.828 199.666 462.605 201.605 463.487 C 206.66 465.784 211.177 463.458 211.177 458.558 C 211.177 456.096 210.287 454.896 209.035 455.669 C 206.242 457.395 199.087 450.883 199.087 446.614 C 199.087 441.485 203.291 438.463 210.426 438.463 C 220.171 438.463 225.282 446.049 225.282 460.515 C 225.282 467.448 226.446 473.488 228.24 475.86 C 229.868 478.011 231.229 480.224 231.266 480.778 C 231.303 481.333 226.43 481.48 220.437 481.107 C 210.253 480.472 209.242 480.833 204.943 486.648 C 202.351 490.153 198.53 492.849 196.189 492.824 C 192.181 492.781 192.199 492.652 196.705 489.186 C 200.422 486.326 201.089 484.453 199.974 480.009 C 198.828 475.442 197.74 474.634 194.002 475.573 C 190.876 476.357 189.032 475.678 188.167 473.423 C 187.471 471.61 186.326 470.702 185.623 471.405 C 184.92 472.108 183.128 471.674 181.641 470.439 C 179.471 468.638 178.936 469.518 178.936 474.89 C 178.936 480.097 178.399 481.047 176.518 479.166 C 173.169 475.817 167.163 476.144 163.429 479.878 C 160.6 482.707 160.721 483.456 164.69 487.68 C 168.545 491.784 168.681 492.507 165.809 493.609 C 163.477 494.504 162.939 496.168 163.935 499.408 C 165.915 505.848 166.361 506.023 170.723 502.075 C 174.501 498.656 174.644 498.756 175.269 505.278 C 175.686 509.633 176.981 512.011 178.936 512.011 C 180.599 512.011 182.59 512.893 183.362 513.97 C 184.829 516.019 185.779 514.017 187.873 504.461 C 188.955 499.521 189.515 499.194 193.079 501.419 C 195.547 502.961 197.072 506.113 197.072 509.675 C 197.072 516.528 211.506 532.533 212.679 526.981 C 213.162 524.698 215.035 524.062 219.395 524.702 C 226.695 525.774 232.568 521.133 234.386 512.855 C 236.085 505.12 234.098 499.582 229.163 498.291 C 225.99 497.461 225.362 498.006 226.253 500.815 C 226.897 502.843 225.675 506.486 223.436 509.212 C 219.482 514.026 219.482 514.026 214.994 509.605 C 209.968 504.654 209.026 494.865 213.103 489.953 C 214.702 488.026 218.976 486.824 224.227 486.824 C 233.676 486.824 240.676 491.798 246.166 502.414 C 250.76 511.297 253.95 534.462 252.415 547.786 L 251.08 559.381 L 431.426 559.279 L 611.772 559.177 L 611.65 540.632 C 611.434 507.891 620.313 489.741 637.633 487.516 C 647.667 486.227 653.139 490.139 653.139 498.603 C 653.139 504.516 647.832 513.019 644.141 513.019 C 643.23 513.019 640.949 510.675 639.071 507.809 C 636.166 503.375 636.084 502.33 638.521 500.788 C 640.719 499.397 640.348 498.968 636.922 498.945 C 627.073 498.877 626.169 514.479 635.513 523.257 C 639.861 527.342 641.281 527.666 646.384 525.74 C 651.184 523.928 652.366 524.069 652.865 526.513 C 654.213 533.117 666.572 517.501 666.572 509.192 C 666.572 506.942 668.315 504.168 670.445 503.028 C 673.783 501.242 674.5 501.786 675.638 506.964 C 677.243 514.271 678.377 515.05 684.204 512.847 C 687.283 511.683 688.738 509.474 688.738 505.96 C 688.738 501.341 689.187 501.028 692.94 503.036 C 697.732 505.601 697.819 505.554 699.709 499.408 C 700.705 496.168 700.167 494.504 697.835 493.609 C 694.974 492.511 695.128 491.753 699.068 487.559 C 703.491 482.851 703.502 482.711 699.681 479.82 C 695.093 476.349 691.475 475.964 689.745 478.764 C 687.461 482.46 684.446 480.838 685.085 476.256 C 685.578 472.713 684.677 471.679 680.924 471.481 C 677.859 471.32 675.79 472.541 675.181 474.87 C 674.426 477.756 673.268 478.145 669.595 476.749 C 665.757 475.289 664.758 475.744 663.779 479.394 C 661.816 486.714 662.346 488.505 666.901 489.95 C 671.039 491.264 671.07 491.439 667.512 493.431 C 664.71 494.998 663.535 494.84 662.856 492.801 C 662.356 491.302 659.738 487.866 657.038 485.166 C 652.742 480.87 650.892 480.404 642.22 481.431 C 632.311 482.604 632.311 482.604 635.337 476.754 C 637.001 473.536 638.375 466.551 638.392 461.232 C 638.408 455.913 639.541 449.365 640.91 446.682 C 646.059 436.591 664.557 437.023 664.557 447.234 C 664.557 453.05 659.784 457.517 655.376 455.826 C 652.963 454.9 652.345 455.701 652.832 459.127 C 653.573 464.347 661.095 466.352 665.676 462.551 C 667.8 460.788 668.587 460.759 668.587 462.443 C 668.587 466.519 678.633 458.424 679.916 453.314 C 681.549 446.805 676.005 438.831 667.326 435.204 C 658.933 431.698 648.386 433.9 641.188 440.662 C 636.524 445.045 636.524 445.045 638.651 437.22 C 641.676 426.09 645.703 422.343 654.64 422.343 C 659.869 422.343 664.163 420.719 668.433 417.126 C 675.214 411.42 676.333 408.238 671.558 408.238 C 668.802 408.238 668.802 407.622 671.558 402.293 C 675.249 395.156 675.521 387.767 672.214 384.46 C 668.801 381.047 663.197 381.459 661.75 385.23 C 659.859 390.159 660.269 390.81 663.55 388.087 C 666.1 385.971 666.572 386.371 666.572 390.648 C 666.572 395.979 663.339 398.163 655.444 398.163 C 652.829 398.163 650.07 399.166 649.312 400.393 C 648.35 401.949 647.426 401.801 646.254 399.906 C 643.102 394.805 639.475 401.608 639.918 411.791 C 640.401 422.877 638.899 428.957 636.104 427.23 C 634.832 426.444 634.854 425.15 636.165 423.57 C 639.749 419.251 636.297 412.157 629.998 410.897 C 623.811 409.66 620.043 406.223 624.874 406.223 C 628.939 406.223 638.63 398.211 637.255 395.986 C 636.625 394.967 634.349 394.133 632.198 394.133 C 630.047 394.133 628.394 393.452 628.525 392.621 C 629.117 388.876 627.945 388.317 623.249 390.102 C 619.352 391.584 618.212 391.375 618.212 389.176 C 618.212 387.613 617.237 383.782 616.046 380.662 C 614.024 375.366 613.703 375.232 611.202 378.637 C 609.507 380.944 608.037 381.497 607.2 380.142 C 606.279 378.652 604.69 378.637 601.969 380.093 C 599.098 381.629 598.061 384.331 598.061 390.276 L 598.061 398.368 L 591.009 392.988 C 586.627 389.646 583.956 385.89 583.956 383.068 C 583.956 379.286 585.383 378.299 592.502 377.161 C 603.787 375.356 619.151 365.324 622.31 357.697 C 624.099 353.379 624.339 347.741 623.143 338.123 C 618.858 303.643 622.855 290.404 639.817 282.901 C 648.035 279.266 649.049 279.214 653.6 282.195 C 659.211 285.872 660.325 295.414 655.601 299.334 C 650.88 303.252 643.497 301.122 642.719 295.619 C 642.15 291.599 642.733 290.985 646.248 291.905 C 648.563 292.51 649.949 292.183 649.328 291.178 C 647.805 288.713 640.921 288.855 639.358 291.384 C 637.118 295.009 640.593 301.623 645.773 303.593 C 657.855 308.186 667.904 295.469 661.824 283.28 C 657.755 275.124 657.753 275.246 661.906 275.246 C 669.77 275.246 682.83 266.661 687.758 258.252 C 695.311 245.363 694.717 232.984 686.094 223.574 C 680.518 217.49 677.738 216.13 669.2 215.31 C 655.363 213.98 650.452 218.596 650.452 232.931 C 650.452 240.543 651.191 243.006 653.475 243.006 C 655.276 243.006 656.497 241.152 656.497 238.416 C 656.497 232.262 661.909 224.87 666.415 224.87 C 672.32 224.87 680.677 232.689 680.677 238.214 C 680.677 252.069 666.436 263.053 648.437 263.082 C 630.69 263.11 600.016 253.076 589.921 243.941 C 585.04 239.523 584.542 227.865 589.159 226.094 C 595.301 223.736 596.571 224.765 595.309 231.077 C 593.773 238.756 597.796 238.266 601.679 230.301 C 604.947 223.599 602.276 217.799 595.092 215.996 C 592.213 215.274 590.001 213.27 590.001 211.383 C 590.001 208.641 589.115 208.88 585.022 212.725 C 579.386 218.02 574.873 229.645 577.072 233.203 C 577.931 234.593 577.667 235.032 576.431 234.268 C 571.957 231.504 571.656 222.765 575.832 216.9 C 580.58 210.232 581.195 200.221 577.066 196.795 C 574.808 194.92 573.782 195.18 572.187 198.029 C 570.332 201.345 569.817 201.19 565.833 196.126 C 558.773 187.15 553.818 189.692 553.667 202.366 C 553.606 207.481 553.462 207.556 550.7 203.907 C 547.717 199.966 547.529 200.13 545.161 208.745 C 543.443 214.993 538.799 201.637 538.742 190.286 C 538.7 181.869 539.684 177.77 542.49 174.669 C 546.757 169.955 551.724 169.264 555.343 172.883 C 557.224 174.764 557.761 174.416 557.761 171.317 C 557.761 169.125 554.933 164.851 551.477 161.818 L 545.192 156.303 L 538.769 163.114 C 532.389 169.879 532.315 169.9 527.702 166.165 C 525.149 164.097 521.799 162.405 520.26 162.405 C 517.003 162.405 516.525 159.19 519.508 157.347 C 522.502 155.496 519.863 152.33 515.327 152.33 C 510.201 152.33 510.285 149.065 515.445 147.716 C 519.647 146.617 520.689 141.246 517.636 136.424 C 516.593 134.778 514.104 134.075 511.617 134.726 C 509.183 135.362 506.734 134.708 505.869 133.191 C 505.041 131.737 502.549 130.235 500.333 129.852 C 497.044 129.285 496.372 130.176 496.682 134.698 C 497.055 140.15 496.986 140.183 492.461 136.77 C 488.502 133.784 488.092 132.31 489.515 126.191 C 494.041 106.739 489.15 98.2642 465.182 84.025 C 457.502 79.4624 449.227 72.9329 446.793 69.5149 C 442.042 62.8428 439.588 48.9803 441.68 40.6412 C 443.551 33.1874 451.085 28.7928 457.689 31.3034 C 467.245 34.9366 466.598 49.5634 456.882 49.5634 C 451.444 49.5634 449.816 45.3115 454.064 42.2052 C 456.108 40.7109 456.765 39.4883 455.524 39.4883 C 454.283 39.4883 451.733 41.0231 449.857 42.899 C 446.653 46.1033 446.711 46.5246 450.829 49.8589 C 454.306 52.6746 456.185 52.9648 459.92 51.2631 C 465.508 48.717 469.782 41.4979 468.781 36.2977 C 467.661 30.4803 454.973 22.8801 448.524 24.1637 C 444.033 25.0577 442.597 24.2774 440.45 19.7758 C 437.532 13.6574 427.608 11.26 423.248 15.6202 L 423.248 15.6202 M 436.654 23.649 C 439.136 28.0488 439.042 29.2992 435.871 34.1395 L 432.27 39.6347 L 428.348 33.1846 C 425.173 27.9649 424.848 25.8066 426.641 21.8705 C 429.26 16.1222 432.76 16.7438 436.654 23.649 L 436.654 23.649 M 455.774 84.1886 C 453.753 87.4584 449.547 85.7258 447.246 80.6754 C 444.896 75.5169 444.896 75.5169 450.843 79.0301 C 454.114 80.9624 456.333 83.2837 455.774 84.1886 L 455.774 84.1886 M 415.534 82.523 C 414.335 85.6466 408.649 87.3164 408.649 84.5448 C 408.649 83.0625 415.415 77.8224 416.25 78.6577 C 416.555 78.9625 416.233 80.7019 415.534 82.523 L 415.534 82.523 M 402.604 104.296 C 402.604 106.778 391.877 124.667 386.741 130.752 C 383.839 134.189 383.57 134.141 381.13 129.744 C 376.783 121.913 377.895 114.263 384.314 107.844 C 390.325 101.833 402.604 99.4513 402.604 104.296 L 402.604 104.296 M 478.088 105.11 C 486.549 110.654 488.912 126.607 482.108 132.254 C 480.024 133.983 477.434 131.473 470.241 120.75 C 465.18 113.207 461.04 105.892 461.04 104.494 C 461.04 100.895 472.273 101.3 478.088 105.11 L 478.088 105.11 M 447.093 166.987 C 459.479 175.334 466.748 190.615 470.073 215.299 L 471.362 224.871 L 434.968 224.871 L 398.574 224.871 L 398.574 218.72 C 398.574 208.133 404.705 185.038 409.343 178.157 C 415.343 169.253 425.992 162.405 433.837 162.405 C 437.388 162.405 443.353 164.467 447.093 166.987 L 447.093 166.987 M 348.611 180.036 C 344.198 185.301 338.673 191.335 336.333 193.446 C 332.149 197.221 332.079 197.221 332.086 193.446 C 332.095 188.917 339.113 176.575 343.722 172.984 C 345.499 171.598 349.132 170.465 351.794 170.465 C 356.457 170.465 356.341 170.815 348.611 180.036 L 348.611 180.036 M 522.903 174.999 C 527.905 180.491 530.535 185.622 532.459 193.638 L 533.909 199.683 L 528.505 194.645 C 525.533 191.875 519.481 185.301 515.056 180.036 C 507.01 170.465 507.01 170.465 512.892 170.465 C 516.424 170.465 520.422 172.276 522.903 174.999 L 522.903 174.999 M 629.732 274.322 C 631.235 274.78 629.86 277.393 626.181 281.072 C 622.88 284.373 619.64 289.766 618.982 293.056 C 618.135 297.29 616.376 299.308 612.961 299.96 C 608.109 300.888 606.399 298.723 610.152 296.404 C 614.486 293.725 612.152 289.708 606.625 290.333 C 603.578 290.678 599.951 290.034 598.565 288.902 C 595.575 286.457 595.161 275.246 598.062 275.246 C 599.17 275.246 600.077 276.002 600.077 276.925 C 600.077 277.849 601.21 278.744 602.595 278.915 C 603.981 279.086 606.928 279.464 609.144 279.755 C 611.361 280.046 613.401 279.377 613.678 278.269 C 613.955 277.16 613.139 276.254 611.864 276.254 C 610.589 276.254 609.244 274.274 608.874 271.853 C 608.21 267.498 608.3 267.484 617.741 270.514 C 622.987 272.198 628.383 273.911 629.732 274.322 L 629.732 274.322 M 253.492 271.216 C 253.492 275.086 252.585 276.249 250.026 275.662 C 246.264 274.798 246.867 278.622 250.725 280.103 C 252.528 280.795 255.209 280.36 256.682 279.137 C 258.156 277.915 260.308 277.499 261.464 278.214 C 262.621 278.929 263.568 278.554 263.568 277.38 C 263.568 276.206 264.474 275.246 265.583 275.246 C 268.653 275.246 267.984 286.522 264.755 289.202 C 263.026 290.637 261.445 290.808 260.722 289.638 C 259.131 287.063 251.477 289.189 251.477 292.206 C 251.477 293.517 252.611 295.755 253.996 297.179 C 256.032 299.271 255.571 299.638 251.597 299.093 C 248.062 298.609 246.234 296.696 245.101 292.298 C 244.234 288.932 240.722 283.493 237.298 280.213 L 231.073 274.248 L 239.764 271.922 C 251.07 268.897 253.493 268.772 253.493 271.216 L 253.492 271.216 M 463.055 296.75 C 502.094 307.45 535.492 341.647 544.588 380.235 C 561.981 454.021 507.822 523.564 432.83 523.739 C 423.409 523.76 413.435 523.259 410.664 522.624 C 407.894 521.989 402.907 520.812 399.582 520.008 C 374.39 513.919 342.086 486.603 329.357 460.628 C 321.478 444.55 316.028 423.13 316.028 408.238 C 316.028 379.277 329.502 347.858 351.025 326.629 C 381.88 296.197 421.998 285.497 463.055 296.75 L 463.055 296.75 M 269.228 340.695 C 270.635 343.783 272.612 345.268 274.403 344.581 C 276.684 343.705 277.447 346.054 277.99 355.615 C 278.609 366.501 278.249 367.869 274.527 368.8 C 268.156 370.392 255.984 366.276 252.544 361.366 C 248.879 356.133 248.588 349.184 251.779 343.121 C 256.503 334.147 265.664 332.873 269.228 340.695 L 269.228 340.695 M 609.236 340.643 C 622.42 353.827 607.665 375.826 588.811 371.094 C 585.184 370.184 583.954 368.836 584.781 366.681 C 585.436 364.974 585.971 359.057 585.971 353.531 C 585.971 344.402 586.339 343.602 590.001 344.764 C 592.69 345.618 594.032 345.127 594.032 343.288 C 594.032 339.764 598.075 335.697 601.579 335.697 C 603.07 335.697 606.516 337.923 609.236 340.643 L 609.236 340.643 M 275.214 434.433 C 279.066 434.433 279.435 435.213 278.31 440.982 C 277.608 444.584 276.22 447.85 275.225 448.24 C 271.032 449.885 265.56 457.73 265.265 462.52 C 264.798 470.118 264.871 471.117 266.404 478 C 267.678 483.723 267.129 484.687 260.303 488.715 C 252.874 493.098 252.753 493.103 247.606 489.279 C 244.093 486.668 242.24 483.198 241.886 478.564 C 240.612 461.894 239.367 458.348 235.247 459.656 C 229.806 461.383 230.3 457.443 236.273 451.469 C 241.942 445.8 249.749 445.035 253.673 449.764 C 255.956 452.514 255.797 453.418 252.627 455.736 C 250.572 457.239 247.886 458.885 246.658 459.395 C 242.994 460.915 249.403 464.297 253.779 463.152 C 259.55 461.643 262.426 455.08 259.821 449.363 C 258.296 446.016 258.303 444.264 259.846 443.31 C 261.135 442.514 261.607 438.324 261.007 433.006 L 259.997 424.044 L 265.419 429.239 C 268.401 432.096 272.809 434.433 275.214 434.433 L 275.214 434.433 M 602.414 434.673 C 601.901 440.057 602.544 443.543 604.246 444.594 C 606.37 445.907 606.383 446.803 604.314 449.295 C 599.322 455.31 607.95 466.708 615.347 463.869 C 618.934 462.493 619.116 458.613 615.592 458.613 C 610.874 458.613 608.151 454.292 610.317 450.245 C 613.124 444.999 621.503 445.601 627.371 451.469 C 632.81 456.908 634.621 465.049 629.435 460.745 C 625.412 457.406 622.242 463.802 622.242 475.257 C 622.242 482.154 621.1 485.179 617.066 488.968 C 611.891 493.83 611.891 493.83 604.473 489.474 C 599.497 486.552 597.262 483.905 597.685 481.437 C 598.032 479.412 598.433 473.328 598.576 467.916 C 598.805 459.263 598.071 457.391 592.498 452.411 C 588.981 449.269 585.893 444.323 585.562 441.301 C 585.067 436.791 585.81 435.784 589.882 435.452 C 592.587 435.231 596.214 433.131 597.942 430.787 C 602.48 424.629 603.304 425.344 602.414 434.673 L 602.414 434.673 M 245.823 434.168 C 246.571 439.261 245.819 440.257 239.503 442.541 C 235.561 443.967 231.925 445.219 231.424 445.325 C 230.923 445.43 230.188 442.177 229.79 438.096 C 229.102 431.027 229.382 430.638 235.739 429.855 C 239.408 429.403 242.987 428.888 243.692 428.71 C 244.398 428.533 245.357 430.989 245.823 434.168 L 245.823 434.168 M 634.695 440.296 L 633.988 447.71 L 625.489 443.77 C 618.128 440.356 617.096 439.106 617.783 434.429 C 618.552 429.189 618.823 429.087 626.988 430.955 C 635.184 432.831 635.384 433.073 634.695 440.296 L 634.695 440.296 M 417.956 172.54 C 410.078 179.458 405.095 191.902 403.257 209.254 L 402.03 220.84 L 434.558 220.84 C 471.454 220.84 468.81 222.427 465.04 202.547 C 460.482 178.515 449.917 166.457 433.403 166.442 C 426.814 166.437 423.351 167.804 417.956 172.54 L 417.956 172.54 M 448.629 176.5 C 454.588 182.458 459.581 194.534 462.173 209.254 L 463.504 216.81 L 434.811 216.81 L 406.119 216.81 L 407.441 208.247 C 411.322 183.107 420.491 170.465 434.844 170.465 C 440.766 170.465 444.018 171.889 448.629 176.5 L 448.629 176.5 M 402.831 300.596 C 374.771 308.142 344.858 332.656 332.413 358.303 C 302.997 418.921 330.489 488.428 393.537 512.837 C 408.232 518.527 438.761 520.719 454.95 517.247 C 496.935 508.243 531.77 473.337 540.611 431.41 C 544.362 413.625 544.362 402.85 540.611 385.065 C 532.086 344.638 499.781 310.872 459.623 300.412 C 445.215 296.659 417.131 296.75 402.831 300.596 L 402.831 300.596 M 457.934 304.527 C 512.73 318.8 548.09 374.35 536.775 428.388 C 531.978 451.3 523.186 467.403 506.521 483.801 C 484.467 505.502 461.461 515.034 431.139 515.034 C 405.743 515.034 379.881 505.064 360.817 487.924 C 304.194 437.014 316.81 346.186 385.185 312.493 C 393.103 308.591 403.662 304.608 408.649 303.641 C 423.254 300.81 445.175 301.204 457.934 304.527 L 457.934 304.527 M 430.224 310.38 C 428.223 312.381 426.686 312.627 425.237 311.178 C 423.788 309.729 421.997 309.75 419.422 311.247 C 417.016 312.645 416.68 313.431 418.47 313.47 C 420.583 313.517 421.025 316.108 420.336 324.41 C 419.535 334.076 419.8 335.059 422.717 333.238 C 424.657 332.026 426.081 328.293 426.2 324.108 C 426.407 316.821 429.564 313.142 434.822 314.061 C 439.72 314.917 439.303 320.209 433.877 326.038 C 431.084 329.037 428.8 331.833 428.8 332.251 C 428.8 332.668 431.747 333.038 435.348 333.071 C 442.108 333.134 446.935 330.665 446.935 327.143 C 446.935 325.868 445.985 325.916 444.348 327.275 C 442.926 328.455 440.616 328.713 439.216 327.847 C 437.228 326.619 437.354 325.705 439.787 323.686 C 444.128 320.083 443.686 312.076 439.007 309.572 C 434.008 306.897 433.677 306.927 430.224 310.38 L 430.224 310.38 M 383.462 322.433 C 380.883 324.392 380.412 325.517 382.153 325.558 C 384.136 325.604 384.679 328.084 384.154 334.689 C 383.757 339.677 384.148 343.757 385.022 343.757 C 387.709 343.757 388.768 338.635 388.116 328.79 C 387.515 319.729 387.339 319.489 383.462 322.433 L 383.462 322.433 M 393.537 322.433 C 390.958 324.392 390.487 325.517 392.228 325.558 C 394.211 325.604 394.754 328.084 394.229 334.689 C 393.832 339.677 394.223 343.757 395.097 343.757 C 397.785 343.757 398.844 338.635 398.191 328.79 C 397.59 319.729 397.415 319.489 393.537 322.433 L 393.537 322.433 M 458.975 324.745 C 457.894 327.588 457.01 330.762 457.01 331.798 C 457.01 332.834 456.103 333.682 454.995 333.682 C 453.887 333.682 452.98 336.28 452.98 339.455 C 452.98 342.63 451.166 347.534 448.95 350.352 C 446.733 353.17 444.92 356.919 444.92 358.684 C 444.92 360.448 444.045 361.892 442.976 361.892 C 439.198 361.892 436.575 369.686 438.895 374.02 C 442.353 380.482 435.647 399.539 429.36 401.117 C 425.326 402.13 424.628 403.401 425.151 408.787 C 425.71 414.549 426.601 415.377 433.43 416.477 C 441.87 417.837 454.995 428.882 454.995 434.625 C 454.995 436.608 458.542 439.905 463.399 442.437 C 468.021 444.846 475.904 450.151 480.916 454.226 C 490.028 461.636 490.028 461.636 485.23 455.087 C 482.591 451.485 479.773 448.538 478.968 448.538 C 478.162 448.538 474.146 443.964 470.042 438.374 C 465.939 432.784 461.554 428.57 460.299 429.011 C 456.688 430.278 438.488 414.168 439.766 410.836 C 440.376 409.246 439.993 406.297 438.915 404.282 C 436.16 399.134 442.11 382.156 448.529 376.85 C 452.491 373.575 453.305 371.521 452.271 367.402 C 451.544 364.507 451.86 361.577 452.972 360.889 C 454.085 360.202 454.995 356.053 454.995 351.671 C 454.995 347.288 455.795 342.128 456.773 340.203 C 458.886 336.045 462.834 319.577 461.718 319.577 C 461.29 319.577 460.056 321.903 458.975 324.745 L 458.975 324.745 M 452.98 357.981 C 452.98 359.024 451.62 359.877 449.957 359.877 C 446.841 359.877 445.954 357.499 448.223 355.23 C 449.833 353.62 452.98 355.44 452.98 357.981 L 452.98 357.981 M 448.95 369.952 C 448.95 371.061 447.59 371.967 445.927 371.967 C 444.265 371.967 442.905 371.061 442.905 369.952 C 442.905 368.844 444.265 367.937 445.927 367.937 C 447.59 367.937 448.95 368.844 448.95 369.952 L 448.95 369.952 M 463.055 434.433 C 463.055 435.541 462.148 436.448 461.04 436.448 C 459.932 436.448 459.025 435.541 459.025 434.433 C 459.025 433.325 459.932 432.418 461.04 432.418 C 462.148 432.418 463.055 433.325 463.055 434.433 L 463.055 434.433 M 469.1 440.478 C 469.1 441.586 468.14 442.493 466.966 442.493 C 465.792 442.493 465.393 441.586 466.078 440.478 C 466.762 439.37 467.723 438.463 468.211 438.463 C 468.7 438.463 469.1 439.37 469.1 440.478 L 469.1 440.478 M 472.962 324.442 C 472.5 324.901 472.436 330.389 472.819 336.636 C 473.735 351.576 477.957 350.44 478.772 335.034 C 479.231 326.357 478.705 323.607 476.589 323.607 C 475.056 323.607 473.424 323.983 472.962 324.442 L 472.962 324.442 M 352.06 352.321 C 351.967 352.598 351.74 357.923 351.556 364.155 C 351.31 372.493 351.886 375.23 353.74 374.518 C 356.781 373.35 357.259 351.817 354.244 351.817 C 353.135 351.817 352.153 352.044 352.06 352.321 L 352.06 352.321 M 361.541 354.883 C 356.852 359.572 357.383 369.1 362.535 372.709 C 367.822 376.412 371.153 375.254 374.152 368.67 C 375.938 364.752 375.881 362.347 373.906 358.227 C 370.81 351.766 365.967 350.457 361.541 354.883 L 361.541 354.883 M 370.272 358.759 C 373.164 362.243 372.34 370.325 368.981 371.431 C 365.766 372.489 359.547 362.7 361.011 358.885 C 362.489 355.036 367.13 354.973 370.272 358.759 L 370.272 358.759 M 500.549 355.004 C 498.693 359.84 499.001 360.192 503.144 357.975 C 505.934 356.482 507.578 356.674 509.249 358.687 C 511.017 360.817 510.38 362.813 506.438 367.499 C 503.634 370.831 501.34 374 501.34 374.542 C 501.34 376.68 512.574 377.53 514.942 375.572 C 518.758 372.416 517.959 370.199 513.431 371.383 C 508.573 372.654 508.396 371.344 512.566 364.979 C 515.024 361.228 515.233 359.216 513.503 355.982 C 510.857 351.038 502.318 350.393 500.548 355.004 L 500.549 355.004 M 335.135 397.408 C 333.323 399.221 332.134 403.047 332.473 405.972 C 332.946 410.055 334.349 411.406 338.627 411.898 C 341.675 412.249 344.169 413.495 344.169 414.669 C 344.169 415.999 341.713 416.311 337.647 415.497 C 331.544 414.277 331.342 414.41 334.503 417.571 C 337.611 420.679 338.275 420.692 342.793 417.732 C 349.333 413.446 351.296 405.153 347.237 398.957 C 343.545 393.322 339.712 392.832 335.135 397.408 L 335.135 397.408 M 345.17 400.16 C 346.701 404.984 345.007 408.238 340.964 408.238 C 337.423 408.238 335.217 403.391 336.837 399.17 C 338.502 394.831 343.674 395.445 345.17 400.16 L 345.17 400.16 M 519.979 395.467 C 518.594 396.026 517.461 397.286 517.461 398.267 C 517.461 399.248 518.729 399.564 520.279 398.969 C 524.094 397.506 526.407 401.719 523.628 405.068 C 521.938 407.105 522.142 408.057 524.462 408.947 C 528.382 410.451 528.449 415.516 524.568 417.005 C 522.86 417.661 520.315 416.308 518.57 413.816 C 515.241 409.064 512.608 409.795 514.577 414.925 C 517.68 423.013 531.566 420.056 531.566 411.308 C 531.566 408.642 530.699 405.925 529.639 405.27 C 528.579 404.615 528.258 402.656 528.925 400.917 C 529.592 399.178 528.872 396.955 527.326 395.975 C 524.234 394.017 523.669 393.978 519.979 395.467 L 519.979 395.467 M 354.368 439.321 C 353.056 440.901 352.182 443.395 352.424 444.862 C 352.666 446.33 352.198 449.047 351.384 450.9 C 349.368 455.487 353.522 462.643 358.201 462.643 C 363.548 462.643 368.889 456.799 367.185 452.812 C 366.417 451.016 365.899 447.531 366.034 445.068 C 366.173 442.529 364.604 439.694 362.409 438.519 C 357.455 435.868 357.213 435.892 354.368 439.321 L 354.368 439.321 M 362.304 443.716 C 362.304 445.26 361.508 446.523 360.535 446.523 C 358.022 446.523 354.045 441.349 355.466 439.928 C 357.413 437.981 362.304 440.691 362.304 443.716 L 362.304 443.716 M 361.307 452.581 C 365.594 457.318 364.337 459.53 358.426 457.654 C 356.094 456.914 354.244 454.604 354.244 452.432 C 354.244 447.434 356.697 447.486 361.307 452.581 L 361.307 452.581 M 502.27 448.029 C 498.326 457.468 498.498 458.213 504.363 457.091 C 508.434 456.313 509.401 456.935 509.401 460.33 C 509.401 463.289 510.32 464.179 512.51 463.339 C 514.22 462.682 515.135 461.661 514.542 461.069 C 513.95 460.476 514.238 459.001 515.183 457.791 C 516.127 456.581 516.487 452.304 515.982 448.286 C 515.208 442.133 514.287 440.982 510.139 440.982 C 506.416 440.982 504.496 442.702 502.27 448.029 L 502.27 448.029 M 509.984 448.538 C 509.405 450.755 507.668 452.568 506.126 452.568 C 503.826 452.568 503.774 451.843 505.838 448.538 C 507.222 446.322 508.959 444.508 509.697 444.508 C 510.435 444.508 510.564 446.322 509.984 448.538 L 509.984 448.538 M 384.368 471.61 C 381.091 474.888 382.249 476.229 387.492 475.227 C 393.215 474.133 393.867 476.225 389.571 481.905 C 384.319 488.848 387.45 498.754 393.108 493.096 C 394.754 491.45 394.708 490.854 392.932 490.854 C 389.14 490.854 390.073 486.394 395.552 478.331 C 398.322 474.253 400.589 470.642 400.589 470.307 C 400.589 468.75 386.061 469.917 384.368 471.61 L 384.368 471.61 M 469.1 474.723 C 469.1 478.782 470.053 480.253 472.549 480.051 C 476.672 479.716 478.506 486.298 475.198 489.556 C 473.438 491.29 472.192 490.958 470.165 488.214 C 468.645 486.156 466.941 485.427 466.252 486.541 C 465.582 487.626 466.464 489.945 468.214 491.695 C 474.318 497.798 483.184 488.219 480.183 478.764 C 479.479 476.547 477.947 474.734 476.778 474.734 C 475.306 474.734 475.295 473.958 476.741 472.215 C 478.308 470.326 477.613 469.623 473.965 469.405 C 469.917 469.164 469.1 470.057 469.1 474.723 L 469.1 474.723 M 424.84 486.691 C 419.497 496.676 424.642 508.454 433.389 506.259 C 442.173 504.054 443.27 488.839 434.646 488.839 C 429.824 488.839 427.357 494.264 430.691 497.538 C 432.565 499.379 432.97 499.233 432.47 496.899 C 432.114 495.236 433.182 493.876 434.845 493.876 C 439.017 493.876 438.676 501.725 434.468 502.536 C 432.562 502.903 429.623 500.983 427.776 498.165 C 423.602 491.793 426.869 483.834 433 485.437 C 435.121 485.992 437.363 485.624 437.984 484.619 C 438.605 483.615 436.371 482.794 433.019 482.794 C 429.058 482.794 426.197 484.157 424.84 486.691 L 424.84 486.691 M 260.637 178.816 C 261.806 182.498 261.494 182.666 257.478 180.516 C 253.868 178.584 252.43 178.724 249.904 181.25 C 247.298 183.856 247.223 184.895 249.449 187.577 C 251.296 189.802 251.469 191.429 250.013 192.885 C 248.858 194.04 248.362 196.7 248.91 198.797 C 249.707 201.844 250.672 202.2 253.715 200.571 C 256.869 198.883 257.523 199.238 257.523 202.634 C 257.523 204.89 258.355 206.735 259.373 206.735 C 260.39 206.735 262.657 207.286 264.41 207.958 C 266.827 208.886 267.598 207.879 267.598 203.793 C 267.598 199.215 268.242 198.608 271.879 199.763 C 274.566 200.615 276.806 200.103 277.893 198.387 C 280.627 194.073 280.011 192.63 275.435 192.63 C 271.181 192.63 271.181 192.63 275.558 189.086 C 280.944 184.724 279.281 177.634 273.242 179.214 C 271.11 179.771 268.945 179.129 268.429 177.786 C 267.914 176.443 265.658 175.206 263.417 175.038 C 260.191 174.795 259.611 175.583 260.637 178.816 L 260.637 178.816 M 596.861 177.295 C 596.27 178.835 594.156 179.668 592.164 179.147 C 587.156 177.838 585.041 184.232 589.026 188.635 C 591.914 191.826 591.811 192.214 587.803 193.262 C 583.731 194.327 583.66 194.636 586.767 197.744 C 588.603 199.58 591.433 200.572 593.055 199.95 C 595.007 199.2 596.427 200.498 597.252 203.784 C 597.938 206.515 598.913 208.75 599.42 208.75 C 602.369 208.75 608.137 204.161 608.137 201.816 C 608.137 200.113 609.577 199.429 611.889 200.034 C 616.581 201.261 619.531 195.025 615.068 193.312 C 612.375 192.279 612.426 191.654 615.471 188.288 C 618.745 184.671 618.748 184.243 615.526 181.02 C 612.687 178.182 611.418 178.023 608.104 180.093 C 604.616 182.271 604.107 182.074 604.107 178.542 C 604.107 173.947 598.515 172.984 596.861 177.295 L 596.861 177.295 M 228.615 572.995 C 214.812 594.907 214.733 594.146 232.194 607.616 L 242.894 615.871 L 272.877 604.999 L 302.861 594.127 L 317.204 608.168 C 331.495 622.158 331.568 622.198 337.354 619.221 C 357.458 608.876 397.13 601.683 433.837 601.728 C 471.114 601.773 504.055 607.303 527.879 617.516 L 536.965 621.41 L 547.488 607.612 L 558.011 593.814 L 574.51 599.942 C 583.585 603.313 597.19 608.32 604.744 611.07 L 618.479 616.069 L 629.308 607.715 C 646.121 594.743 645.881 595.612 636.956 580.077 L 629.109 566.417 L 431.233 565.942 L 233.356 565.467 L 228.615 572.995 L 228.615 572.995  " />
	<path class="tick" d=" 
		M 396.63 611.623 C 393.983 616.569 393.953 625.02 396.565 629.901 C 397.915 632.424 397.915 634.09 396.565 634.925 C 393.582 636.768 394.111 648.678 397.374 653.141 C 399.863 656.544 399.697 657.725 395.996 662.922 C 391.787 668.832 391.787 668.832 401.73 677.638 C 412.736 687.387 422.755 695.095 422.755 693.816 C 422.755 690.995 414.021 668.375 410.869 663.033 C 408.641 659.256 407.743 655.538 408.689 654.007 C 411.053 650.181 410.66 613.19 408.224 610.244 C 405.109 606.478 398.994 607.205 396.63 611.623 L 396.63 611.623 M 405.627 620.991 C 405.627 626.663 404.776 628.883 402.604 628.883 C 399.396 628.883 397.392 619.757 399.433 614.44 C 401.614 608.755 405.627 612.999 405.627 620.991 L 405.627 620.991 M 406.634 643.779 C 406.634 652.606 405.074 654.941 401.278 651.791 C 397.957 649.035 397.732 639.598 400.912 636.419 C 404.549 632.782 406.634 635.464 406.634 643.779 L 406.634 643.779 
		M 388.694 678.559 C 386.234 685.616 384.438 683.516 414.214 708.397 C 425.574 717.889 426.762 718.447 426.546 714.192 C 425.961 702.635 423.254 698.445 408.034 685.541 C 399.383 678.207 391.991 672.206 391.607 672.206 C 391.223 672.206 389.912 675.065 388.694 678.559 L 388.694 678.559
		M 385.891 689.81 C 385.415 690.656 384.457 693.735 383.762 696.651 C 382.612 701.471 384.719 703.836 406.934 722.67 L 431.371 743.387 L 429.962 733.488 C 428.916 726.131 427.062 722.296 422.742 718.551 C 400.9 699.62 386.632 688.492 385.891 689.81 L 385.891 689.81
		M 379.961 712.832 C 378.926 719.884 376.667 717.407 410.664 746.488 C 421.193 755.494 430.302 762.867 430.907 762.872 C 431.512 762.877 431.512 758.848 430.907 753.919 C 429.863 745.412 428.655 743.974 407.197 725.708 C 394.762 715.122 383.757 706.461 382.742 706.461 C 381.727 706.461 380.476 709.328 379.961 712.832 L 379.961 712.832 
		M 377.267 729.72 C 376.518 733.717 376.698 737.747 377.668 738.675 C 378.638 739.602 390.757 749.955 404.599 761.68 C 425.44 779.334 430.005 782.395 431.156 779.489 C 434.683 770.587 432.788 767.802 410.238 748.735 C 375.129 719.049 378.865 721.204 377.267 729.72 L 377.267 729.72 
		M 375.6 743.948 C 372.047 753.208 374.252 756.268 400.725 778.813 C 415.207 791.147 427.902 800.715 428.935 800.076 C 433.369 797.336 430.783 786.911 424.266 781.252 C 386.413 748.381 376.743 740.969 375.6 743.948 L 375.6 743.948 
		M 374.394 768.85 C 374.394 776.552 375.212 777.526 397.685 796.556 C 410.495 807.404 421.726 816.548 422.644 816.875 C 423.561 817.203 425.25 814.779 426.396 811.49 C 428.452 805.593 428.118 805.197 402.519 783.188 C 388.239 770.911 376.069 760.867 375.475 760.867 C 374.88 760.867 374.394 764.459 374.394 768.85 L 374.394 768.85  
		M 374.394 788.708 C 374.394 796.549 375.218 797.609 394.04 813.978 C 413.687 831.065 413.687 831.065 418.259 826.811 C 420.774 824.472 422.588 821.962 422.289 821.235 C 421.818 820.086 387.713 790.905 377.92 783.272 C 374.689 780.754 374.394 781.21 374.394 788.708 L 374.394 788.708 
		M 377.235 808.399 C 381.441 825.695 394.024 837.507 405.244 834.691 C 408.225 833.943 410.611 832.668 410.546 831.858 C 410.432 830.448 388.233 811.306 379.836 805.377 C 376.022 802.684 375.885 802.843 377.235 808.399 L 377.235 808.399 "/>
	<path class="tock" d="
		M 457.835 610.744 C 455.591 614.168 454.942 617.872 455.807 622.33 C 456.506 625.934 456.986 630.016 456.876 631.402 C 456.633 634.432 456.607 651.034 456.839 654.574 C 456.93 655.96 456.465 660.39 455.806 664.42 C 455.144 668.468 455.626 673.651 456.884 676 C 458.635 679.272 458.51 681.494 456.342 685.631 C 453.578 690.908 453.786 691.235 467.442 703.017 C 475.096 709.621 481.703 714.68 482.124 714.259 C 483.321 713.062 475.742 692.693 471.294 685.154 C 469.09 681.419 468.059 677.887 469.002 677.304 C 469.945 676.721 470.7 661.693 470.679 643.908 C 470.65 618.34 470.029 610.957 467.712 608.64 C 463.608 604.536 461.625 604.958 457.835 610.744 L 457.835 610.744 M 467.757 619.748 C 467.757 626.967 466.367 628.804 462.134 627.18 C 458.428 625.758 457.962 615.639 461.443 612.158 C 464.835 608.767 467.757 612.279 467.757 619.748 L 467.757 619.748 M 467.135 639.09 C 469.132 644.342 466.791 652.056 463.2 652.056 C 460.981 652.056 459.025 646.944 459.025 641.144 C 459.025 632.588 464.168 631.285 467.135 639.09 L 467.135 639.09 M 466.888 662.634 C 468.932 668.125 466.655 675.228 462.852 675.228 C 459.541 675.228 458.206 669.699 459.892 662.979 C 461.428 656.86 464.679 656.7 466.888 662.634 L 466.888 662.634

		M 450.241 698.823 C 449.561 701.361 448.992 704.453 448.977 705.692 C 448.946 708.271 485.054 739.539 486.451 738.142 C 486.956 737.638 486.766 733.456 486.03 728.85 C 484.863 721.555 482.77 718.859 469.784 707.927 C 461.585 701.026 454.113 695.115 453.178 694.792 C 452.243 694.47 450.922 696.284 450.241 698.823 L 450.241 698.823
		M 445.937 712.882 C 442.603 721.986 443.975 723.993 466.845 743.483 C 479.458 754.232 490.143 762.661 490.588 762.215 C 491.034 761.77 490.796 757.632 490.058 753.02 C 488.864 745.551 486.711 742.92 470.345 728.926 C 448.612 710.342 447.206 709.418 445.937 712.882 L 445.937 712.882 
		M 442.146 729.712 C 438.606 738.937 440.766 741.961 466.358 763.612 C 480.365 775.463 492.183 784.801 492.62 784.364 C 493.057 783.928 492.814 779.815 492.08 775.226 C 490.731 766.793 487.852 763.874 446.68 729.198 C 443.875 726.836 443.221 726.91 442.146 729.712 L 442.146 729.712 
		M 438.847 747.265 C 438.832 748.651 438.302 751.713 437.669 754.071 C 436.713 757.633 441.136 762.32 463.818 781.778 C 478.832 794.659 491.604 805.197 492.199 805.197 C 492.794 805.197 493.28 801.636 493.28 797.284 C 493.28 789.631 492.421 788.636 467.167 767.059 C 452.805 754.787 440.564 744.747 439.965 744.747 C 439.365 744.747 438.862 745.88 438.847 747.265 L 438.847 747.265 
		M 436.244 767.449 C 435.675 769.924 435.121 777.852 435.013 785.067 L 434.817 798.184 L 459.332 818.901 C 472.815 830.295 484.545 838.901 485.398 838.024 C 486.252 837.147 487.478 834.163 488.123 831.393 C 489.168 826.907 486.421 823.946 463.062 804.374 C 448.633 792.284 437.214 782.006 437.686 781.534 C 438.159 781.062 449.561 790.046 463.025 801.5 C 476.488 812.954 488.35 822.627 489.385 822.997 C 490.419 823.366 491.265 820.137 491.265 815.82 C 491.265 808.288 490.317 807.167 467.691 787.946 C 435.947 760.979 437.5 761.991 436.244 767.449 L 436.244 767.449
		M 434.845 809.799 C 434.845 818.496 435.126 818.855 455.499 836.179 C 476.153 853.741 476.153 853.741 479.679 849.396 C 481.618 847.007 483.205 844.361 483.205 843.517 C 483.205 842.674 472.324 832.758 459.025 821.483 L 434.845 800.983 L 434.845 809.799 L 434.845 809.799 
		M 436.86 825.918 C 436.86 831.247 441.425 842.447 446.244 848.94 C 451.522 856.052 462.329 859.427 469.532 856.213 C 473.341 854.513 472.026 852.895 455.295 838.7 C 445.155 830.097 436.86 824.345 436.86 825.918 L 436.86 825.918" />
</g>

</svg>