<?xml version="1.0" standalone="yes"?>

<svg version="1.1" viewBox="0.0 0.0 429.4750656167979 612.6430446194225" fill="none" stroke="none" stroke-linecap="square" stroke-miterlimit="10" xmlns="http://www.w3.org/2000/svg" xmlns:xlink="http://www.w3.org/1999/xlink"><clipPath id="p.0"><path d="m0 0l429.47507 0l0 612.64307l-429.47507 0l0 -612.64307z" clip-rule="nonzero"></path></clipPath><g clip-path="url(#p.0)"><path fill="#000000" fill-opacity="0.0" d="m0 0l429.47507 0l0 612.64307l-429.47507 0z" fill-rule="nonzero"></path><path fill="#b7b7b7" d="m23.288713 22.401575l379.7795 0l0 567.8425l-379.7795 0z" fill-rule="nonzero"></path><path stroke="#666666" stroke-width="24.0" stroke-linejoin="round" stroke-linecap="butt" d="m23.288713 22.401575l379.7795 0l0 567.8425l-379.7795 0z" fill-rule="nonzero"></path><path fill="#d9d9d9" d="m179.8084 224.81102l69.85828 0l0 163.02364l-69.85828 0z" fill-rule="nonzero"></path><path stroke="#434343" stroke-width="12.0" stroke-linejoin="round" stroke-linecap="butt" d="m179.8084 224.81102l69.85828 0l0 163.02364l-69.85828 0z" fill-rule="nonzero"></path><path fill="#d9d9d9" d="m198.84776 145.1076l0 0c0 -7.418869 6.4160767 -13.43306 14.330719 -13.43306l0 0c7.914627 0 14.330704 6.0141907 14.330704 13.43306l0 0c0 7.4188843 -6.4160767 13.433075 -14.330704 13.433075l0 0c-7.9146423 0 -14.330719 -6.0141907 -14.330719 -13.433075z" fill-rule="nonzero"></path><path stroke="#434343" stroke-width="12.0" stroke-linejoin="round" stroke-linecap="butt" d="m198.84776 145.1076l0 0c0 -7.418869 6.4160767 -13.43306 14.330719 -13.43306l0 0c7.914627 0 14.330704 6.0141907 14.330704 13.43306l0 0c0 7.4188843 -6.4160767 13.433075 -14.330704 13.433075l0 0c-7.9146423 0 -14.330719 -6.0141907 -14.330719 -13.433075z" fill-rule="nonzero"></path><path fill="#d9d9d9" d="m200.40683 467.53806l0 0c0 -7.4188843 6.4160767 -13.433075 14.330704 -13.433075l0 0c7.914627 0 14.330704 6.0141907 14.330704 13.433075l0 0c0 7.4188843 -6.4160767 13.433075 -14.330704 13.433075l0 0c-7.914627 0 -14.330704 -6.0141907 -14.330704 -13.433075z" fill-rule="nonzero"></path><path stroke="#434343" stroke-width="12.0" stroke-linejoin="round" stroke-linecap="butt" d="m200.40683 467.53806l0 0c0 -7.4188843 6.4160767 -13.433075 14.330704 -13.433075l0 0c7.914627 0 14.330704 6.0141907 14.330704 13.433075l0 0c0 7.4188843 -6.4160767 13.433075 -14.330704 13.433075l0 0c-7.914627 0 -14.330704 -6.0141907 -14.330704 -13.433075z" fill-rule="nonzero"></path><path fill="#cfe2f3" d="m570.5513 101.786285l-8.587402 126.37193l-19.381104 39.67531l8.587341 -126.37193z" fill-rule="nonzero"></path><path stroke="#000000" stroke-width="1.0" stroke-linejoin="round" stroke-linecap="butt" d="m570.5513 101.786285l-8.587402 126.37193l-19.381104 39.67531l8.587341 -126.37193z" fill-rule="nonzero"></path><path fill="#666666" d="m232.65967 262.1497l0 -51.656265l44.40518 0l0 51.656265z" fill-rule="nonzero"></path><path stroke="#434343" stroke-width="12.0" stroke-linejoin="round" stroke-linecap="butt" d="m232.65967 262.1497l0 -51.656265l44.40518 0l0 51.656265z" fill-rule="nonzero"></path><path fill="#666666" d="m196.77553 329.39114l35.6212 -67.2377l44.712128 0l-35.6212 67.2377z" fill-rule="nonzero"></path><path stroke="#434343" stroke-width="12.0" stroke-linejoin="round" stroke-linecap="butt" d="m196.77553 329.39114l35.6212 -67.2377l44.712128 0l-35.6212 67.2377z" fill-rule="nonzero"></path><path fill="#666666" d="m195.0361 327.6268l37.623566 -69.780396l0 -47.35701l-37.623566 69.78041z" fill-rule="nonzero"></path><path stroke="#434343" stroke-width="12.0" stroke-linejoin="round" stroke-linecap="butt" d="m195.0361 327.6268l37.623566 -69.780396l0 -47.35701l-37.623566 69.78041z" fill-rule="nonzero"></path><path fill="#b7b7b7" d="m680.8898 197.05774l34.04724 0l0 40.314957l-34.04724 0z" fill-rule="nonzero"></path><path stroke="#434343" stroke-width="4.0" stroke-linejoin="round" stroke-linecap="butt" d="m680.8898 197.05774l34.04724 0l0 40.314957l-34.04724 0z" fill-rule="nonzero"></path><path fill="#000000" fill-opacity="0.0" d="m680.4514 237.3727l-24.188965 61.795273" fill-rule="nonzero"></path><path stroke="#434343" stroke-width="4.0" stroke-linejoin="round" stroke-linecap="butt" d="m680.4514 237.3727l-24.188965 61.795273" fill-rule="nonzero"></path><path fill="#000000" fill-opacity="0.0" d="m680.8898 197.05774l-28.661438 68.06299" fill-rule="nonzero"></path><path stroke="#434343" stroke-width="4.0" stroke-linejoin="round" stroke-linecap="butt" d="m680.8898 197.05774l-28.661438 68.06299" fill-rule="nonzero"></path><path fill="#b7b7b7" d="m684.2467 239.60892l90.456726 0l0 20.157501l-90.456726 0z" fill-rule="nonzero"></path><path fill="#000000" fill-opacity="0.0" d="m714.937 237.3727l-24.188965 61.795273" fill-rule="nonzero"></path><path stroke="#434343" stroke-width="4.0" stroke-linejoin="round" stroke-linecap="butt" d="m714.937 237.3727l-24.188965 61.795273" fill-rule="nonzero"></path><path fill="#b7b7b7" d="m562.1452 396.37793l0 -51.653534l44.409485 0l0 51.653534z" fill-rule="nonzero"></path><path stroke="#434343" stroke-width="4.0" stroke-linejoin="round" stroke-linecap="butt" d="m562.1452 396.37793l0 -51.653534l44.409485 0l0 51.653534z" fill-rule="nonzero"></path><path fill="#b7b7b7" d="m526.2611 463.6285l35.624573 -67.24411l44.721863 0l-35.624573 67.24411z" fill-rule="nonzero"></path><path stroke="#434343" stroke-width="4.0" stroke-linejoin="round" stroke-linecap="butt" d="m526.2611 463.6285l35.624573 -67.24411l44.721863 0l-35.624573 67.24411z" fill-rule="nonzero"></path><path fill="#b7b7b7" d="m524.49084 461.85828l35.30713 -65.48407l0 -51.64981l-35.30713 65.48407z" fill-rule="nonzero"></path><path fill="#000000" fill-opacity="0.0" d="m563.2769 344.7244l-51.055115 79.71655" fill-rule="nonzero"></path><path stroke="#434343" stroke-width="4.0" stroke-linejoin="round" stroke-linecap="butt" d="m563.2769 344.7244l-51.055115 79.71655" fill-rule="nonzero"></path></g></svg>

