<?xml version="1.0" encoding="utf-8"?>
<!-- Generator: Adobe Illustrator 21.0.0, SVG Export Plug-In . SVG Version: 6.00 Build 0)  -->
<svg version="1.1" id="Layer_1" xmlns="http://www.w3.org/2000/svg" xmlns:xlink="http://www.w3.org/1999/xlink" x="0px" y="0px"
	 viewBox="0 0 512 512" style="enable-background:new 0 0 512 512;" xml:space="preserve">
<style type="text/css">
	.st1{fill:#E1E1EB;}
	.st2{fill:#D49000;}
	.st3{fill:#FFFFFF;}
	.st4{opacity:0.1;enable-background:new    ;}
	.st5{fill:#5C6670;}
	.st6{fill:#333E48;}
</style>
	<path id="SVGCleanerId_0_1_" class="st1" d="M315.8,331.5c0-48.6,88.9-76.2,88.9-182.9C404.6,66.5,338.1,0,256,0
		S107.4,66.5,107.4,148.6c0,106.7,88.9,134.3,88.9,182.9H315.8z"/>
	<path id="LEDState" class="st0" fill="#FFC843" d="M315.8,331.5c0-48.6,88.9-76.2,88.9-182.9C404.6,66.5,338.1,0,256,0S107.4,66.5,107.4,148.6
		c0,106.7,88.9,134.3,88.9,182.9H315.8z"/>
<g>
	<path class="st2" d="M227.2,339.8c-4.6,0-8.2-3.7-8.2-8.2c0-42.7-12.3-61.3-25.3-80.9c-12.1-18.2-24.6-37.1-24.6-73.8
		c0-4.6,3.7-8.2,8.2-8.2s8.2,3.7,8.2,8.2c0,31.7,10.1,47,21.8,64.7c13.2,19.8,28.1,42.3,28.1,90
		C235.5,336.1,231.8,339.8,227.2,339.8z"/>
	<path class="st2" d="M284.8,339.8c-4.6,0-8.2-3.7-8.2-8.2c0-47.7,14.9-70.2,28.1-90c11.7-17.7,21.8-32.9,21.8-64.7
		c0-4.6,3.7-8.2,8.2-8.2s8.2,3.7,8.2,8.2c0,36.7-12.5,55.6-24.6,73.8c-13,19.6-25.3,38.2-25.3,80.9
		C293,336.1,289.3,339.8,284.8,339.8z"/>
</g>
<path class="st3" d="M282.9,214.9c-2.5,0-4.9-1.1-6.4-3.1L256,186.4l-20.5,25.4c-1.6,1.9-3.9,3.1-6.4,3.1l0,0
	c-2.5,0-4.9-1.1-6.4-3.1l-26.9-33.4c-2.9-3.5-2.3-8.7,1.3-11.6c3.5-2.9,8.7-2.3,11.6,1.3l20.5,25.4l20.5-25.4
	c1.6-1.9,3.9-3.1,6.4-3.1c2.5,0,4.9,1.1,6.4,3.1l20.5,25.4l20.5-25.4c2.9-3.5,8-4.1,11.6-1.3c3.5,2.9,4.1,8,1.3,11.6l-26.9,33.4
	C287.7,213.8,285.4,214.9,282.9,214.9z"/>
<path class="st4" d="M190.9,310.9c3.4,6.7,5.4,13.4,5.4,20.7h119.5c0-7.3,2-14,5.4-20.7H190.9z"/>
<circle class="st5" cx="256" cy="491.7" r="20.3"/>
<path class="st4" d="M256,471.5c-11.2,0-20.3,9.1-20.3,20.3c0,0.9,0.1,1.8,0.2,2.6c6.3,2,13.1,3.1,20.1,3.1s13.7-1.1,20.1-3.1
	c0.1-0.9,0.2-1.7,0.2-2.6C276.3,480.5,267.2,471.5,256,471.5z"/>
<circle class="st6" cx="256" cy="431.7" r="60"/>
<path class="st4" d="M256,371.7c-33.1,0-60,26.9-60,60c0,4.4,0.5,8.6,1.4,12.7h117.3c0.9-4.1,1.4-8.3,1.4-12.7
	C316,398.6,289.1,371.7,256,371.7z"/>
<path class="st5" d="M341.1,411.4c0,11.2-9.1,20.3-20.3,20.3H191.2c-11.2,0-20.3-9.1-20.3-20.3v-63.1c0-11.2,9.1-20.3,20.3-20.3
	h129.6c11.2,0,20.3,9.1,20.3,20.3V411.4z"/>
<g>
	<rect x="170.9" y="352.2" class="st6" width="170.2" height="16.5"/>
	<rect x="170.9" y="391.1" class="st6" width="170.2" height="16.5"/>
</g>
</svg>
