<svg xmlns="http://www.w3.org/2000/svg" viewBox="0 0 546.82 481">
  <defs>
    <style>
      .a {
        fill: #423b63;
      }

      .b {
        fill: #585275;
      }

      .c {
        fill: #6a6584;
      }

      .d {
        fill: #4a446a;
      }

      .e {
        fill: #362f59;
      }

      .f {
        fill: #6e6987;
      }

      .g {
        fill: #c3c1cd;
      }

      .h {
        fill: #9a97ac;
      }

      .i {
        fill: #86829b;
      }

      .j {
        fill: #d7d5de;
      }

      .k {
        fill: #adaabb;
      }

      .l {
        fill: #504a6f;
      }

      .m {
        fill: #8c88a0;
      }
    </style>
  </defs>
  <title>motor</title>
  <g>
    <g>
      <g>
        <path class="a" d="M572,679.25c.28-1.41-.43-2.8-2.16-3.8L465.42,615.18c-3.28-1.89-9-1.66-12.8.53l-70.88,40.92c-2.35,1.36-3.4,3.15-3.07,4.76a3,3,0,0,0,0,1.17,3,3,0,0,0,0,1.17,3,3,0,0,0,0,1.17,3,3,0,0,0,0,1.17,3,3,0,0,0,0,1.17,3,3,0,0,0,0,1.17c-.28,1.41.43,2.8,2.16,3.8L485.2,732.51c3.28,1.89,9,1.66,12.8-.53l70.88-40.92c2.35-1.36,3.4-3.15,3.07-4.76a3,3,0,0,0,0-1.17,3,3,0,0,0,0-1.17,3,3,0,0,0,0-1.17,3,3,0,0,0,0-1.17,3,3,0,0,0,0-1.17A3,3,0,0,0,572,679.25Z" transform="translate(-226.98 -252.79)"/>
        <path class="b" d="M569.79,674.27,465.42,614c-3.28-1.89-9-1.66-12.8.53l-70.88,40.92c-3.79,2.19-4.2,5.5-.92,7.39L485.2,723.11c3.28,1.89,9,1.66,12.8-.53l70.88-40.92C572.66,679.47,573.08,676.17,569.79,674.27Z" transform="translate(-226.98 -252.79)"/>
        <path class="c" d="M563,669.75l-96.87-55.93c-3-1.76-8.36-1.54-11.88.49l-65.78,38c-3.52,2-3.9,5.1-.85,6.86l96.87,55.93c3,1.76,8.36,1.54,11.88-.49l65.78-38C565.67,674.58,566,671.51,563,669.75Z" transform="translate(-226.98 -252.79)"/>
      </g>
      <g>
        <path class="d" d="M403.78,650.37a7.55,7.55,0,0,0-6.83,0c-1.89,1.09-1.89,2.85,0,3.94a7.55,7.55,0,0,0,6.83,0C405.67,653.23,405.67,651.46,403.78,650.37Z" transform="translate(-226.98 -252.79)"/>
        <path class="d" d="M461.65,617.18a7.55,7.55,0,0,0-6.83,0c-1.89,1.09-1.89,2.85,0,3.94a7.55,7.55,0,0,0,6.83,0C463.54,620,463.54,618.27,461.65,617.18Z" transform="translate(-226.98 -252.79)"/>
        <path class="d" d="M495.73,703.54a7.55,7.55,0,0,0-6.83,0c-1.89,1.09-1.89,2.85,0,3.94a7.55,7.55,0,0,0,6.83,0C497.61,706.39,497.61,704.63,495.73,703.54Z" transform="translate(-226.98 -252.79)"/>
        <path class="d" d="M553.59,670.35a7.55,7.55,0,0,0-6.83,0c-1.89,1.09-1.89,2.85,0,3.94a7.55,7.55,0,0,0,6.83,0C555.48,673.2,555.48,671.44,553.59,670.35Z" transform="translate(-226.98 -252.79)"/>
      </g>
    </g>
    <path class="e" d="M575.55,659.68V588.4a3,3,0,0,0-1.78-3.15l-86.16-49.74c-2.71-1.56-7.44-1.37-10.57.44l-58.51,33.78c-1.94,1.12-2.81,2.6-2.54,3.94V645a3,3,0,0,0,1.78,3.14l86.16,49.74c2.71,1.56,7.44,1.37,10.57-.44L573,663.62C575,662.5,575.82,661,575.55,659.68Z" transform="translate(-226.98 -252.79)"/>
    <g>
      <g>
        <path class="b" d="M428.67,272.15q-1.13-.56-2.28-1.07l-.26-.12h0c-20.27-8.76-46.49-4.57-74.12,14.71-56.54,39.46-97.6,127.13-91.7,195.83,2.63,30.65,14.17,52.33,31.16,63.46h0l.1.06c2.24,1.46,313.56,180,313.56,180L740,450.9Z" transform="translate(-226.98 -252.79)"/>
        <path class="a" d="M773.23,515.64c5.9,68.7-35.16,156.37-91.7,195.83s-107.16,15.76-113.06-52.94,35.16-156.37,91.7-195.83S767.33,446.95,773.23,515.64Z" transform="translate(-226.98 -252.79)"/>
      </g>
      <g>
        <g>
          <path class="f" d="M760.52,551.58c0,56.25-34.2,121.59-76.38,145.95s-76.38-1.5-76.38-57.75,34.2-121.59,76.38-145.95S760.52,495.33,760.52,551.58Z" transform="translate(-226.98 -252.79)"/>
          <g>
            <path class="a" d="M684.13,708.67c-.78.45-1.41,0-1.41-1.07V485.39a3.38,3.38,0,0,1,1.41-2.7c.78-.45,1.41,0,1.41,1.07V706A3.38,3.38,0,0,1,684.13,708.67Z" transform="translate(-226.98 -252.79)"/>
            <path class="a" d="M698.6,698.63c-.67.39-1.27.09-1.39-.75L668.27,495.75a3.45,3.45,0,0,1,1.15-2.84c.77-.62,1.5-.36,1.64.58L700,695.61a3.45,3.45,0,0,1-1.15,2.84Z" transform="translate(-226.98 -252.79)"/>
            <path class="a" d="M712.63,685.51a.83.83,0,0,1-1.33-.47l-57-175.9a3.3,3.3,0,0,1,.84-2.9c.73-.78,1.54-.74,1.81.08l57,175.9a3.3,3.3,0,0,1-.84,2.9A2.15,2.15,0,0,1,712.63,685.51Z" transform="translate(-226.98 -252.79)"/>
            <path class="a" d="M725.8,669.73a.82.82,0,0,1-1.22-.23L641.24,525.17a3,3,0,0,1,.52-2.87c.68-.91,1.54-1.1,1.93-.42L727,666.2a3,3,0,0,1-.52,2.87A2.41,2.41,0,0,1,725.8,669.73Z" transform="translate(-226.98 -252.79)"/>
            <path class="a" d="M737.69,651.75a.85.85,0,0,1-1.08,0L629.49,543.33c-.5-.51-.42-1.74.17-2.75s1.49-1.42,2-.92L738.77,648c.5.51.42,1.74-.17,2.75A2.66,2.66,0,0,1,737.69,651.75Z" transform="translate(-226.98 -252.79)"/>
            <path class="a" d="M748,632.13a.92.92,0,0,1-.91.08L619.39,563.09c-.6-.32-.68-1.47-.17-2.55s1.39-1.7,2-1.38l127.66,69.12c.6.32.68,1.47.17,2.55A2.89,2.89,0,0,1,748,632.13Z" transform="translate(-226.98 -252.79)"/>
            <path class="a" d="M756.29,611.45a1,1,0,0,1-.7.15L611.26,583.83c-.68-.13-.91-1.15-.52-2.27s1.25-1.93,1.93-1.8L757,607.53c.68.13.91,1.15.52,2.27A3.09,3.09,0,0,1,756.29,611.45Z" transform="translate(-226.98 -252.79)"/>
            <path class="a" d="M762.43,590.36a1.2,1.2,0,0,1-.48.16l-156.6,14.42c-.73.07-1.11-.8-.84-1.93s1.08-2.1,1.81-2.17l156.6-14.42c.73-.07,1.11.8.84,1.93A3.25,3.25,0,0,1,762.43,590.36Z" transform="translate(-226.98 -252.79)"/>
            <path class="a" d="M766.19,569.48l-.25.11L601.82,625.76c-.77.26-1.28-.42-1.15-1.52a3.12,3.12,0,0,1,1.64-2.47L766.44,565.6c.77-.26,1.28.42,1.15,1.52A3.35,3.35,0,0,1,766.19,569.48Z" transform="translate(-226.98 -252.79)"/>
            <path class="a" d="M767.46,549.46,600.8,645.67c-.78.45-1.41,0-1.41-1.07a3.38,3.38,0,0,1,1.41-2.7l166.65-96.22c.78-.45,1.41,0,1.41,1.07A3.38,3.38,0,0,1,767.46,549.46Z" transform="translate(-226.98 -252.79)"/>
            <path class="a" d="M602.07,664.24c-.67.39-1.27.09-1.39-.75a3.45,3.45,0,0,1,1.15-2.84L765.95,527.3c.77-.62,1.5-.36,1.64.58a3.45,3.45,0,0,1-1.15,2.84L602.31,664.07Z" transform="translate(-226.98 -252.79)"/>
            <path class="a" d="M605.83,680.77a.83.83,0,0,1-1.33-.47,3.3,3.3,0,0,1,.84-2.9L762,511c.73-.78,1.54-.74,1.81.08a3.3,3.3,0,0,1-.84,2.9L606.31,680.38A2.15,2.15,0,0,1,605.83,680.77Z" transform="translate(-226.98 -252.79)"/>
            <path class="a" d="M612,694.78a.82.82,0,0,1-1.22-.24,3,3,0,0,1,.52-2.87L755.59,497.24c.68-.91,1.54-1.1,1.93-.42a3,3,0,0,1-.52,2.87L612.67,694.12A2.41,2.41,0,0,1,612,694.78Z" transform="translate(-226.98 -252.79)"/>
            <path class="a" d="M620.3,705.83a.85.85,0,0,1-1.08,0c-.5-.51-.42-1.74.17-2.75L747.06,486.49c.6-1,1.49-1.42,2-.92s.42,1.74-.17,2.75L621.21,704.87A2.66,2.66,0,0,1,620.3,705.83Z" transform="translate(-226.98 -252.79)"/>
            <path class="a" d="M630.57,713.6a.92.92,0,0,1-.91.08c-.6-.32-.68-1.47-.17-2.55L736.61,479.06c.5-1.09,1.39-1.7,2-1.38s.68,1.47.17,2.55L631.65,712.3A2.89,2.89,0,0,1,630.57,713.6Z" transform="translate(-226.98 -252.79)"/>
            <path class="a" d="M642.47,717.84a1,1,0,0,1-.7.15c-.68-.13-.91-1.15-.52-2.27l83.33-240.55c.39-1.13,1.25-1.93,1.93-1.8s.91,1.15.52,2.27L643.69,716.19A3.09,3.09,0,0,1,642.47,717.84Z" transform="translate(-226.98 -252.79)"/>
            <path class="a" d="M655.63,718.42a1.19,1.19,0,0,1-.48.16c-.73.07-1.11-.79-.84-1.93l57-241.71c.27-1.13,1.08-2.1,1.81-2.17s1.11.79.84,1.93L657,716.42A3.25,3.25,0,0,1,655.63,718.42Z" transform="translate(-226.98 -252.79)"/>
            <path class="a" d="M669.66,715.33l-.25.11c-.77.26-1.28-.42-1.15-1.52l28.94-235.54a3.12,3.12,0,0,1,1.64-2.47c.77-.26,1.28.42,1.15,1.52L671.05,713A3.35,3.35,0,0,1,669.66,715.33Z" transform="translate(-226.98 -252.79)"/>
          </g>
        </g>
        <g>
          <g>
            <path class="d" d="M728.89,545.91h0l-11.09-5.16h0c-8.56-2.87-19.27-.76-30.51,7.08-24.62,17.18-42.5,55.37-39.93,85.28,1.2,14,6.68,23.72,14.69,28.32h0a22.35,22.35,0,0,0,2.75,1.33l8.23,4h0c8.94,4.3,20.69,2.63,33.1-6,24.62-17.18,42.5-55.37,39.93-85.28C744.72,560.05,738.24,549.85,728.89,545.91Z" transform="translate(-226.98 -252.79)"/>
            <path class="f" d="M744.42,578.93c2.39,27.81-14.23,63.3-37.12,79.28s-43.38,6.38-45.77-21.43,14.23-63.3,37.12-79.28S742,551.11,744.42,578.93Z" transform="translate(-226.98 -252.79)"/>
            <path class="e" d="M683.91,645.81a8.49,8.49,0,0,1-3.26,7c-2,1.4-3.81.56-4-1.88a8.49,8.49,0,0,1,3.26-7C681.9,642.53,683.7,643.37,683.91,645.81Z" transform="translate(-226.98 -252.79)"/>
            <path class="e" d="M735.79,570.34a8.49,8.49,0,0,1-3.26,7c-2,1.4-3.81.56-4-1.88a8.49,8.49,0,0,1,3.26-7C733.78,567.06,735.58,567.9,735.79,570.34Z" transform="translate(-226.98 -252.79)"/>
            <path class="e" d="M689.05,585.6a8.49,8.49,0,0,1-3.26,7c-2,1.4-3.81.56-4-1.88a8.49,8.49,0,0,1,3.26-7C687,582.32,688.84,583.16,689.05,585.6Z" transform="translate(-226.98 -252.79)"/>
          </g>
          <path class="d" d="M728.17,595.61c1.24,14.39-7.36,32.74-19.2,41s-22.44,3.3-23.68-11.09,7.36-32.74,19.2-41S726.93,581.23,728.17,595.61Z" transform="translate(-226.98 -252.79)"/>
          <g>
            <path class="g" d="M718,597.13l-.26-.12h0c-2.34-1-5.37-.53-8.56,1.7-6.53,4.56-11.28,14.69-10.6,22.63.3,3.54,1.64,6,3.6,7.33h0c.26.17,43.21,25.83,43.21,25.83l15.59-31.68Z" transform="translate(-226.98 -252.79)"/>
            <path class="h" d="M764.76,630.29c.68,7.94-4.06,18.07-10.6,22.63s-12.38,1.82-13.06-6.12,4.06-18.07,10.6-22.63S764.08,622.35,764.76,630.29Z" transform="translate(-226.98 -252.79)"/>
            <path class="i" d="M764.68,632.61c.55,6.43-3.29,14.63-8.58,18.32s-10,1.47-10.58-5,3.29-14.63,8.58-18.32S764.13,626.19,764.68,632.61Z" transform="translate(-226.98 -252.79)"/>
          </g>
        </g>
      </g>
    </g>
    <g>
      <path class="a" d="M740,453a2.13,2.13,0,0,1-1.06-.28L427.61,274a2.14,2.14,0,1,1,2.13-3.7L741.08,449.05a2.14,2.14,0,0,1-1.07,4Z" transform="translate(-226.98 -252.79)"/>
      <path class="a" d="M725.92,453.47a2.13,2.13,0,0,1-1.06-.28L413.51,274.43a2.14,2.14,0,1,1,2.13-3.7L727,449.48a2.14,2.14,0,0,1-1.07,4Z" transform="translate(-226.98 -252.79)"/>
      <path class="a" d="M709.69,455.6a2.13,2.13,0,0,1-1.06-.28L397.28,276.56a2.14,2.14,0,1,1,2.13-3.7L710.75,451.61a2.14,2.14,0,0,1-1.07,4Z" transform="translate(-226.98 -252.79)"/>
      <path class="a" d="M689.61,459.87a2.13,2.13,0,0,1-1.06-.28L377.21,280.83a2.14,2.14,0,1,1,2.13-3.7L690.68,455.88a2.14,2.14,0,0,1-1.07,4Z" transform="translate(-226.98 -252.79)"/>
      <path class="a" d="M677.23,467.13a2.13,2.13,0,0,1-1.06-.28L364.82,288.1a2.14,2.14,0,1,1,2.13-3.7L678.29,463.15a2.14,2.14,0,0,1-1.07,4Z" transform="translate(-226.98 -252.79)"/>
      <path class="a" d="M664,476.53a2.13,2.13,0,0,1-1.06-.28L351.58,297.49a2.14,2.14,0,1,1,2.13-3.7L665.05,472.54a2.14,2.14,0,0,1-1.07,4Z" transform="translate(-226.98 -252.79)"/>
      <path class="a" d="M648.61,493.19a2.13,2.13,0,0,1-1.06-.28L336.2,314.15a2.14,2.14,0,1,1,2.13-3.7L649.67,489.2a2.14,2.14,0,0,1-1.07,4Z" transform="translate(-226.98 -252.79)"/>
      <path class="a" d="M633.23,514.12a2.13,2.13,0,0,1-1.06-.28L320.83,335.08a2.14,2.14,0,1,1,2.13-3.7L634.3,510.13a2.14,2.14,0,0,1-1.07,4Z" transform="translate(-226.98 -252.79)"/>
      <path class="a" d="M619.14,533.77a2.13,2.13,0,0,1-1.06-.28L306.73,354.73a2.14,2.14,0,1,1,2.13-3.7L620.2,529.78a2.14,2.14,0,0,1-1.07,4Z" transform="translate(-226.98 -252.79)"/>
      <path class="a" d="M606.75,556.4a2.13,2.13,0,0,1-1.06-.28L294.34,377.37a2.14,2.14,0,1,1,2.13-3.7L607.82,552.42a2.14,2.14,0,0,1-1.07,4Z" transform="translate(-226.98 -252.79)"/>
      <path class="a" d="M597.78,579.9a2.13,2.13,0,0,1-1.06-.28L285.37,400.86a2.14,2.14,0,1,1,2.13-3.7L598.85,575.91a2.14,2.14,0,0,1-1.07,4Z" transform="translate(-226.98 -252.79)"/>
      <path class="a" d="M590.95,604.24a2.13,2.13,0,0,1-1.06-.28L278.54,425.21a2.14,2.14,0,1,1,2.13-3.7L592,600.26a2.14,2.14,0,0,1-1.07,4Z" transform="translate(-226.98 -252.79)"/>
      <path class="a" d="M587.1,628.59a2.13,2.13,0,0,1-1.06-.28L274.7,449.55a2.14,2.14,0,1,1,2.13-3.7L588.17,624.6a2.14,2.14,0,0,1-1.07,4Z" transform="translate(-226.98 -252.79)"/>
      <path class="a" d="M585.82,651.23a2.13,2.13,0,0,1-1.06-.28L273.41,472.19a2.14,2.14,0,1,1,2.13-3.7L586.89,647.24a2.14,2.14,0,0,1-1.07,4Z" transform="translate(-226.98 -252.79)"/>
      <path class="a" d="M588,671.73a2.13,2.13,0,0,1-1.06-.28L275.55,492.69a2.14,2.14,0,1,1,2.13-3.7L589,667.74a2.14,2.14,0,0,1-1.07,4Z" transform="translate(-226.98 -252.79)"/>
      <path class="a" d="M592.23,690.52a2.13,2.13,0,0,1-1.06-.28L279.82,511.49a2.14,2.14,0,1,1,2.13-3.7L593.29,686.54a2.14,2.14,0,0,1-1.07,4Z" transform="translate(-226.98 -252.79)"/>
      <path class="a" d="M598.63,706.76a2.13,2.13,0,0,1-1.06-.28L286.23,527.72a2.14,2.14,0,1,1,2.13-3.7L599.7,702.77a2.14,2.14,0,0,1-1.07,4Z" transform="translate(-226.98 -252.79)"/>
      <path class="a" d="M605.9,717.43a2.13,2.13,0,0,1-1.06-.28L293.49,538.4a2.14,2.14,0,1,1,2.13-3.7L607,713.45a2.14,2.14,0,0,1-1.07,4Z" transform="translate(-226.98 -252.79)"/>
      <path class="a" d="M614.87,727.69a2.13,2.13,0,0,1-1.06-.28L302.46,548.65a2.14,2.14,0,1,1,2.13-3.7L615.93,723.7a2.14,2.14,0,0,1-1.07,4Z" transform="translate(-226.98 -252.79)"/>
    </g>
    <g>
      <path class="j" d="M543.27,336.22l.3.18h0Z" transform="translate(-226.98 -252.79)"/>
      <g>
        <path class="k" d="M407.31,257.11c-20.58-8.9-57.56-4-86.51,14.22-67.68,42.59-99.09,129.08-93.1,198.82,2.67,31.12,14.39,53.13,31.64,64.43h0l.1.06,61.69-10.52c-6-69.75,35.69-158.76,93.1-198.82,28.82-20.11,56.12-36,76.92-27.32Z" transform="translate(-226.98 -252.79)"/>
        <path class="j" d="M491.15,298l3.31,1.61A30.55,30.55,0,0,0,491.15,298Z" transform="translate(-226.98 -252.79)"/>
      </g>
    </g>
    <g>
      <path class="l" d="M418.79,607.67V528.52c.26-1.3-.39-2.58-2-3.49L321.15,469.8c-3-1.74-8.26-1.52-11.73.49l-65,37.51c-2.16,1.25-3.12,2.89-2.82,4.37v79.15c-.25,1.3.39,2.57,2,3.49L339.28,650c3,1.74,8.26,1.52,11.73-.49L416,612C418.13,610.79,419.09,609.15,418.79,607.67Z" transform="translate(-226.98 -252.79)"/>
      <g>
        <path class="b" d="M418.79,519.36c.25-1.3-.39-2.57-2-3.49l-95.66-55.23c-3-1.74-8.26-1.52-11.73.49l-65,37.51c-2.16,1.24-3.12,2.88-2.82,4.37a2.75,2.75,0,0,0,0,1.08,2.75,2.75,0,0,0,0,1.08,2.75,2.75,0,0,0,0,1.08,2.75,2.75,0,0,0,0,1.08,2.75,2.75,0,0,0,0,1.08,2.75,2.75,0,0,0,0,1.08c-.25,1.3.39,2.57,2,3.49l95.66,55.23c3,1.74,8.26,1.52,11.73-.49l65-37.51c2.16-1.24,3.12-2.89,2.82-4.37a2.75,2.75,0,0,0,0-1.08,2.75,2.75,0,0,0,0-1.08,2.75,2.75,0,0,0,0-1.08,2.75,2.75,0,0,0,0-1.08,2.75,2.75,0,0,0,0-1.08A2.75,2.75,0,0,0,418.79,519.36Z" transform="translate(-226.98 -252.79)"/>
        <path class="c" d="M416.81,514.8l-95.66-55.23c-3-1.74-8.26-1.52-11.73.49l-65,37.51c-3.47,2-3.85,5-.84,6.77l95.66,55.23c3,1.74,8.26,1.52,11.73-.49l65-37.51C419.44,519.57,419.82,516.54,416.81,514.8Z" transform="translate(-226.98 -252.79)"/>
        <path class="m" d="M410.59,510.65,321.8,459.39c-2.79-1.61-7.67-1.41-10.89.45l-60.29,34.81c-3.22,1.86-3.57,4.68-.78,6.29l88.79,51.26c2.79,1.61,7.67,1.41,10.89-.45l60.29-34.81C413,515.08,413.38,512.27,410.59,510.65Z" transform="translate(-226.98 -252.79)"/>
        <path class="k" d="M352.33,487.86l-21.45-12.38a2.92,2.92,0,0,0-2.63.11L313.68,484c-.78.45-.86,1.13-.19,1.52l21.45,12.38a2.92,2.92,0,0,0,2.63-.11l14.57-8.41C352.92,488.92,353,488.24,352.33,487.86Z" transform="translate(-226.98 -252.79)"/>
        <path class="c" d="M347.1,511l-37.56-21.69a5.12,5.12,0,0,0-4.61.19l-25.51,14.73c-1.36.79-1.51,2-.33,2.66l37.56,21.69a5.12,5.12,0,0,0,4.61-.19l25.51-14.73C348.13,512.91,348.28,511.72,347.1,511Z" transform="translate(-226.98 -252.79)"/>
      </g>
      <g>
        <path class="d" d="M264.66,492.9a6.92,6.92,0,0,0-6.26,0c-1.73,1-1.73,2.62,0,3.61a6.92,6.92,0,0,0,6.26,0C266.39,495.51,266.39,493.89,264.66,492.9Z" transform="translate(-226.98 -252.79)"/>
        <path class="d" d="M317.7,462.47a6.92,6.92,0,0,0-6.26,0c-1.73,1-1.73,2.62,0,3.61a6.92,6.92,0,0,0,6.26,0C319.43,465.09,319.43,463.47,317.7,462.47Z" transform="translate(-226.98 -252.79)"/>
        <path class="d" d="M348.93,541.63a6.92,6.92,0,0,0-6.26,0c-1.73,1-1.73,2.62,0,3.61a6.92,6.92,0,0,0,6.26,0C350.66,544.24,350.66,542.62,348.93,541.63Z" transform="translate(-226.98 -252.79)"/>
        <path class="d" d="M402,511.2a6.92,6.92,0,0,0-6.26,0c-1.73,1-1.73,2.62,0,3.61a6.92,6.92,0,0,0,6.26,0C403.69,513.82,403.69,512.2,402,511.2Z" transform="translate(-226.98 -252.79)"/>
      </g>
    </g>
    <g>
      <path class="l" d="M530.19,356.27V304.63a2.15,2.15,0,0,0-1.29-2.28l-62.41-36c-2-1.13-5.39-1-7.65.32l-42.38,24.47c-1.41.81-2,1.89-1.84,2.85v51.64a2.15,2.15,0,0,0,1.29,2.27l62.41,36c2,1.13,5.39,1,7.65-.32l42.38-24.47C529.75,358.3,530.38,357.23,530.19,356.27Z" transform="translate(-226.98 -252.79)"/>
      <g>
        <path class="b" d="M530.19,298.65a2.15,2.15,0,0,0-1.29-2.27l-62.41-36c-2-1.13-5.39-1-7.65.32l-42.38,24.47c-1.41.81-2,1.88-1.84,2.85a1.79,1.79,0,0,0,0,.7,1.79,1.79,0,0,0,0,.7,1.79,1.79,0,0,0,0,.7,1.79,1.79,0,0,0,0,.7,1.79,1.79,0,0,0,0,.7,1.79,1.79,0,0,0,0,.7,2.15,2.15,0,0,0,1.29,2.27l62.41,36c2,1.13,5.39,1,7.65-.32l42.38-24.47c1.41-.81,2-1.88,1.84-2.85a1.79,1.79,0,0,0,0-.7,1.79,1.79,0,0,0,0-.7,1.79,1.79,0,0,0,0-.7,1.79,1.79,0,0,0,0-.7,1.79,1.79,0,0,0,0-.7A1.79,1.79,0,0,0,530.19,298.65Z" transform="translate(-226.98 -252.79)"/>
        <path class="c" d="M528.9,295.68l-62.41-36c-2-1.13-5.39-1-7.65.32l-42.38,24.47c-2.27,1.31-2.51,3.29-.55,4.42l62.41,36c2,1.13,5.39,1,7.65-.32l42.38-24.47C530.61,298.79,530.86,296.81,528.9,295.68Z" transform="translate(-226.98 -252.79)"/>
        <path class="m" d="M524.84,293l-57.93-33.44a7.9,7.9,0,0,0-7.1.29l-39.34,22.71c-2.1,1.21-2.33,3.05-.51,4.1l57.93,33.44a7.9,7.9,0,0,0,7.1-.29l39.34-22.71C526.43,295.86,526.66,294,524.84,293Z" transform="translate(-226.98 -252.79)"/>
      </g>
      <g>
        <path class="d" d="M429.63,281.39a4.51,4.51,0,0,0-4.08,0,1.24,1.24,0,0,0,0,2.36,4.51,4.51,0,0,0,4.08,0A1.24,1.24,0,0,0,429.63,281.39Z" transform="translate(-226.98 -252.79)"/>
        <path class="d" d="M464.23,261.54a4.51,4.51,0,0,0-4.08,0,1.24,1.24,0,0,0,0,2.36,4.51,4.51,0,0,0,4.08,0A1.24,1.24,0,0,0,464.23,261.54Z" transform="translate(-226.98 -252.79)"/>
        <path class="d" d="M484.61,313.18a4.51,4.51,0,0,0-4.08,0,1.24,1.24,0,0,0,0,2.36,4.51,4.51,0,0,0,4.08,0A1.24,1.24,0,0,0,484.61,313.18Z" transform="translate(-226.98 -252.79)"/>
        <path class="d" d="M519.21,293.33a4.51,4.51,0,0,0-4.08,0,1.24,1.24,0,0,0,0,2.36,4.51,4.51,0,0,0,4.08,0A1.24,1.24,0,0,0,519.21,293.33Z" transform="translate(-226.98 -252.79)"/>
      </g>
    </g>
  </g>
</svg>
