<svg xmlns="http://www.w3.org/2000/svg" width="300" height="300" viewBox="0 0 300 300">
  <linearGradient id="a" gradientUnits="userSpaceOnUse" x1="62" y1="155" x2="134" y2="155">
    <stop offset=".156" stop-color="#b1e6f2"/>
    <stop offset="1" stop-color="#b1e6f2"/>
  </linearGradient>
  <path fill="url(#a)" d="M110.08 74.59c-.06.93.23 1.93-.33 2.73-.73 1-1.8 1.6-2.31 2.87-.05.14-.14.3-.25.46-.11.15-.24.29-.4.37l-.33.3c-.22.21-.42.45-.59.73-.06.14-.1.28-.11.43-.01.15 0 .3.05.46.02.1.06.21.1.31.05.1.1.21.15.3.07.1.27.05.47 0-.27.45-1 .4-1.46.57-.17.04-.34.09-.51.15-.18.04-.35.11-.52.2-.15.07-.3.16-.45.25a5.826 5.826 0 0 0-1.19 1.02c-1.12 1.18-1.25 3.26-.02 4.43.61.56 1.36.47 2.09.44.19-.01.37-.01.55 0 2.04 1.3 4.25 1.23 6.49.81.25.01.5.01.76.02.24 0 .49 0 .73.01.24 0 .49-.245.73-.235 2.5.38 4.84.785 7.3-.215H123.12c.32 0 .65.25.91.39 1.41.78 2.76.65 4.12.32.2-.05.39-.04.59-.08.3-.13.62-.1.88-.03 1.52.4 2.92.32 4.38.05V244H62V66h72v10.57c-.29-.07-.6-.09-.93-.06-.45.04-.93.16-1.44.39-.43 0-1 0-1.29-.36-.72-1.44-2.15-1.8-3.73-2.04-.72-.12-1.15 1.08-2.01.96-1.43-.12-1.72-1.56-2.22-2.47-.23-.34-.51-.54-.8-.74-.17-.09-.34-.15-.54-.18l-.58-.03c-1.12-.23-2.04.51-2.96 1.24-.13.1-.26.2-.4.3-1.8-.6-3.54-.93-5.35-.13l-.38.03c-.13.02-.26.05-.39.1a1.626 1.626 0 0 0-.69.59c-.04.15-.15.28-.21.42z"/>
  <path fill="#6CB770" d="M62 128h72v116H62z"/>
  <path fill="#754C24" d="M139 60v184h-5V66H62v-.77l-5-4.82V60z"/>
  <path fill="#FFFFFF" d="M115.765 98.84c.462-.139.835.129 1.274.036.271.014.562.023.876.028 3.438.053 9.094-.431 7.119-3.901-1.506-2.737-5.325-2.21-7.733-1.791 1.561-.903 2.484-1.955 2.607-3.174a2.898 2.898 0 0 0-.024-.753c-.286-3.389-3.508-4.455-5.895-3.802a6.824 6.824 0 0 1-.621.165c-.408.082-.793.089-1.139-.092-.209-.106-.402-.282-.576-.548-.75-3.187-2.438-5.758-5.018-5.527-.514.046-1.07.205-1.66.5-.492.005-1.151.005-1.484-.46-.826-1.852-2.481-2.314-4.302-2.625-.826-.153-1.324 1.392-2.317 1.237-1.654-.155-1.987-2.007-2.559-3.173-.262-.432-.584-.688-.92-.945a1.796 1.796 0 0 0-.625-.228c-.219-.013-.442-.028-.667-.038-1.298-.293-2.35.653-3.416 1.583-.154.133-.309.267-.462.396-2.07-.771-4.078-1.2-6.165-.177-.145.013-.294.025-.445.049a1.896 1.896 0 0 0-.445.127 2.043 2.043 0 0 0-.799.757c-.044.185-.173.355-.235.528-.067 1.197.257 2.482-.39 3.511-.844 1.284-2.071 2.053-2.653 3.681a3.367 3.367 0 0 1-.288.583c-.128.195-.282.375-.466.479-.128.128-.257.255-.385.388a4.29 4.29 0 0 0-.671.936 1.695 1.695 0 0 0-.131.55c-.016.192.003.387.058.594.03.133.069.267.119.398.048.13.109.26.168.385.078.129.313.063.542 0-.312.568-1.154.507-1.681.731-.2.054-.4.105-.59.184a2.62 2.62 0 0 0-.598.255c-.178.099-.352.21-.522.33-.255.183-.5.383-.729.605a6.061 6.061 0 0 0-.639.703c-1.297 1.506-1.447 4.174-.023 5.686.701.712 1.565.595 2.411.554a4.18 4.18 0 0 1 .624.008c2.36 1.662 4.91 1.574 7.485 1.042l.879.017c.28.004.559.009.841.016.28.002.564.006.844.011 2.881.488 5.575.488 8.417.038l.839-.002.787-.002c.264-.003.526-.004.788-.005.369-.074.743.013 1.044.193 1.627.997 3.178.685 4.756.257.225-.063.447-.126.676-.185a1.42 1.42 0 0 1 1.014-.072c1.902.546 3.632.34 5.46-.059.262-.055.526-.116.791-.179.944.147 1.842.771 2.743 1.216 1.351.532 2.471-.533 3.771-.945.214-.054.34-.074.34-.074z"/>
  <path fill="#E8E8E6" d="M134 76.57v15.08c-1.46.27-2.86.38-4.38-.02-.26-.07-.58-.07-.88.06-.2.04-.39.09-.59.14-1.36.33-2.71.34-4.12-.44-.26-.14-.59-.39-.91-.39h-2.09c-2.46 1-4.8.595-7.3.215-.24-.01-.49.113-.73.113-.24-.01-.49.051-.73.051-.26-.01-.51.021-.76.01-2.24.42-4.45.506-6.49-.794-.18-.01-.36-.002-.55.007-.73.03-1.48.124-2.09-.436-1.23-1.17-1.1-3.248.02-4.428.17-.19.36-.379.56-.549.19-.17.41-.33.63-.469.15-.09.3-.18.45-.25.17-.09.34-.16.52-.2.17-.06.34-.11.51-.15.46-.17 1.19-.12 1.46-.57-.2.05-.4.1-.47 0-.05-.09-.1-.2-.15-.3-.04-.1-.08-.21-.1-.31-.05-.16-.06-.31-.05-.46.01-.15.05-.29.11-.43.17-.28.37-.52.59-.73l.33-.3c.16-.08.29-.22.4-.37.11-.16.2-.32.25-.46.51-1.27 1.58-1.87 2.31-2.87.56-.8.27-1.8.33-2.73.06-.14.17-.27.21-.42a1.626 1.626 0 0 1 .69-.59c.13-.05.26-.08.39-.1l.38-.03c1.81-.8 3.55-.47 5.35.13.14-.1.27-.2.4-.3.92-.73 1.84-1.47 2.96-1.24l.58.03c.2.03.37.09.54.18.29.2.57.4.8.74.5.91.79 2.35 2.22 2.47.86.12 1.29-1.08 2.01-.96 1.58.24 3.01.6 3.73 2.04.29.36.86.36 1.29.36.51-.23.99-.35 1.44-.39.33-.03.64-.01.93.06z"/>
  <path fill="#D3CF9F" d="M133.661 244s-49.333-11.166.339-100.5V128c-16.256 2.361-65.25 116-65.25 116h64.911z"/>
  <path fill="#004422" d="M134 222.02v17.9c-1.2 2.57-5.43 3.61-8.2 2.23-2.53-1.311-1.9-4.181-4.43-5.221-1.58-.52-4.42.78-6.32 0-4.43-1.3-5.69-6.52-5.06-10.18.95-4.43 5.38-5.48 10.75-5.74.63-3.13 7.38-2.31 10.22-1.01.95.26.84 1.27 1.79 2.06.37.151.85.041 1.25-.039z"/>
  <path fill="#534741" d="M69 235h59v6H69z"/>
  <path fill="#736357" d="M65 237h66v6H65z"/>
  <path opacity=".7" fill="#1A1A1A" d="M94.61 148.05c0 3.54-3.55 6.66-8.96 8.54 1.31-2.13 1.89-4.84 1.9-7.36 0-.62-.03-1.23-.1-1.82 2.18-.65 3.95-2.12 4.15-4.18.28.09.56.16.85.21 1.38 1.39 2.16 2.95 2.16 4.61z"/>
  <path fill="#754C24" d="M153 87h127v95H153z"/>
  <linearGradient id="b" gradientUnits="userSpaceOnUse" x1="216.5" y1="92.779" x2="216.5" y2="181.417">
    <stop offset=".156" stop-color="#b1e6f2"/>
    <stop offset="1" stop-color="#b1e6f2"/>
  </linearGradient>
  <path fill="url(#b)" d="M157 92h119v90H157z"/>
  <radialGradient id="c" cx="179.75" cy="111.887" r="20.429" gradientUnits="userSpaceOnUse">
    <stop offset=".258" stop-color="#ffe027"/>
    <stop offset="1" stop-color="#fff" stop-opacity="0"/>
  </radialGradient>
  <circle fill="url(#c)" cx="179.75" cy="111.887" r="20.429"/>
  <circle fill="#FFE027" cx="179.668" cy="111.824" r="12.354"/>
  <path fill="#FFFFFF" d="M243.216 111.15c-.29-.067-.523.063-.799.018-.17.007-.353.011-.55.014-2.155.025-5.702-.208-4.464-1.888.944-1.324 3.339-1.069 4.849-.866-.979-.437-1.558-.946-1.635-1.536-.017-.119-.01-.24.015-.364.18-1.64 2.2-2.156 3.696-1.839.133.031.263.06.39.08.256.04.497.043.714-.044a.902.902 0 0 0 .361-.265c.471-1.542 1.528-2.786 3.146-2.674a3.57 3.57 0 0 1 1.041.242c.309.002.722.002.931-.222.518-.896 1.556-1.12 2.697-1.271.518-.074.83.673 1.453.599 1.037-.075 1.246-.971 1.604-1.535.164-.209.366-.333.577-.457a1.34 1.34 0 0 1 .392-.11c.138-.006.277-.014.418-.018.813-.142 1.474.316 2.142.766.097.064.193.129.29.191 1.298-.374 2.557-.581 3.865-.086.091.006.185.012.279.024.094.012.187.03.279.062.102.041.195.093.279.154.085.062.16.133.222.213.027.089.108.172.147.255.042.579-.161 1.201.244 1.699.529.621 1.299.993 1.664 1.781.041.083.103.187.181.282a.81.81 0 0 0 .292.231c.08.062.161.124.241.188.156.129.3.276.421.453a.685.685 0 0 1 .046.554 1.223 1.223 0 0 1-.074.192c-.03.063-.068.126-.105.187-.049.063-.196.03-.34 0 .195.275.724.245 1.054.354.125.026.251.051.37.089.129.029.253.068.375.124a3.953 3.953 0 0 1 1.184.792c.813.729.907 2.02.015 2.751-.439.345-.981.288-1.512.268a3.406 3.406 0 0 0-.392.004c-1.479.804-3.078.761-4.693.504l-.551.008-.527.007a92.42 92.42 0 0 0-.529.005 20.58 20.58 0 0 1-5.277.019l-.526-.001-.493-.001-.494-.002a1.161 1.161 0 0 0-.654.093c-1.021.482-1.993.331-2.982.124-.141-.03-.28-.061-.424-.089a1.135 1.135 0 0 0-.636-.035c-1.192.264-2.277.165-3.424-.028-.164-.027-.33-.056-.496-.087-.592.071-1.155.373-1.72.588-.847.257-1.55-.258-2.364-.457-.134-.03-.213-.04-.213-.04z"/>
  <path fill="#E8E8E6" d="M254.012 116.344c.402-.108.728.099 1.108.027.233.01.487.018.76.021 2.981.042 7.887-.336 6.175-3.041-1.307-2.133-4.616-1.723-6.708-1.395 1.353-.703 2.156-1.524 2.262-2.474a1.99 1.99 0 0 0-.021-.585c-.247-2.643-3.042-3.474-5.111-2.964-.183.049-.362.097-.539.128-.352.063-.687.07-.988-.071a1.284 1.284 0 0 1-.498-.429c-.652-2.484-2.114-4.487-4.352-4.307a4.335 4.335 0 0 0-1.44.389c-.426.004-1.001.004-1.288-.357-.718-1.444-2.152-1.806-3.73-2.046-.719-.121-1.149 1.083-2.012.962-1.434-.12-1.721-1.563-2.218-2.472-.228-.338-.509-.538-.8-.736a1.653 1.653 0 0 0-.539-.178c-.192-.01-.385-.022-.582-.029-1.122-.229-2.036.508-2.961 1.233-.133.104-.265.207-.4.308-1.795-.602-3.537-.936-5.348-.138-.126.01-.255.019-.385.039-.13.019-.26.048-.388.099-.139.066-.268.15-.386.249a1.644 1.644 0 0 0-.307.342c-.036.143-.148.277-.204.411-.059.935.224 1.936-.337 2.736-.729 1.002-1.797 1.603-2.302 2.871-.058.134-.142.3-.251.455a1.168 1.168 0 0 1-.403.372c-.11.1-.223.199-.332.304a3.327 3.327 0 0 0-.584.729 1.252 1.252 0 0 0-.063.891c.024.103.06.208.103.312.042.101.093.202.147.3.067.098.267.048.468 0-.268.441-1.001.394-1.457.569a4.717 4.717 0 0 0-.511.143c-.177.048-.351.11-.521.199a5.505 5.505 0 0 0-1.085.727 5.311 5.311 0 0 0-.553.549c-1.126 1.174-1.256 3.254-.02 4.433.607.554 1.358.462 2.091.432.183-.009.366-.011.543.004 2.045 1.296 4.256 1.227 6.489.813l.762.013.731.01.73.009c2.499.381 4.84.381 7.3.032.242-.002.487-.002.728-.002l.685-.002.682-.003c.321-.058.648.012.907.149 1.408.777 2.756.535 4.123.201.194-.048.392-.098.587-.144.295-.126.619-.126.881-.057 1.648.426 3.148.267 4.736-.043.227-.044.455-.092.686-.141.818.115 1.598.601 2.379.948 1.17.416 2.143-.416 3.27-.737.184-.043.291-.058.291-.058z"/>
  <path fill="#EFEFEF" d="M206.517 112.668c-.291-.062-.526.058-.801.016-.169.005-.354.01-.549.012-2.157.023-5.703-.193-4.465-1.754.944-1.231 3.338-.995 4.85-.806-.98-.405-1.56-.878-1.636-1.428a.9.9 0 0 1 .014-.338c.18-1.524 2.2-2.004 3.697-1.709.131.028.262.055.391.074.254.037.496.04.712-.041a.924.924 0 0 0 .362-.247c.471-1.435 1.527-2.59 3.146-2.487.323.021.67.093 1.042.226.307.002.723.002.931-.207.519-.832 1.555-1.041 2.697-1.18.519-.07.83.625 1.453.555 1.036-.069 1.244-.902 1.604-1.426.163-.195.367-.31.577-.426.122-.052.251-.084.39-.102.14-.007.279-.013.421-.018.812-.131 1.472.293 2.142.712.097.061.191.121.287.179 1.3-.348 2.559-.541 3.867-.081.091.006.185.011.279.022.094.011.187.029.278.057.103.038.195.087.279.144a.961.961 0 0 1 .222.197c.028.083.107.16.149.237.04.539-.163 1.116.244 1.578.528.579 1.297.925 1.664 1.657.039.077.1.173.18.261a.795.795 0 0 0 .293.214c.078.06.16.115.237.176.159.12.303.255.425.42a.62.62 0 0 1 .081.247.574.574 0 0 1-.036.267 1.157 1.157 0 0 1-.074.18c-.03.059-.068.117-.106.174-.049.056-.193.029-.339 0 .193.254.724.227 1.054.329.126.023.25.047.37.082.127.028.253.064.376.116a4.132 4.132 0 0 1 .783.419c.146.098.279.205.399.317.815.678.909 1.877.014 2.557-.438.32-.979.267-1.51.25a3.654 3.654 0 0 0-.392.002c-1.481.748-3.078.708-4.694.469l-.548.007a2741.885 2741.885 0 0 0-1.057.011c-1.807.22-3.498.22-5.276.018h-.528l-.492-.003-.494-.001a1.275 1.275 0 0 0-.655.086c-1.02.449-1.993.309-2.981.116l-.424-.083a1.235 1.235 0 0 0-.637-.033c-1.191.246-2.277.154-3.423-.025l-.498-.081c-.591.066-1.155.347-1.719.546-.846.24-1.551-.24-2.364-.426-.135-.019-.212-.028-.212-.028z"/>
  <path fill="#6CB770" d="M157 129h119v53H157z"/>
  <path fill="#006837" d="M274.02 179.42c0 .82.391 1.7.78 2.58h-36.18c-.8-2.1-.95-4.48-.601-6.45 1.11-5.05 6.311-6.239 12.62-6.54.74-3.57 8.66-2.64 12-1.15 1.12.291.99 1.451 2.101 2.341.74.3 1.859-.3 2.229 0 1.851 1.189 6.681 2.38 7.79 4.16 1.491 2.679-.739 2.079-.739 5.059z"/>
  <path opacity=".5" fill="#FFFFFF" d="M269.661 92l-64.844 90h-14.168l64.857-90zM250.856 92l-64.911 90h-9.329l64.89-90z"/>
  <path fill="#004422" d="M244.65 182h-30.72c-.04-.36-.069-.72-.08-1.07-.029-.76.021-1.5.141-2.18.95-4.43 5.38-5.48 10.75-5.74.27-1.37 1.74-1.99 3.529-2.13 1.341-.11 2.891.04 4.25.34.011.011.021.011.03.011.931.199 1.771.47 2.41.77.95.26.84 1.27 1.79 2.06.63.261 1.58-.26 1.9 0 1.58 1.04 5.689 2.08 6.63 3.65 1.24 2.299-.55 1.849-.63 4.289z"/>
  <path fill="#754C24" d="M291.645 185l-1.472 6H144.745l-1.473-6z"/>
  <path fill="#603813" d="M293.16 182c0 2.1-1 4-1.68 4H143.27c-.67 0-1.69-1.9-1.69-4h151.58z"/>
  <path opacity=".5" fill="#FFFFFF" d="M239.644 92l-64.872 90h-2.492l64.867-90z"/>
  <path fill="#754C24" d="M216 92h2v90h-2z"/>
  <path fill="#754C24" d="M155 137h123v2H155z"/>
  <path fill="#D3CF9F" d="M157 131.754S168.333 129 170.5 129H157v2.754z"/>
  <g>
    <path fill="#006837" d="M101.51 139.07c-.69 3.29-4.55 5.07-8.06 4.37-.29-.05-.57-.12-.85-.21-.2 2.06-1.97 3.53-4.15 4.18-1.91.58-4.14.52-5.87-.31-2.97-1.49-2.23-4.76-5.2-5.95-1.86-.6-5.2.89-7.42 0a7.618 7.618 0 0 1-3.85-2.53c-.31-.38-.59-.8-.83-1.23-1.37-2.4-1.69-5.42-1.26-7.84 1.11-5.05 6.31-6.24 12.62-6.54.74-3.57 8.66-2.64 12-1.15 1.12.29.99 1.45 2.1 2.34.74.3 1.86-.3 2.23 0 1.85 1.19 6.68 2.38 7.79 4.16 1.49 2.68-.74 2.08-.74 5.06 0 1.78 1.86 3.86 1.49 5.65z"/>
  </g>
  <g>
    <path fill="#23912D" d="M87.55 149.23c0 .33-.01.66-.03.99-.14 2.2-.72 4.47-1.83 6.31-.02.02-.03.04-.04.06a9.24 9.24 0 0 1-1.14 1.48c-.83.87-1.85 1.55-3.07 1.949-2.23 1.021-5.57-.68-7.43 0-2.02.921-2.32 2.94-3.25 4.681-.1.189-.2.37-.32.54-.39.6-.89 1.14-1.62 1.56-2.03 1.12-4.73 1.01-6.82-.04v-28.18c.18-.26.41-.45.75-.56.44-.22.96-.275 1.53-.465 3.02-1.01 7.52-1.555 9.52.445h.01c.49 0 .82.805.95 1.495 6.3.34 11.5 1.617 12.61 7.377.03.2.06.369.08.579.07.59.1 1.159.1 1.779z"/>
  </g>
  <g>
    <path fill="#004422" d="M100.92 166.1c-.2.95-.68 1.761-1.35 2.381-.59.56-1.32.989-2.12 1.26-1.29.439-2.76.47-4.12.02-.32 3.391-5.37 4.96-8.53 3.391-2.53-1.311-1.9-4.181-4.43-5.221-1.58-.52-4.42.78-6.32 0-1.4-.41-2.48-1.21-3.29-2.229-.12-.15-.23-.3-.32-.46-1.05-1.55-1.54-3.49-1.59-5.311-.03-.76.02-1.5.14-2.18.95-4.43 5.38-5.48 10.75-5.74.27-1.37 1.74-1.99 3.53-2.13 1.34-.11 2.89.04 4.25.34.01.01.02.01.03.01.93.2 1.77.47 2.41.77.95.26.84 1.27 1.79 2.06.63.261 1.58-.26 1.9 0 1.58 1.04 5.69 2.08 6.63 3.65 1.27 2.35-.63 1.83-.63 4.44 0 1.559 1.58 3.389 1.27 4.949z"/>
  </g>
  <g opacity=".7">
    <path fill="#1A1A1A" d="M97.92 172.1c-.2.95-.68 1.761-1.35 2.381-1.53 1.47-4.04 2.01-6.24 1.279-.32 3.391-5.37 4.96-8.53 3.391-2.53-1.311-1.9-4.181-4.43-5.221-1.58-.52-4.42.78-6.32 0-1.4-.41-2.48-1.21-3.29-2.229-.12-.15-.23-.3-.32-.46-.39.6-.89 1.14-1.62 1.56-1.14.63-2.48.87-3.82.771v-6.811c2.09 1.05 4.79 1.16 6.82.04.73-.42 1.23-.96 1.62-1.56.09.16.2.31.32.46a6.45 6.45 0 0 0 3.29 2.229c1.9.78 4.74-.52 6.32 0 2.53 1.04 1.9 3.91 4.43 5.221 3.16 1.569 8.21 0 8.53-3.391 1.36.45 2.83.42 4.12-.02.33.81.62 1.61.47 2.36z"/>
  </g>
  <path fill="#998675" d="M62 239h72v5H62z"/>
  <path fill="#8C5600" d="M9.287 152.904l2.973.34-.57 4.968-2.973-.34z"/>
  <g>
    <path fill="#8C6745" d="M62 65.23v178.81L17 273.7V21.88l40 38.53z"/>
    <path fill="#C69C6D" d="M38 120.618l-13-4.509V48.806l13 10.141zM55 127.911l-10-3.961V64.516l10 9.179zM38 174.7l-13 .43v-44.376l13 3.282zM55 173.877l-10 .482v-38.032l10 2.861zM55 240.677l-30 19.658v-69.589l30-4.517z"/>
    <path fill="#B58500" d="M25.798 156.981c.002 3.236-1.268 5.783-2.876 5.686-1.633-.102-2.992-2.921-3-6.302.01-3.375 1.363-5.912 3.008-5.667 1.6.236 2.876 3.05 2.868 6.283z"/>
    <path fill="#AD6F00" d="M10.081 155.93c-.074 3.234-1.404 5.752-3.008 5.614-1.632-.14-2.921-2.991-2.849-6.37.09-3.373 1.503-5.878 3.14-5.594 1.594.274 2.801 3.115 2.717 6.35z"/>
    <path fill="#AA7F55" d="M34 116.504l-5-1.981V55.54l5 4.087zM52 124.171l-4-2.546v-51.5l4 5.256zM34 171.39l-5 .05v-36.235l5 1.188zM53 171.179l-6 .063v-30.708l6 1.458zM29.198 55.552s-.94-1.634-1.84-3.289c-.23-.411-.467-.818-.672-1.209-.197-.395-.35-.779-.484-1.106a10.56 10.56 0 0 1-.371-1.13l.045-.022s.305.374.681.975c.182.304.397.656.595 1.051.19.398.374.833.564 1.264.784 1.712 1.527 3.445 1.527 3.445l-.045.021z"/>
    <path fill="none" d="M33.709 59.628l3.366-.681"/>
    <path fill="#AA7F55" d="M33.705 59.604s.819-.278 1.648-.512c.206-.065.41-.136.606-.185.197-.04.388-.042.551-.048.329.003.56.064.56.064l.01.049s-.189.146-.491.276c-.153.058-.33.13-.527.17-.199.032-.415.045-.63.065-.854.107-1.717.169-1.717.169l-.01-.048zM29.231 114.545s-.795.497-1.609.952c-.201.119-.399.245-.593.346-.197.093-.396.147-.565.198-.345.087-.6.091-.6.091l-.021-.045s.166-.195.452-.405c.147-.098.316-.217.513-.31.201-.085.424-.158.644-.237.87-.338 1.758-.634 1.758-.634l.021.044zM33.729 116.489s.926.958 1.818 1.946c.228.243.461.481.665.717.197.241.354.488.491.698.263.429.392.753.392.753l-.039.031s-.292-.19-.66-.533c-.178-.176-.39-.378-.587-.62-.191-.246-.378-.522-.571-.793-.791-1.069-1.547-2.167-1.547-2.167l.038-.032zM47.149 70.135s-.663-1.361-1.284-2.74c-.161-.342-.329-.682-.468-1.007-.131-.329-.221-.648-.302-.921-.148-.551-.189-.941-.19-.941l.047-.019s.238.311.512.812c.129.253.285.547.417.875.124.332.237.693.356 1.052.501 1.426.959 2.87.96 2.87l-.048.019zM52.768 75.361s.495-.51 1.017-.983c.127-.124.249-.252.376-.358.131-.099.275-.163.396-.22.251-.104.455-.125.455-.125l.03.04s-.077.19-.247.402c-.089.101-.191.221-.322.32-.136.092-.294.174-.448.261-.6.37-1.227.703-1.227.703l-.03-.04zM52.804 124.159s.656.878 1.272 1.78c.16.222.325.44.464.655.131.219.224.442.306.631.152.385.202.674.202.674l-.043.025s-.231-.179-.5-.495c-.127-.162-.281-.348-.412-.567-.125-.223-.239-.472-.36-.718-.506-.968-.972-1.96-.972-1.96l.043-.025zM47.191 121.642s-.482.658-.996 1.284c-.124.161-.243.327-.369.469-.132.136-.28.239-.404.329a2.25 2.25 0 0 1-.476.243l-.036-.035s.064-.219.226-.483c.086-.127.184-.279.315-.416.137-.13.299-.255.455-.385.608-.537 1.248-1.042 1.248-1.042l.037.036zM29.199 135.22s-.929-1.046-1.823-2.12c-.228-.265-.462-.525-.666-.781-.197-.261-.353-.526-.49-.75-.262-.458-.388-.8-.388-.8l.04-.03s.295.214.664.591c.179.193.391.415.589.675.19.266.377.562.57.854a97.875 97.875 0 0 1 1.543 2.331l-.039.03zM33.694 136.373s.778-.68 1.582-1.322c.197-.166.391-.337.583-.482.197-.138.401-.238.574-.327.354-.166.625-.226.625-.226l.028.041s-.149.234-.426.51c-.143.132-.306.29-.503.428-.202.131-.429.254-.652.383-.878.536-1.783 1.035-1.783 1.035l-.028-.04zM33.726 171.372s.918.749 1.805 1.53c.226.19.457.377.66.564.197.194.356.4.495.574.268.359.404.642.404.642l-.035.035s-.285-.131-.647-.394c-.176-.136-.385-.292-.582-.486-.191-.199-.381-.428-.576-.65-.796-.874-1.56-1.78-1.56-1.78l.036-.035zM29.238 171.457s-.76.997-1.554 1.963c-.194.246-.382.496-.574.718-.197.217-.407.395-.585.55-.365.3-.654.459-.654.459l-.037-.033s.132-.302.398-.693c.138-.191.296-.417.493-.633.204-.211.436-.421.663-.637.89-.879 1.813-1.727 1.813-1.727l.037.033zM47.151 140.546s-.658-1-1.276-2.021c-.16-.252-.327-.501-.465-.744-.131-.247-.223-.493-.305-.703-.15-.426-.197-.739-.197-.739l.044-.023s.234.213.504.576c.128.185.282.398.414.645.124.25.238.527.358.801.504 1.082.968 2.186.968 2.186l-.045.022zM52.763 141.977s.475-.77.985-1.512c.123-.189.24-.383.365-.553.132-.164.282-.295.408-.41.263-.221.486-.33.486-.33l.039.031s-.058.241-.215.546c-.084.148-.18.324-.311.488-.138.159-.301.316-.459.477-.612.661-1.259 1.293-1.259 1.293l-.039-.03zM47.193 171.257s-.472.844-.98 1.661c-.122.208-.238.42-.363.607-.132.183-.283.332-.41.463-.265.253-.492.386-.491.386l-.041-.029s.055-.257.21-.589c.084-.161.178-.353.309-.535.139-.178.303-.355.461-.537.613-.741 1.264-1.456 1.264-1.456l.041.029zM52.802 171.163s.646.604 1.257 1.237c.158.154.32.304.458.456.131.158.227.329.312.472.159.297.217.533.217.533l-.038.031s-.222-.101-.484-.311c-.125-.109-.275-.234-.407-.393-.125-.163-.243-.351-.366-.534-.511-.716-.987-1.461-.987-1.461l.038-.03zM52 238.994L29 254.09v-59.417l23-4.43z"/>
    <path fill="#AA7F55" d="M29.183 194.705s-1.009-.838-1.949-1.735c-.238-.222-.502-.421-.71-.643a3.159 3.159 0 0 1-.448-.707c-.219-.451-.261-.842-.261-.842l.076-.064s.379.101.792.386c.209.14.432.321.631.55.187.239.344.53.526.8a42.539 42.539 0 0 1 1.418 2.191l-.075.064zM52.739 190.219s.368-1.111.816-2.178c.108-.269.188-.554.307-.796.133-.234.301-.429.465-.584.322-.313.656-.456.656-.456l.087.049s.054.359-.045.798a2.524 2.524 0 0 1-.254.702c-.144.228-.346.444-.518.678-.674.94-1.428 1.836-1.428 1.836l-.086-.049zM52.813 238.954s.693.244 1.333.562c.162.076.344.126.484.213.13.1.222.233.287.366.134.26.141.543.141.543l-.06.08s-.274.072-.561.017a.995.995 0 0 1-.432-.173c-.123-.11-.221-.271-.34-.405-.483-.524-.912-1.122-.912-1.122l.06-.081zM29.265 254.113s-.648 1.666-1.375 3.289c-.179.407-.328.831-.512 1.204a5.838 5.838 0 0 1-.646.942c-.428.525-.834.81-.834.81l-.088-.047s.015-.496.218-1.143c.098-.324.237-.69.433-1.058.21-.358.482-.716.725-1.089a80.127 80.127 0 0 1 1.992-2.956l.087.048z"/>
    <path fill="#754C24" d="M11 22h6v252h-6z"/>
  </g>
</svg>
