<?xml version="1.0" standalone="yes"?>

<svg version="1.1" viewBox="0.0 0.0 463.5223097112861 653.9160104986877" fill="none" stroke="none" stroke-linecap="square" stroke-miterlimit="10" xmlns="http://www.w3.org/2000/svg" xmlns:xlink="http://www.w3.org/1999/xlink"><clipPath id="p.0"><path d="m0 0l463.5223 0l0 653.916l-463.5223 0l0 -653.916z" clip-rule="nonzero"></path></clipPath><g clip-path="url(#p.0)"><path fill="#000000" fill-opacity="0.0" d="m0 0l463.5223 0l0 653.916l-463.5223 0z" fill-rule="nonzero"></path><path fill="#cccccc" d="m35.732285 41.244095l400.53546 0l0 581.51184l-400.53546 0z" fill-rule="nonzero"></path><path stroke="#666666" stroke-width="24.0" stroke-linejoin="round" stroke-linecap="butt" d="m35.732285 41.244095l400.53546 0l0 581.51184l-400.53546 0z" fill-rule="nonzero"></path><path fill="#ffffff" d="m135.6693 220.66667l0 0c0 -53.889084 44.919586 -97.57481 100.3307 -97.57481l0 0c26.609344 0 52.128876 10.280174 70.94452 28.579002c18.815674 18.298813 29.3862 43.117355 29.3862 68.995804l0 0c0 53.889084 -44.919586 97.57478 -100.33072 97.57478l0 0c-55.411118 0 -100.3307 -43.6857 -100.3307 -97.57478z" fill-rule="nonzero"></path><path stroke="#666666" stroke-width="12.0" stroke-linejoin="round" stroke-linecap="butt" d="m135.6693 220.66667l0 0c0 -53.889084 44.919586 -97.57481 100.3307 -97.57481l0 0c26.609344 0 52.128876 10.280174 70.94452 28.579002c18.815674 18.298813 29.3862 43.117355 29.3862 68.995804l0 0c0 53.889084 -44.919586 97.57478 -100.33072 97.57478l0 0c-55.411118 0 -100.3307 -43.6857 -100.3307 -97.57478z" fill-rule="nonzero"></path><path fill="#cccccc" d="m179.25984 95.55118l113.44881 0l0 51.149612l-113.44881 0z" fill-rule="nonzero"></path><path fill="#cccccc" d="m175.9029 291.7454l120.8504 0l0 51.149628l-120.8504 0z" fill-rule="nonzero"></path><path fill="#666666" d="m195.08136 173.45145l14.173233 0l0 42.48819l-14.173233 0z" fill-rule="nonzero"></path><path fill="#666666" d="m260.65353 173.45145l14.173248 0l0 42.48819l-14.173248 0z" fill-rule="nonzero"></path><path fill="#666666" d="m223.41743 265.52002l0 -11.81102l0 0c0 -6.523056 5.6334534 -11.811035 12.582672 -11.811035c6.9492188 0 12.582687 5.287979 12.582687 11.811035l0 11.81102z" fill-rule="nonzero"></path><path fill="#ffffff" d="m135.6693 452.27298l0 0c0 -53.8891 44.919586 -97.57483 100.3307 -97.57483l0 0c26.609344 0 52.128876 10.280182 70.94452 28.57901c18.815674 18.298828 29.3862 43.11737 29.3862 68.99582l0 0c0 53.88907 -44.919586 97.5748 -100.33072 97.5748l0 0c-55.411118 0 -100.3307 -43.68573 -100.3307 -97.5748z" fill-rule="nonzero"></path><path stroke="#666666" stroke-width="12.0" stroke-linejoin="round" stroke-linecap="butt" d="m135.6693 452.27298l0 0c0 -53.8891 44.919586 -97.57483 100.3307 -97.57483l0 0c26.609344 0 52.128876 10.280182 70.94452 28.57901c18.815674 18.298828 29.3862 43.11737 29.3862 68.99582l0 0c0 53.88907 -44.919586 97.5748 -100.33072 97.5748l0 0c-55.411118 0 -100.3307 -43.68573 -100.3307 -97.5748z" fill-rule="nonzero"></path><path fill="#cccccc" d="m179.25984 327.15747l112.18898 0l0 51.149628l-112.18898 0z" fill-rule="nonzero"></path><path fill="#cccccc" d="m175.19685 523.3517l120.85039 0l0 51.14966l-120.85039 0z" fill-rule="nonzero"></path><path fill="#666666" d="m195.08136 405.05774l14.173233 0l0 42.48819l-14.173233 0z" fill-rule="nonzero"></path><path fill="#666666" d="m260.65353 405.05774l14.173248 0l0 42.48819l-14.173248 0z" fill-rule="nonzero"></path><path fill="#666666" d="m223.41743 497.1263l0 -11.811005l0 0c0 -6.5230713 5.6334534 -11.811035 12.582672 -11.811035c6.9492188 0 12.582687 5.287964 12.582687 11.811035l0 11.811005z" fill-rule="nonzero"></path><path fill="#666666" d="m175.18898 291.7454l122.61418 0l0 14.299225l-122.61418 0z" fill-rule="nonzero"></path><path fill="#cccccc" d="m303.32755 302.6168l2.1417236 4.9448853l-11.873993 5.13385l-2.1417542 -4.9448853z" fill-rule="nonzero"></path><path fill="#cccccc" d="m183.77745 309.05154l-1.9527588 5.0078735l-12.031494 -4.7243958l1.9527588 -5.0078735z" fill-rule="nonzero"></path><path fill="#666666" d="m178.71916 133.98425l114.83464 0l0 12.724411l-114.83464 0z" fill-rule="nonzero"></path><path fill="#cccccc" d="m173.90552 128.72441l19.244095 0l0 5.259842l-19.244095 0z" fill-rule="nonzero"></path><path fill="#cccccc" d="m283.65878 128.72441l19.24411 0l0 5.259842l-19.24411 0z" fill-rule="nonzero"></path><path fill="#666666" d="m176.81102 365.77954l114.83464 0l0 12.724396l-114.83464 0z" fill-rule="nonzero"></path><path fill="#cccccc" d="m171.99738 360.51968l19.244095 0l0 5.259857l-19.244095 0z" fill-rule="nonzero"></path><path fill="#cccccc" d="m281.75067 360.51968l19.24408 0l0 5.259857l-19.24408 0z" fill-rule="nonzero"></path><path fill="#666666" d="m174.0538 523.3517l122.61417 0l0 14.299255l-122.61417 0z" fill-rule="nonzero"></path><path fill="#cccccc" d="m302.19238 534.2231l2.1417236 4.9448853l-11.874023 5.13385l-2.1417236 -4.9448853z" fill-rule="nonzero"></path><path fill="#cccccc" d="m182.64227 540.65784l-1.9527435 5.0078735l-12.031494 -4.7244263l1.9527435 -5.0078735z" fill-rule="nonzero"></path></g></svg>

