<svg xmlns="http://www.w3.org/2000/svg" width="300" height="300" viewBox="0 0 300 300">>
  <path fill="#E6E6E6" d="M285.627 54.433l-7.358 159.957c0 7.651-28.034 13.854-62.613 13.854-34.58 0-62.612-6.202-62.612-13.854l-7.022-159.957c0 8.735 31.298 15.816 69.904 15.816s69.905-7.081 69.905-15.816"/>
  <path fill="#CCCCCC" d="M269 169.661c0 5.523-23.727 10.001-52.995 10.001s-52.995-4.478-52.995-10.001l-3.66-79.933c0 5.905 25.365 10.692 56.655 10.692s56.656-4.787 56.656-10.692L269 169.661z"/>
  <path fill="#999999" d="M266.137 99.457l-4.397 66.098c0 3.544-11.751 6.575-28.41 7.834 14.354-2.968 24.142-8.314 24.142-11.719l3.693-58.595c3.169-1.014 4.972-2.221 4.972-3.618zM171.488 105.996l4.397 63.75c-.191-.101-.384-.211-.565-.31-2.946-1.652-4.59-3.274-4.59-4.594l-4.515-64.671c.523 3.532 13.16 5.563 30.397 6.375-14.322 1.282-24.664 2.532-25.124-.55z"/>
  <path fill="none" stroke="#808080" stroke-miterlimit="10" d="M261.74 165.554c0 4.669-20.374 8.453-45.507 8.453-25.134 0-45.508-3.784-45.508-8.453l-4.532-65.653c0 4.992 23.172 7.122 50.04 7.122s49.902-2.579 49.902-7.571l-4.395 66.102z"/>
  <path fill="#CCCCCC" d="M286 50.316c0-8.736-31.218-15.817-70.5-15.817S145 41.581 145 50.316v5.489c0 8.735 31.218 15.817 70.5 15.817S286 64.541 286 55.805v-5.489z"/>
  <path fill="#999999" d="M279.403 184.2l-.031.386c.008.259-.104.624-.275 1.099-.392.928-1.396 2.08-2.948 3.115-3.099 2.104-8.132 4.011-14.298 5.527-6.171 1.535-13.502 2.729-21.395 3.521-3.948.387-8.035.715-12.195.899-4.161.192-8.383.295-12.623.307-4.206-.01-8.462-.113-12.612-.306-4.16-.181-8.246-.512-12.194-.898-7.893-.791-15.224-1.985-21.396-3.521-6.166-1.516-11.198-3.425-14.297-5.529-1.553-1.036-2.558-2.188-2.948-3.116-.379-.938-.267-1.493-.307-1.484.038-.011-.029.556.404 1.438.44.88 1.504 1.896 3.062 2.836 1.561.942 3.61 1.829 6.037 2.61 2.429.78 5.228 1.48 8.304 2.126 6.162 1.269 13.455 2.24 21.302 2.888 3.923.332 7.987.543 12.117.723 4.141.169 8.316.244 12.54.236a290.63 290.63 0 0 0 12.528-.235c4.131-.176 8.194-.39 12.118-.722 7.847-.646 15.14-1.618 21.301-2.887 3.077-.646 5.876-1.346 8.304-2.127 2.428-.782 4.478-1.669 6.038-2.611 1.558-.939 2.62-1.956 3.061-2.837.431-.875.366-1.452.403-1.438zM284.061 71.68c-.044-.009.084.589-.391 1.573-.479.966-1.633 2.124-3.344 3.153-3.422 2.093-8.866 3.952-15.504 5.46-6.646 1.516-14.517 2.694-22.985 3.475-4.235.382-8.619.707-13.08.889-4.46.19-8.994.291-13.529.304a338.17 338.17 0 0 1-13.528-.302c-4.461-.179-8.845-.506-13.08-.888-8.469-.779-16.341-1.958-22.986-3.475-6.638-1.507-12.082-3.369-15.503-5.462-1.711-1.03-2.864-2.188-3.344-3.154-.473-.978-.347-1.586-.39-1.573.041-.014-.038.604.485 1.521.525.914 1.729 1.934 3.444 2.869 3.441 1.906 8.925 3.4 15.542 4.674 6.637 1.251 14.474 2.208 22.899 2.844 4.213.329 8.575.536 13.01.713 4.44.167 8.933.241 13.451.233a338.49 338.49 0 0 0 13.452-.232c4.435-.173 8.797-.384 13.01-.712 8.427-.635 16.264-1.593 22.899-2.844 6.618-1.273 12.102-2.77 15.543-4.676 1.715-.936 2.918-1.956 3.443-2.87.522-.909.446-1.538.486-1.52z"/>
  <path fill="#C91B30" d="M226 215.587c0 .787-4.342 1.425-10 1.425-5.66 0-10-.638-10-1.425v-6.403c0 .786 4.342 1.425 10 1.425s10-.639 10-1.425v6.403z"/>
  <path opacity=".3" fill="#4D4D4D" d="M285.039 67.127l-6.767 147.171c0 7.652-28.038 13.896-62.619 13.896-26.224 0-48.679-3.554-57.997-8.613 78.362-5.134 116.956-116.549 127.383-152.454z"/>
  <g>
    <g fill="#FFDD67">
      <path d="M97.006 276.241l48.624-12.731s-6.91-23.382-4.111-45.764l-58.463 24.756c11.724 16.217 13.95 33.739 13.95 33.739M84.82 210.157l-18.418 4.823-21.412-81.774c-1.447-5.525 1.447-11.006 6.604-12.357 5.156-1.35 10.366 2.009 11.91 7.903l21.316 81.405"/>
      <path d="M106.553 204.467l-21.733 5.69-23.246-88.772c-1.736-6.63 1.605-13.409 7.867-15.049 5.894-1.543 12.498 2.632 14.234 9.262l23.246 88.773-.368.096z"/>
      <path d="M125.338 199.548l-19.155 5.016-21.895-83.616c-1.543-5.893 1.624-11.839 6.781-13.189 5.156-1.351 10.831 2.28 12.374 8.174l21.895 83.615"/>
      <path d="M112.766 115.458c4.789-1.254 9.629 2.202 11.076 7.728l18.809 71.829-17.313 4.533-18.809-71.829c-1.446-5.525 1.448-11.007 6.237-12.261"/>
    </g>
    <g fill="#EBA352">
      <path d="M51.498 120.481l1.841-.482c-4.228 1.894-6.386 7.182-5.131 11.971l21.509 82.142-3.314.868-21.413-81.774c-1.447-5.525 1.35-11.375 6.508-12.725M69.073 106.432c.737-.193 1.105-.29 1.57-.017-4.963 2.087-7.666 8.305-6.123 14.198l15.529 59.305-2.351 4.552-16.493-62.988c-1.366-6.728 1.975-13.506 7.868-15.05M91.069 107.758l1.473-.386c-4.228 1.894-6.385 7.182-5.035 12.339l14.178 54.147-2.35 4.552-15.047-57.463c-1.173-5.99 1.624-11.839 6.781-13.189M112.766 115.458c.736-.193 1.105-.29 1.57-.017-3.859 1.797-5.745 6.621-4.491 11.41l11.092 42.359-2.351 4.552-12.057-46.043c-1.446-5.525 1.448-11.007 6.237-12.261"/>
    </g>
    <path fill="#FFDD67" d="M25.622 185.511c3.885-7.709 15.708-7.655 27.687 6.525 8.42 9.604 9.314 7.009 12.453 6.975l-2.604-9.946s72.048-23.982 74.942-12.933c0 0 10.453 26.39 7.891 45.167-4.026 28.214-56.807 49.119-85.035 10.458-5.534-7.604-12.734-15.558-18.829-23.803-7.683-9.796-20.838-13.436-16.505-22.443"/>
    <g fill="#EBA352">
      <path d="M28.631 181.968c-9.473 11.927 16.697 23.18 33.858 46.632 24.573 33.715 67.67 22.43 81.187.391-11.464 23.863-56.543 39.604-82.72 2.767-17.259-23.821-47.612-37.522-32.325-49.79"/>
      <path d="M62.351 199.51c13.015-8.919 45.824-6.883 49.296 22.91-7.042-26.89-32.625-26.883-45.885-23.409-1.841.482-3.411.499-3.411.499"/>
    </g>
  </g>
  <g>
    <path fill="#666666" d="M9.475 181.93s1.108-2.958 3.198-7.208c.547-1.049 1.093-2.214 1.759-3.397a72.703 72.703 0 0 1 2.128-3.706c.745-1.284 1.596-2.561 2.453-3.864.84-1.316 1.819-2.568 2.732-3.868.97-1.259 1.961-2.505 2.953-3.722 1.049-1.167 2.049-2.353 3.132-3.392l1.639-1.485c.538-.481 1.061-.957 1.637-1.344 1.123-.804 2.148-1.607 3.181-2.226 1.046-.6 2.017-1.125 2.872-1.586.854-.465 1.688-.705 2.334-.965 1.305-.497 2.054-.74 2.054-.74l.078.184s-.659.457-1.818 1.187l-.954.607c-.349.215-.735.427-1.103.736-.758.573-1.609 1.217-2.548 1.891-.483.317-.907.763-1.388 1.16l-1.477 1.246c-1.02.844-1.979 1.876-3.06 2.836-1.082.964-2.076 2.094-3.185 3.145-1.047 1.112-2.071 2.285-3.092 3.461-.954 1.231-1.975 2.414-2.862 3.67-.904 1.242-1.804 2.461-2.6 3.693-.833 1.208-1.575 2.417-2.292 3.557-.734 1.13-1.347 2.247-1.957 3.254-2.342 4.085-3.631 6.955-3.631 6.955l-.183-.079zM8.408 191.535s1.108-2.958 3.198-7.208c.547-1.049 1.093-2.214 1.76-3.396a72.29 72.29 0 0 1 2.128-3.707c.745-1.284 1.596-2.56 2.453-3.864.839-1.316 1.819-2.568 2.731-3.868.97-1.258 1.961-2.504 2.953-3.721 1.049-1.168 2.049-2.354 3.132-3.393l1.639-1.485c.539-.481 1.061-.957 1.637-1.344 1.123-.805 2.148-1.607 3.181-2.226 1.047-.601 2.017-1.125 2.872-1.587.854-.465 1.689-.705 2.334-.965 1.305-.497 2.054-.74 2.054-.74l.078.184s-.659.457-1.818 1.187c-.288.184-.606.387-.954.607-.349.215-.735.427-1.102.736-.759.572-1.609 1.216-2.548 1.89-.482.317-.907.764-1.388 1.16l-1.477 1.246c-1.02.844-1.979 1.876-3.06 2.836-1.081.964-2.076 2.094-3.185 3.145-1.047 1.112-2.07 2.286-3.091 3.461-.954 1.231-1.976 2.414-2.863 3.67-.904 1.243-1.804 2.461-2.6 3.693-.833 1.208-1.575 2.417-2.292 3.557-.734 1.13-1.347 2.247-1.957 3.254-2.342 4.085-3.631 6.955-3.631 6.955l-.184-.077zM8.408 201.142s1.108-2.958 3.198-7.208c.547-1.049 1.093-2.214 1.759-3.396a72.29 72.29 0 0 1 2.128-3.707c.745-1.284 1.596-2.561 2.453-3.864.84-1.316 1.819-2.568 2.732-3.868.97-1.259 1.961-2.505 2.953-3.722 1.049-1.167 2.049-2.353 3.132-3.392l1.639-1.485c.538-.481 1.061-.957 1.637-1.344 1.123-.805 2.148-1.607 3.181-2.226 1.046-.601 2.017-1.125 2.872-1.587.854-.465 1.688-.705 2.334-.965 1.305-.497 2.054-.74 2.054-.74l.078.184s-.659.457-1.818 1.187c-.288.184-.606.387-.954.607-.349.215-.735.427-1.103.735-.758.573-1.609 1.217-2.548 1.891-.483.317-.907.764-1.388 1.16l-1.477 1.246c-1.02.844-1.979 1.876-3.06 2.836-1.082.964-2.076 2.094-3.185 3.145-1.047 1.112-2.071 2.285-3.092 3.461-.954 1.231-1.975 2.414-2.862 3.67-.904 1.242-1.804 2.461-2.6 3.693-.833 1.208-1.575 2.417-2.292 3.557-.734 1.13-1.347 2.247-1.957 3.254-2.342 4.085-3.631 6.955-3.631 6.955l-.183-.077z"/>
  </g>
</svg>
