<svg xmlns="http://www.w3.org/2000/svg" width="300" height="300" viewBox="0 0 300 300">
  <path fill="#4D4D4D" d="M5 185h289v43H5z"/>
  <path fill="#808080" d="M293.01 185l-38.852-43H43.914l-38.85 43z"/>
  <path fill="#727272" d="M254.158 142.25L294 185H5.064s223.196-17.812 249.094-42.75z"/>
  <ellipse transform="rotate(16.799 157.696 169.519)" opacity=".5" fill="#4D4D4D" cx="157.701" cy="169.528" rx="24.152" ry="11.602"/>
  <ellipse transform="rotate(16.799 236.013 169.518)" opacity=".5" fill="#4D4D4D" cx="236.022" cy="169.528" rx="24.152" ry="11.603"/>
  <ellipse transform="rotate(16.799 80.682 169.516)" opacity=".5" fill="#4D4D4D" cx="80.685" cy="169.528" rx="24.152" ry="11.602"/>
  <path fill="#B3B3B3" d="M86.148 136.341c0 2.878-6.826 5.211-14.029 5.211-7.2 0-14.119-2.333-14.119-5.211v23.224c0 2.878 6.919 5.211 14.119 5.211 7.203 0 13.673-2.333 13.673-5.211l.356-23.224z"/>
  <path fill="#4D4D4D" d="M57.832 153.039c.012-.004-.008.127.082.328.081.202.282.461.602.711.639.514 1.753.939 3.105 1.32 1.357.386 2.988.656 4.74.876 1.752.22 3.638.336 5.521.33a46.933 46.933 0 0 0 5.529-.247c1.754-.192 3.391-.428 4.754-.79a15.614 15.614 0 0 0 1.828-.58 5.72 5.72 0 0 0 1.291-.697c.313-.259.509-.515.592-.719l.084-.328-.046.342c-.062.215-.226.518-.536.815a5.892 5.892 0 0 1-1.27.841c-.525.264-1.137.526-1.827.731-.685.226-1.441.415-2.246.593-.804.177-1.66.328-2.551.438-1.776.226-3.702.34-5.607.35a44.452 44.452 0 0 1-5.604-.436 27.682 27.682 0 0 1-4.777-1.117c-1.364-.456-2.452-1.031-3.076-1.612-.315-.288-.485-.592-.546-.81-.065-.219-.029-.34-.042-.339z"/>
  <path fill="#4D4D4D" d="M57.832 155.65c.012-.004-.008.127.082.328.082.202.282.461.603.711.639.513 1.753.938 3.105 1.32 1.357.386 2.988.656 4.739.877 1.753.219 3.638.336 5.521.33a46.926 46.926 0 0 0 5.528-.247c1.755-.192 3.391-.429 4.754-.791.684-.173 1.296-.373 1.828-.581s.962-.456 1.291-.697c.312-.259.509-.515.592-.718l.084-.329-.045.342c-.062.215-.227.518-.536.815a5.892 5.892 0 0 1-1.27.841 10.99 10.99 0 0 1-1.827.732c-.685.226-1.441.415-2.246.593-.805.178-1.66.329-2.551.439-1.776.226-3.702.34-5.607.35a44.452 44.452 0 0 1-5.604-.436 27.77 27.77 0 0 1-4.777-1.118c-1.364-.457-2.452-1.031-3.076-1.613-.315-.287-.485-.591-.546-.809-.065-.218-.029-.34-.042-.339z"/>
  <path fill="#4D4D4D" d="M57.832 158.259c.012-.004-.007.127.082.328.081.202.282.461.602.711.639.514 1.753.94 3.105 1.322 1.357.386 2.988.656 4.74.877 1.753.219 3.638.336 5.521.33a46.933 46.933 0 0 0 5.529-.247c1.755-.192 3.391-.429 4.754-.791a15.36 15.36 0 0 0 1.828-.581 5.68 5.68 0 0 0 1.291-.697c.312-.259.509-.515.592-.718l.084-.329-.045.342c-.062.215-.227.518-.536.815a5.855 5.855 0 0 1-1.27.841c-.525.265-1.137.527-1.827.732-.685.227-1.442.415-2.246.593-.805.178-1.66.329-2.551.439a47.08 47.08 0 0 1-5.608.35 44.452 44.452 0 0 1-5.604-.436 27.673 27.673 0 0 1-4.777-1.119c-1.364-.456-2.451-1.031-3.076-1.613-.315-.287-.484-.592-.545-.81-.066-.219-.03-.34-.043-.339zM57.832 150.428c.012-.004-.008.127.082.328.081.203.282.461.602.711.639.514 1.752.94 3.105 1.322 1.357.386 2.988.656 4.74.876 1.753.22 3.638.337 5.521.331a46.933 46.933 0 0 0 5.529-.247c1.755-.192 3.391-.429 4.754-.791a15.36 15.36 0 0 0 1.828-.581 5.68 5.68 0 0 0 1.291-.698c.312-.259.509-.515.592-.718l.084-.329-.045.341c-.062.215-.227.518-.535.816a5.855 5.855 0 0 1-1.27.842c-.525.264-1.137.527-1.827.732-.685.226-1.442.415-2.246.593s-1.66.329-2.551.439a47.08 47.08 0 0 1-5.608.35 44.452 44.452 0 0 1-5.604-.436 27.673 27.673 0 0 1-4.777-1.119c-1.364-.457-2.452-1.031-3.076-1.613-.315-.288-.485-.591-.546-.81-.066-.219-.03-.34-.043-.339z"/>
  <path fill="#4D4D4D" d="M57.832 147.817c.012-.004-.008.127.082.328.081.203.282.461.602.711.639.514 1.753.939 3.105 1.321 1.357.386 2.989.656 4.74.876 1.752.22 3.638.336 5.521.33a46.933 46.933 0 0 0 5.529-.247c1.755-.193 3.391-.428 4.754-.791a15.605 15.605 0 0 0 1.828-.581 5.68 5.68 0 0 0 1.291-.698c.312-.259.509-.515.592-.718l.084-.329-.045.341c-.062.216-.227.518-.536.816a5.819 5.819 0 0 1-1.27.841c-.524.264-1.137.527-1.827.732-.685.226-1.441.415-2.246.592-.805.178-1.66.329-2.551.439-1.776.226-3.702.34-5.607.35a44.452 44.452 0 0 1-5.604-.436 27.678 27.678 0 0 1-4.777-1.118c-1.364-.457-2.452-1.031-3.076-1.613-.315-.288-.485-.591-.546-.81-.066-.215-.03-.336-.043-.336z"/>
  <path fill="#4D4D4D" d="M57.832 145.206c.012-.004-.008.127.082.328.081.203.282.461.602.711.639.514 1.752.94 3.105 1.321 1.357.386 2.988.657 4.74.876 1.752.22 3.638.337 5.521.33a46.719 46.719 0 0 0 5.529-.247c1.755-.192 3.391-.428 4.754-.791a15.419 15.419 0 0 0 1.828-.581 5.68 5.68 0 0 0 1.291-.697c.313-.259.509-.515.592-.718l.084-.329-.046.341c-.062.216-.226.518-.536.816a5.892 5.892 0 0 1-1.27.841c-.524.264-1.137.526-1.827.732-.685.226-1.441.415-2.246.593a27.38 27.38 0 0 1-2.551.438 46.868 46.868 0 0 1-5.607.35 44.269 44.269 0 0 1-5.604-.435 27.673 27.673 0 0 1-4.777-1.119c-1.364-.457-2.452-1.031-3.076-1.613-.315-.288-.485-.591-.546-.81-.065-.216-.029-.337-.042-.337z"/>
  <path fill="#4D4D4D" d="M57.832 142.597c.012-.004-.008.127.082.328.081.203.282.461.602.711.639.513 1.753.939 3.105 1.321 1.357.386 2.988.656 4.74.875 1.752.219 3.638.336 5.521.33a46.719 46.719 0 0 0 5.529-.247c1.755-.193 3.391-.428 4.754-.791a15.605 15.605 0 0 0 1.828-.581 5.702 5.702 0 0 0 1.291-.698c.312-.259.509-.515.592-.718l.084-.329-.045.341c-.062.216-.227.518-.536.816a5.819 5.819 0 0 1-1.27.841c-.524.264-1.137.527-1.827.732-.685.226-1.441.415-2.246.592-.805.177-1.66.329-2.551.439a46.868 46.868 0 0 1-5.607.35 44.269 44.269 0 0 1-5.604-.435 27.682 27.682 0 0 1-4.777-1.117c-1.364-.457-2.452-1.031-3.076-1.612-.315-.288-.485-.591-.546-.81-.066-.218-.03-.339-.043-.338z"/>
  <path fill="#4D4D4D" d="M50.223 136.313l-4.388-9.624-2.607-36.241c0 5.134 12.892 9.299 28.792 9.299 15.901 0 28.791-4.165 28.791-9.299l-2.605 36.241-4.388 9.624c0 4.763-9.759 8.623-21.798 8.623s-21.797-3.861-21.797-8.623z"/>
  <path fill="#1A1A1A" d="M49.173 134.383c.013-.004.001.201.112.542.099.339.358.805.816 1.273.911.964 2.654 1.813 4.821 2.498 2.175.687 4.806 1.199 7.646 1.549 2.84.338 5.907.529 8.953.513a69.515 69.515 0 0 0 4.567-.125c1.5-.101 2.978-.208 4.398-.389 2.84-.352 5.471-.863 7.646-1.55 2.167-.685 3.911-1.532 4.821-2.496.459-.469.717-.932.817-1.275.111-.34.1-.542.112-.54-.013-.001.028.195-.033.559-.055.36-.235.902-.676 1.447-.862 1.108-2.56 2.244-4.749 3.114-2.186.897-4.859 1.583-7.753 2.047-1.449.225-2.952.423-4.487.527a69.148 69.148 0 0 1-4.651.179c-3.135-.015-6.251-.233-9.15-.708-2.894-.466-5.566-1.151-7.752-2.047-2.188-.871-3.887-2.005-4.75-3.113-.44-.546-.62-1.085-.677-1.448-.059-.364-.018-.557-.031-.557z"/>
  <path fill="#1A1A1A" d="M45.835 125.383c.014-.004 0 .234.123.637.11.401.402.957.933 1.52.529.564 1.297 1.129 2.253 1.64.96.505 2.103.963 3.373 1.388 5.104 1.674 12.327 2.536 19.497 2.524a79.188 79.188 0 0 0 5.366-.155c1.764-.12 3.5-.256 5.169-.477 3.337-.429 6.425-1.057 8.974-1.894 1.271-.425 2.412-.883 3.373-1.388.956-.511 1.724-1.074 2.253-1.639.531-.563.822-1.116.933-1.521.123-.402.109-.639.123-.636-.015-.002.03.229-.044.654-.066.422-.278 1.052-.79 1.691-1.002 1.299-2.988 2.628-5.552 3.646-2.56 1.048-5.691 1.85-9.083 2.393-1.697.263-3.459.492-5.258.614a79.66 79.66 0 0 1-5.452.209c-3.672-.015-7.326-.272-10.722-.825-3.392-.544-6.523-1.346-9.083-2.394-2.563-1.019-4.55-2.345-5.552-3.645-.513-.64-.724-1.268-.791-1.692-.072-.423-.028-.651-.043-.65z"/>
  <path fill="#4D4D4D" d="M98.205 81.918l2.606 8.529c0 5.134-12.891 9.297-28.792 9.297-15.9 0-28.792-4.163-28.792-9.297l2.607-8.529"/>
  <g>
    <path fill="#1A1A1A" d="M100.811 90.447c-.016 0 .031.251-.052.716-.076.466-.312 1.153-.876 1.853-1.104 1.421-3.292 2.865-6.108 3.976-2.814 1.142-6.254 2.014-9.981 2.606-3.731.601-7.746.882-11.779.897a87.697 87.697 0 0 1-5.991-.227c-1.976-.135-3.912-.381-5.777-.669-3.727-.591-7.167-1.464-9.981-2.606-2.817-1.11-5.003-2.556-6.108-3.977-.564-.699-.801-1.388-.876-1.851-.083-.466-.036-.72-.052-.718.016-.003-.001.256.131.7.12.445.436 1.058 1.02 1.68.581.624 1.424 1.249 2.475 1.816 1.056.56 2.311 1.07 3.708 1.542 2.803.932 6.201 1.63 9.873 2.108 1.836.245 3.746.399 5.687.531 1.953.125 3.901.18 5.905.173 7.892.012 15.838-.949 21.453-2.81 1.397-.472 2.652-.981 3.708-1.542 1.05-.567 1.894-1.192 2.475-1.817.583-.622.899-1.237 1.019-1.679.128-.444.111-.706.127-.702z"/>
  </g>
  <g>
    <path fill="#1A1A1A" d="M46.852 95.008s.114.541.28 1.488l.292 1.708.18 1.051c.06.37.034.762.071 1.169l.71 11.951.71 11.951c.009.408.085.796.06 1.169l-.053 1.059-.086 1.72-.098 1.5-.275-1.488-.29-1.708-.179-1.051c-.069-.37-.039-.762-.078-1.169l-.71-11.951-.71-11.951c-.011-.408-.083-.797-.067-1.169l.054-1.058.088-1.721c.051-.954.101-1.5.101-1.5zM44.24 93.041s.114.535.28 1.473l.292 1.691.18 1.041c.06.366.034.754.072 1.157l.71 11.832.71 11.832c.009.404.086.789.061 1.158l-.053 1.048-.086 1.704-.098 1.485-.275-1.473-.29-1.691-.179-1.041c-.069-.366-.039-.754-.079-1.157l-.71-11.832-.71-11.832c-.011-.404-.083-.789-.067-1.158l.054-1.048.088-1.703c.05-.945.1-1.486.1-1.486zM56.732 97.844s.102.544.246 1.496l.253 1.717.155 1.057c.052.372.017.764.045 1.172l.441 11.982.441 11.982c0 .409.068.8.034 1.172l-.077 1.059-.125 1.721-.131 1.5-.242-1.496-.251-1.717-.155-1.056c-.062-.372-.022-.764-.052-1.172l-.441-11.982-.441-11.982c-.001-.409-.065-.8-.041-1.172l.078-1.059.126-1.721c.075-.956.137-1.501.137-1.501zM49.67 96.164s.125.54.311 1.486a743.841 743.841 0 0 0 .528 2.757c.068.37.05.763.096 1.17l.956 11.967.956 11.966c.017.409.102.797.084 1.171l-.031 1.062-.051 1.727-.067 1.505-.306-1.486-.325-1.707-.2-1.05c-.077-.369-.055-.763-.103-1.17l-.956-11.967-.956-11.966c-.019-.409-.1-.797-.091-1.171l.032-1.062.053-1.727c.031-.957.07-1.505.07-1.505zM53.312 97.521s.11.533.268 1.465l.278 1.683.171 1.035c.057.364.028.75.063 1.15l.613 11.761.613 11.761c.005.401.079.785.051 1.151l-.062 1.041-.101 1.692-.11 1.475-.263-1.466-.276-1.683-.17-1.035c-.066-.364-.033-.75-.069-1.15l-.613-11.761-.613-11.761c-.007-.401-.077-.785-.058-1.151l.063-1.041.102-1.692c.058-.937.113-1.474.113-1.474zM59.993 98.705s.099.543.238 1.493a664.844 664.844 0 0 0 .394 2.767c.05.371.013.761.039 1.169l.375 11.948.375 11.948c-.002.407.063.797.028 1.169l-.083 1.055-.134 1.715-.14 1.494-.233-1.493a1628.58 1628.58 0 0 0-.392-2.767c-.059-.371-.018-.761-.046-1.169l-.375-11.948-.375-11.948c0-.407-.061-.797-.035-1.169l.083-1.055.136-1.715c.08-.95.145-1.494.145-1.494zM63.034 99.21s.103.538.248 1.48l.254 1.699.156 1.045c.052.368.018.756.046 1.16l.45 11.858.45 11.859c0 .404.068.792.035 1.16l-.076 1.048-.124 1.703-.13 1.484-.243-1.48-.253-1.699-.156-1.045c-.062-.368-.022-.756-.053-1.16l-.45-11.858-.45-11.859c-.002-.404-.066-.792-.042-1.16l.077-1.048.125-1.703c.075-.944.136-1.484.136-1.484zM66.573 99.538s.091.536.215 1.472l.217 1.689.133 1.039c.044.366.001.75.021 1.15l.188 11.759.188 11.759c-.009.401.051.786.009 1.15l-.099 1.037-.161 1.685-.163 1.468-.21-1.472-.216-1.689-.132-1.039c-.053-.366-.006-.75-.028-1.15l-.188-11.759-.188-11.759c.007-.401-.048-.786-.017-1.15l.1-1.037.163-1.685a47.63 47.63 0 0 1 .168-1.468zM69.534 99.536s.083.54.193 1.484l.192 1.702.119 1.047c.039.369-.01.754.004 1.158l.019 11.833.018 11.833c-.015.403.04.791-.007 1.158l-.114 1.041-.186 1.693-.184 1.474-.189-1.484-.191-1.703-.118-1.047c-.048-.369.005-.754-.011-1.158l-.019-11.833-.018-11.833c.013-.403-.037-.791 0-1.158l.115-1.041.187-1.693c.109-.937.19-1.473.19-1.473zM98.357 94.347s.05.541.102 1.485l.088 1.703.054 1.048c.016.369-.056.754-.067 1.158l-.71 11.832-.71 11.832c-.04.403-.009.791-.079 1.157l-.179 1.041-.29 1.691-.275 1.473-.098-1.485a2491.615 2491.615 0 0 1-.139-2.752c-.025-.369.052-.754.061-1.158l.71-11.832.71-11.832c.038-.403.012-.791.072-1.157l.18-1.041c.112-.653.21-1.223.292-1.691.164-.937.278-1.472.278-1.472zM88.476 97.844s.062.545.136 1.5l.126 1.721.078 1.059c.024.373-.04.764-.041 1.172l-.44 11.982-.44 11.981c-.03.409.009.8-.052 1.172l-.155 1.056-.251 1.717-.242 1.496-.131-1.5-.125-1.721-.077-1.059c-.034-.373.035-.764.034-1.172l.44-11.982.44-11.981c.028-.409-.006-.8.045-1.172l.156-1.056.253-1.717c.144-.952.246-1.496.246-1.496zM95.195 95.651s.05.541.103 1.485l.088 1.703.054 1.048c.016.369-.056.754-.067 1.158l-.71 11.832-.71 11.832c-.04.403-.009.791-.078 1.157l-.179 1.041-.29 1.691-.275 1.473-.098-1.485a2491.615 2491.615 0 0 1-.139-2.752c-.025-.369.051-.754.06-1.158l.71-11.832.71-11.832c.037-.403.011-.791.071-1.157l.18-1.041c.112-.653.21-1.223.292-1.691.164-.936.278-1.472.278-1.472zM91.893 96.949s.054.54.114 1.484l.102 1.703.063 1.047c.019.369-.05.754-.058 1.158l-.613 11.837-.613 11.837c-.036.403-.002.791-.069 1.158l-.17 1.042-.276 1.694-.263 1.475L90 129.9l-.101-1.703-.062-1.047c-.029-.369.045-.754.051-1.158l.613-11.837.613-11.837c.034-.403.005-.791.062-1.158l.171-1.042.278-1.693c.158-.94.268-1.476.268-1.476zM85.215 98.705s.065.543.144 1.494l.136 1.715.083 1.055c.026.371-.035.761-.035 1.169l-.375 11.948-.375 11.948c-.028.407.013.798-.046 1.169l-.149 1.054-.243 1.713-.233 1.493-.14-1.494-.134-1.715-.083-1.055c-.036-.371.03-.761.028-1.169l.375-11.948.375-11.948c.026-.407-.011-.798.039-1.169a1240.41 1240.41 0 0 0 .394-2.767c.14-.95.239-1.493.239-1.493zM82.175 99.21s.062.54.135 1.484l.125 1.703.077 1.048c.024.369-.04.756-.042 1.16l-.451 11.859-.451 11.858c-.031.404.008.792-.053 1.16l-.155 1.045-.253 1.699-.243 1.48-.13-1.484-.124-1.703-.076-1.048c-.034-.369.035-.756.035-1.16l.451-11.859.451-11.858c.028-.404-.006-.792.046-1.16l.156-1.045.254-1.699c.145-.942.248-1.48.248-1.48zM78.636 99.538s.074.534.167 1.468l.163 1.685.1 1.037c.032.365-.023.75-.017 1.15l-.188 11.759-.188 11.759c-.022.401.025.785-.028 1.15l-.132 1.039-.216 1.689-.21 1.472-.163-1.468-.161-1.685-.099-1.037c-.042-.365.018-.75.009-1.15l.188-11.759.188-11.759c.02-.401-.023-.785.021-1.15l.133-1.039.217-1.689c.125-.936.216-1.472.216-1.472zM75.675 99.536s.081.536.188 1.474l.186 1.693.114 1.042c.038.367-.013.754 0 1.158l-.028 11.833-.028 11.833c-.016.404.037.789-.012 1.158l-.119 1.047-.192 1.703-.19 1.484-.183-1.475-.184-1.693a273.72 273.72 0 0 1-.113-1.041c-.047-.367.008-.754-.006-1.158l.028-11.833.028-11.833c.014-.403-.034-.789.005-1.158l.119-1.047.194-1.703c.109-.944.193-1.484.193-1.484zM72.108 99.536s.083.549.195 1.509l.194 1.73.12 1.064c.039.375-.009.767.005 1.177l.032 12.03.032 12.031c-.014.41.041.804-.006 1.177l-.113 1.059-.184 1.722-.183 1.499-.19-1.508-.193-1.731-.119-1.064c-.048-.375.004-.767-.012-1.177l-.032-12.03-.032-12.031c.012-.41-.038-.804-.001-1.177l.114-1.059.185-1.721c.108-.955.188-1.5.188-1.5z"/>
  </g>
  <g>
    <path fill="#B3B3B3" d="M91.376 74.943l.834.336c.546.208 1.336.559 2.301 1.111.938.579 2.088 1.334 3.076 2.61.98 1.237 1.586 3.365.576 5.299-.942 1.863-2.686 3.259-4.604 4.357-1.936 1.1-4.106 1.97-6.406 2.623-4.596 1.345-9.678 1.94-14.743 1.991a64.658 64.658 0 0 1-7.551-.419 48.65 48.65 0 0 1-7.213-1.369c-2.31-.61-4.494-1.427-6.459-2.457-1.954-1.027-3.733-2.305-4.868-4.011-.565-.841-.928-1.819-.945-2.777.001-.141-.013-.189.001-.402l.049-.311.1-.609c.17-.423.284-.881.51-1.215.833-1.399 1.928-2.271 2.856-2.864.922-.615 1.71-.982 2.249-1.214l.824-.362-.773.458c-.508.286-1.224.768-2.069 1.432-.849.648-1.809 1.6-2.422 2.886-.175.316-.203.652-.329.978l-.044.612-.021.313c.006-.004.021.16.031.232.081.751.398 1.507.925 2.186 1.046 1.37 2.726 2.45 4.592 3.332 1.883.877 4.001 1.547 6.229 2.086 2.229.545 4.587.892 6.99 1.156a63.3 63.3 0 0 0 7.328.34c2.46 0 4.92-.144 7.322-.424 2.399-.297 4.75-.679 6.968-1.262 2.215-.58 4.315-1.296 6.16-2.236 1.824-.942 3.442-2.119 4.303-3.582.194-.362.371-.757.445-1.113.052-.162.079-.376.095-.602l.016-.163c-.005.015-.008-.078-.012-.111l-.021-.284c-.009-.764-.345-1.462-.698-2.078-.776-1.219-1.815-2.063-2.675-2.702-.889-.604-1.611-1.073-2.136-1.338l-.791-.433z"/>
  </g>
  <path fill="#771B26" d="M45.835 81.912c0-5.718 11.717-10.35 26.169-10.35 14.455 0 26.172 4.632 26.172 10.35 0 5.717-11.717 10.35-26.172 10.35-14.452 0-26.169-4.633-26.169-10.35"/>
  <g>
    <path fill="#E6E6E6" d="M72.475 72s.452 2.528.7 5.139c.059.653.229 1.264.242 1.876-.001.611-.104 1.023-.242 1.512-.251.979-.7 1.472-.7 1.472h-.2s-.449-.514-.7-1.493a5.748 5.748 0 0 1-.242-1.603c.013-.611.183-1.147.242-1.8.248-2.611.7-5.104.7-5.104h.2z"/>
  </g>
  <g>
    <path fill="#B3B3B3" d="M163.816 136.341c0 2.878-7.157 5.211-14.362 5.211-7.2 0-14.454-2.333-14.454-5.211v23.224c0 2.878 7.254 5.211 14.454 5.211 7.205 0 13.843-2.333 13.843-5.211l.519-23.224z"/>
    <path fill="#4D4D4D" d="M127.891 136.313l-4.388-9.624-2.605-36.241c0 5.134 12.892 9.299 28.793 9.299 15.899 0 28.789-4.165 28.789-9.299l-2.605 36.241-4.388 9.624c0 4.763-9.759 8.623-21.796 8.623-12.042 0-21.8-3.861-21.8-8.623z"/>
    <path fill="#1A1A1A" d="M127.173 134.383c.012-.004.001.2.112.541.099.339.356.804.813 1.272.907.963 2.646 1.813 4.809 2.498 2.17.687 4.795 1.2 7.63 1.55 2.835.339 5.895.53 8.936.513a69.24 69.24 0 0 0 4.558-.125c1.498-.101 2.973-.208 4.39-.39 2.835-.352 5.46-.864 7.63-1.551 2.163-.685 3.902-1.533 4.81-2.497.457-.469.714-.931.813-1.273.11-.34.1-.541.112-.539-.013-.001.028.195-.032.558-.056.36-.234.9-.673 1.446-.858 1.108-2.552 2.244-4.736 3.115-2.182.897-4.85 1.583-7.738 2.048-1.446.225-2.946.424-4.479.527a68.936 68.936 0 0 1-4.643.18c-3.129-.015-6.24-.233-9.133-.708-2.889-.466-5.556-1.152-7.737-2.048-2.184-.872-3.878-2.006-4.737-3.114-.439-.546-.617-1.084-.673-1.447-.06-.363-.019-.556-.032-.556z"/>
    <path fill="#4D4D4D" d="M175.874 81.918l2.605 8.529c0 5.134-12.89 9.297-28.789 9.297-15.901 0-28.793-4.163-28.793-9.297l2.605-8.529"/>
    <path fill="#1A1A1A" d="M178.479 90.447c-.017 0 .031.251-.052.716-.076.466-.313 1.153-.877 1.853-1.104 1.42-3.291 2.865-6.108 3.976-2.813 1.142-6.254 2.014-9.98 2.606-3.731.601-7.746.882-11.779.897a87.644 87.644 0 0 1-5.99-.227c-1.976-.135-3.912-.381-5.777-.669-3.727-.591-7.167-1.464-9.981-2.606-2.817-1.11-5.004-2.556-6.108-3.977-.564-.699-.801-1.388-.876-1.851-.083-.466-.036-.72-.052-.718.016-.003-.001.256.131.7.12.445.436 1.058 1.019 1.68.582.624 1.425 1.249 2.475 1.816 1.056.56 2.311 1.07 3.708 1.542 2.803.931 6.2 1.63 9.872 2.107 1.836.245 3.746.4 5.688.532 1.953.124 3.901.18 5.904.173 7.891.012 15.838-.949 21.452-2.81 1.397-.472 2.653-.981 3.709-1.542 1.05-.567 1.894-1.192 2.474-1.817.583-.622.899-1.237 1.019-1.679.131-.444.114-.706.129-.702z"/>
    <path fill="#B3B3B3" d="M169.043 74.943l.834.336c.547.207 1.337.559 2.302 1.11.938.579 2.089 1.333 3.076 2.609.979 1.237 1.587 3.364.577 5.299-.941 1.863-2.686 3.26-4.604 4.358-1.936 1.1-4.106 1.97-6.406 2.624-4.596 1.345-9.678 1.94-14.743 1.991a64.658 64.658 0 0 1-7.551-.419 48.558 48.558 0 0 1-7.214-1.369c-2.309-.61-4.494-1.426-6.459-2.456-1.954-1.027-3.733-2.305-4.869-4.01-.565-.842-.928-1.819-.945-2.777.001-.141-.013-.188.001-.402l.049-.31.1-.609c.17-.423.284-.881.51-1.215.833-1.399 1.928-2.271 2.856-2.864.922-.615 1.71-.982 2.249-1.215l.824-.362-.773.458c-.508.287-1.223.768-2.069 1.433-.849.648-1.809 1.6-2.421 2.886-.176.316-.203.652-.33.979l-.044.612-.021.313c.007-.004.021.16.031.232.081.751.399 1.507.925 2.186 1.046 1.37 2.727 2.45 4.593 3.332 1.883.877 4.001 1.547 6.229 2.086 2.229.545 4.588.892 6.991 1.156a63.3 63.3 0 0 0 7.328.34c2.46 0 4.92-.144 7.323-.424 2.398-.297 4.749-.679 6.967-1.262 2.215-.58 4.316-1.297 6.16-2.236 1.824-.942 3.442-2.119 4.303-3.582.193-.362.37-.757.444-1.113.052-.162.078-.377.094-.603l.017-.163c-.006.016-.009-.078-.013-.111l-.021-.284c-.01-.764-.346-1.461-.698-2.078-.776-1.219-1.815-2.062-2.676-2.701-.889-.604-1.611-1.073-2.137-1.337l-.789-.438z"/>
    <path fill="#1A1A1A" d="M123.503 125.383c.014-.004 0 .234.123.637.11.401.402.957.933 1.52.529.564 1.297 1.129 2.253 1.64.961.505 2.103.963 3.373 1.388 5.105 1.674 12.327 2.536 19.498 2.524 1.823.007 3.59-.042 5.367-.155 1.764-.12 3.5-.256 5.168-.477 3.338-.429 6.426-1.057 8.975-1.894 1.271-.425 2.412-.883 3.373-1.388.956-.511 1.724-1.075 2.253-1.639.531-.563.822-1.116.934-1.521.123-.402.108-.639.123-.636-.015-.002.029.229-.044.654-.066.422-.277 1.052-.79 1.691-1.002 1.299-2.988 2.628-5.552 3.646-2.56 1.048-5.691 1.851-9.083 2.393-1.698.264-3.46.492-5.259.615a79.66 79.66 0 0 1-5.452.209c-3.672-.015-7.326-.272-10.723-.825-3.392-.544-6.523-1.346-9.083-2.394-2.563-1.019-4.55-2.345-5.552-3.645-.513-.64-.724-1.268-.791-1.692-.073-.424-.029-.652-.044-.651z"/>
    <path fill="#4D4D4D" d="M135.334 153.039c.012-.004-.008.127.083.328.082.203.283.462.604.712.641.514 1.757.938 3.112 1.32 1.36.386 2.994.655 4.748.875 1.756.22 3.644.336 5.53.33a47.097 47.097 0 0 0 5.538-.247c1.758-.192 3.396-.428 4.762-.789.686-.173 1.3-.373 1.832-.581a5.709 5.709 0 0 0 1.294-.696c.313-.259.511-.516.594-.719l.085-.329-.046.342c-.063.216-.228.519-.538.816a5.898 5.898 0 0 1-1.272.84c-.525.265-1.14.526-1.83.732-.687.226-1.444.414-2.25.592a27.77 27.77 0 0 1-2.556.438c-1.778.226-3.707.34-5.616.35a44.611 44.611 0 0 1-5.613-.436 27.764 27.764 0 0 1-4.785-1.116c-1.366-.457-2.457-1.031-3.083-1.612-.316-.288-.487-.592-.548-.81-.068-.219-.032-.341-.045-.34z"/>
    <path fill="#4D4D4D" d="M135.334 155.65c.012-.004-.008.127.083.328.082.203.283.462.604.712.641.513 1.757.938 3.112 1.32 1.36.386 2.994.655 4.748.876 1.756.219 3.644.336 5.531.33a47.097 47.097 0 0 0 5.538-.247c1.757-.192 3.396-.428 4.762-.79a15.418 15.418 0 0 0 1.831-.581 5.708 5.708 0 0 0 1.294-.697c.313-.259.511-.516.594-.719l.085-.329-.046.342c-.063.216-.228.519-.537.816a5.944 5.944 0 0 1-1.273.841c-.525.265-1.139.526-1.83.732-.686.226-1.443.414-2.249.592-.807.178-1.663.329-2.556.439-1.779.226-3.708.34-5.617.35a44.611 44.611 0 0 1-5.613-.436 27.756 27.756 0 0 1-4.785-1.118c-1.366-.456-2.457-1.03-3.083-1.611-.316-.288-.487-.592-.548-.81-.068-.219-.032-.341-.045-.34z"/>
    <path fill="#4D4D4D" d="M135.334 158.259c.012-.004-.008.127.082.328.082.203.283.462.604.712.641.514 1.756.94 3.111 1.322 1.36.386 2.994.655 4.748.876 1.756.219 3.645.336 5.531.33a47.087 47.087 0 0 0 5.538-.247c1.758-.192 3.396-.428 4.763-.79a15.418 15.418 0 0 0 1.831-.581 5.708 5.708 0 0 0 1.294-.697c.313-.259.511-.516.594-.719l.085-.329-.046.342c-.063.216-.228.519-.537.816a5.907 5.907 0 0 1-1.273.841c-.525.265-1.139.526-1.83.732-.687.226-1.444.414-2.25.592s-1.663.329-2.555.439c-1.779.226-3.708.34-5.617.35a44.597 44.597 0 0 1-5.613-.436 27.85 27.85 0 0 1-4.785-1.118c-1.366-.457-2.457-1.031-3.083-1.613-.316-.287-.486-.592-.548-.81-.067-.219-.031-.341-.044-.34zM135.334 150.428c.012-.004-.008.127.083.328.082.203.283.462.604.712.641.514 1.757.939 3.112 1.321 1.359.387 2.994.656 4.748.877 1.756.219 3.645.336 5.531.33a47.114 47.114 0 0 0 5.539-.247c1.758-.192 3.396-.429 4.762-.791a15.505 15.505 0 0 0 1.832-.58 5.716 5.716 0 0 0 1.293-.698c.313-.259.511-.516.594-.719l.085-.329-.046.342c-.063.215-.228.518-.537.817a5.935 5.935 0 0 1-1.272.841c-.526.264-1.14.526-1.83.732-.687.226-1.444.414-2.25.592s-1.663.329-2.556.439c-1.779.226-3.708.34-5.617.35a44.597 44.597 0 0 1-5.613-.436 27.884 27.884 0 0 1-4.786-1.118c-1.366-.457-2.456-1.031-3.082-1.613-.316-.287-.487-.592-.548-.81-.069-.22-.033-.341-.046-.34z"/>
    <path fill="#4D4D4D" d="M135.334 147.817c.012-.004-.008.127.083.328.082.203.283.462.604.712.641.514 1.757.939 3.112 1.321 1.36.386 2.994.656 4.748.875a43.89 43.89 0 0 0 5.531.33 47.087 47.087 0 0 0 5.538-.247c1.758-.192 3.397-.428 4.763-.79a15.418 15.418 0 0 0 1.831-.581 5.708 5.708 0 0 0 1.294-.697c.313-.259.511-.515.594-.719l.085-.329-.046.342c-.063.216-.228.519-.537.817a5.907 5.907 0 0 1-1.273.84c-.525.264-1.139.527-1.83.732-.686.226-1.443.414-2.249.592-.807.178-1.663.329-2.556.439-1.779.226-3.708.34-5.617.35a44.597 44.597 0 0 1-5.613-.436 27.76 27.76 0 0 1-4.785-1.117c-1.366-.457-2.457-1.031-3.083-1.612-.316-.288-.487-.592-.548-.81-.069-.219-.033-.341-.046-.34z"/>
    <path fill="#4D4D4D" d="M135.334 145.206c.012-.004-.008.127.083.328.082.203.283.462.604.712.641.514 1.757.939 3.112 1.321 1.359.386 2.994.656 4.748.876a44.05 44.05 0 0 0 5.53.33 46.882 46.882 0 0 0 5.538-.247c1.758-.192 3.396-.428 4.762-.79.686-.173 1.3-.373 1.832-.581a5.708 5.708 0 0 0 1.294-.697c.313-.259.511-.515.594-.718l.085-.329-.046.342c-.063.216-.228.519-.538.816a5.898 5.898 0 0 1-1.272.84c-.525.264-1.14.527-1.83.732a23.22 23.22 0 0 1-2.25.592c-.806.177-1.663.329-2.556.439-1.778.226-3.707.34-5.616.349a44.413 44.413 0 0 1-5.613-.435 27.79 27.79 0 0 1-4.786-1.118c-1.366-.457-2.456-1.031-3.082-1.613-.316-.288-.487-.592-.548-.81-.068-.218-.032-.34-.045-.339z"/>
    <path fill="#4D4D4D" d="M135.334 142.597c.012-.004-.008.127.083.328.082.203.283.462.604.712.641.513 1.757.939 3.112 1.32 1.36.386 2.994.655 4.749.875a44.05 44.05 0 0 0 5.53.33 46.873 46.873 0 0 0 5.538-.247c1.758-.192 3.397-.428 4.763-.791a15.236 15.236 0 0 0 1.831-.581 5.708 5.708 0 0 0 1.294-.697c.313-.259.511-.515.594-.719l.085-.329-.046.342c-.063.216-.228.519-.537.817a5.907 5.907 0 0 1-1.273.84c-.525.264-1.139.527-1.83.732-.686.226-1.443.415-2.249.592-.807.177-1.663.329-2.556.438a47.024 47.024 0 0 1-5.617.35 44.413 44.413 0 0 1-5.613-.435 27.795 27.795 0 0 1-4.786-1.117c-1.366-.456-2.457-1.03-3.083-1.612-.316-.288-.487-.592-.548-.81-.068-.218-.032-.339-.045-.338z"/>
    <g>
      <path fill="#1A1A1A" d="M124.521 95.008l.232 1.468.244 1.686.15 1.037c.05.365.037.751.071 1.153l.71 11.782.709 11.783c.081.802.062 1.541.039 2.195l-.04 1.695-.051 1.478-.229-1.468-.243-1.686c-.102-.65-.21-1.385-.226-2.189l-.71-11.782-.709-11.783c-.014-.402-.074-.786-.068-1.153l.025-1.042.041-1.695c.034-.942.055-1.479.055-1.479zM121.91 93.041l.232 1.474.244 1.693.15 1.042c.05.367.037.754.071 1.157a82322.378 82322.378 0 0 1 1.419 23.664c.081.806.062 1.547.039 2.205l-.04 1.702-.051 1.483-.229-1.475-.243-1.693c-.102-.653-.21-1.391-.226-2.198a82322.378 82322.378 0 0 1-1.419-23.664c-.014-.404-.074-.789-.068-1.158l.025-1.047.041-1.702.055-1.483zM134.402 97.844l.198 1.497.206 1.717.126 1.057c.042.372.02.764.045 1.172l.44 11.982.44 11.982c.063.816.026 1.566-.012 2.23l-.078 1.72-.085 1.499-.195-1.497-.205-1.718c-.087-.663-.178-1.411-.176-2.229l-.44-11.982-.44-11.982c-.005-.409-.056-.8-.042-1.172l.049-1.058.079-1.72.09-1.498zM127.339 96.164l.263 1.488.279 1.709.172 1.051c.058.371.053.763.095 1.171l.956 11.966.956 11.966c.098.814.094 1.565.084 2.232l-.004 1.724-.021 1.503-.259-1.488-.278-1.709c-.115-.66-.239-1.404-.271-2.222l-.956-11.966-.956-11.966c-.023-.409-.091-.797-.092-1.171l.003-1.061.005-1.724.024-1.503zM130.98 97.521l.22 1.467.23 1.684.142 1.036c.048.365.031.75.062 1.15l.613 11.762.613 11.761c.074.801.049 1.538.021 2.191l-.053 1.69-.063 1.474-.217-1.467-.229-1.684c-.097-.65-.199-1.383-.208-2.186l-.613-11.762-.613-11.761c-.011-.401-.068-.785-.058-1.15l.033-1.04.054-1.691.066-1.474zM137.662 98.705l.19 1.493.196 1.713.121 1.054c.04.371.016.762.039 1.169l.375 11.948.375 11.948c.058.814.018 1.562-.024 2.224l-.087 1.714-.093 1.494-.187-1.493-.195-1.713c-.083-.662-.17-1.408-.164-2.223l-.375-11.948-.375-11.948c-.003-.407-.052-.797-.035-1.169l.054-1.055.089-1.714.096-1.494zM140.703 99.21l.2 1.481.207 1.7.127 1.045c.042.368.02.756.045 1.16l.451 11.859.451 11.858c.063.809.027 1.55-.01 2.208l-.077 1.703-.083 1.484-.196-1.481-.206-1.7c-.087-.656-.179-1.397-.177-2.206l-.451-11.859-.451-11.858c-.005-.405-.057-.792-.042-1.161l.047-1.047.078-1.703.087-1.483zM144.241 99.538l.167 1.472.169 1.689.104 1.039c.035.366.004.75.021 1.15l.188 11.759.188 11.759c.045.802-.006 1.537-.059 2.187l-.114 1.686-.116 1.468-.164-1.472-.168-1.688c-.073-.652-.148-1.388-.129-2.189l-.188-11.759-.188-11.759c.003-.401-.04-.786-.017-1.15l.071-1.037.115-1.685.12-1.47zM147.204 99.536l.146 1.483.145 1.701.089 1.046c.029.369-.007.754.003 1.158l.018 11.833.018 11.833c.034.808-.029 1.546-.09 2.2l-.139 1.694-.138 1.476-.142-1.483-.144-1.701c-.063-.657-.128-1.398-.097-2.205l-.018-11.833-.018-11.833c.009-.403-.028-.791 0-1.158l.086-1.042.14-1.694.141-1.475zM176.026 94.347l.055 1.483.04 1.702.025 1.047c.006.369-.054.754-.068 1.158l-.711 11.832-.71 11.832c-.017.808-.124 1.545-.227 2.198l-.243 1.693-.229 1.475-.051-1.483-.039-1.702c-.023-.657-.043-1.399.038-2.205l.711-11.832.71-11.832c.034-.403.021-.791.071-1.157a660.714 660.714 0 0 0 .394-2.735c.15-.938.234-1.474.234-1.474zM166.146 97.844l.088 1.499.079 1.72.049 1.059c.015.373-.036.764-.041 1.172l-.441 11.982-.441 11.982c.003.817-.089 1.565-.176 2.229l-.204 1.717-.195 1.497-.085-1.499-.078-1.72c-.038-.665-.074-1.414-.012-2.23l.441-11.982.441-11.982c.024-.409.002-.8.045-1.172l.126-1.057.206-1.717c.125-.954.198-1.498.198-1.498zM172.863 95.651l.055 1.483.04 1.702.025 1.047c.006.369-.054.754-.068 1.158l-.71 11.832-.71 11.832c-.016.808-.124 1.545-.226 2.198l-.243 1.693-.229 1.475-.051-1.483-.04-1.702c-.022-.657-.042-1.399.039-2.205l.71-11.832.71-11.832c.034-.403.021-.791.071-1.157l.149-1.042.244-1.693c.15-.937.234-1.474.234-1.474zM169.562 96.949l.066 1.483.055 1.702.033 1.047c.01.368-.047.754-.058 1.158l-.613 11.836-.613 11.837c-.009.808-.111 1.546-.208 2.201l-.229 1.695-.217 1.476-.063-1.483-.053-1.702c-.029-.657-.055-1.398.02-2.205l.613-11.836.613-11.837c.03-.403.014-.791.062-1.158l.142-1.042.23-1.695c.139-.94.22-1.477.22-1.477zM162.884 98.705l.097 1.494.088 1.715.055 1.055c.017.371-.032.761-.035 1.169l-.375 11.948-.376 11.948c.007.814-.08 1.561-.164 2.223l-.195 1.713-.187 1.493-.093-1.494-.088-1.715c-.041-.662-.082-1.409-.023-2.224l.376-11.948.375-11.948c.023-.407-.002-.797.039-1.169l.12-1.054.196-1.713.19-1.493zM159.843 99.21l.087 1.484.078 1.703.048 1.047c.015.369-.037.756-.042 1.16l-.45 11.859-.45 11.858c.002.809-.09 1.55-.177 2.206l-.206 1.7-.196 1.481-.084-1.484-.076-1.703c-.038-.658-.073-1.399-.011-2.208l.45-11.859.45-11.858c.025-.404.003-.792.045-1.16l.128-1.046.207-1.7.199-1.48zM156.303 99.538l.12 1.468.115 1.686.07 1.037c.023.365-.02.75-.017 1.15l-.188 11.759-.188 11.759c.02.801-.056 1.537-.129 2.189l-.169 1.688-.163 1.472-.116-1.468-.114-1.686c-.053-.65-.104-1.385-.059-2.187l.188-11.759.188-11.759c.017-.401-.014-.785.021-1.15l.104-1.039.169-1.688.168-1.472zM153.343 99.536l.14 1.476.139 1.694.085 1.042c.027.367-.01.755-.001 1.158-.008 3.228-.019 7.53-.028 11.833l-.028 11.833c.03.806-.035 1.547-.099 2.204l-.146 1.701-.144 1.483-.137-1.476-.137-1.694c-.062-.654-.123-1.392-.089-2.199.008-3.228.019-7.53.028-11.833l.028-11.833c.011-.404-.025-.79.005-1.158l.09-1.046.146-1.701.148-1.484zM149.776 99.536l.148 1.487.148 1.706.091 1.049c.03.369-.006.756.006 1.161l.042 11.867.042 11.867c.035.81-.026 1.55-.086 2.206l-.135 1.699-.135 1.48-.145-1.487-.147-1.706c-.065-.659-.131-1.402-.102-2.21l-.042-11.867-.042-11.867c.009-.404-.029-.793-.002-1.161l.084-1.045.136-1.699.139-1.48z"/>
    </g>
    <path fill="#00491F" d="M123.503 81.912c0-5.718 11.718-10.35 26.172-10.35s26.169 4.632 26.169 10.35c0 5.717-11.715 10.35-26.169 10.35s-26.172-4.633-26.172-10.35"/>
    <g>
      <path fill="#E6E6E6" d="M165.492 89.267s-1.069-.384-2.654-.999c-1.597-.592-3.687-1.461-5.789-2.305-1.047-.432-2.132-.782-3.094-1.227a18.821 18.821 0 0 1-2.502-1.478c-1.417-.964-2.239-1.86-2.239-1.86l.087-.18s1.213.087 2.848.599c.822.247 1.757.585 2.712 1.042.946.478 1.896 1.11 2.884 1.662 1.967 1.124 3.947 2.221 5.402 3.104 1.467.86 2.433 1.46 2.433 1.46l-.088.182z"/>
    </g>
  </g>
  <g>
    <path fill="#B3B3B3" d="M241.486 136.341c0 2.878-6.493 5.211-13.698 5.211-7.199 0-13.788-2.333-13.788-5.211v23.224c0 2.878 6.589 5.211 13.788 5.211 7.205 0 13.509-2.333 13.509-5.211l.189-23.224z"/>
    <path fill="#4D4D4D" d="M214.171 153.039l.084.319c.081.2.259.444.56.699.301.252.721.488 1.22.717.509.211 1.094.42 1.746.611.653.188 1.369.363 2.138.504.765.15 1.581.263 2.425.378 1.688.222 3.506.341 5.322.335a42.842 42.842 0 0 0 5.33-.248c1.69-.194 3.267-.433 4.577-.798a14.861 14.861 0 0 0 1.754-.585 5.083 5.083 0 0 0 1.225-.703c.296-.255.478-.511.552-.708l.08-.317-.041.33c-.053.208-.2.509-.492.803-.293.287-.7.58-1.202.847a10.47 10.47 0 0 1-1.752.737c-.658.229-1.388.419-2.162.598-.775.179-1.601.332-2.46.442a42.535 42.535 0 0 1-5.413.352 41.047 41.047 0 0 1-5.408-.44c-.858-.12-1.68-.295-2.451-.489a22.296 22.296 0 0 1-2.15-.637 11.842 11.842 0 0 1-1.74-.763c-.493-.282-.903-.566-1.193-.858-.294-.285-.449-.598-.502-.798l-.047-.328z"/>
    <path fill="#4D4D4D" d="M214.171 155.65l.084.319c.081.2.259.444.561.699.3.251.72.487 1.219.716.51.211 1.095.421 1.747.612a22.19 22.19 0 0 0 2.137.504c.766.151 1.582.264 2.425.379 1.688.222 3.507.341 5.322.335a42.629 42.629 0 0 0 5.33-.249c1.691-.194 3.268-.433 4.577-.798a14.612 14.612 0 0 0 1.754-.586 5.083 5.083 0 0 0 1.225-.703c.296-.255.478-.511.552-.708l.08-.317-.041.33c-.053.208-.2.509-.491.803-.294.288-.701.58-1.203.848-.502.264-1.088.529-1.752.737-.658.229-1.387.419-2.161.598-.775.18-1.601.332-2.46.443a42.559 42.559 0 0 1-5.413.352 41.06 41.06 0 0 1-5.409-.441 22.682 22.682 0 0 1-2.45-.489 22.212 22.212 0 0 1-2.15-.637 11.796 11.796 0 0 1-1.74-.763c-.494-.282-.904-.566-1.194-.858a1.86 1.86 0 0 1-.502-.798l-.047-.328z"/>
    <path fill="#4D4D4D" d="M214.171 158.259l.084.319c.081.2.258.445.56.699.3.252.72.488 1.219.718.51.211 1.095.42 1.746.611.653.188 1.37.364 2.138.505.766.15 1.582.264 2.425.379 1.688.222 3.507.341 5.322.335a42.654 42.654 0 0 0 5.331-.249c1.691-.194 3.268-.433 4.577-.798a14.8 14.8 0 0 0 1.754-.585c.507-.214.921-.457 1.225-.704.296-.255.478-.511.552-.708l.08-.317-.041.33c-.053.208-.2.509-.491.803-.294.288-.701.58-1.203.848-.502.264-1.088.529-1.752.737-.658.229-1.387.419-2.162.598-.774.18-1.6.332-2.46.443a42.535 42.535 0 0 1-5.413.352 41.074 41.074 0 0 1-5.409-.441 22.75 22.75 0 0 1-2.451-.489 22.56 22.56 0 0 1-2.149-.637 11.852 11.852 0 0 1-1.74-.764c-.494-.282-.904-.566-1.194-.858-.293-.286-.448-.599-.501-.799l-.047-.328zM214.171 150.428l.084.319c.081.2.259.444.56.699.301.252.72.488 1.219.717.51.212 1.095.421 1.747.612.652.188 1.369.364 2.138.505.765.15 1.581.264 2.425.379 1.688.222 3.506.341 5.322.335a42.638 42.638 0 0 0 5.33-.249c1.691-.194 3.268-.433 4.578-.798a14.772 14.772 0 0 0 1.753-.586c.508-.213.922-.456 1.226-.704.295-.255.477-.511.551-.708l.08-.318-.041.33c-.053.208-.2.509-.491.803-.293.288-.7.581-1.202.848-.502.265-1.089.53-1.752.738-.658.229-1.388.419-2.162.598-.775.18-1.601.332-2.46.443a42.563 42.563 0 0 1-5.414.352 41.045 41.045 0 0 1-5.408-.441 22.458 22.458 0 0 1-2.451-.49 22.504 22.504 0 0 1-2.15-.636 11.948 11.948 0 0 1-1.74-.764c-.493-.283-.904-.567-1.194-.859-.293-.285-.448-.598-.501-.798l-.047-.327z"/>
    <path fill="#4D4D4D" d="M214.171 147.817l.084.319c.081.2.259.445.56.699.301.251.721.488 1.22.717.509.211 1.094.42 1.746.611.653.188 1.369.364 2.138.504.765.151 1.581.263 2.425.378 1.688.222 3.507.341 5.322.335a42.638 42.638 0 0 0 5.33-.249c1.691-.194 3.268-.433 4.577-.798a14.8 14.8 0 0 0 1.754-.585 5.082 5.082 0 0 0 1.225-.704c.296-.255.478-.51.552-.708l.08-.318-.041.33c-.053.208-.2.509-.491.803-.294.288-.701.58-1.203.848-.502.264-1.088.529-1.752.738-.658.229-1.387.418-2.161.597-.775.18-1.601.332-2.46.443a42.559 42.559 0 0 1-5.413.352 41.046 41.046 0 0 1-5.409-.441 22.75 22.75 0 0 1-2.451-.489 22.59 22.59 0 0 1-2.15-.636 12.059 12.059 0 0 1-1.74-.763c-.493-.283-.903-.567-1.193-.858-.294-.286-.449-.598-.502-.799l-.047-.326z"/>
    <path fill="#4D4D4D" d="M214.171 145.206l.084.319c.081.2.259.445.56.699.301.251.72.488 1.219.717.51.211 1.095.42 1.747.612.652.188 1.369.364 2.137.504.766.151 1.582.264 2.425.378 1.688.222 3.507.341 5.322.335a42.467 42.467 0 0 0 5.331-.248c1.69-.194 3.267-.433 4.577-.798a14.861 14.861 0 0 0 1.754-.585 5.083 5.083 0 0 0 1.225-.703c.296-.255.478-.511.552-.708l.08-.318-.041.33c-.053.208-.2.509-.492.803-.293.288-.7.58-1.202.847-.502.264-1.089.529-1.752.738-.658.228-1.387.418-2.162.597a25.46 25.46 0 0 1-2.46.443 42.719 42.719 0 0 1-5.413.352 40.904 40.904 0 0 1-5.409-.441 22.682 22.682 0 0 1-2.45-.489 22.497 22.497 0 0 1-2.15-.637 11.842 11.842 0 0 1-1.74-.763c-.493-.283-.903-.567-1.194-.859-.293-.286-.448-.598-.501-.799l-.047-.326z"/>
    <path fill="#4D4D4D" d="M214.171 142.597l.084.319c.081.2.259.445.56.699.301.251.721.488 1.22.717.51.211 1.094.42 1.746.611.653.188 1.37.364 2.138.504.765.151 1.581.263 2.425.378 1.688.222 3.507.341 5.322.334a42.442 42.442 0 0 0 5.33-.248c1.691-.194 3.268-.433 4.577-.798a14.8 14.8 0 0 0 1.754-.585 5.082 5.082 0 0 0 1.225-.704c.296-.255.478-.51.552-.708l.08-.318-.041.33c-.053.208-.2.509-.491.803-.294.288-.701.58-1.203.848-.502.264-1.088.529-1.752.738-.658.229-1.387.418-2.161.598a25.46 25.46 0 0 1-2.46.443 42.743 42.743 0 0 1-5.413.352 40.89 40.89 0 0 1-5.409-.441 22.75 22.75 0 0 1-2.451-.489 22.303 22.303 0 0 1-2.15-.636 11.842 11.842 0 0 1-1.74-.763c-.493-.283-.903-.567-1.193-.858-.294-.286-.449-.598-.502-.799l-.047-.327z"/>
    <path fill="#4D4D4D" d="M205.562 136.313l-4.389-9.624-2.607-36.241c0 5.134 12.89 9.299 28.791 9.299s28.793-4.165 28.793-9.299l-2.606 36.241-4.388 9.624c0 4.763-9.76 8.623-21.799 8.623s-21.795-3.861-21.795-8.623z"/>
    <path fill="#4D4D4D" d="M253.543 81.918l2.606 8.529c0 5.134-12.892 9.297-28.793 9.297s-28.791-4.163-28.791-9.297l2.607-8.529"/>
    <path fill="#1A1A1A" d="M203.495 95.763l.232 1.479.244 1.698.15 1.045c.05.368.036.757.07 1.161l.711 11.871.71 11.871c.081.809.062 1.553.039 2.212l-.04 1.708-.051 1.488-.229-1.479-.243-1.698c-.102-.656-.21-1.396-.226-2.206l-.711-11.871-.71-11.871c-.015-.405-.074-.792-.068-1.162l.025-1.05.04-1.708c.038-.947.057-1.488.057-1.488zM200.884 94.347l.232 1.474.244 1.693.149 1.042c.051.367.037.754.071 1.157a82322.378 82322.378 0 0 1 1.42 23.664c.081.806.062 1.547.039 2.205l-.04 1.702-.051 1.483-.229-1.475-.243-1.693c-.102-.653-.21-1.391-.226-2.198a82322.378 82322.378 0 0 1-1.42-23.664c-.015-.404-.074-.789-.068-1.158l.025-1.047.04-1.702.057-1.483zM213.362 98.395l.199 1.473.206 1.69.127 1.04c.042.366.02.752.045 1.154l.445 11.792.445 11.793c.063.804.026 1.541-.011 2.195l-.078 1.693-.084 1.476-.195-1.473c-.058-.469-.126-1.038-.205-1.69-.088-.653-.179-1.389-.177-2.193l-.445-11.792-.445-11.793c-.005-.402-.057-.787-.042-1.153l.049-1.042.078-1.693.088-1.477zM206.321 96.658l.263 1.479.279 1.699.172 1.045c.058.368.052.758.095 1.164l.955 11.893.955 11.893c.098.809.094 1.556.084 2.218l-.004 1.713-.021 1.494-.259-1.479-.278-1.699c-.115-.655-.239-1.396-.271-2.208l-.955-11.893-.955-11.893c-.022-.406-.091-.792-.092-1.164a3249.92 3249.92 0 0 1 .009-2.767l.023-1.495zM209.953 97.521l.22 1.467.23 1.684.142 1.036c.048.365.031.75.063 1.15l.613 11.761.613 11.762c.074.801.049 1.538.021 2.19l-.053 1.691-.063 1.474-.217-1.467-.229-1.684c-.096-.65-.198-1.383-.208-2.186l-.613-11.761-.613-11.762c-.011-.401-.068-.784-.059-1.15l.033-1.04.055-1.691.065-1.474zM216.637 98.705l.19 1.493.196 1.714.121 1.054c.04.371.016.762.038 1.169l.376 11.948.375 11.948c.059.814.018 1.562-.023 2.224l-.088 1.715-.093 1.494-.187-1.493-.195-1.714c-.084-.662-.171-1.408-.164-2.223l-.375-11.948-.376-11.948c-.003-.408-.052-.798-.035-1.169l.055-1.055.088-1.715.097-1.494zM219.678 99.21l.199 1.481.207 1.7.128 1.045c.042.368.02.756.045 1.16l.45 11.859.45 11.859c.063.808.027 1.55-.011 2.208l-.076 1.703-.084 1.484-.196-1.481-.206-1.7c-.087-.656-.179-1.397-.177-2.206l-.45-11.859-.45-11.859c-.005-.404-.057-.792-.042-1.16l.048-1.047.078-1.703.087-1.484zM223.217 99.538l.167 1.472.169 1.688.104 1.039c.034.366.004.75.021 1.15l.188 11.759c.069 4.276.138 8.552.188 11.759.046.802-.006 1.537-.059 2.187l-.114 1.686-.116 1.468-.163-1.472-.169-1.688c-.073-.652-.148-1.388-.129-2.189l-.188-11.759c-.069-4.276-.138-8.552-.188-11.759.003-.401-.04-.786-.017-1.15l.07-1.037.115-1.686.121-1.468zM226.177 99.536l.146 1.483.146 1.701.089 1.046c.029.369-.007.754.003 1.158l.019 11.833.019 11.833c.034.808-.028 1.546-.09 2.2l-.139 1.694-.138 1.476-.143-1.483-.144-1.701c-.063-.657-.128-1.398-.097-2.205l-.019-11.833-.019-11.833c.009-.403-.028-.791 0-1.158l.086-1.042.14-1.694.141-1.475zM255 93.041l.055 1.483.04 1.702.025 1.047c.006.369-.054.754-.068 1.158l-.71 11.832-.711 11.832c-.016.808-.124 1.545-.226 2.198l-.243 1.693-.229 1.475-.051-1.483-.04-1.702c-.022-.657-.042-1.399.039-2.205l.71-11.832.711-11.832c.034-.403.021-.791.07-1.157.054-.367.104-.714.15-1.042l.244-1.693c.15-.938.234-1.474.234-1.474zM245.119 97.844l.089 1.475a3118.29 3118.29 0 0 0 .129 2.735c.015.367-.036.751-.041 1.154-.119 3.216-.277 7.503-.437 11.792-.158 4.288-.316 8.576-.436 11.792.003.804-.088 1.541-.175 2.193l-.204 1.69-.194 1.473-.085-1.475-.079-1.693c-.038-.654-.075-1.392-.013-2.195.119-3.216.277-7.503.437-11.792.158-4.288.316-8.576.436-11.792.024-.402.002-.788.044-1.154l.127-1.04.204-1.69.198-1.473zM251.838 95.651l.055 1.483.04 1.702.025 1.047c.006.369-.054.754-.068 1.158l-.71 11.832-.71 11.832c-.016.808-.124 1.545-.226 2.198l-.243 1.693-.229 1.475-.051-1.483-.04-1.702c-.022-.657-.042-1.399.039-2.205l.71-11.832.71-11.832c.034-.403.021-.791.071-1.157l.149-1.042.244-1.693c.15-.937.234-1.474.234-1.474zM248.536 96.949l.066 1.483.055 1.702.033 1.047c.01.368-.047.754-.058 1.158l-.613 11.837-.612 11.837c-.009.808-.111 1.546-.208 2.201l-.229 1.695-.217 1.476-.063-1.483c-.015-.472-.032-1.044-.054-1.702-.028-.657-.054-1.398.021-2.205l.613-11.837.612-11.837c.031-.403.014-.791.062-1.158l.142-1.042.23-1.695.22-1.477zM241.858 98.705l.097 1.471.09 1.688.055 1.038c.017.366-.032.75-.035 1.15-.101 3.207-.235 7.483-.371 11.76l-.37 11.76c.007.802-.08 1.537-.163 2.188l-.194 1.687-.187 1.469-.094-1.471-.088-1.688c-.042-.652-.083-1.387-.024-2.188l.37-11.76c.136-4.276.271-8.553.371-11.76.023-.401-.002-.785.038-1.15l.12-1.038.196-1.687.189-1.469zM238.817 99.21l.087 1.484.078 1.703.048 1.047c.015.369-.037.756-.042 1.16l-.45 11.859-.45 11.858c.002.809-.09 1.55-.177 2.206l-.206 1.7-.196 1.481-.084-1.484-.076-1.703c-.038-.658-.073-1.399-.011-2.208l.45-11.859.45-11.858c.025-.404.003-.792.045-1.16l.128-1.046.207-1.7.199-1.48zM235.277 99.538l.12 1.468.115 1.686.07 1.037c.023.365-.02.75-.017 1.15l-.188 11.759-.188 11.759c.02.801-.056 1.537-.129 2.189l-.169 1.688-.163 1.472-.116-1.468-.114-1.686c-.053-.65-.104-1.385-.059-2.187l.188-11.759.188-11.759c.017-.401-.014-.785.021-1.15l.104-1.039.169-1.688c.108-.937.168-1.472.168-1.472zM232.318 99.536l.14 1.476.139 1.694.085 1.042c.027.367-.011.755-.001 1.158l-.029 11.833-.028 11.833c.03.806-.035 1.547-.099 2.204l-.146 1.701-.144 1.483-.137-1.476-.137-1.694c-.061-.654-.123-1.392-.089-2.199l.029-11.833.028-11.833c.011-.404-.025-.79.004-1.158l.091-1.046.146-1.701.148-1.484zM228.751 99.536l.147 1.507.146 1.729.091 1.064c.029.375-.006.767.005 1.177l.032 12.031.033 12.03c.034.821-.027 1.572-.088 2.236l-.137 1.723-.136 1.5-.144-1.507-.146-1.729c-.064-.668-.13-1.421-.1-2.241l-.032-12.031-.033-12.03c.009-.41-.028-.804-.001-1.177l.084-1.06.138-1.722.141-1.5z"/>
    <g>
      <path fill="#1A1A1A" d="M201.173 125.383c.015-.004 0 .234.123.637.11.401.401.957.933 1.52.529.564 1.297 1.129 2.253 1.64.961.505 2.103.963 3.373 1.388 5.104 1.674 12.326 2.536 19.497 2.524a79.188 79.188 0 0 0 5.366-.155c1.765-.12 3.5-.256 5.169-.477 3.337-.429 6.425-1.057 8.974-1.895 1.271-.425 2.412-.883 3.373-1.387.956-.511 1.724-1.075 2.253-1.639.531-.563.822-1.116.934-1.521.123-.402.108-.639.123-.636-.015-.002.029.229-.044.654-.066.422-.277 1.052-.79 1.691-1.002 1.299-2.988 2.627-5.552 3.646-2.56 1.048-5.691 1.851-9.083 2.393-1.697.264-3.46.492-5.258.615a79.66 79.66 0 0 1-5.452.209c-3.673-.015-7.327-.272-10.723-.825-3.392-.544-6.523-1.346-9.083-2.394-2.563-1.019-4.55-2.345-5.552-3.645-.512-.64-.723-1.268-.79-1.692-.073-.424-.029-.652-.044-.651z"/>
    </g>
    <g>
      <path fill="#1A1A1A" d="M205.173 134.383c.013-.004.001.2.112.541.099.339.356.804.813 1.272.907.963 2.646 1.813 4.81 2.498 2.17.687 4.795 1.2 7.63 1.55a72.79 72.79 0 0 0 8.937.513 69.24 69.24 0 0 0 4.558-.125c1.498-.101 2.973-.208 4.39-.39 2.835-.352 5.46-.864 7.63-1.551 2.163-.685 3.902-1.533 4.81-2.497.457-.469.714-.931.813-1.273.11-.34.1-.541.112-.539-.013-.001.028.195-.032.558-.056.36-.234.9-.673 1.446-.858 1.108-2.552 2.244-4.736 3.115-2.182.897-4.85 1.583-7.738 2.048-1.446.225-2.946.424-4.479.527a68.936 68.936 0 0 1-4.643.18c-3.129-.015-6.24-.233-9.133-.708-2.889-.466-5.557-1.152-7.737-2.048-2.185-.872-3.878-2.006-4.736-3.114-.439-.546-.618-1.084-.674-1.447-.062-.363-.021-.556-.034-.556z"/>
    </g>
    <g>
      <path fill="#1A1A1A" d="M256.149 90.447c-.017 0 .031.251-.052.716-.076.466-.313 1.153-.877 1.853-1.105 1.42-3.292 2.865-6.109 3.975-2.813 1.142-6.254 2.015-9.98 2.607-3.729.601-7.753.882-11.773.897a87.654 87.654 0 0 1-5.997-.227c-1.976-.135-3.912-.382-5.776-.669-3.727-.591-7.168-1.465-9.981-2.606-2.818-1.11-5.004-2.556-6.108-3.977-.564-.699-.802-1.388-.877-1.851-.083-.466-.035-.72-.052-.718.016-.003-.002.256.132.7.12.445.436 1.058 1.019 1.68.581.625 1.425 1.249 2.475 1.816 1.057.56 2.311 1.07 3.709 1.542 2.803.931 6.2 1.63 9.872 2.107 1.836.245 3.746.399 5.688.531 1.95.125 3.907.18 5.898.173 7.904.012 15.842-.949 21.459-2.81 1.397-.472 2.652-.981 3.708-1.542 1.051-.567 1.894-1.192 2.475-1.817.583-.622.899-1.237 1.019-1.679.13-.443.113-.705.128-.701z"/>
    </g>
    <g>
      <path fill="#B3B3B3" d="M246.713 74.943l.834.336c.547.207 1.337.559 2.301 1.111.938.579 2.089 1.334 3.076 2.609.98 1.237 1.587 3.365.577 5.299-.942 1.863-2.687 3.26-4.604 4.357-1.937 1.099-4.106 1.97-6.406 2.624-4.596 1.345-9.678 1.94-14.743 1.991a64.67 64.67 0 0 1-7.551-.419 48.687 48.687 0 0 1-7.214-1.369c-2.31-.611-4.494-1.427-6.459-2.457-1.954-1.027-3.733-2.305-4.869-4.01-.564-.842-.928-1.819-.944-2.777.001-.141-.014-.188.001-.402l.049-.311.1-.609c.17-.423.284-.881.51-1.215.833-1.399 1.928-2.271 2.856-2.864.922-.615 1.71-.982 2.249-1.215l.823-.362-.773.458c-.508.287-1.224.768-2.069 1.433-.849.648-1.809 1.6-2.421 2.886-.176.316-.203.652-.329.978l-.044.612-.021.313c.007-.003.021.16.031.232.081.751.398 1.507.926 2.186 1.045 1.37 2.726 2.45 4.592 3.332 1.883.877 4.001 1.547 6.229 2.086 2.229.545 4.588.892 6.991 1.156 2.417.258 4.848.363 7.327.34a63.41 63.41 0 0 0 7.322-.424c2.398-.297 4.75-.679 6.968-1.262 2.215-.58 4.315-1.296 6.16-2.236 1.823-.942 3.442-2.119 4.302-3.582.194-.362.371-.757.445-1.113.051-.162.078-.377.094-.603l.016-.163c-.005.016-.008-.078-.012-.111l-.021-.284c-.01-.763-.346-1.461-.698-2.077-.776-1.219-1.815-2.063-2.676-2.702-.888-.604-1.61-1.073-2.136-1.338l-.789-.434z"/>
    </g>
    <path fill="#004266" d="M201.173 81.912c0-5.718 11.716-10.35 26.169-10.35 14.455 0 26.17 4.632 26.17 10.35 0 5.717-11.715 10.35-26.17 10.35-14.453 0-26.169-4.633-26.169-10.35"/>
    <g>
      <path fill="#E6E6E6" d="M204.154 77.022l3.616.49c2.172.286 5.05.755 7.934 1.195 1.439.231 2.896.374 4.237.633 1.336.282 2.563.641 3.604.996 2.088.69 3.423 1.426 3.423 1.426l-.041.196s-1.517.143-3.707-.055a31.528 31.528 0 0 1-3.703-.522c-1.333-.296-2.727-.745-4.14-1.107-2.819-.745-5.646-1.461-7.752-2.063l-3.513-.991.042-.198z"/>
    </g>
  </g>
</svg>
