<svg xmlns="http://www.w3.org/2000/svg" xmlns:xlink="http://www.w3.org/1999/xlink" width="300" height="300" viewBox="0 0 300 300">
  <path opacity=".7" fill="#005B93" d="M5 162h36v12H5z"/>
  <path opacity=".5" fill="#0081D1" d="M78.78 128L41 161.915V162H5.154l38.165-34z"/>
  <path opacity=".5" fill="#0081D1" d="M78.924 127.728l.195 10.7L41 173.649v-11.734zM258.005 85l-38.192 32H42.028l35.526-32z"/>
  <path opacity=".8" fill="#004466" d="M257 84.414v148.814l-37.884 33.46-.776-149.347z"/>
  <path opacity=".7" fill="#005B93" d="M220 264.684c0 .727-.59 1.316-1.316 1.316H42.316c-.727 0-1.316-.59-1.316-1.316V118.316c0-.727.589-1.316 1.316-1.316h176.367c.727 0 1.316.589 1.316 1.316v146.368z"/>
  <path opacity=".8" fill="#005B93" d="M219 162h36v12h-36z"/>
  <path fill="#7FC0E8" d="M293.439 127.728l-38.067 34.187v.053h-35.559l38.166-34.24z"/>
  <path opacity=".95" fill="#005272" d="M293.255 127.728l.028 10.7L255 173.649v-11.734z"/>
  <path fill="#333333" d="M212 240.684c0 .727-.59 1.316-1.317 1.316H51.317c-.727 0-1.317-.59-1.317-1.316V139.316c0-.727.59-1.316 1.317-1.316h159.365c.728 0 1.317.589 1.317 1.316v101.368z"/>
  <path fill="none" stroke="#FBB03B" stroke-miterlimit="10" d="M203.5 234.332c0 .643.203 2.168-.448 2.168H60.328c-.651 0-1.828-1.525-1.828-2.168v-89.638c0-.643 1.176-1.194 1.828-1.194h142.724c.651 0 .448.552.448 1.194v89.638z"/>
  <path opacity=".5" fill="#005B93" d="M229 85.586v14.487c0 4.859-20.54 8.81-46.288 8.81-19.188 0-35.667-2.187-42.817-5.333 0 .013.004.013-.009 0-1.449.197-3.34.303-5.012.303-6.65 0-11.874-1.686-11.874-3.779V85.586c0 2.094 5.225 3.78 11.875 3.78 1.671 0 3.396-.106 4.846-.304.013.014.096.014.096 0 7.15 3.147 23.665 5.333 42.854 5.333 25.746.001 46.329-3.95 46.329-8.809z"/>
  <path opacity=".9" fill="#0081D1" d="M229.032 85.586c0 4.859-20.557 8.81-46.303 8.81-19.188 0-35.676-2.187-42.827-5.333 0 .014 0 .014-.013 0-1.45.198-3.004.304-4.675.304-6.651 0-11.537-1.687-11.537-3.78s4.886-3.834 11.537-3.834c1.671 0 3.226.248 4.675.248h.013c7.15-3 23.638-5.279 42.827-5.279 25.747-.001 46.303 4.005 46.303 8.864z"/>
  <defs>
    <path id="a" d="M271.605 52.422l-.005 1.679c.001-.486-.255-.978-.79-1.411-1.441-1.167-4.339-1.481-6.482-.701-1.329.484-2.05 1.279-2.052 2.093l.004-1.678c.002-.814.723-1.61 2.052-2.094 2.144-.78 5.041-.467 6.483.701.536.433.791.925.79 1.411z"/>
  </defs>
  <clipPath id="b">
    <use xlink:href="#a" overflow="visible"/>
  </clipPath>
  <g clip-path="url(#b)">
    <path fill="#787878" d="M271.605 52.422l-.005 1.679c.001-.486-.255-.978-.79-1.411a4.278 4.278 0 0 0-1.093-.625l.004-1.679c.416.168.787.378 1.094.625.536.433.791.925.79 1.411"/>
    <path fill="#7C7C7C" d="M269.722 50.386l-.004 1.679a6.277 6.277 0 0 0-.527-.185l.005-1.679c.181.054.357.116.526.185"/>
    <path fill="#818181" d="M269.195 50.201l-.005 1.679a7.686 7.686 0 0 0-.453-.12l.005-1.679c.154.035.306.075.453.12"/>
    <path fill="#858585" d="M268.742 50.081l-.005 1.679a7.23 7.23 0 0 0-.429-.085l.005-1.679c.145.025.289.053.429.085"/>
    <path fill="#8A8A8A" d="M268.313 49.996l-.005 1.679a7.97 7.97 0 0 0-.419-.059l.005-1.679c.141.016.281.036.419.059"/>
    <path fill="#8F8F8F" d="M267.895 49.937l-.005 1.679a8.109 8.109 0 0 0-.418-.038l.004-1.679c.14.009.28.022.419.038"/>
    <path fill="#939393" d="M267.476 49.899l-.004 1.679a8.777 8.777 0 0 0-.43-.017l.004-1.679c.144.002.287.008.43.017"/>
    <path fill="#989898" d="M267.046 49.882l-.004 1.679c-.15-.002-.302 0-.452.005l.004-1.679c.15-.005.302-.007.452-.005"/>
    <path fill="#9C9C9C" d="M266.594 49.888l-.004 1.679c-.165.006-.33.018-.494.034l.005-1.679c.164-.017.328-.028.493-.034"/>
    <path fill="#A1A1A1" d="M266.101 49.921l-.005 1.679a7.795 7.795 0 0 0-.592.08l.004-1.679a8.21 8.21 0 0 1 .593-.08"/>
    <path fill="#A6A6A6" d="M265.508 50.001l-.004 1.679c-.348.06-.686.144-1.009.251l.004-1.679c.323-.107.662-.19 1.009-.251"/>
    <path fill="#AAAAAA" d="M264.499 50.252l-.004 1.679a5.89 5.89 0 0 0-.596.234l.004-1.679c.136-.063.278-.122.429-.176l.167-.058"/>
    <path fill="#A6A6A6" d="M263.903 50.487l-.004 1.679c-.283.131-.53.278-.742.436l.005-1.679a4.16 4.16 0 0 1 .741-.436"/>
    <path fill="#A1A1A1" d="M263.162 50.923l-.005 1.679a3.01 3.01 0 0 0-.323.28l.004-1.679c.096-.097.204-.19.324-.28"/>
    <path fill="#9C9C9C" d="M262.838 51.203l-.004 1.679c-.078.08-.149.161-.211.244l.004-1.679c.062-.083.133-.164.211-.244"/>
    <path fill="#989898" d="M262.627 51.447l-.004 1.679a1.861 1.861 0 0 0-.15.232l.004-1.678a1.8 1.8 0 0 1 .15-.233"/>
    <path fill="#939393" d="M262.477 51.679l-.004 1.678a1.545 1.545 0 0 0-.104.228l.004-1.679c.027-.076.063-.152.104-.227"/>
    <path fill="#8F8F8F" d="M262.372 51.906l-.004 1.679c-.028.075-.05.151-.064.228l.004-1.679c.015-.076.037-.153.064-.228"/>
    <path fill="#8A8A8A" d="M262.308 52.134l-.004 1.679a1.33 1.33 0 0 0-.026.234l.004-1.678c.001-.078.01-.157.026-.235"/>
    <path fill="#858585" d="M262.281 52.369l-.004 1.678-.001.035.004-1.678.001-.035"/>
  </g>
  <defs>
    <path id="c" d="M260.062 56.626l-.005 1.679c.002-.487-.254-.979-.79-1.413-1.442-1.167-4.34-1.48-6.469-.706-1.34.487-2.063 1.286-2.065 2.101l.005-1.679c.002-.815.726-1.613 2.065-2.101 2.128-.775 5.026-.461 6.468.706.536.434.792.926.791 1.413z"/>
  </defs>
  <clipPath id="d">
    <use xlink:href="#c" overflow="visible"/>
  </clipPath>
  <g clip-path="url(#d)">
    <path fill="#787878" d="M260.062 56.626l-.005 1.678c.002-.486-.254-.979-.79-1.413a4.34 4.34 0 0 0-1.095-.626l.004-1.679c.417.169.789.378 1.095.626.536.435.792.927.791 1.414"/>
    <path fill="#7C7C7C" d="M258.176 54.587l-.004 1.679a6.3 6.3 0 0 0-.528-.185l.005-1.679c.181.055.358.117.527.185"/>
    <path fill="#818181" d="M257.648 54.402l-.005 1.679a7.686 7.686 0 0 0-.453-.12l.004-1.679c.155.035.307.075.454.12"/>
    <path fill="#858585" d="M257.194 54.282l-.004 1.679a7.264 7.264 0 0 0-.43-.085l.004-1.679c.146.025.29.053.43.085"/>
    <path fill="#8A8A8A" d="M256.765 54.197l-.004 1.679a8.121 8.121 0 0 0-.419-.059l.004-1.679c.14.016.281.036.419.059"/>
    <path fill="#8F8F8F" d="M256.346 54.138l-.004 1.679a8.25 8.25 0 0 0-.419-.038l.004-1.679c.14.009.28.022.419.038"/>
    <path fill="#939393" d="M255.927 54.1l-.004 1.679a8.777 8.777 0 0 0-.43-.017l.005-1.679c.144.002.286.008.429.017"/>
    <path fill="#989898" d="M255.498 54.083l-.005 1.679c-.15-.002-.301 0-.451.005l.004-1.679c.15-.005.302-.007.452-.005"/>
    <path fill="#9C9C9C" d="M255.046 54.088l-.004 1.679a8.925 8.925 0 0 0-.491.033l.004-1.678c.163-.016.327-.027.491-.034"/>
    <path fill="#A1A1A1" d="M254.555 54.122l-.004 1.678c-.198.02-.396.046-.59.08l.005-1.678c.194-.035.39-.061.589-.08"/>
    <path fill="#A6A6A6" d="M253.966 54.202l-.005 1.678a7 7 0 0 0-.998.249l.004-1.678c.32-.107.655-.19.999-.249"/>
    <path fill="#AAAAAA" d="M252.967 54.45l-.004 1.678-.165.058a5.602 5.602 0 0 0-.434.178l.004-1.679a5.32 5.32 0 0 1 .599-.235"/>
    <path fill="#A6A6A6" d="M252.368 54.686l-.004 1.679c-.285.132-.535.28-.748.44l.004-1.679c.213-.16.463-.308.748-.44"/>
    <path fill="#A1A1A1" d="M251.62 55.125l-.004 1.679c-.12.09-.229.185-.325.282l.004-1.679a3.15 3.15 0 0 1 .325-.282"/>
    <path fill="#9C9C9C" d="M251.295 55.407l-.004 1.679a2.371 2.371 0 0 0-.212.244l.004-1.679c.063-.083.133-.164.212-.244"/>
    <path fill="#989898" d="M251.083 55.651l-.004 1.679a1.994 1.994 0 0 0-.151.232l.005-1.679c.043-.078.092-.155.15-.232"/>
    <path fill="#939393" d="M250.933 55.884l-.005 1.679c-.041.075-.075.15-.104.227l.004-1.678c.028-.077.064-.153.105-.228"/>
    <path fill="#8F8F8F" d="M250.828 56.111l-.004 1.678c-.028.076-.05.151-.064.228l.004-1.679c.015-.076.037-.151.064-.227"/>
    <path fill="#8A8A8A" d="M250.764 56.339l-.004 1.679a1.33 1.33 0 0 0-.026.234l.004-1.678c.001-.079.01-.157.026-.235"/>
    <path fill="#858585" d="M250.737 56.573l-.004 1.678-.001.035.005-1.679v-.034"/>
  </g>
  <defs>
    <path id="e" d="M275.581 53.85l-.004 1.679c-.005 1.72-1.43 3.359-4.119 4.338l.004-1.679c2.689-.979 4.115-2.619 4.119-4.338z"/>
  </defs>
  <clipPath id="f">
    <use xlink:href="#e" overflow="visible"/>
  </clipPath>
  <g clip-path="url(#f)">
    <path fill="#858585" d="M275.581 53.85l-.004 1.679-.002.08.005-1.679.001-.08"/>
    <path fill="#8A8A8A" d="M275.58 53.93l-.005 1.679a3.045 3.045 0 0 1-.059.521l.005-1.679c.035-.173.054-.347.059-.521"/>
    <path fill="#8F8F8F" d="M275.521 54.451l-.005 1.679c-.033.167-.08.333-.141.498l.005-1.679c.061-.165.108-.331.141-.498"/>
    <path fill="#939393" d="M275.381 54.948l-.005 1.679a3.691 3.691 0 0 1-.222.485l.004-1.678c.088-.16.162-.322.223-.486"/>
    <path fill="#989898" d="M275.158 55.434l-.004 1.678a4.059 4.059 0 0 1-.313.484l.005-1.679c.118-.157.222-.319.312-.483"/>
    <path fill="#9C9C9C" d="M274.846 55.917l-.005 1.679a4.73 4.73 0 0 1-.438.506l.004-1.679c.162-.163.309-.332.439-.506"/>
    <path fill="#A1A1A1" d="M274.406 56.424l-.004 1.679a5.912 5.912 0 0 1-.642.556l.004-1.678a6.03 6.03 0 0 0 .642-.557"/>
    <path fill="#A6A6A6" d="M273.765 56.98l-.004 1.678c-.42.316-.911.607-1.47.866l.004-1.678a8.118 8.118 0 0 0 1.47-.866"/>
    <path fill="#AAAAAA" d="M272.295 57.846l-.004 1.678c-.263.122-.54.236-.833.342l.004-1.679c.293-.106.57-.22.833-.341"/>
  </g>
  <defs>
    <path id="g" d="M164.3 60.332l-.004 1.679c.001-.531-.28-1.069-.868-1.546-1.563-1.265-4.718-1.603-7.055-.752l.004-1.679c2.337-.851 5.492-.513 7.055.752.589.477.869 1.015.868 1.546z"/>
  </defs>
  <clipPath id="h">
    <use xlink:href="#g" overflow="visible"/>
  </clipPath>
  <g clip-path="url(#h)">
    <path fill="#787878" d="M164.3 60.332l-.004 1.679c.001-.531-.28-1.069-.868-1.546a4.639 4.639 0 0 0-1.18-.675l.004-1.679c.449.182.85.408 1.18.675.589.477.869 1.015.868 1.546"/>
    <path fill="#7C7C7C" d="M162.252 58.111l-.004 1.679a6.57 6.57 0 0 0-.569-.2l.004-1.679c.196.06.386.127.569.2"/>
    <path fill="#818181" d="M161.683 57.912l-.004 1.679a8.035 8.035 0 0 0-.492-.13l.004-1.678c.167.037.331.081.492.129"/>
    <path fill="#858585" d="M161.19 57.782l-.004 1.678a8.348 8.348 0 0 0-.466-.092l.005-1.678c.158.026.313.057.465.092"/>
    <path fill="#8A8A8A" d="M160.726 57.69l-.005 1.678a8.301 8.301 0 0 0-.455-.064l.004-1.679c.154.018.305.04.456.065"/>
    <path fill="#8F8F8F" d="M160.27 57.625l-.004 1.679a9.651 9.651 0 0 0-.456-.041l.005-1.678c.152.009.304.023.455.04"/>
    <path fill="#939393" d="M159.814 57.584l-.005 1.678a9.104 9.104 0 0 0-.468-.018l.004-1.679c.158.003.314.009.469.019"/>
    <path fill="#989898" d="M159.346 57.566l-.004 1.679c-.165-.002-.33 0-.494.006l.004-1.679c.165-.007.33-.009.494-.006"/>
    <path fill="#9C9C9C" d="M158.852 57.572l-.004 1.679c-.181.007-.36.019-.54.037l.005-1.679c.178-.018.358-.03.539-.037"/>
    <path fill="#A1A1A1" d="M158.313 57.608l-.005 1.679a8.6 8.6 0 0 0-.647.087l.004-1.679c.213-.036.43-.065.648-.087"/>
    <path fill="#A6A6A6" d="M157.664 57.696l-.004 1.679a7.751 7.751 0 0 0-1.102.274l.004-1.679a7.751 7.751 0 0 1 1.102-.274"/>
    <path fill="#AAAAAA" d="M156.563 57.97l-.004 1.679-.186.064.004-1.679a8.08 8.08 0 0 1 .186-.064"/>
  </g>
  <defs>
    <path id="i" d="M154.118 62.01l.004-1.679c.003-.891.797-1.766 2.255-2.297l-.004 1.679c-1.458.531-2.253 1.406-2.255 2.297z"/>
  </defs>
  <clipPath id="j">
    <use xlink:href="#i" overflow="visible"/>
  </clipPath>
  <g clip-path="url(#j)">
    <path fill="#AAAAAA" d="M156.377 58.034l-.004 1.679a6.21 6.21 0 0 0-.47.193l.004-1.679c.149-.068.305-.132.47-.193"/>
    <path fill="#A6A6A6" d="M155.907 58.228l-.004 1.679a4.547 4.547 0 0 0-.817.48l.005-1.678c.232-.176.505-.337.816-.481"/>
    <path fill="#A1A1A1" d="M155.091 58.708l-.005 1.678c-.131.099-.25.202-.355.309l.004-1.679a3.22 3.22 0 0 1 .356-.308"/>
    <path fill="#9C9C9C" d="M154.734 59.016l-.004 1.679a2.596 2.596 0 0 0-.233.268l.005-1.679c.068-.091.146-.18.232-.268"/>
    <path fill="#989898" d="M154.502 59.284l-.005 1.679a2.25 2.25 0 0 0-.165.255l.004-1.678c.048-.087.103-.172.166-.256"/>
    <path fill="#939393" d="M154.336 59.54l-.004 1.678a1.904 1.904 0 0 0-.114.249l.005-1.678c.03-.084.068-.167.113-.249"/>
    <path fill="#8F8F8F" d="M154.223 59.789l-.005 1.678c-.03.083-.054.166-.07.249l.005-1.679c.015-.083.039-.166.07-.248"/>
    <path fill="#8A8A8A" d="M154.152 60.037l-.005 1.679c-.017.085-.026.17-.028.255l.004-1.678c.002-.085.012-.171.029-.256"/>
    <path fill="#858585" d="M154.123 60.293l-.004 1.678-.001.039.004-1.679.001-.038"/>
  </g>
  <defs>
    <path id="k" d="M249.105 60.611l-.004 1.679c.001-.486-.255-.978-.79-1.411-1.441-1.167-4.339-1.48-6.482-.7-1.333.485-2.052 1.279-2.054 2.091l.004-1.678c.002-.813.722-1.607 2.054-2.092 2.144-.78 5.041-.467 6.483.701.536.433.791.924.789 1.41z"/>
  </defs>
  <clipPath id="l">
    <use xlink:href="#k" overflow="visible"/>
  </clipPath>
  <g clip-path="url(#l)">
    <path fill="#787878" d="M249.105 60.611l-.004 1.679c.001-.486-.255-.978-.79-1.411a4.278 4.278 0 0 0-1.093-.625l.004-1.678c.416.168.787.377 1.094.625.536.433.791.924.789 1.41"/>
    <path fill="#7C7C7C" d="M247.223 58.575l-.004 1.678a6.405 6.405 0 0 0-.527-.185l.004-1.679c.182.056.358.117.527.186"/>
    <path fill="#818181" d="M246.695 58.39l-.004 1.679a7.686 7.686 0 0 0-.453-.12l.004-1.679c.154.036.306.076.453.12"/>
    <path fill="#858585" d="M246.242 58.271l-.004 1.679a7.23 7.23 0 0 0-.429-.085l.004-1.679c.146.024.289.052.429.085"/>
    <path fill="#8A8A8A" d="M245.813 58.186l-.004 1.679a9.18 9.18 0 0 0-.419-.06l.004-1.678c.142.016.282.035.419.059"/>
    <path fill="#8F8F8F" d="M245.395 58.126l-.004 1.678a8.212 8.212 0 0 0-.418-.037l.004-1.679c.14.01.28.022.418.038"/>
    <path fill="#939393" d="M244.977 58.089l-.004 1.679a8.777 8.777 0 0 0-.43-.017l.004-1.679c.143.002.287.008.43.017"/>
    <path fill="#989898" d="M244.547 58.072l-.004 1.679a9.79 9.79 0 0 0-.453.005l.005-1.679c.15-.006.301-.007.452-.005"/>
    <path fill="#9C9C9C" d="M244.095 58.077l-.005 1.679a8.96 8.96 0 0 0-.492.033l.004-1.678c.164-.016.328-.028.493-.034"/>
    <path fill="#A1A1A1" d="M243.602 58.111l-.004 1.678c-.199.02-.397.046-.593.08l.004-1.678c.195-.034.393-.061.593-.08"/>
    <path fill="#A6A6A6" d="M243.009 58.191l-.004 1.678a7.093 7.093 0 0 0-1.007.251l.004-1.679a6.99 6.99 0 0 1 1.007-.25"/>
    <path fill="#AAAAAA" d="M242.002 58.441l-.004 1.679a5.395 5.395 0 0 0-.601.236l.004-1.679a5.395 5.395 0 0 1 .601-.236"/>
    <path fill="#A6A6A6" d="M241.401 58.677l-.004 1.679a4.123 4.123 0 0 0-.743.437l.005-1.679c.211-.158.459-.305.742-.437"/>
    <path fill="#A1A1A1" d="M240.659 59.114l-.005 1.679c-.119.09-.228.183-.323.28l.005-1.679a3.01 3.01 0 0 1 .323-.28"/>
    <path fill="#9C9C9C" d="M240.336 59.394l-.005 1.679c-.078.079-.148.16-.211.243l.005-1.679c.062-.082.132-.164.211-.243"/>
    <path fill="#989898" d="M240.125 59.637l-.005 1.679a1.962 1.962 0 0 0-.149.231l.004-1.679c.043-.078.092-.155.15-.231"/>
    <path fill="#939393" d="M239.975 59.869l-.004 1.679c-.041.075-.076.15-.104.227l.004-1.679c.028-.077.063-.153.104-.227"/>
    <path fill="#8F8F8F" d="M239.871 60.095l-.004 1.679c-.028.075-.05.151-.064.227l.004-1.679a1.57 1.57 0 0 1 .064-.227"/>
    <path fill="#8A8A8A" d="M239.807 60.322l-.004 1.679a1.33 1.33 0 0 0-.026.234l.004-1.679c.001-.078.01-.156.026-.234"/>
    <path fill="#858585" d="M239.78 60.557l-.004 1.679-.001.035.004-1.678.001-.036"/>
  </g>
  <defs>
    <path id="m" d="M238.719 64.392l-.005 1.679c.002-.486-.254-.978-.789-1.411-1.442-1.167-4.34-1.481-6.483-.701-1.329.484-2.049 1.279-2.051 2.093l.004-1.679c.002-.814.723-1.609 2.051-2.093 2.144-.78 5.041-.467 6.483.701.535.434.791.925.79 1.411z"/>
  </defs>
  <clipPath id="n">
    <use xlink:href="#m" overflow="visible"/>
  </clipPath>
  <g clip-path="url(#n)">
    <path fill="#787878" d="M238.719 64.392l-.005 1.679c.002-.486-.254-.978-.789-1.411a4.302 4.302 0 0 0-1.094-.625l.004-1.679c.416.168.788.378 1.094.625.535.434.791.925.79 1.411"/>
    <path fill="#7C7C7C" d="M236.835 62.356l-.004 1.679a5.94 5.94 0 0 0-.527-.185l.004-1.679c.182.055.358.117.527.185"/>
    <path fill="#818181" d="M236.308 62.171l-.004 1.679a7.686 7.686 0 0 0-.453-.12l.005-1.679c.154.036.305.075.452.12"/>
    <path fill="#858585" d="M235.855 62.051l-.005 1.679a7.23 7.23 0 0 0-.429-.085l.004-1.679c.146.025.29.054.43.085"/>
    <path fill="#8A8A8A" d="M235.426 61.966l-.004 1.679a7.97 7.97 0 0 0-.419-.059l.005-1.679c.14.016.28.036.418.059"/>
    <path fill="#8F8F8F" d="M235.008 61.907l-.005 1.679a8.109 8.109 0 0 0-.418-.038l.004-1.679c.14.01.28.022.419.038"/>
    <path fill="#939393" d="M234.589 61.87l-.004 1.679a8.777 8.777 0 0 0-.43-.017l.005-1.679c.144.001.286.007.429.017"/>
    <path fill="#989898" d="M234.16 61.853l-.005 1.679c-.15-.002-.302 0-.452.005l.004-1.678c.151-.006.302-.008.453-.006"/>
    <path fill="#9C9C9C" d="M233.707 61.858l-.004 1.678a8.05 8.05 0 0 0-.493.034l.004-1.679c.164-.016.328-.027.493-.033"/>
    <path fill="#A1A1A1" d="M233.214 61.892l-.004 1.679c-.199.02-.397.046-.593.08l.004-1.679c.195-.034.394-.061.593-.08"/>
    <path fill="#A6A6A6" d="M232.621 61.972l-.004 1.679c-.347.06-.685.144-1.008.25l.004-1.678a6.94 6.94 0 0 1 1.008-.251"/>
    <path fill="#AAAAAA" d="M231.613 62.223l-.004 1.678-.168.059a5.89 5.89 0 0 0-.429.176l.004-1.679a5.32 5.32 0 0 1 .597-.234"/>
    <path fill="#A6A6A6" d="M231.017 62.457l-.004 1.679c-.283.131-.53.278-.741.436l.004-1.679a4.09 4.09 0 0 1 .741-.436"/>
    <path fill="#A1A1A1" d="M230.275 62.893l-.004 1.679c-.12.09-.228.184-.323.28l.004-1.679a3.11 3.11 0 0 1 .323-.28"/>
    <path fill="#9C9C9C" d="M229.952 63.173l-.004 1.679a2.371 2.371 0 0 0-.212.244l.005-1.679c.062-.083.133-.165.211-.244"/>
    <path fill="#989898" d="M229.741 63.417l-.005 1.679a2.03 2.03 0 0 0-.15.232l.005-1.679c.043-.079.093-.156.15-.232"/>
    <path fill="#939393" d="M229.591 63.649l-.005 1.679a1.837 1.837 0 0 0-.104.227l.004-1.678c.029-.077.064-.153.105-.228"/>
    <path fill="#8F8F8F" d="M229.486 63.876l-.004 1.678c-.028.076-.05.151-.064.228l.004-1.679c.016-.075.037-.151.064-.227"/>
    <path fill="#8A8A8A" d="M229.422 64.104l-.004 1.679a1.331 1.331 0 0 0-.026.235l.004-1.679c.001-.079.01-.157.026-.235"/>
    <path fill="#858585" d="M229.396 64.339l-.004 1.679-.001.035.004-1.679.001-.035"/>
  </g>
  <defs>
    <path id="o" d="M171.288 65.991l-.004 1.679c.001-.531-.28-1.069-.868-1.546-1.563-1.265-4.724-1.606-7.061-.756l.005-1.678c2.337-.851 5.497-.509 7.06.756.589.475.869 1.013.868 1.545z"/>
  </defs>
  <clipPath id="p">
    <use xlink:href="#o" overflow="visible"/>
  </clipPath>
  <g clip-path="url(#p)">
    <path fill="#787878" d="M171.288 65.991l-.004 1.679c.001-.531-.28-1.069-.868-1.546a4.614 4.614 0 0 0-1.183-.676l.005-1.679c.45.182.852.409 1.182.676.589.476.869 1.014.868 1.546"/>
    <path fill="#7C7C7C" d="M169.238 63.769l-.005 1.679a6.844 6.844 0 0 0-.571-.201l.005-1.679c.197.06.388.127.571.201"/>
    <path fill="#818181" d="M168.667 63.568l-.005 1.679a7.402 7.402 0 0 0-.493-.13l.004-1.679c.169.039.333.083.494.13"/>
    <path fill="#858585" d="M168.173 63.438l-.004 1.679a8.568 8.568 0 0 0-.467-.093l.004-1.679c.158.028.315.058.467.093"/>
    <path fill="#8A8A8A" d="M167.706 63.346l-.004 1.679a8.374 8.374 0 0 0-.457-.064l.004-1.679c.154.017.307.038.457.064"/>
    <path fill="#8F8F8F" d="M167.249 63.281l-.004 1.679a8.616 8.616 0 0 0-.457-.041l.005-1.679c.153.01.306.024.456.041"/>
    <path fill="#939393" d="M166.793 63.24l-.005 1.679a9.097 9.097 0 0 0-.469-.019l.004-1.679c.157.003.314.009.47.019"/>
    <path fill="#989898" d="M166.323 63.222l-.004 1.679c-.165-.002-.33 0-.494.006l.004-1.679c.165-.007.33-.009.494-.006"/>
    <path fill="#9C9C9C" d="M165.829 63.228l-.004 1.679c-.181.007-.36.019-.539.037l.004-1.679c.179-.018.358-.031.539-.037"/>
    <path fill="#A1A1A1" d="M165.29 63.264l-.004 1.679c-.218.021-.435.05-.647.087l.004-1.679a8.6 8.6 0 0 1 .647-.087"/>
    <path fill="#A6A6A6" d="M164.643 63.352l-.004 1.679a7.736 7.736 0 0 0-1.101.273l.005-1.678a7.464 7.464 0 0 1 1.1-.274"/>
    <path fill="#AAAAAA" d="M163.543 63.625l-.005 1.678-.183.063.005-1.678.183-.063"/>
  </g>
  <defs>
    <path id="q" d="M161.104 67.665l.005-1.679c.002-.891.794-1.767 2.251-2.297l-.005 1.678c-1.456.53-2.248 1.406-2.251 2.298z"/>
  </defs>
  <clipPath id="r">
    <use xlink:href="#q" overflow="visible"/>
  </clipPath>
  <g clip-path="url(#r)">
    <path fill="#AAAAAA" d="M163.36 63.689l-.005 1.678a6.33 6.33 0 0 0-.468.193l.004-1.679c.148-.068.304-.132.469-.192"/>
    <path fill="#A6A6A6" d="M162.892 63.881l-.004 1.679a4.515 4.515 0 0 0-.814.479l.005-1.678c.231-.175.502-.336.813-.48"/>
    <path fill="#A1A1A1" d="M162.078 64.36l-.005 1.678c-.132.099-.25.202-.355.308l.004-1.678a3.22 3.22 0 0 1 .356-.308"/>
    <path fill="#9C9C9C" d="M161.722 64.668l-.004 1.678a2.504 2.504 0 0 0-.233.269l.005-1.679c.068-.091.146-.18.232-.268"/>
    <path fill="#989898" d="M161.489 64.937l-.005 1.679a2.164 2.164 0 0 0-.165.255l.004-1.679c.048-.087.103-.171.166-.255"/>
    <path fill="#939393" d="M161.323 65.192l-.004 1.679a1.857 1.857 0 0 0-.114.25l.004-1.679c.031-.085.069-.168.114-.25"/>
    <path fill="#8F8F8F" d="M161.209 65.441l-.004 1.679c-.03.083-.054.166-.07.25l.004-1.679c.016-.084.04-.167.07-.25"/>
    <path fill="#8A8A8A" d="M161.139 65.691l-.004 1.679c-.018.085-.027.17-.029.256l.004-1.679c.002-.085.012-.171.029-.256"/>
    <path fill="#858585" d="M161.109 65.947l-.004 1.679-.001.039.005-1.679v-.039"/>
  </g>
  <defs>
    <path id="s" d="M226.6 68.803l-.004 1.679c.001-.486-.255-.978-.79-1.411-1.442-1.167-4.34-1.481-6.483-.701-1.329.484-2.049 1.28-2.052 2.093l.005-1.678c.002-.814.722-1.61 2.052-2.094 2.143-.78 5.041-.467 6.482.701.535.434.791.925.79 1.411z"/>
  </defs>
  <clipPath id="t">
    <use xlink:href="#s" overflow="visible"/>
  </clipPath>
  <g clip-path="url(#t)">
    <path fill="#787878" d="M226.6 68.803l-.004 1.679c.001-.486-.255-.978-.79-1.411a4.302 4.302 0 0 0-1.094-.625l.004-1.679c.416.168.788.378 1.094.625.535.434.791.925.79 1.411"/>
    <path fill="#7C7C7C" d="M224.716 66.767l-.004 1.679a6.277 6.277 0 0 0-.527-.185l.005-1.679c.181.055.357.117.526.185"/>
    <path fill="#818181" d="M224.189 66.582l-.005 1.679a7.652 7.652 0 0 0-.452-.12l.004-1.679c.155.036.306.076.453.12"/>
    <path fill="#858585" d="M223.736 66.462l-.004 1.679a7.264 7.264 0 0 0-.43-.085l.005-1.679c.145.025.289.054.429.085"/>
    <path fill="#8A8A8A" d="M223.308 66.377l-.005 1.679a8.082 8.082 0 0 0-.418-.059l.004-1.679c.14.016.281.036.419.059"/>
    <path fill="#8F8F8F" d="M222.889 66.318l-.004 1.679a8.25 8.25 0 0 0-.419-.038l.005-1.679c.139.01.279.022.418.038"/>
    <path fill="#939393" d="M222.471 66.281l-.005 1.679a8.736 8.736 0 0 0-.429-.017l.004-1.679c.144.002.287.007.43.017"/>
    <path fill="#989898" d="M222.041 66.264l-.004 1.679c-.151-.002-.302 0-.453.005l.004-1.679c.151-.005.303-.007.453-.005"/>
    <path fill="#9C9C9C" d="M221.588 66.269l-.004 1.679a8.105 8.105 0 0 0-.493.034l.004-1.679c.164-.016.329-.028.493-.034"/>
    <path fill="#A1A1A1" d="M221.095 66.303l-.004 1.679c-.199.02-.397.046-.593.08l.005-1.679c.195-.034.393-.061.592-.08"/>
    <path fill="#A6A6A6" d="M220.503 66.383l-.005 1.679c-.347.06-.685.144-1.008.251l.004-1.679a6.89 6.89 0 0 1 1.009-.251"/>
    <path fill="#AAAAAA" d="M219.494 66.634l-.004 1.679a5.474 5.474 0 0 0-.597.235l.004-1.679a5.197 5.197 0 0 1 .597-.235"/>
    <path fill="#A6A6A6" d="M218.897 66.869l-.004 1.679c-.283.131-.53.277-.741.436l.004-1.678c.211-.16.459-.306.741-.437"/>
    <path fill="#A1A1A1" d="M218.156 67.305l-.004 1.678a2.92 2.92 0 0 0-.324.281l.005-1.679c.096-.097.203-.19.323-.28"/>
    <path fill="#9C9C9C" d="M217.833 67.585l-.005 1.679c-.078.079-.148.16-.211.243l.004-1.678c.063-.083.133-.165.212-.244"/>
    <path fill="#989898" d="M217.621 67.829l-.004 1.678a1.861 1.861 0 0 0-.15.232l.004-1.679c.043-.078.093-.156.15-.231"/>
    <path fill="#939393" d="M217.471 68.061l-.004 1.679c-.041.075-.076.15-.104.227l.005-1.678c.027-.078.062-.154.103-.228"/>
    <path fill="#8F8F8F" d="M217.366 68.288l-.004 1.678a1.583 1.583 0 0 0-.064.228l.004-1.679a1.57 1.57 0 0 1 .064-.227"/>
    <path fill="#8A8A8A" d="M217.302 68.516l-.004 1.679a1.331 1.331 0 0 0-.026.235l.004-1.679c.001-.079.011-.157.026-.235"/>
    <path fill="#858585" d="M217.275 68.75l-.004 1.679-.001.035.005-1.679v-.035"/>
  </g>
  <defs>
    <path id="u" d="M149.523 60.583l.004-1.678c-.008 2.987 2.578 6.863 7.211 10.615l-.004 1.678c-4.632-3.751-7.218-7.628-7.211-10.615z"/>
  </defs>
  <clipPath id="v">
    <use xlink:href="#u" overflow="visible"/>
  </clipPath>
  <g clip-path="url(#v)">
    <path fill="#787878" d="M156.738 69.52l-.004 1.678c-4.633-3.751-7.219-7.627-7.211-10.615l.004-1.678c-.007 2.987 2.578 6.863 7.211 10.615"/>
  </g>
  <defs>
    <path id="w" d="M216.214 72.586l-.004 1.679c.001-.486-.256-.979-.792-1.413-1.441-1.167-4.332-1.483-6.482-.701-1.329.484-2.049 1.279-2.052 2.093l.005-1.679c.002-.813.722-1.609 2.051-2.093 2.15-.783 5.041-.467 6.482.701.536.434.793.927.792 1.413z"/>
  </defs>
  <clipPath id="x">
    <use xlink:href="#w" overflow="visible"/>
  </clipPath>
  <g clip-path="url(#x)">
    <path fill="#787878" d="M216.214 72.586l-.004 1.679c.001-.486-.256-.979-.792-1.413a4.32 4.32 0 0 0-1.096-.627l.004-1.678c.417.169.789.379 1.096.627.536.433.793.926.792 1.412"/>
    <path fill="#7C7C7C" d="M214.326 70.546l-.004 1.678a6.428 6.428 0 0 0-.528-.185l.005-1.678c.181.055.358.117.527.185"/>
    <path fill="#818181" d="M213.799 70.361l-.005 1.678a6.782 6.782 0 0 0-.452-.119l.005-1.679c.153.036.304.076.452.12"/>
    <path fill="#858585" d="M213.347 70.242l-.005 1.679a8.097 8.097 0 0 0-.428-.085l.004-1.678c.145.024.288.052.429.084"/>
    <path fill="#8A8A8A" d="M212.918 70.157l-.004 1.678a9.296 9.296 0 0 0-.417-.059l.004-1.679c.141.017.28.037.417.06"/>
    <path fill="#8F8F8F" d="M212.501 70.098l-.004 1.679a8.212 8.212 0 0 0-.418-.037l.005-1.679c.14.008.279.021.417.037"/>
    <path fill="#939393" d="M212.084 70.061l-.005 1.679a8.647 8.647 0 0 0-.428-.017l.004-1.679c.144.002.286.007.429.017"/>
    <path fill="#989898" d="M211.655 70.043l-.004 1.679c-.15-.002-.301 0-.451.005l.004-1.679c.15-.005.302-.006.451-.005"/>
    <path fill="#9C9C9C" d="M211.204 70.049l-.004 1.679a8.895 8.895 0 0 0-.492.033l.004-1.678c.163-.017.328-.028.492-.034"/>
    <path fill="#A1A1A1" d="M210.712 70.083l-.004 1.678c-.199.02-.397.046-.593.08l.004-1.678c.195-.035.394-.061.593-.08"/>
    <path fill="#A6A6A6" d="M210.119 70.163l-.004 1.678a7.197 7.197 0 0 0-1.012.252l.004-1.678a6.963 6.963 0 0 1 1.012-.252"/>
    <path fill="#AAAAAA" d="M209.107 70.414l-.004 1.679-.168.059a5.344 5.344 0 0 0-.43.177l.004-1.679c.136-.063.278-.122.43-.177l.168-.059"/>
    <path fill="#A6A6A6" d="M208.51 70.649l-.004 1.679a4.091 4.091 0 0 0-.74.436l.004-1.679c.21-.158.458-.305.74-.436"/>
    <path fill="#A1A1A1" d="M207.77 71.085l-.004 1.679c-.12.09-.229.184-.324.28l.005-1.679c.095-.096.202-.19.323-.28"/>
    <path fill="#9C9C9C" d="M207.446 71.365l-.005 1.679a2.486 2.486 0 0 0-.211.244l.004-1.679c.063-.083.133-.165.212-.244"/>
    <path fill="#989898" d="M207.234 71.609l-.004 1.679a1.79 1.79 0 0 0-.15.232l.004-1.679c.043-.078.094-.156.15-.232"/>
    <path fill="#939393" d="M207.084 71.841l-.004 1.679a1.656 1.656 0 0 0-.104.228l.005-1.679c.027-.077.062-.153.103-.228"/>
    <path fill="#8F8F8F" d="M206.98 72.068l-.005 1.679a1.548 1.548 0 0 0-.064.228l.004-1.678a1.6 1.6 0 0 1 .065-.229"/>
    <path fill="#8A8A8A" d="M206.915 72.296l-.004 1.678a1.331 1.331 0 0 0-.026.235l.004-1.679c.002-.078.011-.156.026-.234"/>
    <path fill="#858585" d="M206.889 72.531l-.004 1.679-.001.035.005-1.679v-.035"/>
  </g>
  <g>
    <path fill="#767676" d="M160.501 72.566l-.004 1.679-3.763-3.047.004-1.678z"/>
  </g>
  <g>
    <defs>
      <path id="y" d="M201.949 76.705c-4.203-3.404-11.073-5.254-18.076-5.275l.005-1.679c7.002.021 13.872 1.872 18.075 5.275 2.521 2.042 3.726 4.352 3.719 6.635l-.004 1.679c.006-2.283-1.197-4.594-3.719-6.635z"/>
    </defs>
    <clipPath id="z">
      <use xlink:href="#y" overflow="visible"/>
    </clipPath>
    <g clip-path="url(#z)">
      <path fill="#787878" d="M205.672 81.659l-.004 1.678c.005-2.282-1.198-4.591-3.719-6.632-1.426-1.155-3.159-2.131-5.101-2.917l.004-1.679c1.941.787 3.675 1.763 5.101 2.917 2.521 2.041 3.725 4.35 3.719 6.633"/>
      <path fill="#7C7C7C" d="M196.853 72.109l-.004 1.679a28.078 28.078 0 0 0-2.463-.864l.004-1.679c.85.256 1.674.545 2.463.864"/>
      <path fill="#818181" d="M194.39 71.245l-.004 1.679a32.692 32.692 0 0 0-2.12-.56l.004-1.678c.722.165 1.43.351 2.12.559"/>
      <path fill="#858585" d="M192.27 70.686l-.004 1.678a35.288 35.288 0 0 0-2.008-.397l.004-1.679c.679.114 1.349.247 2.008.398"/>
      <path fill="#8A8A8A" d="M190.262 70.288l-.004 1.679c-.646-.109-1.3-.202-1.961-.278l.005-1.679c.66.076 1.314.169 1.96.278"/>
      <path fill="#8F8F8F" d="M188.302 70.01l-.005 1.679a40.481 40.481 0 0 0-1.959-.176l.004-1.679c.658.043 1.311.102 1.96.176"/>
      <path fill="#939393" d="M186.342 69.834l-.004 1.679a40.62 40.62 0 0 0-2.01-.079l.004-1.679c.673.01 1.344.036 2.01.079"/>
      <path fill="#989898" d="M184.332 69.755l-.004 1.679a40.404 40.404 0 0 0-2.117.025l.005-1.679a40.366 40.366 0 0 1 2.116-.025"/>
    </g>
  </g>
  <g>
    <defs>
      <path id="A" d="M171.665 73.428c-6.253 2.276-9.634 6.011-9.643 9.823l.004-1.678c.01-3.812 3.39-7.547 9.644-9.823 3.751-1.366 8.003-2.012 12.208-1.999l-.005 1.679c-4.204-.013-8.456.633-12.208 1.998z"/>
    </defs>
    <clipPath id="B">
      <use xlink:href="#A" overflow="visible"/>
    </clipPath>
    <g clip-path="url(#B)">
      <path fill="#989898" d="M184.332 69.755l-.004 1.679a40.404 40.404 0 0 0-2.117.025l.005-1.679a40.366 40.366 0 0 1 2.116-.025"/>
      <path fill="#9C9C9C" d="M182.216 69.78l-.005 1.679c-.77.029-1.539.082-2.305.156l.005-1.679a40.165 40.165 0 0 1 2.305-.156"/>
      <path fill="#A1A1A1" d="M179.911 69.937l-.005 1.679c-.931.091-1.855.215-2.768.374l.005-1.679a36.75 36.75 0 0 1 2.768-.374"/>
      <path fill="#A6A6A6" d="M177.144 70.311l-.005 1.679a32.814 32.814 0 0 0-4.707 1.172l.004-1.679a32.63 32.63 0 0 1 4.708-1.172"/>
      <path fill="#AAAAAA" d="M172.436 71.483l-.004 1.679a27.74 27.74 0 0 0-.767.267c-.709.258-1.382.535-2.016.829l.004-1.679a26.038 26.038 0 0 1 2.783-1.096"/>
      <path fill="#A6A6A6" d="M169.653 72.579l-.004 1.679c-1.333.617-2.5 1.308-3.493 2.053l.004-1.679c.994-.746 2.16-1.437 3.493-2.053"/>
      <path fill="#A1A1A1" d="M166.16 74.632l-.004 1.679c-.563.422-1.069.862-1.521 1.316l.005-1.679c.451-.454.958-.894 1.52-1.316"/>
      <path fill="#9C9C9C" d="M164.641 75.948l-.005 1.679c-.368.372-.7.754-.992 1.144l.004-1.679c.292-.39.623-.771.993-1.144"/>
      <path fill="#989898" d="M163.647 77.092l-.004 1.679c-.268.357-.503.72-.705 1.088l.004-1.679c.203-.368.438-.731.705-1.088"/>
      <path fill="#939393" d="M162.942 78.18l-.004 1.679a7.952 7.952 0 0 0-.487 1.064l.004-1.678c.132-.359.295-.714.487-1.065"/>
      <path fill="#8F8F8F" d="M162.455 79.245l-.004 1.678a7.033 7.033 0 0 0-.303 1.067l.004-1.679c.072-.357.172-.713.303-1.066"/>
      <path fill="#8A8A8A" d="M162.152 80.312l-.004 1.679c-.072.364-.113.73-.124 1.097l.005-1.679c.01-.367.051-.734.123-1.097"/>
      <path fill="#858585" d="M162.029 81.408l-.005 1.679-.002.164.004-1.678.003-.165"/>
    </g>
  </g>
  <g>
    <path fill="#B5B5B5" d="M271.462 58.188l-.004 1.678-61.481 30.097.004-1.678z"/>
  </g>
  <g>
    <defs>
      <path id="C" d="M162.56 92.113l-.004 1.678c.001-.486-.255-.977-.79-1.411-1.442-1.167-4.34-1.48-6.483-.701-1.328.484-2.049 1.279-2.051 2.093l.005-1.679c.002-.813.722-1.609 2.051-2.093 2.143-.78 5.041-.467 6.482.7.535.436.791.927.79 1.413z"/>
    </defs>
    <clipPath id="D">
      <use xlink:href="#C" overflow="visible"/>
    </clipPath>
    <g clip-path="url(#D)">
      <path fill="#787878" d="M162.56 92.113l-.004 1.678c.001-.486-.255-.977-.79-1.411a4.302 4.302 0 0 0-1.094-.625l.004-1.679c.416.168.788.378 1.094.625.535.435.791.926.79 1.412"/>
      <path fill="#7C7C7C" d="M160.676 90.077l-.004 1.679a6.277 6.277 0 0 0-.527-.185l.005-1.679c.181.055.357.116.526.185"/>
      <path fill="#818181" d="M160.149 89.892l-.005 1.679a6.812 6.812 0 0 0-.453-.119l.005-1.679c.155.035.306.075.453.119"/>
      <path fill="#858585" d="M159.696 89.772l-.005 1.679a7.075 7.075 0 0 0-.429-.085l.005-1.679c.145.025.289.053.429.085"/>
      <path fill="#8A8A8A" d="M159.268 89.688l-.005 1.679a9.34 9.34 0 0 0-.418-.06l.004-1.679c.14.017.28.036.419.06"/>
      <path fill="#8F8F8F" d="M158.849 89.628l-.004 1.679a9.585 9.585 0 0 0-.419-.038l.004-1.679c.14.01.28.022.419.038"/>
      <path fill="#939393" d="M158.43 89.59l-.004 1.679a8.777 8.777 0 0 0-.43-.017l.005-1.678c.144.002.286.007.429.016"/>
      <path fill="#989898" d="M158.001 89.574l-.005 1.678c-.15-.002-.302 0-.452.006l.004-1.679c.151-.006.302-.008.453-.005"/>
      <path fill="#9C9C9C" d="M157.548 89.579l-.004 1.679a8.05 8.05 0 0 0-.493.033l.004-1.679c.164-.015.328-.027.493-.033"/>
      <path fill="#A1A1A1" d="M157.055 89.612l-.004 1.679c-.199.02-.397.046-.593.08l.004-1.679a8.81 8.81 0 0 1 .593-.08"/>
      <path fill="#A6A6A6" d="M156.462 89.692l-.004 1.679a7.048 7.048 0 0 0-1.011.252l.005-1.679a7.135 7.135 0 0 1 1.01-.252"/>
      <path fill="#AAAAAA" d="M155.452 89.944l-.005 1.679-.165.057c-.15.055-.293.114-.427.176l.004-1.678a5.295 5.295 0 0 1 .593-.234"/>
      <path fill="#A6A6A6" d="M154.859 90.178l-.004 1.678a4.123 4.123 0 0 0-.743.437l.005-1.679c.211-.159.459-.305.742-.436"/>
      <path fill="#A1A1A1" d="M154.117 90.614l-.005 1.679a3.01 3.01 0 0 0-.323.28l.004-1.679c.097-.097.204-.19.324-.28"/>
      <path fill="#9C9C9C" d="M153.793 90.894l-.004 1.679a2.359 2.359 0 0 0-.211.244l.004-1.679c.063-.083.133-.164.211-.244"/>
      <path fill="#989898" d="M153.582 91.138l-.004 1.679a1.79 1.79 0 0 0-.15.232l.004-1.679c.043-.079.093-.156.15-.232"/>
      <path fill="#939393" d="M153.432 91.37l-.004 1.679a1.656 1.656 0 0 0-.104.228l.004-1.679c.027-.077.063-.153.104-.228"/>
      <path fill="#8F8F8F" d="M153.327 91.597l-.004 1.679c-.028.075-.05.151-.064.228l.004-1.679c.015-.076.037-.153.064-.228"/>
      <path fill="#8A8A8A" d="M153.263 91.825l-.004 1.679a1.33 1.33 0 0 0-.026.234l.004-1.679c.001-.078.01-.156.026-.234"/>
      <path fill="#858585" d="M153.236 92.06l-.004 1.679-.001.035.005-1.679v-.035"/>
    </g>
  </g>
  <g>
    <defs>
      <path id="E" d="M205.672 81.659l-.004 1.678c-.01 3.81-3.39 7.542-9.642 9.817-9.999 3.639-23.56 2.177-30.286-3.27-2.521-2.041-3.724-4.351-3.718-6.634l.004-1.678c-.006 2.283 1.198 4.593 3.718 6.633 6.727 5.447 20.287 6.909 30.286 3.27 6.253-2.275 9.632-6.007 9.642-9.816z"/>
    </defs>
    <clipPath id="F">
      <use xlink:href="#E" overflow="visible"/>
    </clipPath>
    <g clip-path="url(#F)">
      <path fill="#727272" d="M205.672 81.659l-.004 1.678c0 .055-.001.109-.003.164l.005-1.678.002-.164"/>
      <path fill="#767676" d="M205.67 81.823l-.005 1.678c-.01.367-.052.732-.124 1.096l.005-1.679c.072-.363.113-.729.124-1.095"/>
      <path fill="#7A7A7A" d="M205.546 82.918l-.005 1.679c-.07.357-.171.713-.302 1.065l.005-1.679c.13-.352.231-.707.302-1.065"/>
      <path fill="#7D7D7D" d="M205.244 83.984l-.005 1.679a7.762 7.762 0 0 1-.487 1.063l.005-1.679c.192-.35.354-.705.487-1.063"/>
      <path fill="#818181" d="M204.757 85.047l-.005 1.679c-.201.368-.437.73-.704 1.087l.004-1.679c.267-.356.503-.719.705-1.087"/>
      <path fill="#858585" d="M204.052 86.134l-.004 1.679c-.292.389-.623.771-.991 1.143l.004-1.678c.369-.373.699-.755.991-1.144"/>
      <path fill="#898989" d="M203.061 87.277l-.004 1.678c-.45.454-.957.894-1.52 1.316l.004-1.679a13.718 13.718 0 0 0 1.52-1.315"/>
      <path fill="#8D8D8D" d="M201.541 88.593l-.004 1.679c-.993.746-2.159 1.436-3.492 2.053l.004-1.679c1.333-.617 2.499-1.308 3.492-2.053"/>
      <path fill="#919191" d="M198.049 90.646l-.004 1.679a26.09 26.09 0 0 1-2.019.83c-.256.093-.515.183-.774.27l.004-1.679a26.491 26.491 0 0 0 2.793-1.1"/>
      <path fill="#8D8D8D" d="M195.256 91.745l-.004 1.679c-1.508.5-3.088.89-4.706 1.171l.004-1.679a32.7 32.7 0 0 0 4.706-1.171"/>
      <path fill="#898989" d="M190.55 92.917l-.004 1.679c-.913.159-1.838.283-2.77.374l.004-1.678a38.34 38.34 0 0 0 2.77-.375"/>
      <path fill="#858585" d="M187.78 93.291l-.004 1.678c-.766.075-1.536.127-2.307.157l.004-1.679c.771-.03 1.542-.081 2.307-.156"/>
      <path fill="#818181" d="M185.474 93.447l-.004 1.679c-.707.027-1.414.035-2.119.025l.005-1.679c.705.011 1.412.003 2.118-.025"/>
      <path fill="#7D7D7D" d="M183.355 93.473l-.005 1.679a39.478 39.478 0 0 1-2.01-.08l.004-1.678c.668.043 1.339.069 2.011.079"/>
      <path fill="#7A7A7A" d="M181.345 93.394l-.004 1.678a38.139 38.139 0 0 1-1.96-.176l.004-1.679c.648.075 1.302.134 1.96.177"/>
      <path fill="#767676" d="M179.385 93.217l-.004 1.679a37.717 37.717 0 0 1-1.96-.277l.004-1.679c.645.109 1.3.202 1.96.277"/>
      <path fill="#727272" d="M177.425 92.94l-.004 1.679a36.9 36.9 0 0 1-2.007-.397l.004-1.679c.658.15 1.327.282 2.007.397"/>
      <path fill="#6E6E6E" d="M175.418 92.542l-.004 1.679a32.492 32.492 0 0 1-2.119-.56l.004-1.678c.689.208 1.397.394 2.119.559"/>
      <path fill="#6A6A6A" d="M173.299 91.983l-.004 1.678a28.34 28.34 0 0 1-2.46-.863l.004-1.679c.788.32 1.61.608 2.46.864"/>
      <path fill="#666666" d="M170.839 91.12l-.004 1.679c-1.939-.786-3.67-1.761-5.095-2.914-2.521-2.041-3.724-4.351-3.718-6.634l.004-1.678c-.006 2.283 1.198 4.593 3.718 6.633 1.425 1.154 3.156 2.128 5.095 2.914"/>
    </g>
  </g>
  <g>
    <path fill="#A6A6A6" d="M171.67 71.75c9.998-3.64 23.557-2.171 30.284 3.276 6.727 5.447 4.075 12.81-5.924 16.449-9.999 3.64-23.56 2.177-30.286-3.27-6.726-5.446-4.073-12.816 5.926-16.455z"/>
  </g>
  <g>
    <defs>
      <path id="G" d="M207.386 95.223l-.005 1.679c.002-.533-.279-1.073-.869-1.55-1.558-1.261-4.718-1.603-7.055-.752-1.458.531-2.25 1.407-2.252 2.298l.004-1.678c.002-.891.794-1.768 2.252-2.298 2.337-.851 5.498-.509 7.055.752.589.477.871 1.016.87 1.549z"/>
    </defs>
    <clipPath id="H">
      <use xlink:href="#G" overflow="visible"/>
    </clipPath>
    <g clip-path="url(#H)">
      <path fill="#787878" d="M207.386 95.223l-.005 1.679c.002-.533-.279-1.073-.869-1.55a4.644 4.644 0 0 0-1.177-.673l.004-1.678c.448.182.849.407 1.177.672.589.478.871 1.017.87 1.55"/>
      <path fill="#7C7C7C" d="M205.339 93.001l-.004 1.678a6.924 6.924 0 0 0-.569-.2l.004-1.679c.197.06.387.127.569.201"/>
      <path fill="#818181" d="M204.77 92.801l-.004 1.679a7.567 7.567 0 0 0-.493-.13l.004-1.679c.167.038.332.081.493.13"/>
      <path fill="#858585" d="M204.276 92.671l-.004 1.679a8.605 8.605 0 0 0-.468-.093l.005-1.679c.159.027.314.058.467.093"/>
      <path fill="#8A8A8A" d="M203.81 92.578l-.005 1.679a8.477 8.477 0 0 0-.456-.064l.004-1.679c.154.017.306.039.457.064"/>
      <path fill="#8F8F8F" d="M203.353 92.514l-.004 1.679a8.616 8.616 0 0 0-.457-.041l.004-1.679c.153.009.305.023.457.041"/>
      <path fill="#939393" d="M202.896 92.473l-.004 1.679a9.182 9.182 0 0 0-.47-.019l.004-1.679c.157.002.313.008.47.019"/>
      <path fill="#989898" d="M202.426 92.454l-.004 1.679c-.165-.002-.33 0-.495.006l.004-1.679c.165-.006.33-.008.495-.006"/>
      <path fill="#9C9C9C" d="M201.931 92.46l-.004 1.679c-.181.007-.36.019-.54.037l.005-1.679c.178-.018.359-.03.539-.037"/>
      <path fill="#A1A1A1" d="M201.392 92.497l-.005 1.679a8.6 8.6 0 0 0-.647.087l.004-1.679c.213-.037.43-.066.648-.087"/>
      <path fill="#A6A6A6" d="M200.743 92.584l-.004 1.679a7.717 7.717 0 0 0-1.102.274l.004-1.679a7.785 7.785 0 0 1 1.102-.274"/>
      <path fill="#AAAAAA" d="M199.642 92.858l-.004 1.679c-.061.021-.121.041-.181.063-.165.06-.321.125-.469.193l.004-1.679c.147-.068.304-.133.469-.193l.181-.063"/>
      <path fill="#A6A6A6" d="M198.992 93.114l-.004 1.679a4.515 4.515 0 0 0-.814.479l.004-1.678c.232-.175.504-.336.814-.48"/>
      <path fill="#A1A1A1" d="M198.178 93.593l-.004 1.678a3.11 3.11 0 0 0-.355.309l.004-1.679a3.3 3.3 0 0 1 .355-.308"/>
      <path fill="#9C9C9C" d="M197.822 93.901l-.004 1.679a2.396 2.396 0 0 0-.233.269l.004-1.679c.069-.091.146-.181.233-.269"/>
      <path fill="#989898" d="M197.589 94.17l-.004 1.679a2.26 2.26 0 0 0-.166.255l.005-1.678c.047-.087.102-.172.165-.256"/>
      <path fill="#939393" d="M197.424 94.426l-.005 1.678a1.915 1.915 0 0 0-.114.25l.004-1.679c.031-.084.069-.167.115-.249"/>
      <path fill="#8F8F8F" d="M197.309 94.675l-.004 1.679c-.03.083-.054.166-.07.25l.004-1.679a1.53 1.53 0 0 1 .07-.25"/>
      <path fill="#8A8A8A" d="M197.238 94.925l-.004 1.679c-.018.085-.026.17-.029.256l.004-1.679c.003-.085.013-.171.029-.256"/>
      <path fill="#858585" d="M197.209 95.181l-.004 1.679v.038l.004-1.678v-.039"/>
    </g>
  </g>
  <g>
    <defs>
      <path id="I" d="M152.173 95.894l-.004 1.679c.001-.486-.255-.978-.79-1.411-1.442-1.167-4.34-1.481-6.483-.701-1.33.484-2.05 1.28-2.052 2.094l.004-1.679c.002-.814.722-1.61 2.052-2.094 2.143-.78 5.041-.467 6.482.701.536.433.792.925.791 1.411z"/>
    </defs>
    <clipPath id="J">
      <use xlink:href="#I" overflow="visible"/>
    </clipPath>
    <g clip-path="url(#J)">
      <path fill="#787878" d="M152.173 95.894l-.004 1.679c.001-.486-.255-.978-.79-1.411a4.302 4.302 0 0 0-1.094-.625l.004-1.679a4.29 4.29 0 0 1 1.093.625c.536.433.792.925.791 1.411"/>
      <path fill="#7C7C7C" d="M150.29 93.857l-.004 1.679a6.277 6.277 0 0 0-.527-.185l.004-1.679c.181.055.358.117.527.185"/>
      <path fill="#818181" d="M149.762 93.672l-.004 1.679a7.686 7.686 0 0 0-.453-.12l.004-1.679c.155.036.306.076.453.12"/>
      <path fill="#858585" d="M149.31 93.553l-.004 1.679a7.394 7.394 0 0 0-.429-.085l.004-1.679c.145.024.288.053.429.085"/>
      <path fill="#8A8A8A" d="M148.881 93.468l-.004 1.679a8.121 8.121 0 0 0-.419-.059l.004-1.679c.141.016.281.036.419.059"/>
      <path fill="#8F8F8F" d="M148.462 93.409l-.004 1.679a8.212 8.212 0 0 0-.418-.038l.004-1.679c.14.009.279.022.418.038"/>
      <path fill="#939393" d="M148.043 93.371l-.004 1.679a8.786 8.786 0 0 0-.429-.017l.004-1.679c.144.002.287.008.429.017"/>
      <path fill="#989898" d="M147.614 93.354l-.004 1.679c-.151-.002-.302 0-.453.005l.004-1.679c.151-.005.302-.007.453-.005"/>
      <path fill="#9C9C9C" d="M147.161 93.359l-.004 1.679c-.165.006-.33.018-.494.034l.004-1.679c.165-.016.33-.027.494-.034"/>
      <path fill="#A1A1A1" d="M146.668 93.393l-.004 1.679c-.199.02-.397.046-.593.08l.004-1.679c.196-.034.394-.06.593-.08"/>
      <path fill="#A6A6A6" d="M146.075 93.473l-.004 1.679a7.202 7.202 0 0 0-1.01.251l.004-1.678a7.068 7.068 0 0 1 1.01-.252"/>
      <path fill="#AAAAAA" d="M145.065 93.725l-.004 1.678-.165.058c-.15.055-.293.113-.428.176l.004-1.679c.135-.062.277-.121.428-.176l.165-.057"/>
      <path fill="#A6A6A6" d="M144.472 93.958l-.004 1.679a4.079 4.079 0 0 0-.742.437l.004-1.679c.211-.159.459-.306.742-.437"/>
      <path fill="#A1A1A1" d="M143.73 94.395l-.004 1.679c-.12.09-.228.184-.324.28l.004-1.679c.096-.097.204-.191.324-.28"/>
      <path fill="#9C9C9C" d="M143.406 94.675l-.004 1.679c-.079.08-.149.161-.211.244l.004-1.678c.062-.084.133-.166.211-.245"/>
      <path fill="#989898" d="M143.195 94.919l-.004 1.678a1.983 1.983 0 0 0-.15.232l.004-1.679c.042-.078.093-.155.15-.231"/>
      <path fill="#939393" d="M143.044 95.151l-.004 1.679a1.7 1.7 0 0 0-.104.227l.004-1.678c.028-.077.063-.153.104-.228"/>
      <path fill="#8F8F8F" d="M142.94 95.378l-.004 1.678a1.588 1.588 0 0 0-.065.228l.004-1.679c.016-.075.037-.151.065-.227"/>
      <path fill="#8A8A8A" d="M142.875 95.606l-.004 1.679a1.432 1.432 0 0 0-.026.235l.004-1.679c.002-.079.011-.157.026-.235"/>
      <path fill="#858585" d="M142.849 95.841l-.004 1.679v.035l.004-1.679v-.035"/>
    </g>
  </g>
  <g>
    <path fill="#767676" d="M192.839 98.752l-.004 1.679-3.366-2.726.005-1.679z"/>
  </g>
  <g>
    <defs>
      <path id="K" d="M140.629 100.098l-.004 1.679c.001-.487-.255-.979-.791-1.413-1.442-1.167-4.34-1.481-6.468-.707-1.34.488-2.064 1.286-2.066 2.102l.004-1.679c.002-.815.726-1.613 2.066-2.101 2.128-.775 5.026-.461 6.468.706.537.434.792.926.791 1.413z"/>
    </defs>
    <clipPath id="L">
      <use xlink:href="#K" overflow="visible"/>
    </clipPath>
    <g clip-path="url(#L)">
      <path fill="#787878" d="M140.629 100.098l-.004 1.679c.001-.487-.255-.979-.791-1.413a4.294 4.294 0 0 0-1.095-.626l.004-1.679c.416.169.788.378 1.094.626.538.434.793.926.792 1.413"/>
      <path fill="#7C7C7C" d="M138.744 98.059l-.004 1.679a6.3 6.3 0 0 0-.528-.185l.004-1.679c.182.055.359.116.528.185"/>
      <path fill="#818181" d="M138.216 97.874l-.004 1.679a7.518 7.518 0 0 0-.454-.12l.004-1.679c.155.035.306.075.454.12"/>
      <path fill="#858585" d="M137.762 97.754l-.004 1.679a7.264 7.264 0 0 0-.43-.085l.004-1.678c.146.023.289.052.43.084"/>
      <path fill="#8A8A8A" d="M137.333 97.669l-.004 1.678a8.121 8.121 0 0 0-.419-.059l.004-1.679c.14.016.28.037.419.06"/>
      <path fill="#8F8F8F" d="M136.913 97.609l-.004 1.679a8.212 8.212 0 0 0-.418-.038l.004-1.679c.14.01.279.022.418.038"/>
      <path fill="#939393" d="M136.494 97.572l-.004 1.679a8.786 8.786 0 0 0-.429-.017l.004-1.679c.144.002.287.008.429.017"/>
      <path fill="#989898" d="M136.065 97.555l-.004 1.679c-.15-.002-.301 0-.452.005l.004-1.678c.151-.006.302-.008.452-.006"/>
      <path fill="#9C9C9C" d="M135.614 97.561l-.004 1.678a8.925 8.925 0 0 0-.491.033l.004-1.678c.163-.016.326-.028.491-.033"/>
      <path fill="#A1A1A1" d="M135.123 97.594l-.004 1.678c-.198.02-.395.046-.589.08l.004-1.679c.194-.033.39-.06.589-.079"/>
      <path fill="#A6A6A6" d="M134.533 97.673l-.004 1.679c-.344.06-.68.143-1 .249l.004-1.678c.32-.107.655-.19 1-.25"/>
      <path fill="#AAAAAA" d="M133.532 97.923l-.004 1.678-.162.056a5.871 5.871 0 0 0-.435.179l.004-1.679a5.445 5.445 0 0 1 .597-.234"/>
      <path fill="#A6A6A6" d="M132.937 98.157l-.004 1.679a4.11 4.11 0 0 0-.748.44l.004-1.679c.212-.159.462-.307.748-.44"/>
      <path fill="#A1A1A1" d="M132.188 98.597l-.004 1.679a2.85 2.85 0 0 0-.325.282l.004-1.679c.096-.097.205-.191.325-.282"/>
      <path fill="#9C9C9C" d="M131.863 98.879l-.004 1.679c-.079.08-.149.161-.212.244l.004-1.679c.062-.083.133-.165.212-.244"/>
      <path fill="#989898" d="M131.651 99.123l-.004 1.679a2.133 2.133 0 0 0-.151.232l.004-1.679c.043-.078.094-.155.151-.232"/>
      <path fill="#939393" d="M131.5 99.355l-.004 1.679a1.656 1.656 0 0 0-.104.228l.004-1.679c.028-.077.063-.152.104-.228"/>
      <path fill="#8F8F8F" d="M131.396 99.583l-.004 1.679a1.434 1.434 0 0 0-.064.228l.004-1.679c.015-.077.037-.153.064-.228"/>
      <path fill="#8A8A8A" d="M131.332 99.811l-.004 1.679a1.33 1.33 0 0 0-.026.234l.004-1.679a1.33 1.33 0 0 1 .026-.234"/>
      <path fill="#858585" d="M131.305 100.045l-.004 1.679v.035l.004-1.679v-.035"/>
    </g>
  </g>
  <g>
    <defs>
      <path id="M" d="M214.374 100.882l-.005 1.679c.002-.533-.28-1.073-.869-1.55-1.558-1.261-4.719-1.603-7.055-.752-1.458.53-2.25 1.407-2.253 2.298l.005-1.679c.002-.891.794-1.767 2.252-2.298 2.337-.851 5.497-.509 7.055.752.59.478.871 1.017.87 1.55z"/>
    </defs>
    <clipPath id="N">
      <use xlink:href="#M" overflow="visible"/>
    </clipPath>
    <g clip-path="url(#N)">
      <path fill="#787878" d="M214.374 100.882l-.005 1.679c.002-.533-.28-1.073-.869-1.55a4.644 4.644 0 0 0-1.177-.673l.004-1.679c.448.182.849.407 1.177.673.59.478.871 1.017.87 1.55"/>
      <path fill="#7C7C7C" d="M212.327 98.659l-.004 1.679a6.476 6.476 0 0 0-.57-.2l.005-1.679c.196.06.387.126.569.2"/>
      <path fill="#818181" d="M211.758 98.459l-.005 1.679a7.244 7.244 0 0 0-.493-.13l.005-1.679c.168.039.333.082.493.13"/>
      <path fill="#858585" d="M211.265 98.329l-.005 1.679a8.384 8.384 0 0 0-.467-.092l.005-1.679c.158.027.313.057.467.092"/>
      <path fill="#8A8A8A" d="M210.798 98.237l-.005 1.679a9.48 9.48 0 0 0-.457-.065l.005-1.678c.153.017.306.038.457.064"/>
      <path fill="#8F8F8F" d="M210.341 98.172l-.005 1.678a9.576 9.576 0 0 0-.457-.041l.005-1.678c.153.01.305.024.457.041"/>
      <path fill="#939393" d="M209.884 98.131l-.005 1.678c-.155-.01-.312-.016-.469-.019l.004-1.678c.157.003.314.009.47.019"/>
      <path fill="#989898" d="M209.414 98.113l-.004 1.678c-.165-.002-.33 0-.495.006l.004-1.679c.165-.006.33-.008.495-.005"/>
      <path fill="#9C9C9C" d="M208.919 98.119l-.004 1.679c-.181.007-.36.019-.54.037l.005-1.679c.179-.018.358-.031.539-.037"/>
      <path fill="#A1A1A1" d="M208.38 98.155l-.005 1.679a8.6 8.6 0 0 0-.647.087l.004-1.679c.213-.036.43-.066.648-.087"/>
      <path fill="#A6A6A6" d="M207.731 98.243l-.004 1.679a7.765 7.765 0 0 0-1.103.274l.005-1.679a7.751 7.751 0 0 1 1.102-.274"/>
      <path fill="#AAAAAA" d="M206.63 98.517l-.005 1.679a6.044 6.044 0 0 0-.65.256l.004-1.678a5.676 5.676 0 0 1 .651-.257"/>
      <path fill="#A6A6A6" d="M205.979 98.773l-.004 1.678a4.47 4.47 0 0 0-.813.479l.004-1.678a4.54 4.54 0 0 1 .813-.479"/>
      <path fill="#A1A1A1" d="M205.166 99.252l-.004 1.678a3.123 3.123 0 0 0-.356.309l.005-1.679c.105-.106.223-.209.355-.308"/>
      <path fill="#9C9C9C" d="M204.811 99.56l-.005 1.679a2.385 2.385 0 0 0-.232.269l.004-1.679c.068-.092.146-.182.233-.269"/>
      <path fill="#989898" d="M204.577 99.829l-.004 1.679a2.174 2.174 0 0 0-.166.255l.004-1.679c.048-.086.104-.171.166-.255"/>
      <path fill="#939393" d="M204.411 100.084l-.004 1.679a1.915 1.915 0 0 0-.114.25l.004-1.679c.031-.084.069-.167.114-.25"/>
      <path fill="#8F8F8F" d="M204.297 100.334l-.004 1.679c-.03.083-.054.166-.07.25l.004-1.679c.016-.084.04-.167.07-.25"/>
      <path fill="#8A8A8A" d="M204.227 100.583l-.004 1.679c-.018.085-.027.17-.029.256l.004-1.679c.002-.085.012-.171.029-.256"/>
      <path fill="#858585" d="M204.197 100.84l-.004 1.679-.001.038.005-1.679v-.038"/>
    </g>
  </g>
  <g>
    <defs>
      <path id="O" d="M129.673 104.082l-.004 1.679c.001-.486-.254-.977-.789-1.41-1.442-1.167-4.34-1.481-6.49-.698-1.327.483-2.044 1.276-2.046 2.088l.004-1.678c.002-.812.719-1.605 2.046-2.088 2.15-.783 5.048-.469 6.49.698.534.432.79.923.789 1.409z"/>
    </defs>
    <clipPath id="P">
      <use xlink:href="#O" overflow="visible"/>
    </clipPath>
    <g clip-path="url(#P)">
      <path fill="#787878" d="M129.673 104.082l-.004 1.679c.001-.486-.254-.977-.789-1.41a4.278 4.278 0 0 0-1.093-.625l.004-1.679c.416.168.787.378 1.093.625.534.433.79.924.789 1.41"/>
      <path fill="#7C7C7C" d="M127.791 102.047l-.004 1.679a6.131 6.131 0 0 0-.526-.185l.004-1.679c.181.055.357.117.526.185"/>
      <path fill="#818181" d="M127.265 101.862l-.004 1.679a7.485 7.485 0 0 0-.453-.12l.004-1.679c.154.036.305.076.453.12"/>
      <path fill="#858585" d="M126.812 101.743l-.004 1.679a8.097 8.097 0 0 0-.428-.085l.004-1.678c.144.024.287.052.428.084"/>
      <path fill="#8A8A8A" d="M126.384 101.658l-.004 1.678a8.082 8.082 0 0 0-.418-.059l.004-1.679c.14.017.28.037.418.06"/>
      <path fill="#8F8F8F" d="M125.965 101.599l-.004 1.679a9.54 9.54 0 0 0-.418-.038l.004-1.679c.141.009.28.022.418.038"/>
      <path fill="#939393" d="M125.547 101.561l-.004 1.679a8.736 8.736 0 0 0-.429-.017l.004-1.678c.143.001.286.007.429.016"/>
      <path fill="#989898" d="M125.117 101.544l-.004 1.678c-.151-.002-.302 0-.453.006l.004-1.679a9.79 9.79 0 0 1 .453-.005"/>
      <path fill="#9C9C9C" d="M124.664 101.55l-.004 1.679c-.165.006-.33.017-.494.033l.004-1.679c.164-.016.329-.027.494-.033"/>
      <path fill="#A1A1A1" d="M124.17 101.583l-.004 1.679c-.2.02-.398.046-.594.08l.004-1.678a7.78 7.78 0 0 1 .594-.081"/>
      <path fill="#A6A6A6" d="M123.576 101.664l-.004 1.678a7.246 7.246 0 0 0-1.013.252l.004-1.678a6.977 6.977 0 0 1 1.013-.252"/>
      <path fill="#AAAAAA" d="M122.563 101.916l-.004 1.678-.169.059c-.15.055-.293.114-.428.176l.004-1.679c.135-.062.277-.121.427-.176.057-.02.113-.04.17-.058"/>
      <path fill="#A6A6A6" d="M121.966 102.15l-.004 1.679c-.282.131-.53.277-.74.436l.004-1.679c.211-.159.458-.305.74-.436"/>
      <path fill="#A1A1A1" d="M121.226 102.585l-.004 1.679c-.12.089-.227.183-.323.279l.004-1.679a3.12 3.12 0 0 1 .323-.279"/>
      <path fill="#9C9C9C" d="M120.903 102.865l-.004 1.679c-.078.079-.148.16-.21.243l.004-1.679c.061-.083.132-.164.21-.243"/>
      <path fill="#989898" d="M120.692 103.107l-.004 1.679a1.973 1.973 0 0 0-.15.231l.004-1.679a2.21 2.21 0 0 1 .15-.231"/>
      <path fill="#939393" d="M120.542 103.339l-.004 1.679c-.041.074-.076.15-.104.227l.004-1.679c.029-.077.063-.152.104-.227"/>
      <path fill="#8F8F8F" d="M120.439 103.565l-.004 1.679a1.434 1.434 0 0 0-.064.228l.004-1.679c.015-.077.036-.152.064-.228"/>
      <path fill="#8A8A8A" d="M120.375 103.793l-.004 1.679a1.33 1.33 0 0 0-.026.234l.004-1.678c.001-.079.01-.157.026-.235"/>
      <path fill="#858585" d="M120.348 104.027l-.004 1.678v.035l.004-1.678v-.035"/>
    </g>
  </g>
  <g>
    <defs>
      <path id="Q" d="M220.544 101.707l-.005 1.679c-.005 2.109-1.22 3.804-3.771 4.732-3.084 1.123-7.002.703-11.566-.601-4.573-1.302-8.513-3.966-12.366-7.086l.004-1.679c3.854 3.12 7.793 5.784 12.366 7.086 4.565 1.304 8.482 1.724 11.566.601 2.551-.929 3.766-2.624 3.772-4.732z"/>
    </defs>
    <clipPath id="R">
      <use xlink:href="#Q" overflow="visible"/>
    </clipPath>
    <g clip-path="url(#R)">
      <path fill="#858585" d="M220.544 101.707l-.005 1.679c0 .046 0 .092-.002.137l.005-1.679.002-.137"/>
      <path fill="#8A8A8A" d="M220.542 101.844l-.005 1.679a4.996 4.996 0 0 1-.091.829l.004-1.679c.053-.268.083-.545.092-.829"/>
      <path fill="#8F8F8F" d="M220.45 102.672l-.004 1.679c-.047.233-.11.46-.191.68l.005-1.678c.081-.22.144-.447.19-.681"/>
      <path fill="#939393" d="M220.26 103.353l-.005 1.678c-.073.2-.161.394-.264.581l.004-1.679c.103-.187.191-.381.265-.58"/>
      <path fill="#989898" d="M219.995 103.933l-.004 1.679c-.099.18-.211.354-.336.521l.004-1.679c.126-.167.237-.341.336-.521"/>
      <path fill="#9C9C9C" d="M219.659 104.454l-.004 1.679a4.508 4.508 0 0 1-.43.495l.005-1.679c.158-.158.3-.323.429-.495"/>
      <path fill="#A1A1A1" d="M219.23 104.949l-.005 1.679a5.276 5.276 0 0 1-.59.51l.005-1.679c.215-.16.412-.331.59-.51"/>
      <path fill="#A6A6A6" d="M218.641 105.459l-.005 1.679a6.805 6.805 0 0 1-1.38.786l.004-1.679c.524-.227.984-.49 1.381-.786"/>
      <path fill="#AAAAAA" d="M217.26 106.245l-.004 1.679a9.537 9.537 0 0 1-.746.284l.004-1.679a8.7 8.7 0 0 0 .746-.284"/>
      <path fill="#A6A6A6" d="M216.514 106.529l-.004 1.679c-.479.158-.977.281-1.492.371l.004-1.679c.516-.09 1.013-.212 1.492-.371"/>
      <path fill="#A1A1A1" d="M215.021 106.9l-.004 1.679c-.296.051-.597.092-.904.122l.004-1.678c.308-.031.61-.072.904-.123"/>
      <path fill="#9C9C9C" d="M214.117 107.022l-.004 1.678c-.269.026-.542.045-.819.055l.004-1.678c.277-.011.551-.029.819-.055"/>
      <path fill="#989898" d="M213.298 107.077l-.004 1.678c-.272.01-.55.014-.831.009l.004-1.679c.281.005.558.002.831-.008"/>
      <path fill="#939393" d="M212.467 107.086l-.004 1.679a18.448 18.448 0 0 1-.899-.036l.005-1.679c.303.02.603.032.898.036"/>
      <path fill="#8F8F8F" d="M211.568 107.05l-.005 1.679a20.873 20.873 0 0 1-1.05-.095l.005-1.678c.356.04.706.072 1.05.094"/>
      <path fill="#8A8A8A" d="M210.519 106.955l-.005 1.678a24.827 24.827 0 0 1-1.301-.186l.005-1.679c.441.076.875.138 1.301.187"/>
      <path fill="#858585" d="M209.218 106.769l-.005 1.679a32.27 32.27 0 0 1-1.798-.359l.005-1.679c.612.14 1.212.26 1.798.359"/>
      <path fill="#818181" d="M207.42 106.41l-.005 1.679a43.169 43.169 0 0 1-2.214-.572c-.111-.032-.223-.064-.334-.098l.005-1.679.333.098c.756.216 1.495.408 2.215.572"/>
      <path fill="#7C7C7C" d="M204.872 105.74l-.005 1.679c-.71-.214-1.405-.46-2.088-.737l.005-1.678c.682.276 1.377.522 2.088.736"/>
      <path fill="#787878" d="M202.784 105.004l-.005 1.678c-3.573-1.445-6.788-3.696-9.944-6.251l.004-1.679c3.157 2.556 6.372 4.806 9.945 6.252"/>
    </g>
  </g>
  <g>
    <defs>
      <path id="S" d="M119.287 107.864l-.004 1.679c.001-.486-.255-.978-.79-1.411-1.442-1.167-4.34-1.481-6.483-.701-1.329.484-2.049 1.279-2.051 2.093l.004-1.679c.002-.813.722-1.609 2.051-2.093 2.143-.78 5.041-.467 6.482.701.536.433.792.925.791 1.411z"/>
    </defs>
    <clipPath id="T">
      <use xlink:href="#S" overflow="visible"/>
    </clipPath>
    <g clip-path="url(#T)">
      <path fill="#787878" d="M119.287 107.864l-.004 1.679c.001-.486-.255-.978-.79-1.411a4.317 4.317 0 0 0-1.094-.626l.004-1.678c.416.168.788.377 1.093.625.536.433.792.925.791 1.411"/>
      <path fill="#7C7C7C" d="M117.403 105.828l-.004 1.678a6.277 6.277 0 0 0-.527-.185l.004-1.679c.182.055.358.117.527.186"/>
      <path fill="#818181" d="M116.876 105.643l-.004 1.679a7.686 7.686 0 0 0-.453-.12l.004-1.679c.155.036.306.075.453.12"/>
      <path fill="#858585" d="M116.423 105.523l-.004 1.679a7.394 7.394 0 0 0-.429-.085l.004-1.679c.146.024.289.053.429.085"/>
      <path fill="#8A8A8A" d="M115.995 105.438l-.004 1.679a8.082 8.082 0 0 0-.418-.059l.004-1.679c.14.016.279.036.418.059"/>
      <path fill="#8F8F8F" d="M115.576 105.379l-.004 1.679a8.317 8.317 0 0 0-.418-.038l.004-1.679c.14.01.28.022.418.038"/>
      <path fill="#939393" d="M115.157 105.341l-.004 1.679a8.777 8.777 0 0 0-.43-.017l.004-1.679c.145.002.288.008.43.017"/>
      <path fill="#989898" d="M114.728 105.324l-.004 1.679a9.79 9.79 0 0 0-.453.005l.004-1.679c.151-.005.302-.007.453-.005"/>
      <path fill="#9C9C9C" d="M114.275 105.33l-.004 1.679a8.105 8.105 0 0 0-.493.034l.004-1.679c.164-.017.328-.028.493-.034"/>
      <path fill="#A1A1A1" d="M113.782 105.363l-.004 1.679a7.82 7.82 0 0 0-.593.08l.004-1.679c.196-.034.394-.06.593-.08"/>
      <path fill="#A6A6A6" d="M113.189 105.443l-.004 1.679a7.02 7.02 0 0 0-1.009.251l.004-1.678a7.021 7.021 0 0 1 1.009-.252"/>
      <path fill="#AAAAAA" d="M112.18 105.695l-.004 1.678a5.449 5.449 0 0 0-.594.234l.004-1.679a5.684 5.684 0 0 1 .594-.233"/>
      <path fill="#A6A6A6" d="M111.586 105.928l-.004 1.679a4.079 4.079 0 0 0-.742.437l.004-1.679c.211-.159.459-.305.742-.437"/>
      <path fill="#A1A1A1" d="M110.844 106.365l-.004 1.679c-.12.09-.228.184-.324.28l.004-1.679c.096-.097.204-.19.324-.28"/>
      <path fill="#9C9C9C" d="M110.52 106.645l-.004 1.679a2.243 2.243 0 0 0-.211.244l.004-1.679c.062-.083.132-.164.211-.244"/>
      <path fill="#989898" d="M110.309 106.889l-.004 1.679a1.903 1.903 0 0 0-.15.232l.004-1.679a1.79 1.79 0 0 1 .15-.232"/>
      <path fill="#939393" d="M110.158 107.121l-.004 1.679a1.656 1.656 0 0 0-.104.228l.004-1.679c.029-.078.063-.153.104-.228"/>
      <path fill="#8F8F8F" d="M110.054 107.348l-.004 1.679a1.548 1.548 0 0 0-.064.228l.004-1.679c.015-.076.036-.153.064-.228"/>
      <path fill="#8A8A8A" d="M109.99 107.576l-.004 1.679a1.432 1.432 0 0 0-.026.234l.004-1.679c.001-.078.01-.156.026-.234"/>
      <path fill="#858585" d="M109.963 107.811l-.004 1.679v.035l.004-1.679v-.035"/>
    </g>
  </g>
  <g>
    <defs>
      <path id="U" d="M107.743 112.067l-.004 1.679c.001-.486-.254-.979-.791-1.413-1.442-1.167-4.34-1.48-6.468-.706-1.34.488-2.064 1.286-2.066 2.101l.004-1.679c.002-.815.726-1.613 2.065-2.101 2.128-.775 5.026-.462 6.468.706.537.435.793.927.792 1.413z"/>
    </defs>
    <clipPath id="V">
      <use xlink:href="#U" overflow="visible"/>
    </clipPath>
    <g clip-path="url(#V)">
      <path fill="#787878" d="M107.743 112.067l-.004 1.679c.001-.486-.254-.979-.791-1.413a4.317 4.317 0 0 0-1.094-.626l.004-1.678c.416.168.788.378 1.094.626.536.434.792.926.791 1.412"/>
      <path fill="#7C7C7C" d="M105.858 110.029l-.004 1.678a6.3 6.3 0 0 0-.528-.185l.004-1.679c.183.055.359.117.528.186"/>
      <path fill="#818181" d="M105.33 109.844l-.004 1.679a7.72 7.72 0 0 0-.454-.12l.004-1.679c.155.035.307.075.454.12"/>
      <path fill="#858585" d="M104.876 109.724l-.004 1.679a7.428 7.428 0 0 0-.43-.085l.004-1.679c.146.025.29.053.43.085"/>
      <path fill="#8A8A8A" d="M104.447 109.639l-.004 1.679a8.121 8.121 0 0 0-.419-.059l.004-1.679c.141.016.281.036.419.059"/>
      <path fill="#8F8F8F" d="M104.028 109.58l-.004 1.679a8.25 8.25 0 0 0-.419-.038l.004-1.679c.141.009.28.021.419.038"/>
      <path fill="#939393" d="M103.609 109.542l-.004 1.679a8.736 8.736 0 0 0-.429-.017l.004-1.679c.143.002.286.008.429.017"/>
      <path fill="#989898" d="M103.18 109.525l-.004 1.679c-.15-.002-.301 0-.452.005l.004-1.679c.15-.006.301-.007.452-.005"/>
      <path fill="#9C9C9C" d="M102.728 109.53l-.004 1.679a8.925 8.925 0 0 0-.491.033l.004-1.679c.163-.015.327-.026.491-.033"/>
      <path fill="#A1A1A1" d="M102.237 109.563l-.004 1.679c-.198.02-.395.046-.589.08l.004-1.679c.194-.034.391-.06.589-.08"/>
      <path fill="#A6A6A6" d="M101.647 109.643l-.004 1.679c-.344.06-.679.142-.998.249l.004-1.679c.32-.106.655-.189.998-.249"/>
      <path fill="#AAAAAA" d="M100.65 109.892l-.004 1.679c-.056.018-.111.038-.165.057a5.846 5.846 0 0 0-.434.178l.004-1.679a5.42 5.42 0 0 1 .599-.235"/>
      <path fill="#A6A6A6" d="M100.051 110.127l-.004 1.679a4.12 4.12 0 0 0-.749.44l.004-1.679c.213-.16.464-.308.749-.44"/>
      <path fill="#A1A1A1" d="M99.302 110.567l-.004 1.679c-.121.09-.229.184-.325.281l.004-1.679c.097-.097.205-.19.325-.281"/>
      <path fill="#9C9C9C" d="M98.977 110.849l-.004 1.679c-.079.08-.15.161-.212.245l.004-1.679c.063-.084.133-.166.212-.245"/>
      <path fill="#989898" d="M98.765 111.093l-.004 1.679a1.983 1.983 0 0 0-.15.232l.004-1.679c.043-.078.093-.156.15-.232"/>
      <path fill="#939393" d="M98.614 111.326l-.004 1.679c-.041.075-.076.15-.104.227l.004-1.679c.029-.076.063-.153.104-.227"/>
      <path fill="#8F8F8F" d="M98.51 111.553l-.004 1.679a1.548 1.548 0 0 0-.064.228l.004-1.678c.015-.078.036-.154.064-.229"/>
      <path fill="#8A8A8A" d="M98.446 111.781l-.004 1.678a1.432 1.432 0 0 0-.026.234l.004-1.679a1.32 1.32 0 0 1 .026-.233"/>
      <path fill="#858585" d="M98.419 112.015l-.004 1.679v.035l.004-1.679v-.035"/>
    </g>
  </g>
  <g>
    <defs>
      <path id="W" d="M96.788 116.052l-.004 1.679c.001-.486-.255-.977-.789-1.41-1.442-1.167-4.34-1.48-6.491-.698-1.329.484-2.049 1.28-2.051 2.093l.004-1.678c.002-.814.722-1.61 2.051-2.094 2.151-.783 5.049-.47 6.491.698.534.433.79.924.789 1.41z"/>
    </defs>
    <clipPath id="X">
      <use xlink:href="#W" overflow="visible"/>
    </clipPath>
    <g clip-path="url(#X)">
      <path fill="#787878" d="M96.788 116.052l-.004 1.678c.001-.486-.255-.977-.789-1.41a4.278 4.278 0 0 0-1.093-.625l.004-1.679c.416.168.787.377 1.093.625.534.434.79.925.789 1.411"/>
      <path fill="#7C7C7C" d="M94.905 114.017l-.004 1.679a6.131 6.131 0 0 0-.526-.185l.004-1.678c.182.054.357.116.526.184"/>
      <path fill="#818181" d="M94.379 113.833l-.004 1.678a6.812 6.812 0 0 0-.453-.119l.004-1.679c.155.035.305.075.453.12"/>
      <path fill="#858585" d="M93.926 113.713l-.004 1.679a7.197 7.197 0 0 0-.428-.085l.004-1.679c.145.024.288.053.428.085"/>
      <path fill="#8A8A8A" d="M93.498 113.628l-.004 1.679a8.082 8.082 0 0 0-.418-.059l.004-1.679c.141.016.28.036.418.059"/>
      <path fill="#8F8F8F" d="M93.08 113.569l-.004 1.679a8.212 8.212 0 0 0-.418-.038l.004-1.679c.14.009.279.022.418.038"/>
      <path fill="#939393" d="M92.661 113.531l-.004 1.679a8.736 8.736 0 0 0-.429-.017l.004-1.679c.143.003.287.008.429.017"/>
      <path fill="#989898" d="M92.231 113.514l-.004 1.679c-.151-.002-.302 0-.453.005l.004-1.679c.152-.005.303-.007.453-.005"/>
      <path fill="#9C9C9C" d="M91.778 113.52l-.004 1.679c-.165.006-.33.018-.495.034l.004-1.679a7.48 7.48 0 0 1 .495-.034"/>
      <path fill="#A1A1A1" d="M91.284 113.553l-.004 1.679c-.2.02-.398.046-.594.08l.004-1.678c.196-.034.394-.061.594-.081"/>
      <path fill="#A6A6A6" d="M90.69 113.634l-.004 1.678a7.246 7.246 0 0 0-1.013.252l.004-1.679a7.107 7.107 0 0 1 1.013-.251"/>
      <path fill="#AAAAAA" d="M89.677 113.886l-.004 1.679c-.057.019-.114.038-.169.059-.15.055-.293.113-.428.176l.004-1.679a5.834 5.834 0 0 1 .597-.235"/>
      <path fill="#A6A6A6" d="M89.08 114.12l-.004 1.679a4.123 4.123 0 0 0-.743.437l.004-1.679c.212-.159.46-.306.743-.437"/>
      <path fill="#A1A1A1" d="M88.337 114.557l-.004 1.679c-.12.09-.228.184-.323.28l.004-1.679c.096-.097.204-.191.323-.28"/>
      <path fill="#9C9C9C" d="M88.014 114.837l-.004 1.679a2.243 2.243 0 0 0-.211.244l.004-1.679c.062-.083.132-.164.211-.244"/>
      <path fill="#989898" d="M87.802 115.081l-.004 1.679a2.133 2.133 0 0 0-.151.232l.004-1.678c.044-.08.094-.157.151-.233"/>
      <path fill="#939393" d="M87.652 115.313l-.004 1.678a1.656 1.656 0 0 0-.104.228l.004-1.679c.028-.077.063-.152.104-.227"/>
      <path fill="#8F8F8F" d="M87.548 115.54l-.004 1.679a1.434 1.434 0 0 0-.064.228l.004-1.679c.015-.077.036-.152.064-.228"/>
      <path fill="#8A8A8A" d="M87.483 115.768l-.004 1.679a1.33 1.33 0 0 0-.026.234l.004-1.678c.002-.079.011-.157.026-.235"/>
      <path fill="#858585" d="M87.457 116.003l-.004 1.678v.035l.004-1.678v-.035"/>
    </g>
  </g>
  <g>
    <defs>
      <path id="Y" d="M86.4 119.833l-.004 1.679c.001-.486-.254-.977-.79-1.41-1.441-1.167-4.339-1.48-6.49-.698-1.327.483-2.044 1.276-2.046 2.088l.004-1.679c.002-.812.719-1.604 2.046-2.088 2.151-.783 5.048-.47 6.49.698.536.433.791.924.79 1.41z"/>
    </defs>
    <clipPath id="Z">
      <use xlink:href="#Y" overflow="visible"/>
    </clipPath>
    <g clip-path="url(#Z)">
      <path fill="#787878" d="M86.4 119.833l-.004 1.679c.001-.486-.254-.977-.79-1.41a4.278 4.278 0 0 0-1.093-.625l.004-1.679c.416.168.788.377 1.093.625.536.433.791.924.79 1.41"/>
      <path fill="#7C7C7C" d="M84.518 117.798l-.004 1.679a6.382 6.382 0 0 0-.526-.185l.004-1.678c.181.054.357.115.526.184"/>
      <path fill="#818181" d="M83.991 117.613l-.004 1.678a6.812 6.812 0 0 0-.453-.119l.004-1.679c.155.036.306.076.453.12"/>
      <path fill="#858585" d="M83.539 117.494l-.004 1.679a7.53 7.53 0 0 0-.428-.085l.004-1.679c.144.024.287.052.428.085"/>
      <path fill="#8A8A8A" d="M83.11 117.409l-.004 1.679a8.24 8.24 0 0 0-.418-.059l.004-1.679c.141.016.281.036.418.059"/>
      <path fill="#8F8F8F" d="M82.692 117.35l-.004 1.679a8.317 8.317 0 0 0-.418-.038l.004-1.679c.14.009.28.021.418.038"/>
      <path fill="#939393" d="M82.273 117.312l-.004 1.679a8.777 8.777 0 0 0-.43-.017l.004-1.679c.145.002.288.008.43.017"/>
      <path fill="#989898" d="M81.844 117.295l-.004 1.679c-.151-.002-.302 0-.453.005l.004-1.679c.151-.006.302-.007.453-.005"/>
      <path fill="#9C9C9C" d="M81.391 117.3l-.004 1.679c-.165.006-.33.018-.494.034l.004-1.679c.164-.016.329-.027.494-.034"/>
      <path fill="#A1A1A1" d="M80.896 117.334l-.004 1.679c-.2.02-.398.046-.595.08l.004-1.678c.197-.035.396-.061.595-.081"/>
      <path fill="#A6A6A6" d="M80.302 117.415l-.004 1.678a7.138 7.138 0 0 0-1.015.253l.004-1.678a6.846 6.846 0 0 1 1.015-.253"/>
      <path fill="#AAAAAA" d="M79.287 117.667l-.004 1.678-.167.058c-.15.055-.292.113-.427.175l.004-1.679a5.27 5.27 0 0 1 .427-.175l.167-.057"/>
      <path fill="#A6A6A6" d="M78.694 117.9l-.004 1.679c-.283.131-.53.277-.741.436l.004-1.678c.211-.159.458-.306.741-.437"/>
      <path fill="#A1A1A1" d="M77.953 118.336l-.004 1.678c-.119.09-.227.183-.323.28l.004-1.679c.096-.096.203-.189.323-.279"/>
      <path fill="#9C9C9C" d="M77.63 118.616l-.004 1.679c-.078.079-.148.16-.21.243l.004-1.679c.061-.083.132-.164.21-.243"/>
      <path fill="#989898" d="M77.419 118.858l-.004 1.679a1.973 1.973 0 0 0-.15.231l.004-1.679a2.11 2.11 0 0 1 .15-.231"/>
      <path fill="#939393" d="M77.27 119.09l-.004 1.679c-.041.074-.076.15-.104.227l.004-1.679c.028-.077.063-.153.104-.227"/>
      <path fill="#8F8F8F" d="M77.166 119.316l-.004 1.679a1.57 1.57 0 0 0-.064.227l.004-1.678c.014-.077.036-.152.064-.228"/>
      <path fill="#8A8A8A" d="M77.101 119.544l-.004 1.678a1.432 1.432 0 0 0-.026.234l.004-1.678c.002-.078.011-.156.026-.234"/>
      <path fill="#858585" d="M77.075 119.778l-.004 1.678v.035l.004-1.679a.193.193 0 0 1 0-.034"/>
    </g>
  </g>
  <g>
    <defs>
      <path id="aa" d="M74.281 124.245l-.004 1.679c.001-.486-.255-.978-.79-1.411-1.442-1.167-4.339-1.481-6.483-.701-1.329.484-2.049 1.279-2.051 2.093l.004-1.678c.002-.814.722-1.61 2.052-2.094 2.143-.78 5.041-.467 6.483.701.535.434.791.925.789 1.411z"/>
    </defs>
    <clipPath id="ab">
      <use xlink:href="#aa" overflow="visible"/>
    </clipPath>
    <g clip-path="url(#ab)">
      <path fill="#787878" d="M74.281 124.245l-.004 1.679c.001-.486-.255-.978-.79-1.411a4.287 4.287 0 0 0-1.094-.626l.004-1.678c.416.168.788.377 1.094.625.536.434.792.925.79 1.411"/>
      <path fill="#7C7C7C" d="M72.398 122.209l-.004 1.678a6.154 6.154 0 0 0-.527-.185l.004-1.679c.182.056.358.118.527.186"/>
      <path fill="#818181" d="M71.871 122.024l-.004 1.679a7.485 7.485 0 0 0-.453-.12l.004-1.679c.154.035.306.075.453.12"/>
      <path fill="#858585" d="M71.418 121.904l-.004 1.679a7.394 7.394 0 0 0-.429-.085l.004-1.679c.145.025.288.053.429.085"/>
      <path fill="#8A8A8A" d="M70.989 121.819l-.004 1.679a9.384 9.384 0 0 0-.419-.06l.004-1.678c.142.016.282.036.419.059"/>
      <path fill="#8F8F8F" d="M70.571 121.76l-.004 1.678a8.212 8.212 0 0 0-.418-.037l.004-1.679c.139.009.279.022.418.038"/>
      <path fill="#939393" d="M70.152 121.723l-.004 1.679a8.786 8.786 0 0 0-.429-.017l.004-1.679c.143.002.287.007.429.017"/>
      <path fill="#989898" d="M69.723 121.706l-.004 1.679c-.151-.002-.302 0-.453.005l.004-1.679c.151-.006.302-.007.453-.005"/>
      <path fill="#9C9C9C" d="M69.27 121.711l-.004 1.679c-.165.006-.33.018-.493.033l.004-1.678c.164-.016.328-.028.493-.034"/>
      <path fill="#A1A1A1" d="M68.777 121.745l-.004 1.678c-.199.02-.397.046-.593.08l.004-1.678a7.82 7.82 0 0 1 .593-.08"/>
      <path fill="#A6A6A6" d="M68.185 121.825l-.004 1.678a7.154 7.154 0 0 0-1.009.251l.004-1.679c.323-.107.661-.19 1.009-.25"/>
      <path fill="#AAAAAA" d="M67.175 122.076l-.004 1.679-.167.058a5.712 5.712 0 0 0-.429.176l.004-1.678a5.32 5.32 0 0 1 .429-.177c.056-.02.111-.04.167-.058"/>
      <path fill="#A6A6A6" d="M66.58 122.311l-.004 1.678c-.283.131-.53.278-.741.436l.004-1.679c.21-.158.458-.305.741-.435"/>
      <path fill="#A1A1A1" d="M65.838 122.746l-.004 1.679c-.12.09-.228.184-.324.28l.004-1.679c.096-.096.205-.19.324-.28"/>
      <path fill="#9C9C9C" d="M65.515 123.026l-.004 1.679a2.243 2.243 0 0 0-.211.244l.004-1.679c.062-.083.132-.164.211-.244"/>
      <path fill="#989898" d="M65.303 123.27l-.004 1.679a1.983 1.983 0 0 0-.15.232l.004-1.678c.043-.079.093-.157.15-.233"/>
      <path fill="#939393" d="M65.153 123.502l-.004 1.678a1.656 1.656 0 0 0-.104.228l.004-1.679a1.7 1.7 0 0 1 .104-.227"/>
      <path fill="#8F8F8F" d="M65.049 123.729l-.004 1.679a1.434 1.434 0 0 0-.064.228l.004-1.679a1.39 1.39 0 0 1 .064-.228"/>
      <path fill="#8A8A8A" d="M64.984 123.958l-.004 1.679a1.33 1.33 0 0 0-.026.234l.004-1.678a1.42 1.42 0 0 1 .026-.235"/>
      <path fill="#858585" d="M64.958 124.192l-.004 1.678v.035l.004-1.678a.204.204 0 0 1 0-.035"/>
    </g>
  </g>
  <g>
    <defs>
      <path id="ac" d="M63.896 128.028l-.004 1.678c.001-.486-.256-.979-.792-1.412-1.442-1.168-4.333-1.483-6.483-.701-1.33.484-2.05 1.28-2.052 2.093l.004-1.679c.002-.813.722-1.609 2.051-2.093 2.15-.783 5.041-.467 6.483.701.538.434.794.926.793 1.413z"/>
    </defs>
    <clipPath id="ad">
      <use xlink:href="#ac" overflow="visible"/>
    </clipPath>
    <g clip-path="url(#ad)">
      <path fill="#787878" d="M63.896 128.028l-.004 1.678c.001-.486-.256-.979-.792-1.412a4.309 4.309 0 0 0-1.097-.627l.004-1.679c.417.169.79.379 1.096.627.538.434.794.926.793 1.413"/>
      <path fill="#7C7C7C" d="M62.008 125.988l-.004 1.679a6.277 6.277 0 0 0-.527-.185l.004-1.679c.182.054.358.116.527.185"/>
      <path fill="#818181" d="M61.48 125.803l-.004 1.679a6.947 6.947 0 0 0-.452-.119l.004-1.679c.155.035.305.074.452.119"/>
      <path fill="#858585" d="M61.029 125.684l-.004 1.679a7.197 7.197 0 0 0-.428-.085l.004-1.679c.145.024.287.052.428.085"/>
      <path fill="#8A8A8A" d="M60.601 125.599l-.004 1.679a8.082 8.082 0 0 0-.418-.059l.004-1.679c.141.016.28.035.418.059"/>
      <path fill="#8F8F8F" d="M60.183 125.54l-.004 1.679a9.494 9.494 0 0 0-.417-.038l.004-1.679c.14.009.279.021.417.038"/>
      <path fill="#939393" d="M59.766 125.502l-.004 1.679a8.696 8.696 0 0 0-.428-.017l.004-1.679c.143.002.286.008.428.017"/>
      <path fill="#989898" d="M59.337 125.485l-.004 1.679c-.15-.002-.301 0-.452.005l.004-1.679c.152-.005.303-.007.452-.005"/>
      <path fill="#9C9C9C" d="M58.886 125.491l-.004 1.679a8.018 8.018 0 0 0-.492.033l.004-1.679c.163-.016.328-.027.492-.033"/>
      <path fill="#A1A1A1" d="M58.394 125.524l-.004 1.679c-.199.02-.397.046-.593.08l.004-1.679c.196-.034.393-.061.593-.08"/>
      <path fill="#A6A6A6" d="M57.801 125.604l-.004 1.679a7.246 7.246 0 0 0-1.013.252l.004-1.679a7.246 7.246 0 0 1 1.013-.252"/>
      <path fill="#AAAAAA" d="M56.788 125.856l-.004 1.679a5.712 5.712 0 0 0-.595.234l.004-1.679a5.09 5.09 0 0 1 .428-.176l.167-.058"/>
      <path fill="#A6A6A6" d="M56.193 126.091l-.004 1.679a4.077 4.077 0 0 0-.742.436l.004-1.679c.211-.158.459-.305.742-.436"/>
      <path fill="#A1A1A1" d="M55.451 126.527l-.004 1.679c-.12.09-.228.184-.324.28l.004-1.679c.097-.097.205-.19.324-.28"/>
      <path fill="#9C9C9C" d="M55.127 126.807l-.004 1.679c-.079.08-.149.161-.211.244l.004-1.679c.063-.083.133-.164.211-.244"/>
      <path fill="#989898" d="M54.916 127.051l-.004 1.679a1.903 1.903 0 0 0-.15.232l.004-1.678c.043-.079.093-.157.15-.233"/>
      <path fill="#939393" d="M54.766 127.283l-.004 1.679c-.041.075-.076.15-.104.227l.004-1.679a1.7 1.7 0 0 1 .104-.227"/>
      <path fill="#8F8F8F" d="M54.662 127.51l-.004 1.679a1.434 1.434 0 0 0-.064.228l.004-1.679a1.39 1.39 0 0 1 .064-.228"/>
      <path fill="#8A8A8A" d="M54.597 127.738l-.004 1.679a1.33 1.33 0 0 0-.026.234l.004-1.679c.002-.077.011-.156.026-.234"/>
      <path fill="#858585" d="M54.57 127.973l-.004 1.679v.035l.004-1.679v-.035"/>
    </g>
  </g>
  <g>
    <path fill="#B4B4B4" d="M189.474 96.026l-.005 1.679-126.371 38.002.004-1.679z"/>
  </g>
  <g>
    <path fill="#C3C3C3" d="M259.731 48.689c4.466-1.625 10.702-.817 13.952 1.814 3.225 2.612 2.244 6.059-2.222 7.684l-61.48 30.097 3.602 2.917c7.707 6.24 9.371 12.987 3.188 15.238-3.084 1.123-7.001.703-11.566-.601-4.573-1.302-8.513-3.966-12.366-7.086l-3.365-2.726-126.372 38.002c-4.45 1.62-11.31 1.026-14.535-1.585-3.25-2.632-1.848-6.221 2.595-7.838l109.339-52.04-3.763-3.046c-7.722-6.253-9.757-12.853-3.574-15.104 3.084-1.123 6.617-.575 11.19.727 4.575 1.313 9.274 3.706 13.128 6.826l4.039 3.271 78.21-16.55zM196.03 91.476c9.998-3.639 12.65-11.002 5.923-16.449-6.727-5.447-20.285-6.916-30.283-3.276-9.999 3.639-12.652 11.009-5.926 16.456 6.727 5.446 20.287 6.908 30.286 3.269m-32.67-27.787c-2.322.845-2.956 2.567-1.394 3.833 1.573 1.273 4.743 1.605 7.065.76 2.337-.851 2.96-2.563 1.388-3.837-1.562-1.265-4.722-1.607-7.059-.756m41.773 33.825c2.337-.851 2.955-2.567 1.383-3.841-1.557-1.261-4.718-1.603-7.055-.752-2.322.845-2.955 2.568-1.397 3.829 1.572 1.273 4.747 1.609 7.069.764m6.988 5.659c2.337-.851 2.955-2.567 1.383-3.841-1.558-1.261-4.718-1.603-7.055-.752-2.322.845-2.955 2.567-1.397 3.829 1.572 1.273 4.747 1.609 7.069.764m-55.744-45.139c-2.322.846-2.96 2.563-1.397 3.829 1.572 1.273 4.742 1.605 7.064.76 2.337-.851 2.96-2.563 1.388-3.837-1.563-1.265-4.718-1.602-7.055-.752m-61.665 60.125c2.151-.783 2.718-2.357 1.286-3.516-1.442-1.168-4.34-1.481-6.491-.698-2.128.775-2.695 2.349-1.253 3.517 1.432 1.158 4.33 1.472 6.458.697m43.863-15.966c2.128-.775 2.695-2.349 1.263-3.508-1.442-1.167-4.339-1.481-6.468-.706-2.143.78-2.71 2.354-1.269 3.522 1.433 1.159 4.331 1.472 6.474.692m119.432-43.471c2.129-.775 2.695-2.349 1.264-3.508-1.441-1.167-4.34-1.481-6.468-.706-2.144.78-2.71 2.354-1.269 3.522 1.432 1.158 4.33 1.471 6.473.692M61.826 130.129c2.15-.783 2.71-2.354 1.278-3.514-1.442-1.167-4.333-1.483-6.483-.701-2.128.775-2.695 2.349-1.253 3.517 1.432 1.159 4.33 1.473 6.458.698m88.278-32.132c2.144-.78 2.71-2.354 1.278-3.514-1.442-1.167-4.34-1.48-6.482-.701-2.128.774-2.695 2.349-1.254 3.517 1.432 1.159 4.331 1.472 6.458.698m74.427-27.091c2.144-.78 2.71-2.354 1.278-3.514-1.441-1.167-4.34-1.48-6.482-.701-2.129.775-2.695 2.349-1.254 3.517 1.432 1.16 4.33 1.473 6.458.698M84.325 121.939c2.151-.783 2.717-2.357 1.286-3.517-1.442-1.167-4.339-1.48-6.49-.698-2.128.775-2.688 2.346-1.246 3.514 1.432 1.16 4.322 1.476 6.45.701m21.364-7.775c2.128-.775 2.695-2.349 1.264-3.508-1.442-1.168-4.34-1.481-6.468-.706-2.143.78-2.71 2.354-1.268 3.521 1.431 1.159 4.329 1.472 6.472.693m163.848-59.639c2.143-.78 2.71-2.354 1.278-3.514-1.442-1.167-4.34-1.481-6.483-.701-2.128.775-2.695 2.349-1.253 3.517 1.432 1.159 4.329 1.473 6.458.698M72.213 126.348c2.143-.78 2.71-2.354 1.278-3.514-1.442-1.167-4.34-1.481-6.483-.701-2.128.774-2.695 2.349-1.253 3.517 1.432 1.16 4.33 1.473 6.458.698m174.825-63.634c2.143-.78 2.71-2.354 1.278-3.514-1.442-1.167-4.34-1.481-6.483-.701-2.136.777-2.695 2.349-1.253 3.517 1.432 1.16 4.322 1.476 6.458.698m-119.44 43.474c2.15-.783 2.717-2.357 1.286-3.516-1.442-1.167-4.34-1.481-6.49-.698-2.128.775-2.688 2.346-1.246 3.514 1.432 1.159 4.322 1.475 6.45.7m-10.379 3.779c2.143-.78 2.709-2.354 1.278-3.514-1.442-1.167-4.339-1.481-6.482-.701-2.128.774-2.695 2.349-1.253 3.517 1.43 1.159 4.328 1.472 6.457.698M236.65 66.495c2.143-.78 2.71-2.354 1.278-3.514-1.442-1.167-4.34-1.48-6.483-.701-2.127.774-2.694 2.349-1.252 3.516 1.432 1.161 4.329 1.474 6.457.699m-22.506 8.192c2.15-.783 2.71-2.354 1.278-3.514-1.441-1.167-4.332-1.483-6.482-.701-2.128.774-2.694 2.349-1.253 3.517 1.431 1.159 4.33 1.473 6.457.698m-53.653 19.529c2.144-.78 2.71-2.354 1.278-3.514-1.441-1.167-4.34-1.48-6.482-.7-2.128.774-2.695 2.349-1.253 3.516 1.432 1.159 4.329 1.473 6.457.698"/>
  </g>
  <g>
    <defs>
      <path id="ae" d="M46.784 130.917l.004-1.679c-.002 1.1.562 2.219 1.779 3.205 3.225 2.611 10.084 3.205 14.535 1.585l-.004 1.678c-4.45 1.62-11.31 1.027-14.535-1.585-1.217-.985-1.782-2.104-1.779-3.204z"/>
    </defs>
    <clipPath id="af">
      <use xlink:href="#ae" overflow="visible"/>
    </clipPath>
    <g clip-path="url(#af)">
      <path fill="#AAAAAA" d="M63.102 134.028l-.004 1.678c-.102.037-.206.073-.31.108l.004-1.678c.104-.035.208-.071.31-.108"/>
      <path fill="#A6A6A6" d="M62.792 134.136l-.004 1.678c-.659.22-1.365.393-2.1.521l.004-1.678a14.65 14.65 0 0 0 2.1-.521"/>
      <path fill="#A1A1A1" d="M60.692 134.657l-.004 1.678c-.433.075-.875.135-1.325.179l.004-1.679a18.14 18.14 0 0 0 1.325-.178"/>
      <path fill="#9C9C9C" d="M59.367 134.835l-.004 1.679c-.377.037-.759.063-1.143.077l.004-1.679c.384-.015.766-.04 1.143-.077"/>
      <path fill="#989898" d="M58.224 134.912l-.004 1.679c-.357.014-.715.018-1.074.013l.004-1.679c.359.005.717.001 1.074-.013"/>
      <path fill="#939393" d="M57.15 134.925l-.004 1.679a20.757 20.757 0 0 1-1.03-.041l.004-1.679c.342.022.686.036 1.03.041"/>
      <path fill="#8F8F8F" d="M56.12 134.884l-.004 1.679a20.832 20.832 0 0 1-1.005-.09l.004-1.679c.333.039.668.068 1.005.09"/>
      <path fill="#8A8A8A" d="M55.115 134.794l-.004 1.679a19.014 19.014 0 0 1-.998-.141l.004-1.679c.329.055.662.102.998.141"/>
      <path fill="#858585" d="M54.117 134.653l-.004 1.679a17.68 17.68 0 0 1-1.005-.199l.004-1.679c.329.075.665.142 1.005.199"/>
      <path fill="#818181" d="M53.112 134.454l-.004 1.679c-.36-.082-.711-.175-1.054-.278l.004-1.678c.342.102.694.195 1.054.277"/>
      <path fill="#7C7C7C" d="M52.059 134.176l-.004 1.678a13.369 13.369 0 0 1-1.159-.406l.004-1.679c.37.151.757.286 1.159.407"/>
      <path fill="#787878" d="M50.899 133.77l-.004 1.679c-.891-.36-1.685-.803-2.333-1.327-1.216-.985-1.781-2.104-1.778-3.204l.004-1.679c-.002 1.1.562 2.219 1.779 3.205.647.523 1.441.966 2.332 1.326"/>
    </g>
  </g>
  <g fill="#FBB03B">
    <path d="M99.024 166.322h2.963v17.262c0 .759-.331 1.186-1.185 1.186-.854 0-1.185-.427-1.185-1.186v-13.989h-.048l-2.252 3.344v.378c0 .736-.285 1.423-1.186 1.423-.854 0-1.186-.687-1.186-1.423v-.378l-2.252-3.344h-.048v13.989c0 .759-.332 1.186-1.186 1.186-.853 0-1.185-.427-1.185-1.186v-17.262h2.964l2.893 4.173 2.893-4.173zM114.384 182.398h3.485c.616 0 1.186.331 1.186 1.186 0 .854-.569 1.186-1.186 1.186h-9.342c-.617 0-1.186-.332-1.186-1.186 0-.854.569-1.186 1.186-1.186h3.485v-13.704h-3.485c-.617 0-1.186-.333-1.186-1.187s.569-1.186 1.186-1.186h9.342c.616 0 1.186.332 1.186 1.186s-.569 1.187-1.186 1.187h-3.485v13.704zM130.787 184.77c-1.778 0-2.798-.711-3.557-2.254l-2.182-4.409c-.403-.806-.64-1.565-.64-2.489 0-1.043.189-1.684.663-2.633l2.182-4.386c.807-1.636 1.827-2.276 3.652-2.276h4.031c.522 0 1.186.284 1.186 1.186 0 .854-.641 1.187-1.186 1.187h-3.959c-1.02 0-1.186.094-1.637.995l-2.062 4.125c-.309.642-.499 1.068-.499 1.803 0 .665.213 1.067.499 1.637l2.015 4.101c.474.973.711 1.044 1.779 1.044h3.864c.522 0 1.186.285 1.186 1.186 0 .854-.641 1.186-1.186 1.186h-4.149zM143.847 183.584c0 .759-.332 1.186-1.185 1.186-.854 0-1.187-.427-1.187-1.186v-17.262h7.967c1.874 0 3.747 1.328 3.747 3.438v1.636c0 2.229-1.85 3.367-3.747 3.367h-2.182l5.335 7.635c.262.356.594.807.594 1.258 0 .663-.545 1.113-1.209 1.113-.476 0-.783-.283-1.044-.663l-6.545-9.343h-.545v8.821zm0-11.19h5.264c.664 0 1.708-.048 1.708-.997v-1.636c0-.948-.973-1.066-1.684-1.066h-5.289v3.699zM169.641 172.984c.452.926.616 1.613.616 2.633 0 1.138-.308 1.849-.782 2.821l-2.182 4.363c-.567 1.138-1.517 1.968-2.893 1.968-1.375 0-2.323-.83-2.893-1.968l-2.182-4.363c-.475-.973-.784-1.684-.784-2.821 0-1.02.168-1.707.618-2.633l2.371-4.718c.569-1.115 1.541-1.944 2.869-1.944s2.3.829 2.87 1.944l2.372 4.718zm-4.434-3.58c-.189-.378-.309-.71-.807-.71-.497 0-.616.332-.806.71l-2.135 4.292c-.354.688-.545 1.138-.545 1.921 0 .616.144 1.043.403 1.564l2.276 4.505c.164.332.331.712.806.712s.641-.38.807-.712l2.277-4.505c.259-.521.402-.948.402-1.564 0-.783-.189-1.232-.546-1.921l-2.132-4.292zM101.157 208.567c.475.618.83 1.162.83 1.969 0 1.777-1.351 2.678-2.987 2.678h-5.217c-.901 0-1.683-.165-2.395-.757-.64-.523-1.114-1.375-1.114-2.207 0-.758.427-1.422 1.256-1.422.688 0 1.114.57 1.114 1.209 0 .712.38.807 1.044.807h5.146c.189 0 .783.071.783-.283 0-.19-.333-.546-.427-.689l-8.133-10.457c-.499-.639-.783-1.114-.783-1.943 0-.949.451-1.754 1.256-2.275.664-.427 1.21-.427 1.969-.427h5.026c.902 0 1.661.188 2.348.781.617.546 1.114 1.423 1.114 2.253 0 .76-.378 1.375-1.232 1.375-.712 0-1.138-.45-1.138-1.115 0-.805-.404-.925-1.138-.925h-5.027c-.261 0-.807-.07-.807.333 0 .213.262.497.356.64l8.156 10.455zM117.87 210.844c.616 0 1.186.332 1.186 1.187 0 .853-.569 1.184-1.186 1.184h-10.528V194.77h10.528c.616 0 1.186.331 1.186 1.185 0 .853-.569 1.185-1.186 1.185h-8.157v5.668h3.486c.616 0 1.186.332 1.186 1.186s-.569 1.186-1.186 1.186h-3.486v5.667h8.157zM126.78 212.03c0 .758-.332 1.184-1.186 1.184s-1.186-.426-1.186-1.184v-17.262h7.967c1.874 0 3.747 1.327 3.747 3.438v1.635c0 2.229-1.85 3.367-3.747 3.367h-2.182l5.335 7.636c.262.355.594.806.594 1.256 0 .665-.546 1.114-1.21 1.114-.474 0-.782-.283-1.043-.662l-6.545-9.344h-.545v8.822zm0-11.192h5.264c.664 0 1.708-.048 1.708-.997v-1.635c0-.948-.973-1.068-1.684-1.068h-5.288v3.7zM150.819 199.747v-3.794c0-.758.332-1.185 1.186-1.185s1.186.427 1.186 1.185v3.747c0 .308-.024.639-.143.924l-4.529 11.548c-.237.593-.45 1.042-1.186 1.042-.735 0-.949-.449-1.185-1.042l-4.529-11.548c-.119-.285-.143-.616-.143-.924v-3.747c0-.758.332-1.185 1.187-1.185.853 0 1.185.427 1.185 1.185v3.794l3.486 9.058 3.485-9.058zM169.641 201.431c.452.926.616 1.612.616 2.631 0 1.139-.308 1.851-.782 2.821l-2.182 4.364c-.567 1.138-1.517 1.967-2.893 1.967-1.375 0-2.323-.829-2.893-1.967l-2.182-4.364c-.475-.971-.784-1.683-.784-2.821 0-1.019.168-1.705.618-2.631l2.371-4.719c.569-1.114 1.541-1.943 2.869-1.943s2.3.829 2.87 1.943l2.372 4.719zm-4.434-3.582c-.189-.378-.309-.711-.807-.711-.497 0-.616.333-.806.711l-2.135 4.294c-.354.687-.545 1.138-.545 1.919 0 .616.144 1.043.403 1.565l2.276 4.506c.164.331.331.711.806.711s.641-.38.807-.711l2.277-4.506c.259-.522.402-.949.402-1.565 0-.781-.189-1.232-.546-1.919l-2.132-4.294z"/>
  </g>
</svg>
