<svg xmlns="http://www.w3.org/2000/svg" width="800" height="300"><linearGradient id="a" gradientUnits="userSpaceOnUse" x1="582.654" y1="232.775" x2="582.654" y2="103.956"><stop offset="0" stop-color="#00d1ff"/><stop offset="1" stop-color="#01fea6"/></linearGradient><path fill="none" stroke="url(#a)" stroke-width="23" stroke-linecap="round" stroke-linejoin="round" stroke-miterlimit="10" d="M629.505 190.204c-5.252 13.907-16.151 24.989-30.725 29.256-25.853 7.557-53.518-9.172-61.765-37.393-8.26-28.22 6.006-57.229 31.857-64.787 25.851-7.582 53.519 9.16 61.765 37.381l-93.622 27.406"/><linearGradient id="b" gradientUnits="userSpaceOnUse" x1="454.792" y1="232.753" x2="454.792" y2="103.975"><stop offset="0" stop-color="#00d1ff"/><stop offset="1" stop-color="#01fea6"/></linearGradient><path fill="none" stroke="url(#b)" stroke-width="23" stroke-linecap="round" stroke-linejoin="round" stroke-miterlimit="10" d="M501.83 189.895c-5.165 13.944-15.973 25.09-30.513 29.454-25.804 7.741-53.581-8.814-62.024-36.962-8.445-28.17 5.621-57.265 31.425-65.006 25.803-7.744 53.573 8.802 62.025 36.973l-.006-.014-93.444 28.047"/><linearGradient id="c" gradientUnits="userSpaceOnUse" x1="717.283" y1="270.435" x2="717.283" y2="103.624"><stop offset="0" stop-color="#00d1ff"/><stop offset="1" stop-color="#01fea6"/></linearGradient><path fill="none" stroke="url(#c)" stroke-width="23" stroke-linecap="round" stroke-linejoin="round" stroke-miterlimit="10" d="M766.129 168.37c0 29.392-21.871 53.234-48.845 53.234-26.976 0-48.847-23.843-48.847-53.234 0-29.403 21.871-53.247 48.847-53.247 26.974.001 48.845 23.844 48.845 53.247zm-97.691-47.07v137.636V121.3z"/><path fill="none" d="M115.496 199.127a4.037 4.037 0 0 1 0 5.705c-10.09 10.09-21.851 10.598-32.708 1.615-7.652 6.49-14.247 7.434-19.792 7.434s-12.14-.943-19.792-7.434c-10.857 8.982-22.617 8.475-32.707-1.615a4.035 4.035 0 0 1 0-5.705 4.047 4.047 0 0 1 5.714 0c3.471 3.469 7.063 5.334 10.679 5.543 3.423.195 6.991-1.137 10.599-3.979-9.743-11.631-10.042-23.698-7.055-30.914 2.494-6.006 7.402-9.599 13.141-9.599 5.675 0 10.502 3.487 12.923 9.323 2.97 7.168 2.534 19.309-7.555 31.213 6.271 5.102 11.042 5.094 14.053 5.094 3.011 0 7.781.008 14.054-5.094-10.09-11.904-10.526-24.045-7.556-31.213 2.422-5.836 7.249-9.323 12.923-9.323 5.74 0 10.655 3.593 13.141 9.599 2.987 7.216 2.688 19.283-7.055 30.914 3.609 2.842 7.16 4.182 10.6 3.979 3.616-.209 7.208-2.074 10.687-5.543a4.038 4.038 0 0 1 5.706 0zm-32.731-4.183c6.562-8.209 7.539-16.757 5.335-22.076-.573-1.389-2.276-4.617-5.683-4.617-3.188 0-4.794 2.72-5.464 4.343-2.18 5.271-1.057 13.899 5.812 22.35zm14.143-48.502c6.869-8.451 7.992-17.08 5.812-22.351-.67-1.623-2.268-4.343-5.465-4.343-3.406 0-5.109 3.229-5.683 4.617-2.203 5.32-1.226 13.868 5.336 22.077z"/><linearGradient id="d" gradientUnits="userSpaceOnUse" x1="324" y1="225.5" x2="324" y2="65.501"><stop offset="0" stop-color="#00d1ff"/><stop offset="1" stop-color="#01fea6"/></linearGradient><path fill="none" stroke="url(#d)" stroke-width="23" stroke-linecap="round" stroke-linejoin="round" stroke-miterlimit="10" d="M279.5 77v137l1.103-46.715c0-29.403 19.523-53.234 43.952-53.234 24.441 0 43.945 23.831 43.945 53.234V214"/><linearGradient id="e" gradientUnits="userSpaceOnUse" x1="116.656" y1="247" x2="116.656" y2="30.381"><stop offset="0" stop-color="#00d1ff"/><stop offset="1" stop-color="#01fea6"/></linearGradient><path fill="url(#e)" d="M117.99 30.39c-25.03-.36-48.68 9.14-66.51 26.72-17.83 17.59-27.67 41.06-27.67 66.11 0 24.61 9.51 47.799 26.86 65.33l28.52 28.601C83.04 221 85 226.13 85 231.58v1.88c0 7.29 6.23 13.54 13.53 13.54h36.29c7.3 0 13.18-6.25 13.18-13.54v-1.89c0-5.45 2.15-10.57 6-14.431l27.94-27.909.05-.061c17.9-17.71 27.67-41.35 27.51-66.55-.31-50.149-41.37-91.529-91.51-92.229zm51.75 119.08c-10.2 10.19-22.08 10.709-33.06 1.629-7.73 6.561-14.4 7.521-20 7.521-5.61 0-12.27-.96-20-7.521-10.98 9.08-22.86 8.561-33.06-1.629a4.086 4.086 0 0 1 0-5.77 4.086 4.086 0 0 1 5.77 0c3.51 3.51 7.14 5.39 10.8 5.6 3.46.2 7.06-1.14 10.71-4.02-9.84-11.75-10.15-23.95-7.13-31.24 2.52-6.07 7.48-9.7 13.28-9.7 5.74 0 10.62 3.52 13.07 9.42 3 7.25 2.56 19.52-7.65 31.54 6.34 5.16 11.16 5.16 14.21 5.16 3.04 0 7.86 0 14.2-5.16-10.19-12.02-10.64-24.29-7.63-31.54 2.44-5.9 7.32-9.42 13.06-9.42 5.8 0 10.76 3.63 13.28 9.7 3.02 7.29 2.72 19.49-7.13 31.24 3.65 2.88 7.23 4.23 10.71 4.02 3.66-.21 7.29-2.09 10.8-5.6a4.086 4.086 0 0 1 5.77 0 4.086 4.086 0 0 1 0 5.77zm-33.08-10c-6.95-8.54-8.08-17.26-5.88-22.59.69-1.64 2.3-4.39 5.53-4.39 3.44 0 5.16 3.27 5.74 4.67 2.23 5.38 1.24 14.02-5.39 22.31zm-39.96 0c-6.63-8.29-7.62-16.93-5.4-22.31.59-1.4 2.31-4.67 5.75-4.67 3.23 0 4.85 2.75 5.52 4.39 2.21 5.33 1.07 14.05-5.87 22.59z"/></svg>
