<svg xmlns="http://www.w3.org/2000/svg" width="300" height="300" viewBox="0 0 300 300">
  <path fill="#A55447" d="M215.95 180.119l-12.624 107.307c-57.258 17.441-108.339 0-108.339 0L82.354 180.119l133.596-.241"/>
  <path fill="#843A2F" d="M218.287 198.041l.017-27.667c-70.557 12.223-138.304.339-138.304.22v24.763l1.226.82c0 .001 62.466 17.745 137.061 1.864"/>
  <path fill="#A04340" d="M210.655 222.867l-7.501 64.569c-40.08 12.214-77.107 7.314-95.7 3.295 65.132-11.923 92.884-48.653 103.201-67.864z"/>
  <path fill="#492305" d="M217.793 170.374c0 4.686-30.826 9.624-69.159 9.624-38.335 0-69.657-4.938-69.657-9.624 0-4.691 31.076-8.488 69.408-8.488 38.335 0 69.408 3.797 69.408 8.488z"/>
  <path fill="#00AA04" d="M198.649 57.093c-2.682-28.776 30.47-50.687 88.334-46.84l.151.166c-23.514 41.275-57.307 62.33-88.485 46.674"/>
  <path fill="#006837" d="M181.476 166.497l.152-7.333.224-8.438c.085-3.261.241-6.935.391-10.945.187-4.011.387-8.354.684-12.949.287-4.594.653-9.438 1.133-14.445.215-2.503.544-5.045.815-7.619.337-2.57.656-5.173 1.065-7.788.78-5.233 1.82-10.524 3.088-15.764 1.299-5.234 2.956-10.398 5.034-15.307 2.08-4.905 4.641-9.536 7.677-13.617a56.016 56.016 0 0 1 10.147-10.483c3.648-2.875 7.427-5.109 10.996-6.958l2.646-1.31 2.579-1.131c1.665-.763 3.305-1.334 4.82-1.93 3.059-1.122 5.755-2.008 7.997-2.663 2.229-.7 4.009-1.145 5.214-1.478l1.851-.5-1.832.565c-1.192.375-2.954.882-5.153 1.659-2.214.731-4.871 1.71-7.874 2.933-1.487.646-3.096 1.27-4.72 2.085l-2.516 1.209-2.57 1.388c-3.461 1.949-7.096 4.278-10.556 7.207a54.333 54.333 0 0 0-9.486 10.513c-2.795 4.046-5.109 8.603-6.958 13.428-1.847 4.829-3.283 9.905-4.373 15.065a177.23 177.23 0 0 0-2.483 15.563c-.312 2.584-.536 5.164-.778 7.705-.18 2.552-.415 5.064-.541 7.549-.3 4.963-.493 9.77-.618 14.332-.135 4.562-.182 8.881-.226 12.866-.009 3.988-.035 7.645-.006 10.883l.072 8.393.105 7.333-6-.018z"/>
  <path fill="#00AA04" d="M155.659 67.736c-32.769 13.953-56.654-13.341-81.48-54.454 67.441 6.321 85.133 10.567 82.067 54.293"/>
  <path fill="#024F28" d="M176.703 166.57s.009-.677.023-1.947c.005-1.26.06-3.157.041-5.48-.058-2.309-.027-5.091-.212-8.342-.112-3.244-.377-6.896-.716-10.878-.213-1.986-.388-4.063-.654-6.201-.296-2.133-.531-4.354-.902-6.615-.377-2.259-.696-4.597-1.179-6.954l-.684-3.585c-.263-1.2-.528-2.412-.797-3.633-1.063-4.892-2.42-9.886-3.957-14.915-1.551-5.026-3.394-10.043-5.411-14.994-2.095-4.914-4.378-9.754-6.92-14.365-2.577-4.586-5.342-8.976-8.307-13.024-3.004-4.013-6.152-7.713-9.396-10.982-3.297-3.203-6.594-6.072-9.898-8.373-.795-.622-1.648-1.115-2.454-1.645-.817-.508-1.589-1.056-2.393-1.5l-2.352-1.293-1.13-.618-1.134-.523c-1.49-.684-2.872-1.365-4.22-1.82-1.334-.488-2.543-1-3.69-1.289l-3.032-.88-2.286-.477-1.907-.398a11090.135 11090.135 0 0 0 4.241.658l3.089.725c1.171.231 2.411.682 3.784 1.105 1.387.39 2.815 1.003 4.36 1.618l1.177.471 1.177.565 2.456 1.189c.84.41 1.651.922 2.51 1.397.846.496 1.745.956 2.585 1.545 3.49 2.171 7.005 4.92 10.552 8.026 3.491 3.169 6.914 6.79 10.208 10.748 3.253 3.991 6.325 8.344 9.214 12.917 2.854 4.595 5.456 9.439 7.87 14.379 2.337 4.973 4.498 10.034 6.36 15.117 1.85 5.085 3.512 10.155 4.869 15.13l1.015 3.7.896 3.655c.623 2.407 1.078 4.792 1.587 7.104.503 2.313.866 4.586 1.285 6.775.39 2.193.683 4.325 1.009 6.367.564 4.093 1.033 7.858 1.324 11.206.362 3.332.491 6.31.674 8.736.143 2.414.183 4.243.245 5.523l.078 1.946-8.998.129z"/>
  <path fill="#00AA04" d="M192.31 73.516c35.936-5.151 41.593 25.695 48.45 65.173l-.102.09c-34.922-16.526-59.198-23.342-48.791-65.205"/>
  <path fill="#006837" d="M192.381 73.384s.969.466 2.584 1.417c.801.485 1.78 1.07 2.857 1.808l1.72 1.174 1.855 1.374c1.315.934 2.62 2.091 4.067 3.244l2.108 1.907c.726.646 1.45 1.324 2.146 2.053l2.164 2.186c.716.753 1.395 1.558 2.104 2.347 1.449 1.556 2.752 3.277 4.088 4.975.333.426.679.843 1 1.276l.926 1.327 1.846 2.636c1.22 1.75 2.224 3.598 3.252 5.352.517.876.912 1.796 1.313 2.688.4.892.788 1.767 1.146 2.626.791 1.686 1.263 3.393 1.77 4.933.253.77.476 1.515.688 2.221.223.703.417 1.374.526 2.027.27 1.292.491 2.417.657 3.345.338 1.855.477 2.919.477 2.919l-.291.076s-.478-.977-1.218-2.692a123.71 123.71 0 0 1-1.289-3.095c-.431-1.213-1.167-2.489-1.79-3.938l-1.02-2.241c-.313-.79-.737-1.562-1.155-2.362-.871-1.582-1.62-3.33-2.576-5.045-.469-.862-.952-1.735-1.417-2.634-.487-.886-.901-1.831-1.462-2.699l-1.612-2.673-.817-1.345c-.287-.44-.598-.864-.896-1.297-1.212-1.718-2.394-3.466-3.727-5.057-.652-.806-1.274-1.629-1.936-2.402l-2.004-2.25a35.345 35.345 0 0 0-1.998-2.124l-1.959-1.996c-1.34-1.223-2.552-2.454-3.782-3.458l-1.737-1.479-1.618-1.272c-1.017-.798-1.941-1.444-2.693-1.99-1.522-1.066-2.439-1.6-2.439-1.6l.142-.262z"/>
  <path fill="#BC953F" d="M87.245 168.993l4.016 5.637 11.4-1.039 2.428-6.22M128.885 165.206l4.016 5.634 11.402-1.041 2.426-6.216"/>
  <path fill="#303030" d="M137.521 63.519l3.79 41.639-17.843 1.625-1.285-14.099c-.837-9.22-6.875-16.228-13.42-15.632-6.542.598-11.213 8.58-10.374 17.799l1.283 14.098-17.844 1.625-3.79-41.64c-.298-3.269 2.134-6.189 5.407-6.49l47.586-4.333c3.27-.297 6.192 2.138 6.49 5.408z"/>
  <path fill="#F9C900" d="M122.826 99.784l17.947-1.633 5.953 65.435-17.947 1.632zM80.968 103.59l18.172-1.653 5.953 65.432-18.172 1.653z"/>
  <g>
    <path fill="#472408" d="M200.171 166.413c0 1.847-2.117 3.34-4.718 3.34-2.604 0-4.723-1.493-4.723-3.34 0-1.837 2.118-3.333 4.723-3.333 2.601 0 4.718 1.496 4.718 3.333z"/>
    <path fill="#5B2F12" d="M200.171 166.413c0 1.847-2.117 3.34-4.718 3.34-2.604 0-4.723-1.493-4.723-3.34 0-1.837 2.118-3.333 4.723-3.333 2.601 0 4.718 1.496 4.718 3.333z"/>
    <path fill="#472408" d="M213.305 166.413c0 1.847-2.118 3.34-4.719 3.34-2.602 0-4.724-1.493-4.724-3.34 0-1.837 2.122-3.333 4.724-3.333 2.601 0 4.719 1.496 4.719 3.333z"/>
    <path fill="#3D1600" d="M206.738 166.413c0 1.847-2.119 3.34-4.723 3.34-2.6 0-4.718-1.493-4.718-3.34 0-1.837 2.118-3.333 4.718-3.333 2.604 0 4.723 1.496 4.723 3.333z"/>
    <path fill="#3D1600" d="M213.305 166.413c0 1.847-2.118 3.34-4.719 3.34-2.602 0-4.724-1.493-4.724-3.34 0-1.837 2.122-3.333 4.724-3.333 2.601 0 4.719 1.496 4.719 3.333z"/>
    <path fill="#2D1302" d="M213.918 169.881c.54 2.567-2.409 5.442-6.581 6.405-4.178.981-8-.309-8.552-2.87-.538-2.572 2.396-5.442 6.569-6.404 4.19-.99 8.021.303 8.564 2.869z"/>
    <path fill="#3D1900" d="M193.604 166.413c0 1.847-2.114 3.34-4.722 3.34-2.601 0-4.718-1.493-4.718-3.34 0-1.837 2.117-3.333 4.718-3.333 2.608 0 4.722 1.496 4.722 3.333z"/>
    <path fill="#472408" d="M200.312 167.243c-1.104 2.369-4.488 3.022-7.56 1.458-3.086-1.562-4.688-4.748-3.6-7.118 1.107-2.362 4.485-3.012 7.557-1.449 3.089 1.564 4.699 4.752 3.603 7.109z"/>
    <path fill="#543727" d="M198.263 174.589c-1.158 2.617-4.836 3.402-8.218 1.762-3.387-1.64-5.201-5.093-4.044-7.694 1.153-2.617 4.836-3.412 8.213-1.773 3.399 1.644 5.213 5.093 4.049 7.705z"/>
    <path fill="#2D1302" d="M193.688 168.179c-1.06 2.38-5.073 2.789-8.947.908-3.88-1.884-6.175-5.342-5.125-7.726 1.061-2.385 5.063-2.8 8.934-.915 3.902 1.877 6.196 5.347 5.138 7.733z"/>
    <path fill="#381D01" d="M211.252 162.135c0 2.365-3.132 4.278-6.976 4.278-3.855 0-6.979-1.913-6.979-4.278 0-2.359 3.123-4.277 6.979-4.277 3.844-.001 6.976 1.917 6.976 4.277z"/>
  </g>
  <g>
    <path fill="#472408" d="M100.381 170.616c.091-1.028 1.396-1.751 2.92-1.623 1.52.129 2.683 1.075 2.593 2.103-.087 1.026-1.394 1.749-2.914 1.62-1.522-.135-2.687-1.072-2.599-2.1z"/>
    <path fill="#5B2F12" d="M100.381 170.616c.091-1.028 1.396-1.751 2.92-1.623 1.52.129 2.683 1.075 2.593 2.103-.087 1.026-1.394 1.749-2.914 1.62-1.522-.135-2.687-1.072-2.599-2.1z"/>
    <path fill="#472408" d="M92.714 169.952c.09-1.027 1.396-1.751 2.915-1.622 1.521.127 2.688 1.073 2.598 2.101-.089 1.026-1.402 1.749-2.921 1.621-1.519-.135-2.679-1.073-2.592-2.1z"/>
    <path fill="#3D1600" d="M96.544 170.275c.092-1.02 1.402-1.747 2.921-1.612 1.519.132 2.683 1.07 2.594 2.094-.089 1.027-1.395 1.756-2.917 1.622-1.519-.129-2.684-1.073-2.598-2.104z"/>
    <path fill="#3D1600" d="M92.714 169.952c.09-1.027 1.396-1.751 2.915-1.622 1.521.127 2.688 1.073 2.598 2.101-.089 1.026-1.402 1.749-2.921 1.621-1.519-.135-2.679-1.073-2.592-2.1z"/>
    <path fill="#2D1302" d="M92.521 167.987c-.189-1.46 1.674-2.913 4.149-3.239 2.495-.337 4.663.582 4.857 2.035.192 1.46-1.663 2.912-4.143 3.237-2.491.338-4.67-.569-4.863-2.033z"/>
    <path fill="#3D1900" d="M104.217 170.948c.09-1.026 1.396-1.755 2.916-1.622 1.523.134 2.686 1.074 2.596 2.096-.088 1.026-1.394 1.755-2.916 1.62-1.521-.128-2.685-1.073-2.596-2.094z"/>
    <path fill="#442F20" d="M100.34 170.144c.759-1.266 2.767-1.451 4.486-.428 1.725 1.029 2.508 2.883 1.757 4.15-.76 1.259-2.766 1.452-4.481.426-1.729-1.026-2.517-2.884-1.762-4.148z"/>
    <path fill="#2D1302" d="M101.891 166.156c.803-1.4 2.992-1.647 4.885-.568 1.9 1.085 2.79 3.104 1.99 4.496-.801 1.396-2.985 1.659-4.882.567-1.908-1.085-2.797-3.096-1.993-4.495z"/>
    <path fill="#2D1302" d="M104.255 169.963c.732-1.277 3.094-1.3 5.263-.059 2.179 1.247 3.352 3.291 2.625 4.572-.737 1.272-3.09 1.302-5.263.055-2.185-1.244-3.361-3.296-2.625-4.568z"/>
    <path fill="#381D01" d="M93.705 172.437c.114-1.311 2.033-2.229 4.279-2.032 2.254.2 3.98 1.427 3.866 2.746-.113 1.316-2.026 2.226-4.277 2.026-2.246-.197-3.982-1.424-3.868-2.74z"/>
  </g>
  <g>
    <path fill="#472408" d="M92.853 169.184c-.437.935-1.911 1.167-3.299.526-1.385-.641-2.154-1.928-1.718-2.863.433-.935 1.907-1.166 3.292-.525 1.385.647 2.158 1.926 1.725 2.862z"/>
    <path fill="#5B2F12" d="M92.853 169.184c-.437.935-1.911 1.167-3.299.526-1.385-.641-2.154-1.928-1.718-2.863.433-.935 1.907-1.166 3.292-.525 1.385.647 2.158 1.926 1.725 2.862z"/>
    <path fill="#472408" d="M99.831 172.429c-.436.935-1.91 1.168-3.293.527-1.386-.64-2.159-1.928-1.724-2.862.435-.935 1.916-1.165 3.299-.524 1.382.645 2.151 1.923 1.718 2.859z"/>
    <path fill="#3D1600" d="M96.342 170.814c-.435.927-1.915 1.163-3.296.518-1.382-.645-2.155-1.925-1.722-2.854.436-.936 1.911-1.174 3.296-.526 1.383.639 2.156 1.924 1.722 2.862z"/>
    <path fill="#3D1600" d="M99.831 172.429c-.436.935-1.91 1.168-3.293.527-1.386-.64-2.159-1.928-1.724-2.862.435-.935 1.916-1.165 3.299-.524 1.382.645 2.151 1.923 1.718 2.859z"/>
    <path fill="#2D1302" d="M99.34 174.341c-.321 1.437-2.569 2.165-5.007 1.625-2.46-.536-4.183-2.141-3.868-3.573.319-1.438 2.558-2.168 5-1.626 2.457.534 4.195 2.131 3.875 3.574z"/>
    <path fill="#3D1900" d="M89.362 167.56c-.436.935-1.913 1.171-3.295.527-1.386-.646-2.156-1.928-1.723-2.856.434-.935 1.909-1.174 3.294-.526 1.385.64 2.155 1.926 1.724 2.855z"/>
    <path fill="#442F20" d="M92.729 169.641c-1.146.93-3.097.418-4.362-1.131-1.269-1.558-1.371-3.567-.232-4.502 1.145-.923 3.096-.419 4.357 1.132 1.275 1.556 1.38 3.57.237 4.501z"/>
    <path fill="#2D1302" d="M89.909 172.858c-1.233 1.041-3.375.525-4.785-1.137-1.415-1.668-1.561-3.871-.333-4.905 1.23-1.038 3.372-.539 4.782 1.136 1.423 1.672 1.57 3.865.336 4.906z"/>
    <path fill="#2D1302" d="M88.989 168.472c-1.125.95-3.352.164-4.966-1.743-1.621-1.917-2.024-4.24-.902-5.194 1.127-.943 3.349-.167 4.964 1.748 1.626 1.915 2.031 4.245.904 5.189z"/>
    <path fill="#381D01" d="M99.75 169.755c-.556 1.192-2.673 1.398-4.717.446-2.05-.959-3.252-2.701-2.694-3.901.556-1.199 2.665-1.4 4.712-.442 2.044.952 3.255 2.698 2.699 3.897z"/>
  </g>
  <g>
    <path fill="#472408" d="M118.3 170.616c.09-1.028 1.398-1.751 2.92-1.623 1.521.129 2.682 1.075 2.593 2.103-.087 1.026-1.394 1.749-2.913 1.62-1.523-.135-2.688-1.072-2.6-2.1z"/>
    <path fill="#5B2F12" d="M118.3 170.616c.09-1.028 1.398-1.751 2.92-1.623 1.521.129 2.682 1.075 2.593 2.103-.087 1.026-1.394 1.749-2.913 1.62-1.523-.135-2.688-1.072-2.6-2.1z"/>
    <path fill="#472408" d="M110.632 169.952c.092-1.027 1.398-1.751 2.917-1.622 1.521.127 2.687 1.073 2.595 2.101-.087 1.026-1.398 1.749-2.918 1.621-1.521-.135-2.681-1.073-2.594-2.1z"/>
    <path fill="#3D1600" d="M114.465 170.275c.09-1.02 1.401-1.747 2.92-1.612 1.52.132 2.684 1.07 2.594 2.094-.089 1.027-1.396 1.756-2.919 1.622-1.519-.129-2.683-1.073-2.595-2.104z"/>
    <path fill="#3D1600" d="M110.632 169.952c.092-1.027 1.398-1.751 2.917-1.622 1.521.127 2.687 1.073 2.595 2.101-.087 1.026-1.398 1.749-2.918 1.621-1.521-.135-2.681-1.073-2.594-2.1z"/>
    <path fill="#2D1302" d="M110.441 167.987c-.191-1.46 1.675-2.913 4.15-3.239 2.491-.337 4.66.582 4.856 2.035.193 1.46-1.664 2.912-4.141 3.237-2.494.338-4.674-.569-4.865-2.033z"/>
    <path fill="#3D1900" d="M122.135 170.948c.092-1.026 1.398-1.755 2.917-1.622 1.523.134 2.687 1.074 2.597 2.096-.088 1.026-1.396 1.755-2.919 1.62-1.519-.128-2.683-1.073-2.595-2.094z"/>
    <path fill="#442F20" d="M118.258 170.144c.76-1.266 2.768-1.451 4.487-.428 1.724 1.029 2.508 2.883 1.755 4.15-.758 1.259-2.763 1.452-4.479.426-1.729-1.026-2.518-2.884-1.763-4.148z"/>
    <path fill="#2D1302" d="M119.812 166.156c.802-1.4 2.989-1.647 4.882-.568 1.902 1.085 2.792 3.104 1.992 4.496-.803 1.396-2.985 1.659-4.882.567-1.907-1.085-2.797-3.096-1.992-4.495z"/>
    <path fill="#2D1302" d="M122.174 169.963c.731-1.277 3.094-1.3 5.265-.059 2.177 1.247 3.35 3.291 2.621 4.572-.734 1.272-3.088 1.302-5.262.055-2.185-1.244-3.359-3.296-2.624-4.568z"/>
    <path fill="#381D01" d="M111.625 172.437c.112-1.311 2.034-2.229 4.278-2.032 2.254.2 3.981 1.427 3.868 2.746-.114 1.316-2.029 2.226-4.279 2.026-2.245-.197-3.983-1.424-3.867-2.74z"/>
  </g>
  <g>
    <path fill="#472408" d="M172.057 164.645c.093-1.026 1.4-1.754 2.923-1.622 1.52.131 2.684 1.073 2.593 2.098-.089 1.025-1.396 1.751-2.914 1.622-1.522-.134-2.688-1.077-2.602-2.098z"/>
    <path fill="#5B2F12" d="M172.057 164.645c.093-1.026 1.4-1.754 2.923-1.622 1.52.131 2.684 1.073 2.593 2.098-.089 1.025-1.396 1.751-2.914 1.622-1.522-.134-2.688-1.077-2.602-2.098z"/>
    <path fill="#472408" d="M164.392 163.979c.091-1.026 1.396-1.753 2.914-1.621 1.521.13 2.687 1.074 2.597 2.097-.088 1.026-1.399 1.753-2.918 1.621-1.52-.132-2.681-1.074-2.593-2.097z"/>
    <path fill="#3D1600" d="M168.222 164.308c.092-1.023 1.402-1.749 2.919-1.62 1.521.133 2.688 1.076 2.597 2.1-.088 1.027-1.396 1.752-2.919 1.62-1.521-.132-2.683-1.073-2.597-2.1z"/>
    <path fill="#3D1600" d="M164.392 163.979c.091-1.026 1.396-1.753 2.914-1.621 1.521.13 2.687 1.074 2.597 2.097-.088 1.026-1.399 1.753-2.918 1.621-1.52-.132-2.681-1.074-2.593-2.097z"/>
    <path fill="#2D1302" d="M164.199 162.012c-.189-1.459 1.674-2.91 4.151-3.236 2.489-.338 4.659.58 4.854 2.035.193 1.459-1.663 2.91-4.142 3.241-2.493.336-4.67-.577-4.863-2.04z"/>
    <path fill="#3D1900" d="M175.896 164.976c.091-1.026 1.397-1.752 2.915-1.622 1.522.132 2.686 1.074 2.594 2.097-.084 1.027-1.393 1.753-2.914 1.62-1.519-.129-2.684-1.07-2.595-2.095z"/>
    <path fill="#442F20" d="M172.016 164.171c.759-1.262 2.771-1.453 4.488-.426 1.722 1.028 2.509 2.881 1.754 4.147-.757 1.26-2.763 1.45-4.477.425-1.731-1.027-2.519-2.883-1.765-4.146z"/>
    <path fill="#2D1302" d="M173.572 160.184c.799-1.402 2.988-1.65 4.88-.568 1.901 1.083 2.79 3.099 1.99 4.498-.8 1.396-2.984 1.658-4.881.567-1.905-1.087-2.799-3.101-1.989-4.497z"/>
    <path fill="#2D1302" d="M175.931 163.986c.733-1.274 3.096-1.299 5.268-.051 2.177 1.244 3.349 3.286 2.62 4.569-.736 1.271-3.09 1.301-5.261.052-2.183-1.241-3.359-3.29-2.627-4.57z"/>
    <path fill="#381D01" d="M165.383 166.467c.113-1.316 2.033-2.229 4.277-2.031 2.253.193 3.984 1.422 3.87 2.738-.112 1.319-2.031 2.229-4.279 2.029-2.246-.197-3.982-1.422-3.868-2.736z"/>
  </g>
  <g>
    <path fill="#472408" d="M174.285 172.18c-.99-.274-1.478-1.693-1.068-3.161.404-1.472 1.537-2.451 2.53-2.177.993.275 1.471 1.687 1.07 3.155-.403 1.483-1.541 2.451-2.532 2.183z"/>
    <path fill="#5B2F12" d="M174.285 172.18c-.99-.274-1.478-1.693-1.068-3.161.404-1.472 1.537-2.451 2.53-2.177.993.275 1.471 1.687 1.07 3.155-.403 1.483-1.541 2.451-2.532 2.183z"/>
    <path fill="#472408" d="M172.25 179.601c-.995-.27-1.472-1.686-1.068-3.156.399-1.479 1.538-2.451 2.528-2.177.995.269 1.474 1.691 1.07 3.162-.401 1.468-1.539 2.444-2.53 2.171z"/>
    <path fill="#3D1600" d="M173.265 175.89c-.993-.269-1.47-1.691-1.066-3.163.402-1.469 1.539-2.442 2.529-2.168.997.269 1.474 1.686 1.07 3.16-.402 1.471-1.535 2.445-2.533 2.171z"/>
    <path fill="#3D1600" d="M172.25 179.601c-.995-.27-1.472-1.686-1.068-3.156.399-1.479 1.538-2.451 2.528-2.177.995.269 1.474 1.691 1.07 3.162-.401 1.468-1.539 2.444-2.53 2.171z"/>
    <path fill="#2D1302" d="M170.28 179.438c-1.466-.071-2.559-2.17-2.436-4.661.116-2.516 1.411-4.488 2.876-4.418 1.468.077 2.567 2.167 2.444 4.662-.121 2.512-1.41 4.492-2.884 4.417z"/>
    <path fill="#3D1900" d="M175.302 168.47c-.992-.281-1.473-1.691-1.069-3.162.401-1.477 1.541-2.449 2.531-2.178.991.271 1.472 1.688 1.071 3.162-.404 1.472-1.54 2.444-2.533 2.178z"/>
    <path fill="#442F20" d="M173.812 172.133c-1.106-.968-.933-2.98.392-4.485 1.319-1.51 3.287-1.948 4.396-.985 1.101.979.93 2.985-.39 4.489-1.32 1.518-3.289 1.955-4.398.981z"/>
    <path fill="#2D1302" d="M170.173 169.892c-1.238-1.036-1.09-3.235.315-4.903 1.408-1.679 3.556-2.189 4.784-1.151 1.229 1.04 1.092 3.233-.318 4.899-1.412 1.68-3.556 2.196-4.781 1.155z"/>
    <path fill="#2D1302" d="M174.338 168.248c-1.126-.945-.721-3.272.896-5.182 1.618-1.921 3.837-2.707 4.962-1.76 1.125.952.728 3.273-.893 5.187-1.611 1.922-3.838 2.71-4.965 1.755z"/>
    <path fill="#381D01" d="M174.876 179.076c-1.27-.352-1.827-2.405-1.227-4.574.598-2.182 2.113-3.662 3.388-3.313 1.278.348 1.828 2.396 1.231 4.572-.596 2.176-2.117 3.664-3.392 3.315z"/>
  </g>
  <g>
    <path fill="#472408" d="M130.226 164.206c.476-.913 1.96-1.087 3.313-.385 1.36.704 2.074 2.013 1.603 2.921-.474.924-1.958 1.099-3.312.397-1.359-.701-2.079-2.019-1.604-2.933z"/>
    <path fill="#5B2F12" d="M130.226 164.206c.476-.913 1.96-1.087 3.313-.385 1.36.704 2.074 2.013 1.603 2.921-.474.924-1.958 1.099-3.312.397-1.359-.701-2.079-2.019-1.604-2.933z"/>
    <path fill="#472408" d="M123.39 160.671c.475-.913 1.958-1.09 3.313-.385 1.358.699 2.074 2.013 1.601 2.926-.472.915-1.963 1.088-3.316.388-1.354-.7-2.067-2.013-1.598-2.929z"/>
    <path fill="#3D1600" d="M126.809 162.438c.476-.912 1.959-1.087 3.313-.384 1.353.698 2.074 2.014 1.6 2.925-.471.916-1.956 1.091-3.314.389-1.355-.698-2.071-2.014-1.599-2.93z"/>
    <path fill="#3D1600" d="M123.39 160.671c.475-.913 1.958-1.09 3.313-.385 1.358.699 2.074 2.013 1.601 2.926-.472.915-1.963 1.088-3.316.388-1.354-.7-2.067-2.013-1.598-2.929z"/>
    <path fill="#2D1302" d="M123.958 158.781c.379-1.417 2.657-2.053 5.073-1.412 2.435.638 4.09 2.313 3.711 3.73-.373 1.421-2.644 2.061-5.059 1.42-2.436-.638-4.101-2.309-3.725-3.738z"/>
    <path fill="#3D1900" d="M133.645 165.974c.479-.916 1.96-1.085 3.313-.388 1.362.703 2.075 2.015 1.605 2.931-.468.91-1.961 1.084-3.321.386-1.352-.702-2.068-2.014-1.597-2.929z"/>
    <path fill="#442F20" d="M130.369 163.755c1.178-.879 3.115-.29 4.304 1.315 1.206 1.603 1.226 3.622.048 4.5-1.185.876-3.11.292-4.303-1.311-1.213-1.61-1.227-3.624-.049-4.504z"/>
    <path fill="#2D1302" d="M133.318 160.659c1.274-.994 3.398-.391 4.732 1.332 1.344 1.729 1.403 3.934.132 4.921-1.272.985-3.395.391-4.727-1.335-1.351-1.728-1.41-3.933-.137-4.918z"/>
    <path fill="#2D1302" d="M134.056 165.074c1.164-.9 3.359-.019 4.891 1.961 1.537 1.977 1.844 4.316.685 5.215-1.166.904-3.353.035-4.885-1.949-1.545-1.976-1.856-4.322-.691-5.227z"/>
    <path fill="#381D01" d="M123.363 163.352c.601-1.174 2.724-1.289 4.726-.247 2.009 1.035 3.137 2.828 2.537 4.001-.613 1.178-2.729 1.289-4.734.256-2-1.042-3.141-2.837-2.529-4.01z"/>
  </g>
  <g>
    <path fill="#472408" d="M142.192 170.616c.091-1.028 1.396-1.751 2.921-1.623 1.521.129 2.685 1.075 2.593 2.103-.087 1.026-1.395 1.749-2.914 1.62-1.524-.135-2.688-1.072-2.6-2.1z"/>
    <path fill="#5B2F12" d="M142.192 170.616c.091-1.028 1.396-1.751 2.921-1.623 1.521.129 2.685 1.075 2.593 2.103-.087 1.026-1.395 1.749-2.914 1.62-1.524-.135-2.688-1.072-2.6-2.1z"/>
    <path fill="#472408" d="M134.525 169.952c.091-1.027 1.398-1.751 2.916-1.622 1.521.127 2.687 1.073 2.596 2.101-.088 1.026-1.4 1.749-2.919 1.621-1.519-.135-2.679-1.073-2.593-2.1z"/>
    <path fill="#3D1600" d="M138.358 170.275c.09-1.02 1.4-1.747 2.918-1.612 1.52.132 2.682 1.07 2.593 2.094-.088 1.027-1.394 1.756-2.916 1.622-1.52-.129-2.684-1.073-2.595-2.104z"/>
    <path fill="#3D1600" d="M134.525 169.952c.091-1.027 1.398-1.751 2.916-1.622 1.521.127 2.687 1.073 2.596 2.101-.088 1.026-1.4 1.749-2.919 1.621-1.519-.135-2.679-1.073-2.593-2.1z"/>
    <path fill="#2D1302" d="M134.333 167.987c-.189-1.46 1.675-2.913 4.149-3.239 2.493-.337 4.66.582 4.856 2.035.192 1.46-1.663 2.912-4.141 3.237-2.493.338-4.672-.569-4.864-2.033z"/>
    <path fill="#3D1900" d="M146.03 170.948c.089-1.026 1.396-1.755 2.916-1.622 1.521.134 2.684 1.074 2.595 2.096-.089 1.026-1.393 1.755-2.917 1.62-1.52-.128-2.682-1.073-2.594-2.094z"/>
    <path fill="#442F20" d="M142.15 170.144c.759-1.266 2.771-1.451 4.489-.428 1.722 1.029 2.507 2.883 1.754 4.15-.756 1.259-2.764 1.452-4.48.426-1.73-1.026-2.517-2.884-1.763-4.148z"/>
    <path fill="#2D1302" d="M143.704 166.156c.804-1.4 2.991-1.647 4.883-.568 1.901 1.085 2.791 3.104 1.993 4.496-.803 1.396-2.985 1.659-4.883.567-1.91-1.085-2.799-3.096-1.993-4.495z"/>
    <path fill="#2D1302" d="M146.067 169.963c.732-1.277 3.094-1.3 5.263-.059 2.18 1.247 3.352 3.291 2.621 4.572-.734 1.272-3.086 1.302-5.26.055-2.184-1.244-3.359-3.296-2.624-4.568z"/>
    <path fill="#381D01" d="M135.518 172.437c.113-1.311 2.031-2.229 4.276-2.032 2.254.2 3.981 1.427 3.868 2.746-.114 1.316-2.027 2.226-4.278 2.026-2.245-.197-3.98-1.424-3.866-2.74z"/>
  </g>
  <g>
    <path fill="#472408" d="M158.271 170.486c-.543.884-2.036.948-3.338.143-1.295-.805-1.912-2.172-1.372-3.041.539-.879 2.033-.938 3.331-.14 1.299.8 1.915 2.164 1.379 3.038z"/>
    <path fill="#5B2F12" d="M158.271 170.486c-.543.884-2.036.948-3.338.143-1.295-.805-1.912-2.172-1.372-3.041.539-.879 2.033-.938 3.331-.14 1.299.8 1.915 2.164 1.379 3.038z"/>
    <path fill="#472408" d="M164.821 174.536c-.543.875-2.038.933-3.334.132-1.299-.795-1.917-2.162-1.374-3.037.541-.874 2.038-.932 3.335-.138 1.3.805 1.913 2.169 1.373 3.043z"/>
    <path fill="#3D1600" d="M161.545 172.518c-.539.877-2.034.933-3.337.127-1.296-.796-1.911-2.163-1.372-3.032.539-.881 2.036-.945 3.339-.142 1.297.804 1.914 2.173 1.37 3.047z"/>
    <path fill="#3D1600" d="M164.821 174.536c-.543.875-2.038.933-3.334.132-1.299-.795-1.917-2.162-1.374-3.037.541-.874 2.038-.932 3.335-.138 1.3.805 1.913 2.169 1.373 3.043z"/>
    <path fill="#2D1302" d="M164.107 176.38c-.485 1.388-2.804 1.843-5.16 1.021-2.383-.825-3.904-2.613-3.424-4.003.484-1.388 2.793-1.849 5.159-1.032 2.377.822 3.911 2.621 3.425 4.014z"/>
    <path fill="#3D1900" d="M154.996 168.47c-.541.873-2.039.934-3.336.14-1.3-.806-1.917-2.171-1.374-3.045.539-.877 2.033-.938 3.333-.136 1.297.801 1.914 2.166 1.377 3.041z"/>
    <path fill="#442F20" d="M158.093 170.933c-1.243.787-3.122.053-4.196-1.635-1.076-1.692-.941-3.706.297-4.498 1.246-.784 3.123-.052 4.193 1.638 1.085 1.695.953 3.706-.294 4.495z"/>
    <path fill="#2D1302" d="M154.914 173.796c-1.346.891-3.412.128-4.612-1.687-1.211-1.834-1.1-4.023.241-4.91 1.345-.894 3.413-.142 4.617 1.679 1.211 1.833 1.102 4.031-.246 4.918z"/>
    <path fill="#2D1302" d="M154.516 169.332c-1.225.812-3.346-.234-4.725-2.32-1.385-2.088-1.511-4.444-.286-5.257 1.228-.809 3.344.225 4.723 2.316 1.393 2.095 1.52 4.457.288 5.261z"/>
    <path fill="#381D01" d="M165.053 171.865c-.689 1.126-2.816 1.077-4.731-.105-1.932-1.19-2.921-3.067-2.227-4.188.695-1.124 2.815-1.078 4.735.111 1.919 1.182 2.917 3.062 2.223 4.182z"/>
  </g>
</svg>
