<svg xmlns="http://www.w3.org/2000/svg" width="300" height="300" viewBox="0 0 300 300">
  <path fill="#CCCCCC" d="M125.223 237.5c0 5.738-4.923 10.5-10.995 10.5H24.976c-6.072 0-10.995-4.762-10.995-10.5S18.903 227 24.976 227h89.252c6.072 0 10.995 4.762 10.995 10.5z"/>
  <path fill="#333333" d="M122 216.872c0 11.356-5.032 21.128-12.979 21.128H32.769C24.822 238 18 228.229 18 216.872V68.795C18 57.437 24.822 49 32.769 49h76.252C116.968 49 122 57.437 122 68.795v148.077z"/>
  <path fill="#4D4D4D" d="M118 215.242c0 11.083-5.178 20.758-12.435 20.758H35.928C28.671 236 21 226.325 21 215.242V70.754C21 59.671 28.671 51 35.928 51h69.637C112.822 51 118 59.671 118 70.754v144.488z"/>
  <path fill="#1A1A1A" d="M110.207 171.488c0 22.512-18.252 40.762-40.761 40.762-22.517 0-40.767-18.25-40.767-40.762 0-22.513 18.25-40.761 40.767-40.761 22.509.001 40.761 18.249 40.761 40.761z"/>
  <path fill="#999999" d="M105.729 171.641c0 20.039-16.246 36.285-36.285 36.285-20.043 0-36.29-16.246-36.29-36.285 0-20.043 16.247-36.287 36.29-36.287 20.039 0 36.285 16.244 36.285 36.287z"/>
  <circle fill="#333333" cx="69.442" cy="171.357" r="22.821"/>
  <path fill="#1A1A1A" d="M83.185 171.355c0 7.59-6.153 13.742-13.741 13.742-7.591 0-13.742-6.152-13.742-13.742 0-7.586 6.151-13.736 13.742-13.736 7.587 0 13.741 6.152 13.741 13.736z"/>
  <path d="M80.608 171.398c0 6.144-4.982 11.121-11.125 11.121-6.145 0-11.124-4.979-11.124-11.121 0-6.146 4.979-11.125 11.124-11.125 6.143 0 11.125 4.981 11.125 11.125z"/>
  <path fill="#CCCCCC" d="M70.792 163.189s.188-.078.531-.125c.344-.056.854-.039 1.438.125.301.065.598.207.92.351.306.165.631.353.923.591.318.221.591.494.874.775.286.279.513.602.776.908l.706.957c.24.315.413.652.581.983.32.67.41 1.356.493 1.938.1 1.179-.132 2.007-.132 2.007l-.193.051s-.638-.601-1.192-1.55a8.053 8.053 0 0 1-.458-.752c-.145-.272-.279-.563-.423-.854-.242-.611-.417-1.297-.729-1.922-.173-.293-.321-.617-.515-.89-.196-.271-.368-.563-.585-.794-.196-.26-.427-.454-.64-.661-.226-.179-.442-.366-.67-.479a3.326 3.326 0 0 0-1.175-.433c-.308-.051-.483-.034-.483-.034l-.047-.192z"/>
  <g>
    <path fill="#1A1A1A" d="M101.055 89.658c0 17.579-14.252 31.832-31.831 31.832-17.584 0-31.834-14.253-31.834-31.832 0-17.582 14.25-31.832 31.834-31.832 17.578 0 31.831 14.25 31.831 31.832z"/>
    <circle fill="#999999" cx="69.221" cy="89.776" r="28.338"/>
    <circle fill="#333333" cx="69.222" cy="89.556" r="17.822"/>
    <circle cx="69.255" cy="89.587" r="8.687"/>
    <circle fill="#1A1A1A" cx="69.223" cy="89.554" r="10.731"/>
    <path fill="#CCCCCC" d="M70.271 83.155s.148-.068.419-.115c.273-.054.68-.052 1.152.064.243.046.484.151.746.259.249.124.513.269.752.454.26.17.483.382.714.604.233.219.419.47.635.711.376.502.825.984 1.065 1.518.254.533.304 1.083.342 1.551.028.945-.248 1.617-.248 1.617l-.193.051s-.594-.443-1.076-1.16c-.284-.339-.512-.771-.731-1.218-.183-.469-.28-1.011-.508-1.498-.125-.227-.231-.481-.374-.692-.143-.21-.267-.441-.426-.622-.143-.205-.313-.358-.468-.524-.166-.143-.326-.295-.496-.389a2.573 2.573 0 0 0-.889-.371c-.237-.05-.373-.044-.373-.044l-.043-.196z"/>
  </g>
  <g fill="none" stroke="#E6E6E6" stroke-width=".75" stroke-linecap="round" stroke-linejoin="round" stroke-miterlimit="10">
    <path d="M74.666 225.432l-4.575 1.339M74.611 227.169c-.257.679-.79 1.222-1.502 1.429-1.264.37-2.615-.447-3.018-1.826-.404-1.381.293-2.797 1.557-3.168 1.264-.369 2.615.448 3.018 1.828M68.416 225.416l-4.566 1.37M68.372 227.152c-.252.683-.781 1.227-1.491 1.439-1.261.379-2.619-.431-3.031-1.807-.413-1.376.274-2.799 1.536-3.178 1.261-.377 2.617.432 3.031 1.808"/>
    <ellipse cx="78.901" cy="226.102" rx="2.387" ry="2.601"/>
    <path d="M76.514 223.801v6.726M57.596 226.049c0-1.438.969-2.604 2.163-2.604s2.162 1.166 2.162 2.604v2.299M57.596 228.348v-6.726"/>
  </g>
  <path fill="#CCCCCC" d="M286.02 226c0 4.05-5.699 7-12.727 7H169.984c-7.027 0-12.726-2.95-12.726-7 0-4.049 5.697-7 12.726-7h103.309c7.027 0 12.727 2.951 12.727 7z"/>
  <g>
    <path fill="#333333" d="M168.777 219.051L163.863 237h-15.695c-1.198 0-2.168-.527-2.168-1.09v-16.233c0-.563.97-.677 2.168-.677h19.512c.5 0 .853-.082 1.097.051z"/>
    <path fill="#1A1A1A" d="M254 235.91l3-3.54v-16.153l-6.561 1.222M257.245 204.051L262.159 222h15.696c1.196 0 2.145-.195 2.145-.759v-16.234c0-.563-.947-1.007-2.145-1.007h-19.512c-.499 0-.854-.082-1.098.051z"/>
    <path fill="#333333" d="M230.352 219.051L235.266 237h15.696c1.197 0 3.038-.527 3.038-1.09V217.5c-.334-1.088-1.841 1.5-3.038 1.5H231.45c-.5 0-.854-.082-1.098.051z"/>
    <path fill="#666666" d="M282 112.237v88.833c0 2.787-1.453 5.099-3.924 5.343l-24.41 12.176c.867-.979-4.041-91.589-4.041-91.589 0-2.959-.521-6-.521-6l29.498-13.428c2.127.391 3.398 2.073 3.398 4.665z"/>
    <path fill="#333333" d="M278.441 107.506l-29.337 14.077-103.345.479.784-.657 25.781-11.736 5.451-2.384z"/>
    <path fill="#4D4D4D" d="M255 125.684v88.833c0 1.627-.547 3.15-1.414 4.129a3.966 3.966 0 0 1-3.003 1.354H149.072c-2.75 0-5.072-2.537-5.072-5.481v-88.834c0-2.029 1.07-3.467 2.769-4.212.794-.354 1.437-.472 2.303-.472h101.511c2.751-.001 4.417 1.723 4.417 4.683z"/>
    <path fill="#1A1A1A" d="M241.078 170.189c0 22.469-18.219 40.684-40.684 40.684-22.477 0-40.69-18.215-40.69-40.684 0-22.472 18.215-40.686 40.69-40.686 22.465.002 40.684 18.216 40.684 40.686z"/>
    <path fill="#999999" d="M236.609 170.341c0 20.001-16.217 36.216-36.217 36.216-20.007 0-36.222-16.215-36.222-36.216 0-20.004 16.215-36.218 36.222-36.218 20.003 0 36.217 16.213 36.217 36.218z"/>
    <path fill="#333333" d="M232.967 170.605c0 17.688-14.339 32.026-32.025 32.026-17.691 0-32.031-14.339-32.031-32.026 0-17.687 14.34-32.026 32.031-32.026 17.686.001 32.025 14.341 32.025 32.026z"/>
    <path fill="#1A1A1A" d="M216.552 170.872c0 8.701-7.054 15.753-15.752 15.753-8.7 0-15.754-7.052-15.754-15.753 0-8.696 7.054-15.749 15.754-15.749 8.698 0 15.752 7.053 15.752 15.749z"/>
    <path d="M213.6 170.92c0 7.042-5.711 12.749-12.754 12.749-7.045 0-12.752-5.707-12.752-12.749 0-7.045 5.707-12.754 12.752-12.754 7.043 0 12.754 5.709 12.754 12.754z"/>
  </g>
</svg>
